<svg width="46" height="46" viewBox="0 0 46 46" fill="none" xmlns="http://www.w3.org/2000/svg">
<path fill-rule="evenodd" clip-rule="evenodd" d="M43.5087 12.8417L24.342 32.0084C23.9587 32.3917 23.5753 32.5834 23.0003 32.5834H15.3337C14.1837 32.5834 13.417 31.8167 13.417 30.6667V23C13.417 22.425 13.6087 22.0417 13.992 21.6584L33.1587 2.49171C33.9253 1.72504 35.0753 1.72504 35.842 2.49171L43.5087 10.1584C44.2753 10.925 44.2753 12.075 43.5087 12.8417ZM40.2503 28.175V38.3333C40.2503 41.5917 37.7587 44.0833 34.5003 44.0833H7.66699C4.40866 44.0833 1.91699 41.5917 1.91699 38.3333V11.5C1.91699 8.24166 4.40866 5.75 7.66699 5.75H17.8253C18.9753 5.75 19.742 6.51666 19.742 7.66666C19.742 8.81666 18.9753 9.58333 17.8253 9.58333H7.66699C6.51699 9.58333 5.75033 10.35 5.75033 11.5V38.3333C5.75033 39.4833 6.51699 40.25 7.66699 40.25H34.5003C35.6503 40.25 36.417 39.4833 36.417 38.3333V28.175C36.417 27.025 37.1837 26.2583 38.3337 26.2583C39.4837 26.2583 40.2503 27.025 40.2503 28.175ZM34.5003 6.51657L39.4837 11.4999L22.2337 28.7499H17.2503V23.7666L34.5003 6.51657Z" fill="#F37626"/>
<mask id="mask0" mask-type="alpha" maskUnits="userSpaceOnUse" x="1" y="1" width="44" height="44">
<path fill-rule="evenodd" clip-rule="evenodd" d="M43.5087 12.8417L24.342 32.0084C23.9587 32.3917 23.5753 32.5834 23.0003 32.5834H15.3337C14.1837 32.5834 13.417 31.8167 13.417 30.6667V23C13.417 22.425 13.6087 22.0417 13.992 21.6584L33.1587 2.49171C33.9253 1.72504 35.0753 1.72504 35.842 2.49171L43.5087 10.1584C44.2753 10.925 44.2753 12.075 43.5087 12.8417ZM40.2503 28.175V38.3333C40.2503 41.5917 37.7587 44.0833 34.5003 44.0833H7.66699C4.40866 44.0833 1.91699 41.5917 1.91699 38.3333V11.5C1.91699 8.24166 4.40866 5.75 7.66699 5.75H17.8253C18.9753 5.75 19.742 6.51666 19.742 7.66666C19.742 8.81666 18.9753 9.58333 17.8253 9.58333H7.66699C6.51699 9.58333 5.75033 10.35 5.75033 11.5V38.3333C5.75033 39.4833 6.51699 40.25 7.66699 40.25H34.5003C35.6503 40.25 36.417 39.4833 36.417 38.3333V28.175C36.417 27.025 37.1837 26.2583 38.3337 26.2583C39.4837 26.2583 40.2503 27.025 40.2503 28.175ZM34.5003 6.51657L39.4837 11.4999L22.2337 28.7499H17.2503V23.7666L34.5003 6.51657Z" fill="white"/>
</mask>
<g mask="url(#mask0)">
<rect width="46" height="46" fill="#F37626"/>
</g>
</svg>
