<svg width="46" height="46" viewBox="0 0 46 46" fill="none" xmlns="http://www.w3.org/2000/svg">
<path d="M26.8337 3.83333H11.5003C10.4837 3.83333 9.50864 4.2372 8.78975 4.95609C8.07086 5.67497 7.66699 6.65 7.66699 7.66666V38.3333C7.66699 39.35 8.07086 40.325 8.78975 41.0439C9.50864 41.7628 10.4837 42.1667 11.5003 42.1667H34.5003C35.517 42.1667 36.492 41.7628 37.2109 41.0439C37.9298 40.325 38.3337 39.35 38.3337 38.3333V15.3333L26.8337 3.83333Z" stroke="#F37626" stroke-width="3" stroke-linecap="round" stroke-linejoin="round"/>
<path d="M26.833 3.83333V15.3333H38.333" stroke="#F37626" stroke-width="3" stroke-linecap="round" stroke-linejoin="round"/>
<path d="M30.6663 24.9167H15.333" stroke="#F37626" stroke-width="3" stroke-linecap="round" stroke-linejoin="round"/>
<path d="M30.6663 32.5833H15.333" stroke="#F37626" stroke-width="3" stroke-linecap="round" stroke-linejoin="round"/>
<path d="M19.1663 17.25H17.2497H15.333" stroke="#F37626" stroke-width="3" stroke-linecap="round" stroke-linejoin="round"/>
</svg>
