<?xml version="1.0" encoding="utf-8"?>
<!-- Generator: Adobe Illustrator 16.0.0, SVG Export Plug-In . SVG Version: 6.00 Build 0)  -->
<!DOCTYPE svg PUBLIC "-//W3C//DTD SVG 1.1//EN" "http://www.w3.org/Graphics/SVG/1.1/DTD/svg11.dtd">
<svg version="1.1" id="Layer_1" xmlns="http://www.w3.org/2000/svg" xmlns:xlink="http://www.w3.org/1999/xlink" x="0px" y="0px"
	 width="800px" height="800px" viewBox="0 0 800 800" enable-background="new 0 0 800 800" xml:space="preserve">
<g>
	<path fill="#045F9B" d="M345.209,249.977c46.322,1.64,91.478,15.802,137.44,20.185c33.676,3.211,66.248,2.297,98.27-2.921
		c-34.329-22.571-97.581-51.662-195.614-51.662c0,0-74.955-2.098-145.611,36.661C274.691,248.941,310.423,248.745,345.209,249.977z"
		/>
	<path fill="#0A3656" d="M394.486,378.616c75.938-2.548,149.859-11.444,224.211-27.579c10.16-2.204,20.206-4.69,30.183-7.375
		c-8.814-16.48-20.579-33.406-36.062-50.427c0,0-10.143-11.689-31.899-25.996c-32.021,5.219-64.594,6.133-98.27,2.921
		c-45.963-4.383-91.118-18.545-137.44-20.185c-34.786-1.231-70.518-1.036-105.516,2.262
		c-37.943,20.815-74.647,53.411-97.835,104.452C223.277,379.157,311.301,381.408,394.486,378.616z"/>
	<path fill="#0A3656" d="M650.161,496.888c-49.501-1.938-97.978-6.155-146.913-13.065c-28.674-4.049-57.123-4.055-86.049-4.055
		c-30.51,0-61.353-1.066-91.457,4.608c-64.574,12.174-127.683,30.286-187.346,57.923c15.101,17.363,40.884,31.84,84.919,31.84
		c0,0,63.704,4.854,125.587-10.92c0,0,78.873-20.021,144.396-9.708c0,0,122.554,33.976,160.169-36.401c0,0,4.183-7.279,8.622-20.035
		C658.104,497.098,654.124,497.043,650.161,496.888z"/>
	<path fill="#045F9B" d="M648.88,343.663c-9.977,2.684-20.022,5.17-30.183,7.375c-74.352,16.135-148.273,25.031-224.211,27.579
		c-83.186,2.792-171.209,0.541-252.628-21.926c-15.3,33.683-24.715,75.394-24.715,127.05c0,0-1.386,32.527,21.253,58.559
		c59.663-27.637,122.771-45.749,187.346-57.923c30.104-5.675,60.947-4.608,91.457-4.608c28.926,0,57.375,0.006,86.049,4.055
		c48.936,6.91,97.412,11.128,146.913,13.065c3.963,0.155,7.942,0.21,11.929,0.187C672.323,467.678,683.929,409.19,648.88,343.663z"
		/>
</g>
<circle fill="#B4DEF6" cx="401.602" cy="407.746" r="111.791"/>
<circle fill="#FBD5C9" cx="382.969" cy="408.523" r="111.792"/>
<circle fill="none" stroke="#F16624" stroke-width="7.7633" stroke-linecap="round" stroke-linejoin="round" stroke-miterlimit="10" cx="401.86" cy="407.746" r="111.792"/>
<g>
	
		<path fill="none" stroke="#F16624" stroke-width="2.329" stroke-linecap="round" stroke-linejoin="round" stroke-miterlimit="10" d="
		M291.078,410.084c8.478-3.635,17.751-5.676,26.353-7.945c22.219-5.858,43.188-12.748,65.385-17.873
		c15.392-3.552,31.225-5.834,46.446-10.487c21.029-6.429,40.302-16.717,59.189-27.84c1.649-0.971,3.297-1.969,4.938-2.989"/>
	
		<path fill="none" stroke="#F16624" stroke-width="2.329" stroke-linecap="round" stroke-linejoin="round" stroke-miterlimit="10" d="
		M481.378,328.967c-6.183,4.368-12.343,8.722-18.561,12.791c-28.991,18.976-62.776,25.394-95.643,31.787
		c-24.321,4.731-49.468,4.76-73.232,9.642"/>
	
		<path fill="none" stroke="#F16624" stroke-width="2.329" stroke-linecap="round" stroke-linejoin="round" stroke-miterlimit="10" d="
		M299.668,451.609c27.308-17.982,57.895-32.206,88.995-40.564c31.434-8.447,62.927-20.827,94.945-27.365
		c8.982-1.834,17.751-4.223,26.395-7.097"/>
	
		<path fill="none" stroke="#F16624" stroke-width="2.329" stroke-linecap="round" stroke-linejoin="round" stroke-miterlimit="10" d="
		M493.39,342.95c-1.642,1.02-3.289,2.018-4.938,2.989c-18.888,11.124-38.16,21.412-59.189,27.84
		c-15.222,4.653-31.055,6.935-46.446,10.487c-22.196,5.125-43.166,12.015-65.385,17.873c-8.602,2.27-17.875,4.311-26.353,7.945"/>
	
		<path fill="none" stroke="#F16624" stroke-width="2.329" stroke-linecap="round" stroke-linejoin="round" stroke-miterlimit="10" d="
		M327.831,491.402c1.923-1.51,3.842-3.047,5.753-4.643c24.204-20.226,43.518-46.365,73.164-60.402
		c27.895-13.207,58.925-17.903,89.305-20.979c6.078-0.616,12.281-1.376,18.451-2.409"/>
	
		<path fill="none" stroke="#F16624" stroke-width="2.329" stroke-linecap="round" stroke-linejoin="round" stroke-miterlimit="10" d="
		M510.003,376.583c-8.644,2.874-17.412,5.263-26.395,7.097c-32.019,6.538-63.512,18.917-94.945,27.365
		c-31.101,8.358-61.688,22.582-88.995,40.564"/>
	
		<path fill="none" stroke="#F16624" stroke-width="2.329" stroke-linecap="round" stroke-linejoin="round" stroke-miterlimit="10" d="
		M297.781,370.256c6.357-0.828,12.736-1.687,18.896-3.052c28.534-6.32,53.651-20.184,80.09-32.435
		c19.243-8.917,38.22-18.975,58.582-24.96"/>
	
		<path fill="none" stroke="#F16624" stroke-width="2.329" stroke-linecap="round" stroke-linejoin="round" stroke-miterlimit="10" d="
		M440.785,303.338c-15.162,2.99-30.204,6.377-44.922,11.271c-13.186,4.384-26.294,8.632-38.039,16.086
		c-10.716,6.8-20.516,14.574-31.287,20.963c-8.74,5.187-17.55,11.083-27.13,14.419"/>
	
		<path fill="none" stroke="#F16624" stroke-width="2.329" stroke-linecap="round" stroke-linejoin="round" stroke-miterlimit="10" d="
		M293.942,383.188c23.765-4.882,48.911-4.911,73.232-9.642c32.866-6.393,66.651-12.812,95.643-31.787
		c6.218-4.069,12.378-8.423,18.561-12.791"/>
	
		<path fill="none" stroke="#F16624" stroke-width="2.329" stroke-linecap="round" stroke-linejoin="round" stroke-miterlimit="10" d="
		M455.35,309.809c-20.362,5.986-39.339,16.043-58.582,24.96c-26.438,12.251-51.556,26.115-80.09,32.435
		c-6.16,1.365-12.539,2.224-18.896,3.052"/>
	
		<path fill="none" stroke="#F16624" stroke-width="2.329" stroke-linecap="round" stroke-linejoin="round" stroke-miterlimit="10" d="
		M299.407,366.078c9.58-3.337,18.39-9.232,27.13-14.419c10.771-6.389,20.571-14.163,31.287-20.963
		c11.745-7.454,24.854-11.702,38.039-16.086c14.718-4.894,29.76-8.281,44.922-11.271"/>
	
		<path fill="none" stroke="#F16624" stroke-width="2.329" stroke-linecap="round" stroke-linejoin="round" stroke-miterlimit="10" d="
		M489.606,479.02c-20.764,5.996-42.078,8.767-64.435,11.813c-15.963,2.175-33.416,7.957-47.94,14.844
		c-4.466,2.117-8.825,4.792-12.957,7.803"/>
	
		<path fill="none" stroke="#F16624" stroke-width="2.329" stroke-linecap="round" stroke-linejoin="round" stroke-miterlimit="10" d="
		M406.596,520.246c6.522-6.553,14.422-11.912,25.798-15.305c11.103-3.313,22.204-3.186,33.501-4.094"/>
	
		<path fill="none" stroke="#F16624" stroke-width="2.329" stroke-linecap="round" stroke-linejoin="round" stroke-miterlimit="10" d="
		M514.096,419.598c-1.767,0.202-3.527,0.393-5.275,0.57c-30.381,3.076-45.805-9.316-86.563,9.704
		c-16.284,7.599-47.605,46.539-71.811,66.765c-2.557,2.137-5.181,4.148-7.855,6.063 M364.274,513.479
		c4.132-3.011,8.491-5.686,12.957-7.803c14.524-6.887,31.978-12.669,47.94-14.844c22.356-3.046,43.671-5.816,64.435-11.813
		 M495.516,447.682c-22.093,33.03-62.709,28.129-62.709,28.129c-22.054-3.289-55.027,5.496-55.027,5.496
		c17.738-8.104,31.895-27.371,47.659-40.268c19.203-15.713,37.459-15.389,58.068-12.203c0,0,18.347,5.691,29.25-0.214
		C507.82,431.619,495.516,447.682,495.516,447.682z"/>
	
		<path fill="none" stroke="#F16624" stroke-width="2.329" stroke-linecap="round" stroke-linejoin="round" stroke-miterlimit="10" d="
		M465.895,500.848c-11.297,0.908-22.398,0.781-33.501,4.094c-11.376,3.393-19.275,8.752-25.798,15.305"/>
	
		<path fill="none" stroke="#F16624" stroke-width="2.329" stroke-linecap="round" stroke-linejoin="round" stroke-miterlimit="10" d="
		M342.592,502.7c2.675-1.915,5.299-3.927,7.855-6.063c24.205-20.226,55.526-59.166,71.811-66.765
		c40.758-19.021,56.182-6.628,86.563-9.704c1.748-0.178,3.509-0.368,5.275-0.57"/>
	
		<path fill="none" stroke="#F16624" stroke-width="2.329" stroke-linecap="round" stroke-linejoin="round" stroke-miterlimit="10" d="
		M514.504,402.969c-6.17,1.033-12.373,1.793-18.451,2.409c-30.38,3.076-61.41,7.772-89.305,20.979
		c-29.646,14.037-48.96,40.177-73.164,60.402c-1.911,1.596-3.83,3.133-5.753,4.643"/>
	
		<path fill="none" stroke="#F16624" stroke-width="2.329" stroke-linecap="round" stroke-linejoin="round" stroke-miterlimit="10" d="
		M483.507,428.836c-20.609-3.186-38.865-3.51-58.068,12.203c-15.765,12.896-29.921,32.163-47.659,40.268
		c0,0,32.974-8.785,55.027-5.496c0,0,40.616,4.901,62.709-28.129c0,0,12.305-16.063,17.241-19.06
		C501.854,434.527,483.507,428.836,483.507,428.836z M482.639,447.783c-13.271,18.944-36.964,15.315-36.964,15.315
		c-12.858-2.337-32.231,2.196-32.231,2.196c10.457-4.418,18.941-15.445,28.297-22.71c11.397-8.851,22.067-8.321,34.082-6.071
		c0,0,10.665,3.678,17.105,0.419C490.008,438.598,482.639,447.783,482.639,447.783z"/>
	
		<path fill="none" stroke="#F16624" stroke-width="2.329" stroke-linecap="round" stroke-linejoin="round" stroke-miterlimit="10" d="
		M475.822,436.514c-12.015-2.25-22.685-2.779-34.082,6.071c-9.355,7.265-17.84,18.292-28.297,22.71c0,0,19.373-4.533,32.231-2.196
		c0,0,23.692,3.629,36.964-15.315c0,0,7.369-9.186,10.289-10.851C486.487,440.191,475.822,436.514,475.822,436.514z"/>
</g>
<circle fill="none" stroke="#F16624" stroke-width="7.7633" stroke-linecap="round" stroke-linejoin="round" stroke-miterlimit="10" cx="265.034" cy="464.629" r="10.48"/>
<circle fill="none" stroke="#F16624" stroke-width="7.7633" stroke-linecap="round" stroke-linejoin="round" stroke-miterlimit="10" cx="548.008" cy="433.188" r="6.986"/>
<circle fill="#B4DEF6" stroke="#F16523" stroke-width="7.7633" stroke-miterlimit="10" cx="513.073" cy="370.305" r="20.96"/>
<circle fill="#F16824" cx="282.502" cy="356.332" r="6.987"/>
<circle fill="#FFFFFF" cx="420.186" cy="251.036" r="2.717"/>
<circle fill="#FFFFFF" cx="181.463" cy="364.768" r="2.716"/>
<path fill="#FFFFFF" stroke="#F16624" stroke-width="3.2838" stroke-linecap="round" stroke-linejoin="round" stroke-miterlimit="10" d="
	M220.397,413.59c0,4.314-3.495,7.811-7.813,7.811c-4.314,0-7.809-3.496-7.809-7.811c0-4.315,3.494-7.813,7.809-7.813
	C216.902,405.777,220.397,409.274,220.397,413.59z"/>
<path fill="#FFFFFF" stroke="#F16624" stroke-width="1.0946" stroke-linecap="round" stroke-linejoin="round" stroke-miterlimit="10" d="
	M637.809,399.726c0,9.958-8.067,18.025-18.032,18.025c-9.958,0-18.021-8.067-18.021-18.025c0-9.958,8.063-18.031,18.021-18.031
	C629.741,381.695,637.809,389.767,637.809,399.726z"/>
<circle fill="#FFFFFF" cx="543.234" cy="488.98" r="2.717"/>
<circle fill="#045F9B" cx="520.721" cy="325.175" r="2.717"/>
<circle fill="#FFFFFF" cx="531.978" cy="273.161" r="12.737"/>
<circle fill="#FFFFFF" cx="267.637" cy="270.832" r="4.197"/>
<circle fill="#B4DEF6" cx="256.768" cy="320.517" r="7.345"/>
<circle fill="#FFFFFF" cx="165.938" cy="468.797" r="2.717"/>
<circle fill="#045F9B" cx="249.393" cy="520.811" r="7.132"/>
</svg>
