<svg width="46" height="46" viewBox="0 0 46 46" fill="none" xmlns="http://www.w3.org/2000/svg">
<path fill-rule="evenodd" clip-rule="evenodd" d="M23.0003 1.91672C11.3087 1.91672 1.91699 11.3084 1.91699 23C1.91699 34.6917 11.3087 44.0834 23.0003 44.0834C34.692 44.0834 44.0837 34.6917 44.0837 23C44.0837 11.3084 34.692 1.91672 23.0003 1.91672ZM40.0586 21.0832H32.3919C32.0086 15.7165 30.2836 10.7332 27.2169 6.32487C34.1169 8.04987 39.2919 13.9915 40.0586 21.0832ZM28.7503 24.9167H17.442C17.8253 30.0917 19.742 35.0751 23.192 39.1001C26.2586 35.0751 28.1753 30.0917 28.7503 24.9167ZM17.442 21.0835C18.017 15.9085 19.9336 10.9251 23.0003 6.90014C26.2586 11.1168 28.1753 16.1001 28.5586 21.0835H17.442ZM13.6086 21.0832C13.992 15.7165 15.717 10.7332 18.592 6.32487C11.8836 8.04987 6.70862 13.9915 5.94196 21.0832H13.6086ZM5.94196 24.9167H13.6086C13.992 30.2834 15.717 35.2667 18.7836 39.675C11.8836 37.9501 6.70863 32.0084 5.94196 24.9167ZM32.5837 24.9167C32.0087 30.2834 30.2837 35.2667 27.4087 39.675C34.117 37.9501 39.292 32.0084 40.2504 24.9167H32.5837Z" fill="#F37626"/>
<mask id="mask0" mask-type="alpha" maskUnits="userSpaceOnUse" x="1" y="1" width="44" height="44">
<path fill-rule="evenodd" clip-rule="evenodd" d="M23.0003 1.91672C11.3087 1.91672 1.91699 11.3084 1.91699 23C1.91699 34.6917 11.3087 44.0834 23.0003 44.0834C34.692 44.0834 44.0837 34.6917 44.0837 23C44.0837 11.3084 34.692 1.91672 23.0003 1.91672ZM40.0586 21.0832H32.3919C32.0086 15.7165 30.2836 10.7332 27.2169 6.32487C34.1169 8.04987 39.2919 13.9915 40.0586 21.0832ZM28.7503 24.9167H17.442C17.8253 30.0917 19.742 35.0751 23.192 39.1001C26.2586 35.0751 28.1753 30.0917 28.7503 24.9167ZM17.442 21.0835C18.017 15.9085 19.9336 10.9251 23.0003 6.90014C26.2586 11.1168 28.1753 16.1001 28.5586 21.0835H17.442ZM13.6086 21.0832C13.992 15.7165 15.717 10.7332 18.592 6.32487C11.8836 8.04987 6.70862 13.9915 5.94196 21.0832H13.6086ZM5.94196 24.9167H13.6086C13.992 30.2834 15.717 35.2667 18.7836 39.675C11.8836 37.9501 6.70863 32.0084 5.94196 24.9167ZM32.5837 24.9167C32.0087 30.2834 30.2837 35.2667 27.4087 39.675C34.117 37.9501 39.292 32.0084 40.2504 24.9167H32.5837Z" fill="white"/>
</mask>
<g mask="url(#mask0)">
<rect width="46" height="46" fill="#F37626"/>
</g>
</svg>
