<?xml version="1.0" encoding="utf-8"?>
<!-- Generator: Adobe Illustrator 16.0.0, SVG Export Plug-In . SVG Version: 6.00 Build 0)  -->
<!DOCTYPE svg PUBLIC "-//W3C//DTD SVG 1.1//EN" "http://www.w3.org/Graphics/SVG/1.1/DTD/svg11.dtd">
<svg version="1.1" id="Layer_1" xmlns="http://www.w3.org/2000/svg" xmlns:xlink="http://www.w3.org/1999/xlink" x="0px" y="0px"
	 width="800px" height="800px" viewBox="0 0 800 800" enable-background="new 0 0 800 800" xml:space="preserve">
<g>
	<path fill="#045F9B" d="M457.965,353.001c-91.297-34.556-184.072-85.567-282.568-95.625c-0.588-0.06-1.187-0.105-1.777-0.163
		c-18.242,17.832-34.497,39.901-46.908,67.218c-15.405,33.918-24.887,75.921-24.887,127.937c0,0-1.396,32.754,21.4,58.969
		c15.206,17.482,41.17,32.063,85.51,32.063c0,0,64.15,4.887,126.465-10.998c0,0,79.428-20.16,145.407-9.775
		c0,0,123.41,34.215,161.289-36.656c0,0,4.211-7.33,8.682-20.174c4.928-14.152,10.164-35.002,10.438-60.117
		c-5.077-0.729-10.073-1.479-14.963-2.23C582.323,393.668,518.823,376.036,457.965,353.001z"/>
	<path fill="#0A3656" d="M637.276,311.313c-8.879-16.595-20.725-33.639-36.316-50.779c0,0-10.21-11.771-32.121-26.177
		c-34.569-22.729-98.262-52.023-196.98-52.023c0,0-75.479-2.112-146.629,36.917c-17.9,9.821-35.528,22.245-51.61,37.963
		c0.591,0.058,1.189,0.104,1.777,0.163c98.496,10.057,191.271,61.069,282.568,95.625c60.858,23.034,124.358,40.667,188.088,50.448
		c4.89,0.751,9.886,1.502,14.963,2.23C661.314,378.259,655.696,345.753,637.276,311.313z"/>
</g>
<path fill="none" stroke="#B4DEF6" stroke-width="2" stroke-linecap="round" stroke-linejoin="round" stroke-miterlimit="10" d="
	M106.228,360.963c113.479-7.575,226.188,16.831,336.536,40.078c85.054,17.918,169.88,34.506,254.349,52.5"/>
<path fill="none" stroke="#045F9B" stroke-width="1.8268" stroke-linecap="round" stroke-linejoin="round" stroke-miterlimit="10" d="
	M626.184,242.065c-60.929-0.738-121.846,10.956-182.499,7.149c-65.439-4.107-129.938-6.706-194.815-17.126
	c-23.114-3.713-48-8.272-71.934-16.047"/>
<path fill="#626463" d="M402.684,509.114l5.882,60.585c9.791,0.9,19.527,2.359,29.269,4.305l-26.378-155.249L402.684,509.114z"/>
<rect x="173.185" y="437.273" transform="matrix(0.9319 -0.3627 0.3627 0.9319 -154.3624 97.3936)" fill="#9D9E9F" stroke="#0A3656" stroke-width="5" stroke-miterlimit="10" width="17.998" height="45"/>
<polygon fill="#9D9E9F" stroke="#0A3656" stroke-width="5" stroke-miterlimit="10" points="216.911,499.375 191.749,509.168 
	165.182,490.533 207.118,474.213 "/>
<rect x="211.709" y="467.663" transform="matrix(0.9319 -0.3627 0.3627 0.9319 -161.2282 111.4376)" fill="#9D9E9F" stroke="#0A3656" stroke-width="5" stroke-miterlimit="10" width="8.999" height="34.999"/>
<rect x="219.483" y="456.135" transform="matrix(0.9319 -0.3627 0.3627 0.9319 -157.7262 117.0845)" fill="#9D9E9F" stroke="#0A3656" stroke-width="5" stroke-miterlimit="10" width="26.999" height="44.999"/>
<polygon fill="#9D9E9F" stroke="#0A3656" stroke-width="5" stroke-miterlimit="10" points="595.743,380.918 575.703,379.059 
	552.854,320.348 566.366,305.433 "/>
<rect x="577.378" y="283.091" transform="matrix(0.9319 -0.3627 0.3627 0.9319 -74.3716 251.0177)" fill="#9D9E9F" stroke="#0A3656" stroke-width="5" stroke-miterlimit="10" width="108" height="81"/>
<rect x="573.163" y="290.907" transform="matrix(0.9317 -0.3631 0.3631 0.9317 -66.1161 246.0778)" fill="#FFFFFF" width="96.682" height="15.999"/>
<rect x="593.163" y="340.907" transform="matrix(0.9317 -0.3631 0.3631 0.9317 -82.9066 256.7528)" fill="#777778" width="96.682" height="15.999"/>
<rect x="220.223" y="461.642" transform="matrix(0.9317 -0.3632 0.3632 0.9317 -153.9461 114.8593)" fill="#FFFFFF" width="16.565" height="10.441"/>
<rect x="229.234" y="484.042" transform="matrix(0.9317 -0.3632 0.3632 0.9317 -161.4662 119.6615)" fill="#777778" width="16.565" height="10.443"/>
<rect x="181.096" y="440.667" transform="matrix(0.9316 -0.3636 0.3636 0.9316 -154.0817 98.2408)" fill="#FFFFFF" width="5.638" height="35.478"/>
<line fill="#FFFFFF" stroke="#0A3656" stroke-width="3" stroke-linecap="round" stroke-linejoin="round" stroke-miterlimit="10" x1="172.168" y1="458.844" x2="188.94" y2="452.314"/>
<line fill="#FFFFFF" stroke="#0A3656" stroke-width="3" stroke-linecap="round" stroke-linejoin="round" stroke-miterlimit="10" x1="168.901" y1="450.457" x2="185.677" y2="443.928"/>
<polyline fill="none" stroke="#0A3656" stroke-width="5" stroke-linecap="round" stroke-linejoin="round" stroke-miterlimit="10" points="
	445.182,617.264 410.182,411.264 393.182,411.264 413.182,617.264 "/>
<path fill="none" d="M396.88,568.893c3.905,0.184,7.801,0.449,11.686,0.807l-5.882-60.585L396.88,568.893z"/>
<polygon fill="#9D9E9F" points="412.184,411.264 410.184,411.264 411.456,418.755 "/>
<rect x="233.922" y="380.221" transform="matrix(0.9319 -0.3627 0.3627 0.9319 -121.7521 174.8865)" fill="#9D9E9F" stroke="#0A3656" stroke-width="5" stroke-miterlimit="10" width="342" height="63"/>
<rect x="235.253" y="388.329" transform="matrix(0.9317 -0.3631 0.3631 0.9317 -116.6427 172.1142)" fill="#FFFFFF" width="328.504" height="15.999"/>
<rect x="247.253" y="418.995" transform="matrix(0.9317 -0.3631 0.3631 0.9317 -126.9585 178.5638)" fill="#777778" width="328.504" height="15.999"/>
<path fill="#9D9E9F" d="M410.184,411.264h-17h-4l-26.901,158.332c2.256-0.178,4.507-0.336,6.748-0.479
	c9.385-0.598,18.65-0.652,27.85-0.225l5.804-59.778l8.772-90.359L410.184,411.264z"/>
<polyline fill="none" stroke="#0A3656" stroke-width="5" stroke-linecap="round" stroke-linejoin="round" stroke-miterlimit="10" points="
	354.182,617.264 389.182,411.264 412.182,411.264 392.182,617.264 "/>
<circle fill="#9D9E9F" stroke="#0A3656" stroke-width="5" stroke-miterlimit="10" cx="400.729" cy="413.353" r="13.5"/>
<circle fill="#FFFFFF" cx="544.182" cy="459.264" r="19.63"/>
<circle fill="#FFFFFF" cx="157.182" cy="394.264" r="7.63"/>
<circle fill="#F16824" cx="368.355" cy="494.855" r="3.68"/>
<circle fill="#F16824" cx="501.183" cy="237.264" r="2.761"/>
<circle fill="#FFFFFF" stroke="#F16824" stroke-width="3.2716" stroke-miterlimit="10" cx="244.183" cy="269.265" r="12.36"/>
<circle fill="#FFFFFF" cx="389.438" cy="305.402" r="3.816"/>
<path fill="#FFFFFF" d="M518.566,318.264c0,1.317-1.064,2.386-2.385,2.386c-1.317,0-2.384-1.068-2.384-2.386
	c0-1.318,1.066-2.386,2.384-2.386C517.502,315.878,518.566,316.946,518.566,318.264z"/>
<circle fill="#B4DEF6" cx="329.458" cy="353.931" r="5.726"/>
<path fill="#B4DEF6" d="M430.705,240.443c4.913,13.331-1.911,28.118-15.242,33.026c-13.331,4.913-28.117-1.914-33.029-15.242
	c-4.909-13.333,1.914-28.118,15.245-33.028C411.007,220.286,425.794,227.112,430.705,240.443z"/>
<path fill="#F16523" d="M422.457,229.104c0.338,0.264,0.668,0.538,0.993,0.82c8.802-1.093,15.105-0.06,16.329,3.259
	c1.087,2.947-2.037,7.113-7.928,11.424c-5.537,4.049-13.513,8.223-22.741,11.624c-9.226,3.397-18.005,5.4-24.848,5.908
	c-7.277,0.542-12.356-0.604-13.444-3.551c-1.223-3.319,2.906-8.193,10.313-13.074c0.063-0.425,0.141-0.85,0.224-1.268
	c-17.558,8.875-28.596,18.471-26.507,24.142c2.091,5.671,16.718,5.813,35.836,1.176c6.569-1.591,13.664-3.748,20.966-6.438
	c7.304-2.692,14.102-5.655,20.133-8.705c17.558-8.875,28.597-18.471,26.507-24.14C456.198,224.609,441.578,224.467,422.457,229.104z
	"/>
</svg>
