<svg width="36" height="36" viewBox="0 0 36 36" fill="none" xmlns="http://www.w3.org/2000/svg">
<path fill-rule="evenodd" clip-rule="evenodd" d="M30 1.50003H9.75C6.9 1.50003 4.5 3.90003 4.5 6.75003V29.25C4.5 32.1 6.9 34.5 9.75 34.5H30C30.9 34.5 31.5 33.9 31.5 33V3.00003C31.5 2.10003 30.9 1.50003 30 1.50003ZM9.75 4.50001H28.5V24H9.75C9 24 8.25 24.15 7.5 24.6V6.75001C7.5 5.55001 8.55 4.50001 9.75 4.50001ZM7.5 29.25C7.5 30.45 8.55 31.5 9.75 31.5H28.5V27H9.75C8.55 27 7.5 28.05 7.5 29.25Z" fill="#F37726"/>
<mask id="mask0" mask-type="alpha" maskUnits="userSpaceOnUse" x="4" y="1" width="28" height="34">
<path fill-rule="evenodd" clip-rule="evenodd" d="M30 1.50003H9.75C6.9 1.50003 4.5 3.90003 4.5 6.75003V29.25C4.5 32.1 6.9 34.5 9.75 34.5H30C30.9 34.5 31.5 33.9 31.5 33V3.00003C31.5 2.10003 30.9 1.50003 30 1.50003ZM9.75 4.50001H28.5V24H9.75C9 24 8.25 24.15 7.5 24.6V6.75001C7.5 5.55001 8.55 4.50001 9.75 4.50001ZM7.5 29.25C7.5 30.45 8.55 31.5 9.75 31.5H28.5V27H9.75C8.55 27 7.5 28.05 7.5 29.25Z" fill="white"/>
</mask>
<g mask="url(#mask0)">
<rect width="36" height="36" fill="#F37726"/>
</g>
</svg>
