<svg width="36" height="36" viewBox="0 0 36 36" fill="none" xmlns="http://www.w3.org/2000/svg">
<path fill-rule="evenodd" clip-rule="evenodd" d="M31.35 4.53408C27.3 0.48868 20.55 0.48868 16.5 4.53408L6.45 14.7225C6.15 15.0222 6 15.3218 6 15.7713V27.9075L1.95 31.9529C1.35 32.5522 1.35 33.4512 1.95 34.0505C2.25 34.3502 2.55 34.5 3 34.5C3.45 34.5 3.75 34.3502 4.05 34.0505L8.1 30.0051H20.25C20.7 30.0051 21 29.8553 21.3 29.5556L31.35 19.3672C35.55 15.3218 35.55 8.72932 31.35 4.53408ZM19.65 27.0086H11.1L14.1 24.012H22.65L19.65 27.0086ZM25.65 21.0154L29.25 17.2696C32.25 14.4229 32.25 9.62833 29.4 6.63173C26.4 3.63514 21.75 3.63514 18.75 6.63173L9.00001 16.3707V24.911L12.45 21.4649L22.95 10.9768C23.55 10.3775 24.45 10.3775 25.05 10.9768C25.65 11.5761 25.65 12.4751 25.05 13.0744L17.1 21.0154H25.5H25.65Z" fill="#F37726"/>
<mask id="mask0" mask-type="alpha" maskUnits="userSpaceOnUse" x="1" y="1" width="34" height="34">
<path fill-rule="evenodd" clip-rule="evenodd" d="M31.35 4.53408C27.3 0.48868 20.55 0.48868 16.5 4.53408L6.45 14.7225C6.15 15.0222 6 15.3218 6 15.7713V27.9075L1.95 31.9529C1.35 32.5522 1.35 33.4512 1.95 34.0505C2.25 34.3502 2.55 34.5 3 34.5C3.45 34.5 3.75 34.3502 4.05 34.0505L8.1 30.0051H20.25C20.7 30.0051 21 29.8553 21.3 29.5556L31.35 19.3672C35.55 15.3218 35.55 8.72932 31.35 4.53408ZM19.65 27.0086H11.1L14.1 24.012H22.65L19.65 27.0086ZM25.65 21.0154L29.25 17.2696C32.25 14.4229 32.25 9.62833 29.4 6.63173C26.4 3.63514 21.75 3.63514 18.75 6.63173L9.00001 16.3707V24.911L12.45 21.4649L22.95 10.9768C23.55 10.3775 24.45 10.3775 25.05 10.9768C25.65 11.5761 25.65 12.4751 25.05 13.0744L17.1 21.0154H25.5H25.65Z" fill="white"/>
</mask>
<g mask="url(#mask0)">
<rect width="36" height="36" fill="#F37726"/>
</g>
</svg>
