<svg width="36" height="36" viewBox="0 0 36 36" fill="none" xmlns="http://www.w3.org/2000/svg">
<path fill-rule="evenodd" clip-rule="evenodd" d="M25.8 23.7L32.55 30.45C33.15 31.05 33.15 31.95 32.55 32.55C32.25 32.85 31.8 33 31.5 33C31.2 33 30.75 32.85 30.45 32.55L23.7 25.8C21.45 27.45 18.75 28.5 15.75 28.5C8.7 28.5 3 22.8 3 15.75C3 8.69997 8.7 2.99997 15.75 2.99997C22.8 2.99997 28.5 8.69997 28.5 15.75C28.5 18.75 27.45 21.6 25.8 23.7ZM15.75 5.99995C10.35 5.99995 6 10.35 6 15.75C6 21.15 10.35 25.4999 15.75 25.4999C18.45 25.4999 20.85 24.4499 22.65 22.65C24.45 20.85 25.5 18.45 25.5 15.75C25.5 10.35 21.15 5.99995 15.75 5.99995Z" fill="#F37726"/>
<mask id="mask0" mask-type="alpha" maskUnits="userSpaceOnUse" x="3" y="3" width="30" height="30">
<path fill-rule="evenodd" clip-rule="evenodd" d="M25.8 23.7L32.55 30.45C33.15 31.05 33.15 31.95 32.55 32.55C32.25 32.85 31.8 33 31.5 33C31.2 33 30.75 32.85 30.45 32.55L23.7 25.8C21.45 27.45 18.75 28.5 15.75 28.5C8.7 28.5 3 22.8 3 15.75C3 8.69997 8.7 2.99997 15.75 2.99997C22.8 2.99997 28.5 8.69997 28.5 15.75C28.5 18.75 27.45 21.6 25.8 23.7ZM15.75 5.99995C10.35 5.99995 6 10.35 6 15.75C6 21.15 10.35 25.4999 15.75 25.4999C18.45 25.4999 20.85 24.4499 22.65 22.65C24.45 20.85 25.5 18.45 25.5 15.75C25.5 10.35 21.15 5.99995 15.75 5.99995Z" fill="white"/>
</mask>
<g mask="url(#mask0)">
<rect width="36" height="36" fill="#F37726"/>
</g>
</svg>
