<svg width="36" height="36" viewBox="0 0 36 36" fill="none" xmlns="http://www.w3.org/2000/svg">
<path fill-rule="evenodd" clip-rule="evenodd" d="M30 8.99997H25.5V7.49997C25.5 4.94997 23.55 2.99997 21 2.99997H15C12.45 2.99997 10.5 4.94997 10.5 7.49997V8.99997H6C3.45 8.99997 1.5 10.95 1.5 13.5V28.5C1.5 31.05 3.45 33 6 33H30C32.55 33 34.5 31.05 34.5 28.5V13.5C34.5 10.95 32.55 8.99997 30 8.99997ZM13.5 7.49995C13.5 6.59995 14.1 5.99995 15 5.99995H21C21.9 5.99995 22.5 6.59995 22.5 7.49995V8.99995H13.5V7.49995ZM22.5 30V12H13.5V30H22.5ZM4.50001 28.5V13.5C4.50001 12.6 5.10001 12 6.00001 12H10.5V30H6.00001C5.10001 30 4.50001 29.4 4.50001 28.5ZM30 30C30.9 30 31.5 29.4 31.5 28.5V13.5C31.5 12.6 30.9 12 30 12H25.5V30H30Z" fill="#F37726"/>
<mask id="mask0" mask-type="alpha" maskUnits="userSpaceOnUse" x="1" y="3" width="34" height="30">
<path fill-rule="evenodd" clip-rule="evenodd" d="M30 8.99997H25.5V7.49997C25.5 4.94997 23.55 2.99997 21 2.99997H15C12.45 2.99997 10.5 4.94997 10.5 7.49997V8.99997H6C3.45 8.99997 1.5 10.95 1.5 13.5V28.5C1.5 31.05 3.45 33 6 33H30C32.55 33 34.5 31.05 34.5 28.5V13.5C34.5 10.95 32.55 8.99997 30 8.99997ZM13.5 7.49995C13.5 6.59995 14.1 5.99995 15 5.99995H21C21.9 5.99995 22.5 6.59995 22.5 7.49995V8.99995H13.5V7.49995ZM22.5 30V12H13.5V30H22.5ZM4.50001 28.5V13.5C4.50001 12.6 5.10001 12 6.00001 12H10.5V30H6.00001C5.10001 30 4.50001 29.4 4.50001 28.5ZM30 30C30.9 30 31.5 29.4 31.5 28.5V13.5C31.5 12.6 30.9 12 30 12H25.5V30H30Z" fill="white"/>
</mask>
<g mask="url(#mask0)">
<rect width="36" height="36" fill="#F37726"/>
</g>
</svg>
