<svg width="32" height="32" viewBox="0 0 32 32" fill="none" xmlns="http://www.w3.org/2000/svg">
<path fill-rule="evenodd" clip-rule="evenodd" d="M17.3567 2.66656C23.8772 2.93323 28.934 8.13323 29.3332 14.5332V15.1999C29.3332 17.1999 28.934 19.1999 28.0024 20.9332C25.8733 25.1999 21.4819 27.8666 16.6913 27.8666C14.8283 27.8666 13.0983 27.4666 11.5015 26.7999L4.44865 29.1999C4.31558 29.3332 4.1825 29.3332 4.04943 29.3332C3.65022 29.3332 3.38407 29.1999 2.98485 28.9332C2.71871 28.6666 2.58564 28.1332 2.71871 27.5999L5.11401 20.5332C4.44865 18.9332 4.04943 17.0666 4.04943 15.3332C4.04943 10.5332 6.71088 6.13323 11.1023 3.9999C12.8322 3.06656 14.6952 2.66656 16.6913 2.66656H17.3567ZM25.6071 19.8665C26.2725 18.3998 26.6717 16.9332 26.6717 15.3332V14.6665C26.2725 9.59982 22.2803 5.59982 17.2235 5.33315H16.6912C15.2275 5.33315 13.6306 5.73315 12.2999 6.39982C8.83998 8.13315 6.71083 11.4665 6.71083 15.3332C6.71083 16.7998 7.11004 18.3998 7.77541 19.7332C8.04155 20.1332 8.04155 20.3998 7.90848 20.7998L6.17854 25.8665L11.2353 24.1332H11.2353C11.6345 24.1332 12.0337 24.1332 12.2999 24.2665C13.6306 24.9332 15.2275 25.3332 16.6912 25.3332C20.5503 25.3332 23.8772 23.3332 25.6071 19.8665Z" fill="#F37626"/>
<mask id="mask0" mask-type="alpha" maskUnits="userSpaceOnUse" x="2" y="2" width="28" height="28">
<path fill-rule="evenodd" clip-rule="evenodd" d="M17.3567 2.66656C23.8772 2.93323 28.934 8.13323 29.3332 14.5332V15.1999C29.3332 17.1999 28.934 19.1999 28.0024 20.9332C25.8733 25.1999 21.4819 27.8666 16.6913 27.8666C14.8283 27.8666 13.0983 27.4666 11.5015 26.7999L4.44865 29.1999C4.31558 29.3332 4.1825 29.3332 4.04943 29.3332C3.65022 29.3332 3.38407 29.1999 2.98485 28.9332C2.71871 28.6666 2.58564 28.1332 2.71871 27.5999L5.11401 20.5332C4.44865 18.9332 4.04943 17.0666 4.04943 15.3332C4.04943 10.5332 6.71088 6.13323 11.1023 3.9999C12.8322 3.06656 14.6952 2.66656 16.6913 2.66656H17.3567ZM25.6071 19.8665C26.2725 18.3998 26.6717 16.9332 26.6717 15.3332V14.6665C26.2725 9.59982 22.2803 5.59982 17.2235 5.33315H16.6912C15.2275 5.33315 13.6306 5.73315 12.2999 6.39982C8.83998 8.13315 6.71083 11.4665 6.71083 15.3332C6.71083 16.7998 7.11004 18.3998 7.77541 19.7332C8.04155 20.1332 8.04155 20.3998 7.90848 20.7998L6.17854 25.8665L11.2353 24.1332H11.2353C11.6345 24.1332 12.0337 24.1332 12.2999 24.2665C13.6306 24.9332 15.2275 25.3332 16.6912 25.3332C20.5503 25.3332 23.8772 23.3332 25.6071 19.8665Z" fill="white"/>
</mask>
<g mask="url(#mask0)">
<rect width="32" height="32" fill="#F37626"/>
</g>
</svg>
