<svg width="32" height="32" viewBox="0 0 32 32" fill="none" xmlns="http://www.w3.org/2000/svg">
<path d="M22.7725 23.0914C23.0447 23.8892 23.1808 24.82 23.1808 25.6178V30.6704C23.1808 31.4682 22.6364 32.0001 21.8198 32.0001C21.0032 32.0001 20.4588 31.4682 20.4588 30.6704V25.4848C20.5949 24.4211 20.1866 23.6233 19.506 22.9584C19.0977 22.5595 18.9616 22.0277 19.2338 21.6288C19.3699 21.0969 19.9143 20.831 20.3227 20.698C24.2696 20.2991 27.9443 18.9695 27.9443 12.7201C27.9443 11.2575 27.3999 9.79485 26.3111 8.59816C25.9028 8.19927 25.9028 7.6674 26.0389 7.26851C26.4472 6.20478 26.4472 5.14106 26.175 4.07733C25.4945 4.2103 24.4057 4.6092 22.6364 5.80589C22.3642 6.07182 21.9559 6.07182 21.5476 5.93885C18.6894 5.14106 15.5591 5.14106 12.701 5.93885C12.2927 6.07182 11.8844 6.07182 11.4761 5.80589C9.84286 4.6092 8.61795 4.2103 7.93745 4.07733C7.66524 5.14106 7.66524 6.20478 8.07355 7.26851C8.20965 7.80037 8.20965 8.33223 7.80135 8.59816C6.71254 9.79485 6.16813 11.2575 6.16813 12.7201C6.16813 18.9695 9.84286 20.2991 13.7898 20.698C14.3342 20.698 14.7425 21.0969 14.8786 21.6288C15.0147 22.1606 14.8786 22.6925 14.6064 22.9584C13.9259 23.6233 13.6537 24.4211 13.6537 25.3518V26.5485V26.6815V30.5375C13.6537 31.3353 13.1093 31.8671 12.2927 31.8671C11.4761 31.8671 10.9317 31.3353 10.9317 30.5375V28.2771C6.84864 28.9419 5.07932 26.6815 3.85441 25.2189C3.31001 24.554 2.9017 24.0222 2.3573 23.8892C1.67679 23.7562 1.13239 22.9584 1.40459 22.2936C1.54069 21.6288 2.3573 21.0969 3.03781 21.3629C4.39882 21.7618 5.21542 22.6925 6.03203 23.6233C7.12084 25.0859 8.07355 26.1496 10.9317 25.6178V25.4848C10.9317 24.687 11.0678 23.7562 11.34 23.0914C7.52914 22.2936 3.44611 19.9002 3.44611 12.8531C3.44611 10.8586 4.12661 8.99706 5.35153 7.53444C4.80712 5.67292 4.94322 3.94437 5.75983 2.21582C5.89593 1.81692 6.16813 1.55099 6.57644 1.41802C7.12084 1.28506 8.89016 1.01913 12.5649 3.27954C15.5591 2.61471 18.6894 2.61471 21.5476 3.27954C25.0862 1.01913 26.9916 1.28506 27.536 1.41802C27.9443 1.55099 28.2165 1.81692 28.3526 2.21582C29.0331 3.94437 29.1692 5.67292 28.7609 7.40147C29.9858 8.86409 30.6663 10.7256 30.6663 12.7201C30.6663 20.2991 26.0389 22.4266 22.7725 23.0914Z" fill="#F37626"/>
<mask id="mask0" mask-type="alpha" maskUnits="userSpaceOnUse" x="1" y="1" width="30" height="31">
<path d="M22.7725 23.0914C23.0447 23.8892 23.1808 24.82 23.1808 25.6178V30.6704C23.1808 31.4682 22.6364 32.0001 21.8198 32.0001C21.0032 32.0001 20.4588 31.4682 20.4588 30.6704V25.4848C20.5949 24.4211 20.1866 23.6233 19.506 22.9584C19.0977 22.5595 18.9616 22.0277 19.2338 21.6288C19.3699 21.0969 19.9143 20.831 20.3227 20.698C24.2696 20.2991 27.9443 18.9695 27.9443 12.7201C27.9443 11.2575 27.3999 9.79485 26.3111 8.59816C25.9028 8.19927 25.9028 7.6674 26.0389 7.26851C26.4472 6.20478 26.4472 5.14106 26.175 4.07733C25.4945 4.2103 24.4057 4.6092 22.6364 5.80589C22.3642 6.07182 21.9559 6.07182 21.5476 5.93885C18.6894 5.14106 15.5591 5.14106 12.701 5.93885C12.2927 6.07182 11.8844 6.07182 11.4761 5.80589C9.84286 4.6092 8.61795 4.2103 7.93745 4.07733C7.66524 5.14106 7.66524 6.20478 8.07355 7.26851C8.20965 7.80037 8.20965 8.33223 7.80135 8.59816C6.71254 9.79485 6.16813 11.2575 6.16813 12.7201C6.16813 18.9695 9.84286 20.2991 13.7898 20.698C14.3342 20.698 14.7425 21.0969 14.8786 21.6288C15.0147 22.1606 14.8786 22.6925 14.6064 22.9584C13.9259 23.6233 13.6537 24.4211 13.6537 25.3518V26.5485V26.6815V30.5375C13.6537 31.3353 13.1093 31.8671 12.2927 31.8671C11.4761 31.8671 10.9317 31.3353 10.9317 30.5375V28.2771C6.84864 28.9419 5.07932 26.6815 3.85441 25.2189C3.31001 24.554 2.9017 24.0222 2.3573 23.8892C1.67679 23.7562 1.13239 22.9584 1.40459 22.2936C1.54069 21.6288 2.3573 21.0969 3.03781 21.3629C4.39882 21.7618 5.21542 22.6925 6.03203 23.6233C7.12084 25.0859 8.07355 26.1496 10.9317 25.6178V25.4848C10.9317 24.687 11.0678 23.7562 11.34 23.0914C7.52914 22.2936 3.44611 19.9002 3.44611 12.8531C3.44611 10.8586 4.12661 8.99706 5.35153 7.53444C4.80712 5.67292 4.94322 3.94437 5.75983 2.21582C5.89593 1.81692 6.16813 1.55099 6.57644 1.41802C7.12084 1.28506 8.89016 1.01913 12.5649 3.27954C15.5591 2.61471 18.6894 2.61471 21.5476 3.27954C25.0862 1.01913 26.9916 1.28506 27.536 1.41802C27.9443 1.55099 28.2165 1.81692 28.3526 2.21582C29.0331 3.94437 29.1692 5.67292 28.7609 7.40147C29.9858 8.86409 30.6663 10.7256 30.6663 12.7201C30.6663 20.2991 26.0389 22.4266 22.7725 23.0914Z" fill="white"/>
</mask>
<g mask="url(#mask0)">
<rect width="32" height="32" fill="#F37626"/>
</g>
</svg>
