<?xml version="1.0" encoding="utf-8"?>
<!-- Generator: Adobe Illustrator 16.0.0, SVG Export Plug-In . SVG Version: 6.00 Build 0)  -->
<!DOCTYPE svg PUBLIC "-//W3C//DTD SVG 1.1//EN" "http://www.w3.org/Graphics/SVG/1.1/DTD/svg11.dtd">
<svg version="1.1" id="Layer_1" xmlns="http://www.w3.org/2000/svg" xmlns:xlink="http://www.w3.org/1999/xlink" x="0px" y="0px"
	 width="800px" height="800px" viewBox="0 0 800 800" enable-background="new 0 0 800 800" xml:space="preserve">
<circle fill="#FBD5C9" cx="400.483" cy="344.675" r="191.701"/>
<path fill="#FFFFFF" d="M262.127,641.703c-5.196,0-9.405-4.211-9.405-9.407V425.357c0-5.196,4.209-9.407,9.405-9.407h282.19
	c5.193,0,9.406,4.211,9.406,9.407v206.938c0,5.196-4.213,9.407-9.406,9.407H262.127z"/>
<path fill="#045F9B" d="M254.81,647.974c-5.195,0-9.407-4.211-9.407-9.404V431.628c0-5.193,4.212-9.406,9.407-9.406h282.192
	c5.192,0,9.405,4.213,9.405,9.406v206.941c0,5.193-4.213,9.404-9.405,9.404H254.81z"/>
<path fill="none" stroke="#0A3656" stroke-width="5" stroke-linecap="round" stroke-linejoin="round" stroke-miterlimit="10" d="
	M263.173,641.703c-5.195,0-9.408-4.211-9.408-9.407V425.357c0-5.196,4.213-9.407,9.408-9.407h282.189
	c5.195,0,9.406,4.211,9.406,9.407v206.938c0,5.196-4.211,9.407-9.406,9.407H263.173z"/>
<circle fill="#0A3656" stroke="#B4DEF6" stroke-width="3" stroke-miterlimit="10" cx="404.267" cy="621.846" r="9.406"/>
<rect x="267.352" y="441.035" fill="#FFFFFF" width="263.378" height="169.313"/>
<rect x="272.577" y="434.765" fill="none" stroke="#0A3656" stroke-width="3" stroke-miterlimit="10" width="263.376" height="169.313"/>
<path fill="none" stroke="#0A3656" stroke-width="3" stroke-miterlimit="10" d="M420.293,425.706c0,1.926-1.56,3.485-3.483,3.485
	h-25.086c-1.921,0-3.48-1.56-3.48-3.485l0,0c0-1.924,1.56-3.484,3.48-3.484h25.086C418.733,422.222,420.293,423.782,420.293,425.706
	L420.293,425.706z"/>
<circle fill="#FFFFFF" stroke="#F16624" stroke-width="5" stroke-linecap="round" stroke-linejoin="round" stroke-miterlimit="10" cx="342.212" cy="308.163" r="47.696"/>
<g>
	<path fill="none" d="M389.093,299.397c10.921-7.992,16.713-15.723,14.701-21.184c-2.269-6.156-13.958-8.072-30.281-6.044
		c5.871,5.096,10.58,11.696,13.455,19.505C387.91,294.227,388.604,296.809,389.093,299.397z"/>
	<path fill="none" d="M295.041,301.08c-13.738,9.047-21.391,18.089-19.123,24.246c2.013,5.461,11.437,7.586,24.932,6.582
		c-1.307-2.286-2.452-4.702-3.393-7.254C294.579,316.843,293.878,308.765,295.041,301.08z"/>
	<path opacity="0.25" fill="#F16523" d="M371.67,270.648c0.625,0.491,1.239,0.997,1.843,1.521
		c16.323-2.028,28.013-0.112,30.281,6.044c2.012,5.461-3.78,13.192-14.701,21.184c-10.267,7.51-25.062,15.251-42.169,21.554
		c-17.106,6.302-33.389,10.012-46.074,10.956c-13.495,1.004-22.919-1.121-24.932-6.582c-2.268-6.157,5.385-15.198,19.123-24.246
		c0.117-0.789,0.259-1.573,0.416-2.353c-32.559,16.46-53.026,34.256-49.149,44.77c3.87,10.514,30.991,10.778,66.447,2.18
		c12.179-2.954,25.338-6.95,38.878-11.939c13.545-4.989,26.15-10.485,37.335-16.139c32.559-16.46,53.024-34.256,49.15-44.77
		C434.245,262.315,407.127,262.051,371.67,270.648z"/>
</g>
<circle fill="#F16523" cx="515.935" cy="299.038" r="27.56"/>
<path fill="#FFFFFF" d="M243.869,295.637c0,0,6.941,0,6.941-6.942c0,0,0,6.942,6.941,6.942c0,0-6.941,0-6.941,6.941
	C250.811,302.579,250.811,295.637,243.869,295.637z"/>
<circle fill="#B4DEF6" cx="448.25" cy="309.357" r="3.828"/>
<circle fill="#045F9B" cx="393.539" cy="182.78" r="2.871"/>
<circle fill="#FFFFFF" cx="300.697" cy="217.896" r="3.828"/>
<circle fill="#B4DEF6" cx="523.381" cy="239.944" r="3.828"/>
<circle fill="#045F9B" cx="246.547" cy="370.604" r="3.828"/>
<circle fill="#045F9B" cx="525.83" cy="362.437" r="2.871"/>
<circle fill="#FFFFFF" cx="418.036" cy="359.17" r="6.125"/>
<circle fill="#FFFFFF" stroke="#F16624" stroke-width="5" stroke-linecap="round" stroke-linejoin="round" stroke-miterlimit="10" cx="444.276" cy="403.77" r="22.049"/>
<g>
	
		<line fill="none" stroke="#0A3656" stroke-width="3" stroke-linecap="round" stroke-linejoin="round" stroke-miterlimit="10" x1="285.014" y1="460.848" x2="357.014" y2="460.848"/>
	
		<line fill="none" stroke="#0A3656" stroke-width="3" stroke-linecap="round" stroke-linejoin="round" stroke-miterlimit="10" x1="285.014" y1="488.848" x2="429.014" y2="488.848"/>
	
		<line fill="none" stroke="#0A3656" stroke-width="3" stroke-linecap="round" stroke-linejoin="round" stroke-miterlimit="10" x1="285.014" y1="502.848" x2="429.014" y2="502.848"/>
	
		<line fill="none" stroke="#0A3656" stroke-width="3" stroke-linecap="round" stroke-linejoin="round" stroke-miterlimit="10" x1="285.014" y1="516.848" x2="429.014" y2="516.848"/>
	
		<line fill="none" stroke="#0A3656" stroke-width="3" stroke-linecap="round" stroke-linejoin="round" stroke-miterlimit="10" x1="285.014" y1="530.848" x2="429.014" y2="530.848"/>
	
		<line fill="none" stroke="#0A3656" stroke-width="3" stroke-linecap="round" stroke-linejoin="round" stroke-miterlimit="10" x1="285.014" y1="544.848" x2="429.014" y2="544.848"/>
	
		<line fill="none" stroke="#0A3656" stroke-width="3" stroke-linecap="round" stroke-linejoin="round" stroke-miterlimit="10" x1="285.014" y1="558.848" x2="429.014" y2="558.848"/>
	
		<line fill="none" stroke="#0A3656" stroke-width="3" stroke-linecap="round" stroke-linejoin="round" stroke-miterlimit="10" x1="285.014" y1="572.848" x2="429.014" y2="572.848"/>
	
		<line fill="none" stroke="#0A3656" stroke-width="3" stroke-linecap="round" stroke-linejoin="round" stroke-miterlimit="10" x1="285.014" y1="586.848" x2="429.014" y2="586.848"/>
</g>
<rect x="447.014" y="460.848" fill="none" stroke="#0A3656" stroke-width="3" stroke-linecap="round" stroke-linejoin="round" stroke-miterlimit="10" width="72" height="81"/>
<circle fill="none" stroke="#0A3656" stroke-width="3" stroke-linecap="round" stroke-linejoin="round" stroke-miterlimit="10" cx="460.514" cy="573.348" r="13.5"/>
<rect x="492.014" y="559.848" fill="none" stroke="#0A3656" stroke-width="3" stroke-linecap="round" stroke-linejoin="round" stroke-miterlimit="10" width="27" height="27"/>
<g>
	<path fill="#F16523" d="M440.257,234.578c-0.734,0-1.469-0.28-2.029-0.841l-14.759-14.757c-1.119-1.122-1.119-2.938,0-4.059
		l14.759-14.758c1.121-1.12,2.938-1.12,4.058,0c1.122,1.121,1.122,2.938,0,4.059l-12.728,12.728l12.728,12.729
		c1.122,1.121,1.122,2.938,0,4.058C441.725,234.297,440.99,234.578,440.257,234.578z"/>
</g>
<g>
	<path fill="#F16523" d="M469.772,234.578c-0.734,0-1.47-0.28-2.029-0.841c-1.121-1.121-1.121-2.937,0-4.058l12.728-12.729
		l-12.728-12.728c-1.121-1.122-1.121-2.938,0-4.059c1.121-1.12,2.937-1.12,4.058,0l14.758,14.758c1.12,1.121,1.12,2.938,0,4.059
		l-14.758,14.757C471.24,234.297,470.506,234.578,469.772,234.578z"/>
</g>
<g>
	<path fill="#F16523" d="M447.637,241.957c-0.301,0-0.607-0.048-0.908-0.148c-1.504-0.501-2.315-2.126-1.814-3.63l14.756-44.273
		c0.503-1.503,2.13-2.314,3.63-1.815c1.503,0.501,2.315,2.126,1.814,3.63l-14.756,44.273
		C449.956,241.196,448.838,241.957,447.637,241.957z"/>
</g>
<g>
	<g>
		<path fill="#F16523" d="M376.186,389.45c-0.446,0-0.896-0.171-1.238-0.513c-0.684-0.684-0.684-1.793,0-2.478l7.771-7.771
			l-7.771-7.771c-0.684-0.685-0.684-1.793,0-2.478c0.686-0.684,1.794-0.684,2.479,0l9.01,9.01c0.684,0.685,0.684,1.793,0,2.478
			l-9.01,9.01C377.084,389.279,376.635,389.45,376.186,389.45z"/>
	</g>
	<g>
		<path fill="#F16523" d="M398.713,389.45h-13.516c-0.968,0-1.752-0.784-1.752-1.752s0.784-1.752,1.752-1.752h13.516
			c0.968,0,1.752,0.784,1.752,1.752S399.681,389.45,398.713,389.45z"/>
	</g>
</g>
<g>
	<g>
		<path fill="#F16523" d="M250.504,254.268c3.098-0.09,3.412-1.706,3.412-3.053c0-1.123-0.136-2.29-0.27-3.502
			c-0.135-1.211-0.224-2.424-0.224-3.546c0-4.22,2.648-6.061,6.823-6.061h1.571v3.816h-0.809c-2.021,0-2.739,1.212-2.739,3.188
			c0,0.808,0.136,1.616,0.226,2.559c0.091,0.898,0.224,1.93,0.224,3.053c0.046,3.412-1.346,4.668-3.816,5.208v0.09
			c2.471,0.539,3.862,1.841,3.816,5.252c0,1.167-0.133,2.2-0.224,3.143c-0.09,0.898-0.226,1.751-0.226,2.514
			c0,1.975,0.675,3.232,2.739,3.232h0.809v3.771h-1.616c-3.995,0-6.778-1.616-6.778-6.106c0-1.122,0.089-2.334,0.224-3.546
			c0.134-1.212,0.27-2.379,0.27-3.502c0-1.257-0.314-2.963-3.412-3.052V254.268z"/>
	</g>
	<g>
		<path fill="#F16523" d="M292.846,257.725c-3.098,0.089-3.412,1.795-3.412,3.052c0,1.123,0.135,2.29,0.27,3.502
			c0.136,1.212,0.225,2.424,0.225,3.546c0,4.49-2.783,6.106-6.778,6.106h-1.618v-3.771h0.81c2.064,0,2.738-1.257,2.738-3.232
			c0-0.763-0.135-1.616-0.225-2.514c-0.09-0.942-0.224-1.975-0.224-3.143c-0.045-3.412,1.347-4.714,3.815-5.252v-0.09
			c-2.469-0.539-3.86-1.796-3.815-5.208c0-1.123,0.134-2.155,0.224-3.053c0.09-0.943,0.225-1.751,0.225-2.559
			c0-1.976-0.718-3.188-2.738-3.188h-0.81v-3.816h1.572c4.175,0,6.824,1.841,6.824,6.061c0,1.123-0.089,2.335-0.225,3.546
			c-0.135,1.212-0.27,2.379-0.27,3.502c0,1.347,0.314,2.963,3.412,3.053V257.725z"/>
	</g>
	<g>
		<path fill="#F16523" d="M265.947,269.073c1.367-3.926,2.56-8.515,3.221-12.529l6.75-0.441c-1.456,4.5-3.441,9.132-5.56,12.573
			L265.947,269.073z M268.329,246.045c0-2.382,1.589-4.059,3.926-4.059c2.339,0,3.882,1.632,3.927,4.059
			c0,2.294-1.545,4.014-3.927,4.014C269.918,250.059,268.285,248.339,268.329,246.045z"/>
	</g>
</g>
</svg>
