<svg width="932" height="392" viewBox="0 0 932 392" fill="none" xmlns="http://www.w3.org/2000/svg">
<path d="M317.767 218.935C317.767 239.11 316.231 245.697 312.133 250.559C307.66 254.699 301.809 256.988 295.742 256.974L297.279 268.975C306.683 269.106 315.799 265.701 322.855 259.423C330.197 251.766 332.758 241.179 332.758 224.936V148.651H317.733V219.038L317.767 218.935Z" fill="#4E4E4E"/>
<path d="M429.833 209.743C429.833 218.433 429.833 226.089 430.516 232.676H417.369L416.516 218.882H416.174C413.407 223.703 409.417 227.692 404.615 230.438C399.813 233.184 394.374 234.587 388.856 234.504C375.88 234.504 360.378 227.193 360.378 197.672V148.494H375.402V195.155C375.402 211.157 380.183 221.916 393.808 221.916C398.082 221.837 402.238 220.487 405.755 218.032C409.272 215.579 411.993 212.131 413.579 208.122C414.49 205.615 414.953 202.964 414.945 200.293V148.563H429.97V209.743H429.833Z" fill="#4E4E4E"/>
<path d="M458.151 176.001C458.151 165.241 457.809 156.551 457.468 148.412H470.956L471.639 162.827H471.98C474.931 157.662 479.223 153.41 484.393 150.529C489.562 147.648 495.413 146.248 501.313 146.481C521.255 146.481 536.28 163.724 536.28 189.244C536.28 219.489 518.216 234.422 498.718 234.422C493.712 234.634 488.739 233.527 484.285 231.212C479.83 228.896 476.049 225.45 473.312 221.213H472.97V266.908H458.116V175.863L458.151 176.001ZM473.005 198.418C473.044 200.515 473.272 202.604 473.688 204.66C474.911 209.757 477.795 214.293 481.875 217.538C485.956 220.784 490.997 222.551 496.191 222.558C512.069 222.558 521.255 209.35 521.255 190.072C521.255 173.208 512.547 158.792 496.703 158.792C491.374 158.943 486.248 160.888 482.14 164.319C478.032 167.749 475.177 172.468 474.029 177.726C473.427 179.754 473.083 181.852 473.005 183.968V198.383V198.418Z" fill="#4E4E4E"/>
<path d="M562.859 148.573L580.923 198.268C582.801 203.821 584.85 210.442 586.216 215.512H586.557C588.094 210.477 589.801 204.028 591.85 197.958L608.241 148.607H624.119L601.616 208.58C590.86 237.411 583.552 252.205 573.308 261.241C568.132 266.103 561.787 269.515 554.903 271.138L551.146 258.275C555.963 256.654 560.426 254.113 564.293 250.791C569.757 246.18 574.083 240.347 576.928 233.755C577.535 232.616 577.94 231.379 578.123 230.099C577.988 228.72 577.642 227.371 577.098 226.099L546.571 148.607H562.961L562.859 148.573Z" fill="#4E4E4E"/>
<path d="M663.555 124.384V148.525H685.034V160.181H663.555V205.497C663.555 215.843 666.457 221.843 674.824 221.843C677.759 221.89 680.687 221.541 683.531 220.809L684.214 232.293C679.941 233.813 675.425 234.514 670.897 234.362C667.894 234.548 664.887 234.07 662.086 232.962C659.284 231.854 656.756 230.143 654.677 227.947C650.408 223.43 648.872 215.946 648.872 206.049V160.181H636.066V148.525H648.872V128.35L663.555 124.384Z" fill="#4E4E4E"/>
<path d="M712.714 193.377C713.056 214.068 726.032 222.587 741.022 222.587C748.859 222.835 756.656 221.352 763.867 218.241L766.428 229.174C757.788 232.838 748.478 234.613 739.11 234.381C713.704 234.381 698.509 217.345 698.509 191.962C698.509 166.581 713.192 146.613 737.232 146.613C764.174 146.613 771.379 170.753 771.379 186.238C771.354 188.626 771.183 191.01 770.867 193.377H712.817H712.714ZM756.73 182.444C756.901 172.719 752.803 157.58 735.934 157.58C720.739 157.58 714.114 171.822 712.919 182.444H756.764H756.73Z" fill="#4E4E4E"/>
<path d="M793.228 174.795C793.228 164.897 793.058 156.379 792.545 148.551H805.692L806.204 165.07H806.887C810.643 153.758 819.693 146.654 829.732 146.654C831.171 146.632 832.607 146.806 834 147.171V161.586C832.318 161.216 830.599 161.043 828.878 161.069C818.292 161.069 810.814 169.242 808.765 180.692C808.343 183.048 808.114 185.436 808.082 187.831V232.663H793.228V174.795Z" fill="#4E4E4E"/>
<path d="M242.2 109.15C242.3 111.453 241.72 113.735 240.535 115.706C239.35 117.677 237.613 119.249 235.543 120.223C233.473 121.197 231.164 121.528 228.907 121.176C226.651 120.824 224.548 119.804 222.866 118.245C221.184 116.686 219.997 114.658 219.456 112.418C218.915 110.177 219.044 107.825 219.827 105.659C220.611 103.493 222.012 101.61 223.855 100.249C225.698 98.887 227.899 98.1082 230.18 98.0105C233.236 97.8796 236.219 98.9793 238.473 101.068C240.727 103.157 242.067 106.063 242.2 109.15Z" fill="#767677"/>
<path d="M174.907 246.207C144.175 246.207 117.335 234.93 103.403 218.239C108.592 233.216 118.262 246.194 131.076 255.377C143.89 264.559 159.213 269.492 174.924 269.492C190.636 269.492 205.959 264.559 218.773 255.377C231.587 246.194 241.257 233.216 246.446 218.239C232.479 234.93 205.64 246.207 174.907 246.207Z" fill="#F37726"/>
<path d="M174.902 137.632C205.635 137.632 232.475 148.909 246.407 165.601C241.218 150.623 231.547 137.645 218.734 128.463C205.92 119.28 190.597 114.348 174.885 114.348C159.173 114.348 143.85 119.28 131.036 128.463C118.223 137.645 108.552 150.623 103.363 165.601C117.33 148.944 144.169 137.632 174.902 137.632Z" fill="#F37726"/>
<path d="M132.717 278.666C132.843 281.57 132.113 284.448 130.619 286.933C129.125 289.418 126.934 291.4 124.325 292.627C121.715 293.854 118.803 294.272 115.958 293.827C113.113 293.382 110.463 292.094 108.343 290.127C106.223 288.16 104.729 285.602 104.049 282.777C103.369 279.951 103.535 276.986 104.525 274.256C105.515 271.526 107.285 269.154 109.611 267.44C111.937 265.727 114.714 264.748 117.59 264.63C121.438 264.471 125.191 265.859 128.026 268.49C130.862 271.121 132.549 274.78 132.717 278.666Z" fill="#989798"/>
<path d="M106.905 133.857C105.218 133.931 103.546 133.497 102.103 132.611C100.659 131.725 99.5085 130.426 98.7962 128.879C98.0838 127.332 97.8419 125.607 98.1011 123.921C98.3602 122.235 99.1087 120.665 100.252 119.409C101.395 118.153 102.882 117.268 104.523 116.865C106.165 116.463 107.888 116.561 109.474 117.148C111.06 117.735 112.438 118.784 113.433 120.162C114.429 121.541 114.997 123.186 115.066 124.891C115.159 127.172 114.352 129.397 112.822 131.078C111.292 132.759 109.164 133.759 106.905 133.857Z" fill="#6F7070"/>
</svg>
