<svg width="46" height="46" viewBox="0 0 46 46" fill="none" xmlns="http://www.w3.org/2000/svg">
<path d="M19.167 24.9167C19.9901 26.0171 21.0403 26.9276 22.2462 27.5865C23.4522 28.2453 24.7857 28.6371 26.1564 28.7353C27.5271 28.8335 28.9029 28.6357 30.1904 28.1554C31.4779 27.6751 32.6471 26.9236 33.6187 25.9517L39.3687 20.2017C41.1143 18.3942 42.0803 15.9735 42.0585 13.4607C42.0366 10.948 41.0288 8.5444 39.2519 6.76757C37.4751 4.99074 35.0715 3.98288 32.5588 3.96104C30.046 3.93921 27.6253 4.90515 25.8178 6.65083L22.5212 9.92833" stroke="#F37626" stroke-width="3" stroke-linecap="round" stroke-linejoin="round"/>
<path d="M26.8332 21.0833C26.0101 19.9829 24.96 19.0724 23.754 18.4135C22.5481 17.7547 21.2145 17.3629 19.8438 17.2647C18.4731 17.1665 17.0974 17.3643 15.8098 17.8446C14.5223 18.3249 13.3531 19.0764 12.3816 20.0483L6.63156 25.7983C4.88588 27.6058 3.91993 30.0265 3.94177 32.5393C3.9636 35.052 4.97147 37.4556 6.7483 39.2324C8.52513 41.0093 10.9287 42.0171 13.4415 42.039C15.9542 42.0608 18.375 41.0948 20.1824 39.3492L23.4599 36.0717" stroke="#F37626" stroke-width="3" stroke-linecap="round" stroke-linejoin="round"/>
</svg>
