<svg width="46" height="46" viewBox="0 0 46 46" fill="none" xmlns="http://www.w3.org/2000/svg">
<path fill-rule="evenodd" clip-rule="evenodd" d="M42.1663 17.2499V5.74995C42.1663 5.55828 42.1663 5.17495 41.9747 4.98328C41.783 4.59995 41.3997 4.21662 41.0163 4.02495C40.8247 3.83328 40.4413 3.83328 40.2497 3.83328H28.7497C27.5997 3.83328 26.833 4.59995 26.833 5.74995C26.833 6.89995 27.5997 7.66662 28.7497 7.66662H35.6497L25.4913 17.8249C24.7247 18.5916 24.7247 19.7416 25.4913 20.5083C25.8747 20.8916 26.258 21.0833 26.833 21.0833C27.408 21.0833 27.7913 20.8916 28.1747 20.5083L38.333 10.3499V17.2499C38.333 18.3999 39.0997 19.1666 40.2497 19.1666C41.3997 19.1666 42.1663 18.3999 42.1663 17.2499ZM7.66634 35.6499L17.8247 25.4916C18.5913 24.7249 19.7413 24.7249 20.508 25.4916C21.2747 26.2582 21.2747 27.4082 20.508 28.1749L10.3497 38.3332H17.2497C18.3997 38.3332 19.1663 39.0999 19.1663 40.2499C19.1663 41.3999 18.3997 42.1666 17.2497 42.1666H5.74967C5.55801 42.1666 5.17467 42.1666 4.98301 41.9749C4.59967 41.7832 4.21634 41.3999 4.02467 41.0166C3.83301 40.8249 3.83301 40.4416 3.83301 40.2499V28.7499C3.83301 27.5999 4.59967 26.8332 5.74967 26.8332C6.89967 26.8332 7.66634 27.5999 7.66634 28.7499V35.6499Z" fill="#F37626"/>
<mask id="mask0" mask-type="alpha" maskUnits="userSpaceOnUse" x="3" y="3" width="40" height="40">
<path fill-rule="evenodd" clip-rule="evenodd" d="M42.1663 17.2499V5.74995C42.1663 5.55828 42.1663 5.17495 41.9747 4.98328C41.783 4.59995 41.3997 4.21662 41.0163 4.02495C40.8247 3.83328 40.4413 3.83328 40.2497 3.83328H28.7497C27.5997 3.83328 26.833 4.59995 26.833 5.74995C26.833 6.89995 27.5997 7.66662 28.7497 7.66662H35.6497L25.4913 17.8249C24.7247 18.5916 24.7247 19.7416 25.4913 20.5083C25.8747 20.8916 26.258 21.0833 26.833 21.0833C27.408 21.0833 27.7913 20.8916 28.1747 20.5083L38.333 10.3499V17.2499C38.333 18.3999 39.0997 19.1666 40.2497 19.1666C41.3997 19.1666 42.1663 18.3999 42.1663 17.2499ZM7.66634 35.6499L17.8247 25.4916C18.5913 24.7249 19.7413 24.7249 20.508 25.4916C21.2747 26.2582 21.2747 27.4082 20.508 28.1749L10.3497 38.3332H17.2497C18.3997 38.3332 19.1663 39.0999 19.1663 40.2499C19.1663 41.3999 18.3997 42.1666 17.2497 42.1666H5.74967C5.55801 42.1666 5.17467 42.1666 4.98301 41.9749C4.59967 41.7832 4.21634 41.3999 4.02467 41.0166C3.83301 40.8249 3.83301 40.4416 3.83301 40.2499V28.7499C3.83301 27.5999 4.59967 26.8332 5.74967 26.8332C6.89967 26.8332 7.66634 27.5999 7.66634 28.7499V35.6499Z" fill="white"/>
</mask>
<g mask="url(#mask0)">
<rect width="46" height="46" fill="#F37626"/>
</g>
</svg>
