<?xml version="1.0" encoding="utf-8"?>
<!-- Generator: Adobe Illustrator 16.0.0, SVG Export Plug-In . SVG Version: 6.00 Build 0)  -->
<!DOCTYPE svg PUBLIC "-//W3C//DTD SVG 1.1//EN" "http://www.w3.org/Graphics/SVG/1.1/DTD/svg11.dtd">
<svg version="1.1" id="Layer_1" xmlns="http://www.w3.org/2000/svg" xmlns:xlink="http://www.w3.org/1999/xlink" x="0px" y="0px"
	 width="200px" height="200px" viewBox="0 0 200 200" enable-background="new 0 0 200 200" xml:space="preserve">
<circle fill="#B4DEF6" cx="95.219" cy="101" r="36"/>
<circle fill="none" stroke="#F16523" stroke-width="5" stroke-miterlimit="10" cx="104.219" cy="101" r="36"/>
<path fill="none" stroke="#F16523" stroke-miterlimit="10" d="M87.95,69.75c2.461-0.747,9.501-0.68,10.624,2.177
	c1.013,2.576,0.354,5.871,5.042,5.056c3.807-0.662,4.701-2.742,6.065-5.364c1.739-3.344,5.024,0.623,6.513,2.445
	c0.813,0.994,1.512,2.84,3.475,2.581c1.232-0.162,3.363-2.051,3.738-3.033c0.563,0.149,0.934,0.478,1.072,0.901"/>
<path fill="none" stroke="#F16523" stroke-miterlimit="10" d="M137.201,114.803c-1.524-1.088-3.194-2.455-4.192-4.045
	c-1.076-1.716-0.98-3.82-3.248-4.465c-1.57-0.445-5.043,0.335-6.044,1.668c-1.917,2.551,0.382,3.416,1.778,5.054
	c1.524,1.788,1.496,3.435-1.054,4.776c-2.66,1.398-3.095,0.268-4.511-1.926c-3.063-4.743-8.777,0.084-6.383,4.051
	c0.805,1.332,2.453,1.602,3.268,3.063c0.707,1.271,0.891,3.318,0.724,4.842c-0.331,3.023-3.011,5.07-5.845,5.845"/>
<path fill="none" stroke="#F16523" stroke-miterlimit="10" d="M68.955,101.473c-0.29,1.898,1.919,2.939,3.378,3.43
	c2.16,0.727,3.103,0.268,4.883-0.629c2.803-1.412,8.123-0.336,6.734,3.977c-0.984,3.053-8.021,2.146-6.322,6.354
	c0.727,1.795,2.708,1.182,2.769,3.389c0.059,2.119-1.979,2.813-2.811,4.184c-0.312,0.516-0.775,0.622-0.546,1.498
	c0.544,0.238,0.907,1.338,1.535,1.201"/>
<path fill="none" stroke="#F16523" stroke-miterlimit="10" d="M73.657,82.512c1.585-1.734,4.278-3.541,6.508-4.455
	c2.895-1.188,4.983-2.057,5.952,0.964c0.839,2.616-0.104,5.508,2.438,7.567c2.545,2.062,4.435,0.208,6.97-0.888
	c2.502-1.083,3.974-1.291,5.047,1.557c0.847,2.245,0.662,4.695-1.728,5.631c-4.622,1.81-8.362-5.155-12.956-2.282
	c-1.638,1.024-2.122,3.229-3.849,4.142c-1.718,0.909-5.714,0.317-7.203-0.904c-2.771-2.271-0.608-3.026,0.681-5.323
	c1.187-2.111,0.939-4.801-2.109-4.572C73.39,83.458,73.45,82.951,73.657,82.512"/>
<path fill="none" stroke="#F16523" stroke-miterlimit="10" d="M133.45,81.75c-0.095,2.642-4.341,3.695-6.5,3.499
	c-3.011-0.273-4.491-2.815-7.006-4.249c-1.93-1.1-4.829-2.258-6.188,0.3c-1.341,2.521,0.64,5.522,0.401,8.157
	c-2.151,1.495-3.207-1.782-5.157-0.669c-1.487,0.848-0.867,4.456-0.111,5.261c2.22,2.366,11.189-0.306,6.749,5.883
	c-1.078,1.502-3.178,2.449-3.187,4.568c-0.01,2.451,2.277,2.804,4.193,1.694c4.095-2.371,3.261-9.951,6.8-11.45
	c1.285-0.544,4.045,0.151,5.012,1c1.508,1.325,0.954,2.551,1.495,4.255c0.833,2.627,5.024,2.96,7.249,1.001"/>
<path fill="none" stroke="#F16523" stroke-miterlimit="10" d="M91.45,114.25c-1.392-0.201-4.065-1.645-3.449-3.505
	c0.482-1.458,3.548-1.685,4.394-3.051c1.457-2.354-0.661-2.42-2.126-3.763c-1.015-0.931-2.758-3.393-0.567-4.194
	c2.052-0.75,2.638,2.459,4.243,3.018c2.048,0.713,3.722-0.437,5.2-1.506c3.505-2.535,8.106-3.116,7.806,2.75
	c-0.111,2.176-0.27,3.137,0.688,5.063c0.844,1.696,2.282,2.942,0.616,4.742c-1.384,1.496-3.689,0.311-5.248,1.494
	c-1.855,1.411-0.912,3.236-0.251,4.951c0.529,1.373,2.293,3.994,0.639,5.443c-1.399,1.227-4.294-0.213-5.444-0.998
	c-1.348-0.921-2.507-2.93-4.512-1.508c-2.021,1.434-0.76,3.189,0.449,4.361c2.046,1.984,8.251,4.955,7.813,8.451"/>
<path fill="none" stroke="#F16523" stroke-miterlimit="10" d="M91.2,114.25c4.125,1.5-5.516,2.566-5.75,5.75
	c-0.151,2.059,1.76,3.256-0.182,5.068c-1.256,1.173-3.64,0.446-4.318,2.182"/>
</svg>
