<svg width="46" height="46" viewBox="0 0 46 46" fill="none" xmlns="http://www.w3.org/2000/svg">
<path fill-rule="evenodd" clip-rule="evenodd" d="M40.8253 10.0175L25.492 2.48188C23.9587 1.72832 22.042 1.72832 20.317 2.48188L4.98366 10.0175C3.06699 10.9594 1.91699 12.8433 1.91699 14.9156V32.8127C1.91699 34.885 3.06699 36.9573 5.17533 37.8993L20.5087 45.4349C21.2753 45.8116 22.2337 46 23.0003 46C23.9587 46 24.7253 45.8116 25.492 45.4349L40.8253 37.8993C42.742 36.9573 44.0837 35.0734 44.0837 32.8127V14.9156C44.0837 12.8433 42.9337 10.9594 40.8253 10.0175ZM22.2336 5.68466C22.4252 5.49627 22.8086 5.49627 23.0002 5.49627C23.3836 5.49627 23.5752 5.49627 23.7669 5.68466L37.9502 12.6551L32.5836 15.2926L17.6336 7.94534L22.2336 5.68466ZM6.70868 34.6966L21.0837 41.6671V23.2048L5.75035 15.6692V33.0011C5.75035 33.5663 6.13368 34.3199 6.70868 34.6966ZM8.05028 12.655L13.4169 10.0175L28.3669 17.3647L23.0003 20.0022L8.05028 12.655ZM39.1003 34.6966C39.867 34.3199 40.2503 33.7547 40.2503 33.0011V15.6692L24.917 23.2048V41.6671L39.1003 34.6966Z" fill="#F37626"/>
<mask id="mask0" mask-type="alpha" maskUnits="userSpaceOnUse" x="1" y="1" width="44" height="45">
<path fill-rule="evenodd" clip-rule="evenodd" d="M40.8253 10.0175L25.492 2.48188C23.9587 1.72832 22.042 1.72832 20.317 2.48188L4.98366 10.0175C3.06699 10.9594 1.91699 12.8433 1.91699 14.9156V32.8127C1.91699 34.885 3.06699 36.9573 5.17533 37.8993L20.5087 45.4349C21.2753 45.8116 22.2337 46 23.0003 46C23.9587 46 24.7253 45.8116 25.492 45.4349L40.8253 37.8993C42.742 36.9573 44.0837 35.0734 44.0837 32.8127V14.9156C44.0837 12.8433 42.9337 10.9594 40.8253 10.0175ZM22.2336 5.68466C22.4252 5.49627 22.8086 5.49627 23.0002 5.49627C23.3836 5.49627 23.5752 5.49627 23.7669 5.68466L37.9502 12.6551L32.5836 15.2926L17.6336 7.94534L22.2336 5.68466ZM6.70868 34.6966L21.0837 41.6671V23.2048L5.75035 15.6692V33.0011C5.75035 33.5663 6.13368 34.3199 6.70868 34.6966ZM8.05028 12.655L13.4169 10.0175L28.3669 17.3647L23.0003 20.0022L8.05028 12.655ZM39.1003 34.6966C39.867 34.3199 40.2503 33.7547 40.2503 33.0011V15.6692L24.917 23.2048V41.6671L39.1003 34.6966Z" fill="white"/>
</mask>
<g mask="url(#mask0)">
<rect width="46" height="46" fill="#F37626"/>
</g>
</svg>
