<svg width="855" height="755" viewBox="0 0 855 755" fill="none" xmlns="http://www.w3.org/2000/svg">
<g clip-path="url(#clip0)">
<path d="M457.27 493.301C517.11 493.301 565.621 444.815 565.621 385.004C565.621 325.193 517.11 276.706 457.27 276.706C397.429 276.706 348.919 325.193 348.919 385.004C348.919 444.815 397.429 493.301 457.27 493.301Z" fill="#B4DEF6"/>
<path d="M439.21 494.055C499.051 494.055 547.562 445.568 547.562 385.757C547.562 325.945 499.051 277.458 439.21 277.458C379.369 277.458 330.859 325.945 330.859 385.757C330.859 445.568 379.369 494.055 439.21 494.055Z" fill="#FBD5C9"/>
<path d="M457.52 493.303C517.361 493.303 565.872 444.816 565.872 385.004C565.872 325.192 517.361 276.706 457.52 276.706C397.679 276.706 349.168 325.192 349.168 385.004C349.168 444.816 397.679 493.303 457.52 493.303Z" stroke="#F16624" stroke-width="7.7633" stroke-miterlimit="10" stroke-linecap="round" stroke-linejoin="round"/>
<path d="M350.147 387.269C358.364 383.747 367.352 381.77 375.689 379.572C397.224 373.897 417.548 367.222 439.062 362.258C453.98 358.817 469.326 356.606 484.079 352.098C504.461 345.87 523.14 335.904 541.446 325.128C543.044 324.188 544.642 323.221 546.232 322.233" stroke="#F16624" stroke-width="2.329" stroke-miterlimit="10" stroke-linecap="round" stroke-linejoin="round"/>
<path d="M534.591 308.687C528.598 312.918 522.628 317.136 516.601 321.078C488.502 339.461 455.757 345.678 423.902 351.872C400.329 356.455 375.956 356.483 352.923 361.212" stroke="#F16624" stroke-width="2.329" stroke-miterlimit="10" stroke-linecap="round" stroke-linejoin="round"/>
<path d="M358.473 427.496C384.94 410.076 414.586 396.297 444.729 388.2C475.196 380.017 505.719 368.024 536.752 361.69C545.458 359.913 553.957 357.599 562.335 354.815" stroke="#F16624" stroke-width="2.329" stroke-miterlimit="10" stroke-linecap="round" stroke-linejoin="round"/>
<path d="M546.234 322.233C544.642 323.221 543.046 324.188 541.447 325.128C523.141 335.905 504.462 345.871 484.08 352.098C469.326 356.606 453.981 358.817 439.063 362.258C417.55 367.222 397.226 373.897 375.69 379.572C367.353 381.771 358.366 383.748 350.148 387.269" stroke="#F16624" stroke-width="2.329" stroke-miterlimit="10" stroke-linecap="round" stroke-linejoin="round"/>
<path d="M385.769 466.045C387.633 464.583 389.493 463.094 391.345 461.548C414.804 441.954 433.524 416.631 462.257 403.033C489.294 390.239 519.369 385.69 548.814 382.71C554.705 382.113 560.717 381.377 566.697 380.376" stroke="#F16624" stroke-width="2.329" stroke-miterlimit="10" stroke-linecap="round" stroke-linejoin="round"/>
<path d="M562.335 354.815C553.957 357.599 545.459 359.913 536.752 361.69C505.718 368.024 475.195 380.016 444.729 388.2C414.585 396.297 384.939 410.076 358.473 427.496" stroke="#F16624" stroke-width="2.329" stroke-miterlimit="10" stroke-linecap="round" stroke-linejoin="round"/>
<path d="M356.644 348.686C362.805 347.883 368.988 347.051 374.958 345.729C402.614 339.606 426.958 326.176 452.584 314.307C471.234 305.669 489.627 295.925 509.363 290.127" stroke="#F16624" stroke-width="2.329" stroke-miterlimit="10" stroke-linecap="round" stroke-linejoin="round"/>
<path d="M495.247 283.859C480.552 286.755 465.973 290.036 451.708 294.777C438.927 299.024 426.223 303.14 414.839 310.361C404.453 316.948 394.954 324.479 384.515 330.669C376.044 335.694 367.505 341.405 358.22 344.637" stroke="#F16624" stroke-width="2.329" stroke-miterlimit="10" stroke-linecap="round" stroke-linejoin="round"/>
<path d="M352.923 361.213C375.957 356.484 400.329 356.456 423.902 351.873C455.756 345.68 488.501 339.461 516.601 321.079C522.628 317.137 528.598 312.919 534.591 308.688" stroke="#F16624" stroke-width="2.329" stroke-miterlimit="10" stroke-linecap="round" stroke-linejoin="round"/>
<path d="M509.364 290.127C489.629 295.926 471.236 305.669 452.585 314.307C426.96 326.176 402.615 339.606 374.96 345.729C368.989 347.051 362.806 347.883 356.645 348.686" stroke="#F16624" stroke-width="2.329" stroke-miterlimit="10" stroke-linecap="round" stroke-linejoin="round"/>
<path d="M358.22 344.638C367.505 341.405 376.044 335.695 384.515 330.67C394.954 324.48 404.453 316.949 414.839 310.362C426.223 303.141 438.928 299.025 451.708 294.778C465.973 290.037 480.552 286.756 495.247 283.86" stroke="#F16624" stroke-width="2.329" stroke-miterlimit="10" stroke-linecap="round" stroke-linejoin="round"/>
<path d="M542.566 454.051C522.441 459.859 501.783 462.544 480.114 465.494C464.642 467.601 447.726 473.203 433.649 479.875C429.321 481.925 425.096 484.517 421.091 487.434" stroke="#F16624" stroke-width="2.329" stroke-miterlimit="10" stroke-linecap="round" stroke-linejoin="round"/>
<path d="M462.11 493.988C468.432 487.64 476.089 482.448 487.114 479.161C497.876 475.952 508.635 476.075 519.584 475.195" stroke="#F16624" stroke-width="2.329" stroke-miterlimit="10" stroke-linecap="round" stroke-linejoin="round"/>
<path d="M566.302 396.485C564.589 396.681 562.884 396.866 561.189 397.038C531.743 400.017 516.794 388.013 477.29 406.438C461.507 413.8 431.15 451.523 407.689 471.117C405.211 473.187 402.668 475.135 400.076 476.99M421.091 487.433C425.095 484.516 429.32 481.924 433.649 479.873C447.726 473.202 464.643 467.6 480.114 465.493C501.782 462.542 522.441 459.859 542.566 454.049L421.091 487.433ZM548.294 423.692C526.881 455.69 487.515 450.942 487.515 450.942C466.139 447.755 434.181 456.266 434.181 456.266C451.373 448.415 465.094 429.75 480.373 417.256C498.985 402.034 516.68 402.348 536.654 405.435C536.654 405.435 554.437 410.948 565.004 405.227C560.219 408.131 548.294 423.692 548.294 423.692Z" stroke="#F16624" stroke-width="2.329" stroke-miterlimit="10" stroke-linecap="round" stroke-linejoin="round"/>
<path d="M519.584 475.196C508.635 476.076 497.876 475.953 487.114 479.162C476.089 482.449 468.433 487.641 462.11 493.989" stroke="#F16624" stroke-width="2.329" stroke-miterlimit="10" stroke-linecap="round" stroke-linejoin="round"/>
<path d="M400.076 476.991C402.669 475.135 405.212 473.186 407.689 471.117C431.149 451.523 461.506 413.8 477.29 406.438C516.794 388.012 531.743 400.018 561.189 397.038C562.884 396.865 564.59 396.681 566.302 396.485" stroke="#F16624" stroke-width="2.329" stroke-miterlimit="10" stroke-linecap="round" stroke-linejoin="round"/>
<path d="M566.697 380.376C560.717 381.377 554.705 382.113 548.814 382.71C519.369 385.69 489.294 390.239 462.257 403.033C433.524 416.631 414.804 441.955 391.345 461.548C389.493 463.094 387.633 464.583 385.769 466.045" stroke="#F16624" stroke-width="2.329" stroke-miterlimit="10" stroke-linecap="round" stroke-linejoin="round"/>
<path d="M536.654 405.435C516.679 402.348 498.985 402.034 480.373 417.256C465.093 429.749 451.373 448.414 434.181 456.266C434.181 456.266 466.14 447.756 487.514 450.942C487.514 450.942 526.88 455.69 548.293 423.692C548.293 423.692 560.22 408.131 565.004 405.227C554.436 410.948 536.654 405.435 536.654 405.435ZM535.813 423.79C522.95 442.142 499.986 438.626 499.986 438.626C487.524 436.362 468.747 440.753 468.747 440.753C478.882 436.473 487.105 425.791 496.173 418.753C507.22 410.179 517.561 410.692 529.206 412.872C529.206 412.872 539.543 416.435 545.785 413.278C542.955 414.892 535.813 423.79 535.813 423.79Z" stroke="#F16624" stroke-width="2.329" stroke-miterlimit="10" stroke-linecap="round" stroke-linejoin="round"/>
<path d="M529.206 412.873C517.561 410.693 507.219 410.181 496.173 418.754C487.106 425.792 478.882 436.475 468.747 440.755C468.747 440.755 487.524 436.363 499.986 438.627C499.986 438.627 522.949 442.143 535.812 423.791C535.812 423.791 542.955 414.892 545.785 413.279C539.543 416.435 529.206 412.873 529.206 412.873Z" stroke="#F16624" stroke-width="2.329" stroke-miterlimit="10" stroke-linecap="round" stroke-linejoin="round"/>
<path d="M324.905 450.262C330.514 450.262 335.062 445.716 335.062 440.109C335.062 434.502 330.514 429.957 324.905 429.957C319.295 429.957 314.747 434.502 314.747 440.109C314.747 445.716 319.295 450.262 324.905 450.262Z" stroke="#F16624" stroke-width="7.7633" stroke-miterlimit="10" stroke-linecap="round" stroke-linejoin="round"/>
<path d="M599.171 416.418C602.91 416.418 605.942 413.388 605.942 409.651C605.942 405.913 602.91 402.883 599.171 402.883C595.431 402.883 592.399 405.913 592.399 409.651C592.399 413.388 595.431 416.418 599.171 416.418Z" stroke="#F16624" stroke-width="7.7633" stroke-miterlimit="10" stroke-linecap="round" stroke-linejoin="round"/>
<path d="M565.31 369.038C576.53 369.038 585.625 359.947 585.625 348.733C585.625 337.519 576.53 328.428 565.31 328.428C554.091 328.428 544.995 337.519 544.995 348.733C544.995 359.947 554.091 369.038 565.31 369.038Z" fill="#B4DEF6" stroke="#F16523" stroke-width="7.7633" stroke-miterlimit="10"/>
<path d="M341.835 341.965C345.575 341.965 348.607 338.935 348.607 335.197C348.607 331.458 345.575 328.428 341.835 328.428C338.095 328.428 335.063 331.458 335.063 335.197C335.063 338.935 338.095 341.965 341.835 341.965Z" fill="#F16824"/>
<path d="M475.283 235.823C476.737 235.823 477.916 234.645 477.916 233.191C477.916 231.738 476.737 230.559 475.283 230.559C473.828 230.559 472.649 231.738 472.649 233.191C472.649 234.645 473.828 235.823 475.283 235.823Z" fill="white"/>
<path d="M243.906 346C245.359 346 246.538 344.822 246.538 343.369C246.538 341.916 245.359 340.738 243.906 340.738C242.452 340.738 241.273 341.916 241.273 343.369C241.273 344.822 242.452 346 243.906 346Z" fill="white"/>
<path d="M281.642 390.665C281.642 394.845 278.254 398.232 274.069 398.232C269.888 398.232 266.5 394.845 266.5 390.665C266.5 386.485 269.887 383.096 274.069 383.096C278.254 383.096 281.642 386.484 281.642 390.665Z" fill="white" stroke="#F16624" stroke-width="3.2838" stroke-miterlimit="10" stroke-linecap="round" stroke-linejoin="round"/>
<path d="M594.543 466.332C595.998 466.332 597.177 465.153 597.177 463.699C597.177 462.246 595.998 461.067 594.543 461.067C593.089 461.067 591.91 462.246 591.91 463.699C591.91 465.153 593.089 466.332 594.543 466.332Z" fill="white"/>
<path d="M583.634 266.964C590.452 266.964 595.979 261.439 595.979 254.625C595.979 247.81 590.452 242.286 583.634 242.286C576.816 242.286 571.289 247.81 571.289 254.625C571.289 261.439 576.816 266.964 583.634 266.964Z" fill="white"/>
<path d="M327.427 256.434C329.674 256.434 331.495 254.614 331.495 252.369C331.495 250.123 329.674 248.303 327.427 248.303C325.181 248.303 323.36 250.123 323.36 252.369C323.36 254.614 325.181 256.434 327.427 256.434Z" fill="white"/>
<path d="M316.893 307.616C320.825 307.616 324.012 304.431 324.012 300.501C324.012 296.571 320.825 293.385 316.893 293.385C312.962 293.385 309.774 296.571 309.774 300.501C309.774 304.431 312.962 307.616 316.893 307.616Z" fill="#B4DEF6"/>
<path d="M228.858 446.779C230.313 446.779 231.492 445.601 231.492 444.147C231.492 442.694 230.313 441.515 228.858 441.515C227.404 441.515 226.225 442.694 226.225 444.147C226.225 445.601 227.404 446.779 228.858 446.779Z" fill="white"/>
<path d="M309.745 501.445C313.563 501.445 316.658 498.351 316.658 494.536C316.658 490.72 313.563 487.626 309.745 487.626C305.927 487.626 302.833 490.72 302.833 494.536C302.833 498.351 305.927 501.445 309.745 501.445Z" fill="#045F9B"/>
<path d="M750.096 512.355C770.002 512.355 786.139 496.226 786.139 476.33C786.139 456.435 770.002 440.306 750.096 440.306C730.191 440.306 714.054 456.435 714.054 476.33C714.054 496.226 730.191 512.355 750.096 512.355Z" fill="#B4DEF6"/>
<path d="M759.107 512.355C779.012 512.355 795.149 496.226 795.149 476.33C795.149 456.435 779.012 440.306 759.107 440.306C739.201 440.306 723.065 456.435 723.065 476.33C723.065 496.226 739.201 512.355 759.107 512.355Z" stroke="#F16523" stroke-width="5" stroke-miterlimit="10"/>
<path d="M742.819 445.059C745.283 444.312 752.331 444.379 753.455 447.238C754.469 449.815 753.81 453.113 758.503 452.297C762.315 451.635 763.21 449.553 764.575 446.929C766.316 443.583 769.605 447.553 771.096 449.376C771.91 450.371 772.61 452.218 774.575 451.959C775.808 451.797 777.942 449.906 778.317 448.924C778.881 449.073 779.252 449.402 779.391 449.825" stroke="#F16523" stroke-miterlimit="10"/>
<path d="M792.127 490.143C790.602 489.054 788.93 487.686 787.931 486.095C786.853 484.378 786.949 482.272 784.679 481.627C783.107 481.182 779.63 481.962 778.628 483.296C776.708 485.849 779.01 486.714 780.408 488.353C781.934 490.143 781.905 491.791 779.353 493.133C776.689 494.532 776.254 493.401 774.836 491.205C771.77 486.459 766.049 491.289 768.446 495.259C769.252 496.592 770.902 496.862 771.718 498.324C772.425 499.596 772.61 501.644 772.442 503.17C772.111 506.195 769.428 508.243 766.591 509.018" stroke="#F16523" stroke-miterlimit="10"/>
<path d="M723.802 476.804C723.511 478.703 725.723 479.745 727.184 480.236C729.346 480.964 730.29 480.504 732.072 479.607C734.879 478.194 740.205 479.27 738.814 483.586C737.829 486.641 730.784 485.734 732.485 489.945C733.213 491.741 735.196 491.127 735.257 493.336C735.316 495.456 733.276 496.151 732.443 497.523C732.13 498.039 731.667 498.145 731.896 499.022C732.441 499.26 732.804 500.361 733.433 500.224" stroke="#F16523" stroke-miterlimit="10"/>
<path d="M728.509 457.83C730.096 456.095 732.792 454.286 735.025 453.372C737.923 452.183 740.014 451.313 740.984 454.336C741.824 456.954 740.88 459.848 743.425 461.909C745.973 463.972 747.865 462.117 750.403 461.02C752.908 459.936 754.381 459.728 755.456 462.578C756.304 464.825 756.118 467.276 753.726 468.213C749.098 470.024 745.354 463.054 740.754 465.929C739.115 466.954 738.63 469.16 736.901 470.074C735.181 470.984 731.18 470.391 729.69 469.169C726.915 466.897 729.081 466.141 730.371 463.843C731.56 461.73 731.311 459.039 728.26 459.268C728.242 458.776 728.302 458.269 728.509 457.83Z" stroke="#F16523" stroke-miterlimit="10"/>
<path d="M788.372 457.067C788.277 459.711 784.026 460.765 781.865 460.569C778.85 460.296 777.368 457.752 774.85 456.317C772.918 455.216 770.016 454.057 768.655 456.617C767.313 459.14 769.296 462.143 769.057 464.78C766.903 466.276 765.846 462.996 763.894 464.11C762.405 464.959 763.026 468.569 763.782 469.375C766.005 471.742 774.985 469.069 770.539 475.262C769.46 476.765 767.358 477.712 767.349 479.833C767.339 482.286 769.628 482.639 771.546 481.528C775.646 479.155 774.811 471.57 778.354 470.07C779.641 469.526 782.404 470.221 783.372 471.071C784.882 472.397 784.327 473.624 784.869 475.329C785.703 477.958 789.899 478.291 792.127 476.331" stroke="#F16523" stroke-miterlimit="10"/>
<path d="M746.323 489.589C744.929 489.388 742.253 487.943 742.87 486.082C743.352 484.623 746.422 484.396 747.269 483.029C748.728 480.673 746.607 480.607 745.141 479.263C744.124 478.332 742.379 475.868 744.573 475.066C746.627 474.316 747.214 477.527 748.821 478.086C750.871 478.8 752.547 477.649 754.027 476.579C757.536 474.043 762.142 473.461 761.842 479.331C761.731 481.509 761.572 482.47 762.531 484.398C763.376 486.095 764.816 487.342 763.148 489.143C761.762 490.64 759.454 489.454 757.893 490.638C756.036 492.05 756.98 493.876 757.642 495.592C758.172 496.966 759.938 499.589 758.282 501.039C756.881 502.267 753.983 500.826 752.832 500.04C751.482 499.119 750.322 497.108 748.314 498.531C746.291 499.966 747.553 501.722 748.764 502.895C750.812 504.881 757.024 507.854 756.586 511.352" stroke="#F16523" stroke-miterlimit="10"/>
<path d="M746.073 489.589C750.203 491.09 740.55 492.157 740.316 495.343C740.165 497.404 742.078 498.601 740.134 500.415C738.876 501.589 736.489 500.861 735.811 502.598" stroke="#F16523" stroke-miterlimit="10"/>
<path d="M489.573 218.155C509.478 218.155 525.615 202.026 525.615 182.13C525.615 162.235 509.478 146.106 489.573 146.106C469.667 146.106 453.531 162.235 453.531 182.13C453.531 202.026 469.667 218.155 489.573 218.155Z" fill="#FBD5C9"/>
<path d="M480.032 196.2C484.421 196.2 487.979 192.644 487.979 188.257C487.979 183.87 484.421 180.313 480.032 180.313C475.642 180.313 472.084 183.87 472.084 188.257C472.084 192.644 475.642 196.2 480.032 196.2Z" fill="white"/>
<path d="M515.603 208.086C518.886 208.086 521.548 205.426 521.548 202.144C521.548 198.862 518.886 196.202 515.603 196.202C512.32 196.202 509.658 198.862 509.658 202.144C509.658 205.426 512.32 208.086 515.603 208.086Z" fill="white"/>
<path d="M474.555 162.387C476.363 162.387 477.829 160.922 477.829 159.115C477.829 157.308 476.363 155.843 474.555 155.843C472.747 155.843 471.281 157.308 471.281 159.115C471.281 160.922 472.747 162.387 474.555 162.387Z" fill="white"/>
<path d="M518.433 171.342C521.403 171.342 523.811 168.936 523.811 165.967C523.811 162.999 521.403 160.593 518.433 160.593C515.464 160.593 513.056 162.999 513.056 165.967C513.056 168.936 515.464 171.342 518.433 171.342Z" fill="white"/>
<path d="M506.593 186.505C509.009 186.505 510.969 184.546 510.969 182.131C510.969 179.715 509.009 177.757 506.593 177.757C504.176 177.757 502.216 179.715 502.216 182.131C502.216 184.546 504.176 186.505 506.593 186.505Z" fill="white"/>
<path d="M484.567 206.583C485.361 206.583 486.005 205.94 486.005 205.146C486.005 204.352 485.361 203.709 484.567 203.709C483.773 203.709 483.129 204.352 483.129 205.146C483.129 205.94 483.773 206.583 484.567 206.583Z" fill="white"/>
<path d="M497.582 163.207C499.567 163.207 501.175 161.599 501.175 159.615C501.175 157.632 499.567 156.024 497.582 156.024C495.598 156.024 493.989 157.632 493.989 159.615C493.989 161.599 495.598 163.207 497.582 163.207Z" fill="white"/>
<path d="M498.583 218.155C518.489 218.155 534.625 202.026 534.625 182.13C534.625 162.235 518.489 146.106 498.583 146.106C478.678 146.106 462.541 162.235 462.541 182.13C462.541 202.026 478.678 218.155 498.583 218.155Z" stroke="#045F9B" stroke-width="5" stroke-miterlimit="10"/>
<path d="M403.639 636.439C423.545 636.439 439.681 620.31 439.681 600.415C439.681 580.519 423.545 564.39 403.639 564.39C383.734 564.39 367.597 580.519 367.597 600.415C367.597 620.31 383.734 636.439 403.639 636.439Z" fill="#B4DEF6"/>
<path d="M409.146 582.152C410.943 582.152 412.399 580.696 412.399 578.9C412.399 577.104 410.943 575.648 409.146 575.648C407.349 575.648 405.892 577.104 405.892 578.9C405.892 580.696 407.349 582.152 409.146 582.152Z" stroke="#045F9B" stroke-width="0.5" stroke-miterlimit="10"/>
<path d="M398.633 613.674C400.43 613.674 401.887 612.218 401.887 610.421C401.887 608.625 400.43 607.169 398.633 607.169C396.836 607.169 395.38 608.625 395.38 610.421C395.38 612.218 396.836 613.674 398.633 613.674Z" stroke="#045F9B" stroke-width="0.5" stroke-miterlimit="10"/>
<path d="M418.657 578.171C420.005 578.171 421.098 577.078 421.098 575.731C421.098 574.384 420.005 573.291 418.657 573.291C417.309 573.291 416.216 574.384 416.216 575.731C416.216 577.078 417.309 578.171 418.657 578.171Z" stroke="#045F9B" stroke-width="0.5" stroke-miterlimit="10"/>
<path d="M396.631 633.531C400.001 633.531 402.732 630.801 402.732 627.433C402.732 624.065 400.001 621.335 396.631 621.335C393.261 621.335 390.53 624.065 390.53 627.433C390.53 630.801 393.261 633.531 396.631 633.531Z" stroke="#045F9B" stroke-width="0.5" stroke-miterlimit="10"/>
<path d="M427.167 627.152C428.67 627.152 429.889 625.933 429.889 624.431C429.889 622.928 428.67 621.71 427.167 621.71C425.663 621.71 424.445 622.928 424.445 624.431C424.445 625.933 425.663 627.152 427.167 627.152Z" stroke="#045F9B" stroke-width="0.5" stroke-miterlimit="10"/>
<path d="M426.166 601.854C427.514 601.854 428.606 600.761 428.606 599.414C428.606 598.067 427.514 596.974 426.166 596.974C424.818 596.974 423.725 598.067 423.725 599.414C423.725 600.761 424.818 601.854 426.166 601.854Z" stroke="#045F9B" stroke-width="0.5" stroke-miterlimit="10"/>
<path d="M442.184 614.713C445.385 614.713 447.98 612.12 447.98 608.92C447.98 605.721 445.385 603.127 442.184 603.127C438.983 603.127 436.389 605.721 436.389 608.92C436.389 612.12 438.983 614.713 442.184 614.713Z" stroke="#045F9B" stroke-width="0.5" stroke-miterlimit="10"/>
<path d="M415.987 597.299C416.661 597.299 417.207 596.752 417.207 596.079C417.207 595.405 416.661 594.859 415.987 594.859C415.313 594.859 414.766 595.405 414.766 596.079C414.766 596.752 415.313 597.299 415.987 597.299Z" stroke="#045F9B" stroke-width="0.5" stroke-miterlimit="10"/>
<path d="M411.649 570.946C412.323 570.946 412.869 570.4 412.869 569.727C412.869 569.053 412.323 568.507 411.649 568.507C410.975 568.507 410.428 569.053 410.428 569.727C410.428 570.4 410.975 570.946 411.649 570.946Z" stroke="#045F9B" stroke-width="0.5" stroke-miterlimit="10"/>
<path d="M387.287 592.542C388.467 592.542 389.423 591.586 389.423 590.408C389.423 589.229 388.467 588.273 387.287 588.273C386.108 588.273 385.152 589.229 385.152 590.408C385.152 591.586 386.108 592.542 387.287 592.542Z" stroke="#045F9B" stroke-width="0.5" stroke-miterlimit="10"/>
<path d="M415.486 622.43C418.527 622.43 420.992 619.965 420.992 616.926C420.992 613.886 418.527 611.422 415.486 611.422C412.445 611.422 409.98 613.886 409.98 616.926C409.98 619.965 412.445 622.43 415.486 622.43Z" stroke="#045F9B" stroke-width="0.5" stroke-miterlimit="10"/>
<path d="M390.291 583.57C393.332 583.57 395.797 581.106 395.797 578.066C395.797 575.027 393.332 572.563 390.291 572.563C387.249 572.563 384.784 575.027 384.784 578.066C384.784 581.106 387.249 583.57 390.291 583.57Z" stroke="#045F9B" stroke-width="0.5" stroke-miterlimit="10"/>
<path d="M431.672 591.241C436.925 591.241 441.183 586.985 441.183 581.735C441.183 576.485 436.925 572.229 431.672 572.229C426.419 572.229 422.161 576.485 422.161 581.735C422.161 586.985 426.419 591.241 431.672 591.241Z" stroke="#045F9B" stroke-width="0.5" stroke-miterlimit="10"/>
<path d="M409.313 631.603C410.879 631.603 412.149 630.333 412.149 628.768C412.149 627.202 410.879 625.933 409.313 625.933C407.746 625.933 406.477 627.202 406.477 628.768C406.477 630.333 407.746 631.603 409.313 631.603Z" stroke="#045F9B" stroke-width="0.5" stroke-miterlimit="10"/>
<path d="M396.631 588.906C398.013 588.906 399.133 587.786 399.133 586.405C399.133 585.024 398.013 583.904 396.631 583.904C395.249 583.904 394.129 585.024 394.129 586.405C394.129 587.786 395.249 588.906 396.631 588.906Z" stroke="#045F9B" stroke-width="0.5" stroke-miterlimit="10"/>
<path d="M381.613 614.714C384.723 614.714 387.243 612.195 387.243 609.088C387.243 605.98 384.723 603.461 381.613 603.461C378.504 603.461 375.984 605.98 375.984 609.088C375.984 612.195 378.504 614.714 381.613 614.714Z" stroke="#045F9B" stroke-width="0.5" stroke-miterlimit="10"/>
<path d="M412.65 636.439C432.555 636.439 448.692 620.31 448.692 600.415C448.692 580.519 432.555 564.39 412.65 564.39C392.744 564.39 376.608 580.519 376.608 600.415C376.608 620.31 392.744 636.439 412.65 636.439Z" stroke="#045F9B" stroke-width="5" stroke-miterlimit="10"/>
<path d="M95 314.56C98.2795 314.56 100.938 311.902 100.938 308.622C100.938 305.343 98.2795 302.684 95 302.684C91.7205 302.684 89.062 305.343 89.062 308.622C89.062 311.902 91.7205 314.56 95 314.56Z" fill="#FBD5C9"/>
<path d="M99.203 286.604C101.009 286.604 102.473 285.14 102.473 283.334C102.473 281.528 101.009 280.064 99.203 280.064C97.397 280.064 95.933 281.528 95.933 283.334C95.933 285.14 97.397 286.604 99.203 286.604Z" fill="#FBD5C9"/>
<path d="M123.357 304.219C126.047 304.219 128.228 302.038 128.228 299.348C128.228 296.658 126.047 294.477 123.357 294.477C120.667 294.477 118.486 296.658 118.486 299.348C118.486 302.038 120.667 304.219 123.357 304.219Z" fill="#FBD5C9"/>
<path d="M83 304C83 288.703 92.545 275.644 106 270.43C101.967 268.867 97.586 268 93 268C73.117 268 57 284.118 57 304C57 323.883 73.117 340 93 340C97.586 340 101.967 339.133 106 337.57C92.545 332.355 83 319.297 83 304Z" fill="#FBD5C9"/>
<path d="M102 340C121.882 340 138 323.882 138 304C138 284.118 121.882 268 102 268C82.1177 268 66 284.118 66 304C66 323.882 82.1177 340 102 340Z" stroke="#F16523" stroke-width="5" stroke-miterlimit="10"/>
</g>
<defs>
<clipPath id="clip0">
<rect width="855" height="755" fill="white"/>
</clipPath>
</defs>
</svg>
