<svg width="46" height="46" viewBox="0 0 46 46" fill="none" xmlns="http://www.w3.org/2000/svg">
<path d="M13.4163 42.1667H7.66634C6.64968 42.1667 5.67465 41.7628 4.95576 41.0439C4.23688 40.325 3.83301 39.35 3.83301 38.3333V24.9167C3.83301 23.9 4.23688 22.925 4.95576 22.2061C5.67465 21.4872 6.64968 21.0833 7.66634 21.0833H13.4163M26.833 17.25V9.58333C26.833 8.05833 26.2272 6.5958 25.1489 5.51746C24.0705 4.43913 22.608 3.83333 21.083 3.83333L13.4163 21.0833V42.1667H35.0363C35.9608 42.1771 36.8579 41.8531 37.5623 41.2543C38.2668 40.6556 38.7311 39.8224 38.8697 38.9083L41.5147 21.6583C41.5981 21.1089 41.561 20.548 41.4061 20.0143C41.2511 19.4807 40.982 18.9871 40.6174 18.5677C40.2528 18.1484 39.8013 17.8134 39.2944 17.5858C38.7874 17.3583 38.237 17.2437 37.6813 17.25H26.833Z" stroke="#F37626" stroke-width="3" stroke-linecap="round" stroke-linejoin="round"/>
</svg>
