<svg width="36" height="36" viewBox="0 0 36 36" fill="none" xmlns="http://www.w3.org/2000/svg">
<path d="M34.5 4.49995C33.0636 5.51316 31.4732 6.28811 29.79 6.79495C28.8866 5.75621 27.686 5.01998 26.3506 4.68584C25.0151 4.35169 23.6092 4.43574 22.3231 4.92663C21.037 5.41751 19.9327 6.29155 19.1595 7.43052C18.3863 8.56949 17.9815 9.91845 18 11.2949V12.7949C15.364 12.8633 12.7519 12.2787 10.3965 11.0931C8.04112 9.90757 6.01548 8.1579 4.5 5.99995C4.5 5.99995 -1.5 19.4999 12 25.4999C8.91079 27.5969 5.23074 28.6483 1.5 28.4999C15 35.9999 31.5 28.4999 31.5 11.2499C31.4986 10.8321 31.4584 10.4153 31.38 10.0049C32.9109 8.49519 33.9912 6.58902 34.5 4.49995V4.49995Z" stroke="white" stroke-width="3" stroke-linecap="round" stroke-linejoin="round"/>
</svg>
