<?xml version="1.0" encoding="utf-8"?>
<!-- Generator: Adobe Illustrator 16.0.0, SVG Export Plug-In . SVG Version: 6.00 Build 0)  -->
<!DOCTYPE svg PUBLIC "-//W3C//DTD SVG 1.1//EN" "http://www.w3.org/Graphics/SVG/1.1/DTD/svg11.dtd">
<svg version="1.1" id="Layer_1" xmlns="http://www.w3.org/2000/svg" xmlns:xlink="http://www.w3.org/1999/xlink" x="0px" y="0px"
	 width="800px" height="800px" viewBox="0 0 800 800" enable-background="new 0 0 800 800" xml:space="preserve">
<path fill="#B4DEF6" d="M447.074,302.231c0,0-6.574,8.269,2.926,21.769l17,29.5l-2,14l-23.928-41.259
	C441.072,326.241,431.648,313.463,447.074,302.231z"/>
<path fill="#B4DEF6" d="M302.5,313l29,10c0,0,7.5,3,11.5,3l16-1.5l-1,9l-20.5,1l-43.422-17.263C294.078,317.237,300,318,302.5,313z"
	/>
<path fill="#B4DEF6" d="M431.5,440.5l18,50.5c0,0,4.5,13.5,16.5,19.5l53,27.5l-5.731,12.22L448.5,520c0,0-9-8-13-20.5L413,434
	L431.5,440.5z"/>
<path fill="#045F9B" d="M484.667,477L443.5,515c0,0,6.5,5.333,9.5,7l34-40.667l0.278-3.562L484.667,477z"/>
<path fill="#B4DEF6" d="M385.5,408.5c0,0,5,13,18.5,25L359,475l-11,66l16.15,4.37l9.688-60.183l42.828-39.521L407.5,422
	l-14.666-14.763L385.5,408.5z"/>
<rect x="318.429" y="480.032" transform="matrix(0.979 0.204 -0.204 0.979 105.965 -60.3497)" fill="#045F9B" width="54.686" height="7.775"/>
<g>
	<g>
		<g>
			<path fill-rule="evenodd" clip-rule="evenodd" fill="#FBD5C9" d="M292.54,537.922c14.941,1.654,27.859,5.236,37.21,9.667
				c5.317,2.521,10.808,5.243,18.941,7.242c3.313,0.814,2.77,1.478,6.338,2.01L425,558h39l33.999-0.095
				c15.474,0.196,45.664-0.582,61.199-0.519c11.208,0.046,23.277,0.316,34.144,1.305c22.337,2.037,37.594,8.168,27.425,13.709
				c-6.705,3.651-17.171,7.053-29.421,9.66c-29.846,6.349-48.135,14.203-51.162,24.353c-0.912,3.059-2.572,6.268,0.512,9.312
				c6.471,6.386,20.061,8.492,49.696,10.781c5.352,0.414,10.993,0.666,15.993,1.296c24.13,3.033,27.592,7.691,9.778,11.985
				c-27.423,6.613-63.11,9.854-104.368,10.731c-36.761,0.785-72.753,2.33-109.509,3.12c-38.467,0.825-70.854-4.552-85.307-14.385
				c-11.28-7.677-12.917-15.244-13.381-22.873c-0.23-3.822-1.398-7.707-10.594-11.525c-9.198-3.82-23.02-5.721-38.748-6.855
				c-13.548-0.976-27.61-1.259-40.952-2.403c-29.557-2.537-48.602-8.268-46.58-14.983c0.513-7.562,9.782-12.9,20.222-18.047
				c13.862-6.837,28.267-13.611,44.107-20.143c4.635-1.908,14.146-3.206,22.78-4.256c9.725-1.183,19.193-1.474,28.128-1.068
				L292.54,537.922z"/>
		</g>
	</g>
	<g>
		
			<path fill-rule="evenodd" clip-rule="evenodd" fill="none" stroke="#F16624" stroke-width="3" stroke-linecap="round" stroke-linejoin="round" stroke-miterlimit="10" d="
			M310.065,535.077c-4.788-1.054-9.962-1.893-15.536-2.464l-9.528-0.647c-9.151-0.455-18.877-0.181-28.872,1.034
			c-8.634,1.05-18.146,2.348-22.78,4.256c-15.841,6.531-30.245,13.306-44.107,20.143c-10.439,5.146-19.709,10.485-20.222,18.047
			c-2.021,6.716,17.023,12.446,46.58,14.983c13.342,1.145,27.404,1.428,40.952,2.403c15.729,1.135,29.55,3.035,38.748,6.855
			c9.195,3.818,10.363,7.703,10.594,11.525c0.464,7.629,2.101,15.196,13.381,22.873c14.453,9.833,46.84,15.21,85.307,14.385
			c36.756-0.79,72.748-2.335,109.509-3.12c41.258-0.878,76.945-4.118,104.368-10.731c17.813-4.294,14.352-8.952-9.778-11.985
			c-5-0.63-10.642-0.882-15.993-1.296c-29.636-2.289-43.226-4.396-49.696-10.781c-3.084-3.044-1.424-6.253-0.512-9.312
			c3.027-10.149,21.316-18.004,51.162-24.353c12.25-2.607,22.716-6.009,29.421-9.66c10.169-5.541-5.088-11.672-27.425-13.709
			c-10.866-0.988-22.936-1.259-34.144-1.305c-15.3-0.063-43.265,0.691-58.494,0.526l-34.5-0.722
			c-13.298-0.059-26.47,0.033-39.499,0.329l-66.045-0.447"/>
		
			<path fill-rule="evenodd" clip-rule="evenodd" fill="none" stroke="#F16624" stroke-width="3" stroke-linecap="round" stroke-linejoin="round" stroke-miterlimit="10" d="
			M362.955,551.905"/>
	</g>
	
		<ellipse fill-rule="evenodd" clip-rule="evenodd" fill="none" stroke="#F16624" stroke-width="0.5786" stroke-linecap="round" stroke-linejoin="round" stroke-miterlimit="10" cx="330.833" cy="591.677" rx="11.333" ry="2.844"/>
	<ellipse fill-rule="evenodd" clip-rule="evenodd" fill="#F16523" cx="566.5" cy="567.343" rx="8.667" ry="2.175"/>
	
		<ellipse fill-rule="evenodd" clip-rule="evenodd" fill="none" stroke="#F16624" stroke-width="0.5786" stroke-linecap="round" stroke-linejoin="round" stroke-miterlimit="10" cx="529.166" cy="631.01" rx="8.667" ry="2.175"/>
	
		<ellipse opacity="0.5" fill-rule="evenodd" clip-rule="evenodd" fill="#F16523" cx="426.542" cy="609.202" rx="61.458" ry="15.42"/>
	
		<ellipse fill-rule="evenodd" clip-rule="evenodd" fill="none" stroke="#F16624" stroke-width="0.5786" stroke-linecap="round" stroke-linejoin="round" stroke-miterlimit="10" cx="227.792" cy="566.667" rx="27.459" ry="6.89"/>
</g>
<path fill-rule="evenodd" clip-rule="evenodd" fill="#FFFFFF" d="M528.474,574.96l-10.063,19.475c0,0-24.789-8.657-14.207-38.807
	l9.389-20.132l35.344,0.509L528.474,574.96z"/>
<path fill-rule="evenodd" clip-rule="evenodd" fill="#FFFFFF" d="M355.667,566.001l-2,10.333L268,562.001
	c0,0,1.999-27.334,23.333-27.334c0,0,14.667-1,26.001,4c0,0,11.667,0.667,19.667,3l27.666,3l-4,22.334L355.667,566.001z"/>
<path fill-rule="evenodd" clip-rule="evenodd" fill="#B4DEF6" d="M440.5,295c0,0-14.5,9.5-15.5,21.5v18.737V389h-4.5v-71.763
	c0,0-0.75-12.487,11.5-21.487C432,295.75,433,296.5,440.5,295z"/>
<path fill-rule="evenodd" clip-rule="evenodd" fill="#B4DEF6" d="M404.667,406.667l7.5,7.5c0,0,16.214,13.479,40.273,10.573
	c0,0-8.942-5.1-3.941-17.503L404.667,406.667z"/>
<g>
	<path fill-rule="evenodd" clip-rule="evenodd" fill="#B4DEF6" d="M376,378.5h6h18c0,0,7,1,7-6v-5.763c0,0-1.344,4.5-4.922,4.5h-27
		L376,378.5z"/>
	<path fill-rule="evenodd" clip-rule="evenodd" fill="#B4DEF6" d="M276.5,296.5H287c0,0,1,7,14.5,9V301c0,0-7.5,0-11.5-9h-12.179
		L276.5,296.5z"/>
	<path fill-rule="evenodd" clip-rule="evenodd" fill="#B4DEF6" d="M369.903,297.983c0,0-16.403,5.017-16.403,35.017l17-0.582
		v-10.681c0,0,1.156-4.5,4.578-4.5c0,0,1.221-14.632,12.071-21.185L369.903,297.983z"/>
	<path fill-rule="evenodd" clip-rule="evenodd" fill="#B4DEF6" d="M467.328,261.923c0,0,27.672,6.577,27.672,34.077v52l-10-17.5
		L469.5,306c0,0-4.5-18-15.5-18C454,288,466.656,279.846,467.328,261.923z"/>
	<path fill-rule="evenodd" clip-rule="evenodd" fill="#B4DEF6" d="M428.5,210c0,0,30,9,30,43c0,0,2,34-29,34H411c0,0-7,1-12.5-2.5
		l-9.104,2.415c0,0,7.604,8.585,27.104,8.585H430c0,0,32.5-1.5,37-28v-22C467,245.5,461,210,428.5,210z"/>
	<path fill-rule="evenodd" clip-rule="evenodd" fill="#B4DEF6" d="M415.667,439.334c0,0,16.333,10.166,40.833,5.166
		c0,0,7.5,11.5,24,5.5v-8.494c0,0-12.508,6.104-22.004-8.701c0,0-29.53,2.739-48.829-8.471L415.667,439.334z"/>
	<path fill-rule="evenodd" clip-rule="evenodd" fill="#B4DEF6" d="M439,321.5c0,0-5.5,9.5,1.5,19.5l16,26l-2.5,21h8.078
		l2.797-22.087L439,321.5z"/>
</g>
<g>
	<g>
		<path fill="#045F9B" d="M426.205,200.237c-22.712,0-41.124,18.41-41.124,41.123v9c0-22.713,18.412-41.123,41.124-41.123
			c22.711,0,41.123,18.41,41.123,41.123v-9C467.328,218.647,448.916,200.237,426.205,200.237z"/>
	</g>
	<g>
		<polygon fill="#045F9B" points="372.234,331.408 363.253,331.991 360.922,298.066 369.903,297.483 		"/>
		<rect x="407.078" y="334.737" fill-rule="evenodd" clip-rule="evenodd" fill="#045F9B" width="18" height="9"/>
		<polygon fill="#045F9B" points="488.078,336.237 458.515,353.737 454.078,345.907 483.642,328.407 		"/>
	</g>
</g>
<g>
	
		<rect x="275.171" y="560.234" transform="matrix(-0.9871 -0.1603 0.1603 -0.9871 541.5518 1169.1415)" fill="#9D9E9F" width="85.498" height="4.998"/>
	<path fill="none" stroke="#0A3656" stroke-width="3" stroke-miterlimit="10" d="M364.08,545.648l-4.324,26.65l-84.967-13.793
		c0,0,0.457-27.282,35.991-21.513L364.08,545.648z"/>
	
		<line fill="none" stroke="#0A3656" stroke-width="3" stroke-miterlimit="10" x1="360.557" y1="567.364" x2="275.998" y2="553.636"/>
	<path fill="none" stroke="#0A3656" stroke-width="3" stroke-miterlimit="10" d="M284.69,541.201l25.741,4.179
		c0,0,25.004,4.057,26.181-3.178"/>
</g>
<g>
	
		<rect x="497.22" y="548.396" transform="matrix(-0.4412 0.8974 -0.8974 -0.4412 1272.5812 309.3676)" fill="#9D9E9F" width="85.501" height="5.002"/>
	<path fill="none" stroke="#0A3656" stroke-width="3" stroke-miterlimit="10" d="M537.093,501.758l24.229,11.912l-37.977,77.249
		c0,0-25.96-8.392-10.077-40.699L537.093,501.758z"/>
	
		<line fill="none" stroke="#0A3656" stroke-width="3" stroke-miterlimit="10" x1="556.836" y1="511.465" x2="519.039" y2="588.343"/>
	<path fill="none" stroke="#0A3656" stroke-width="3" stroke-miterlimit="10" d="M509.684,576.401l11.506-23.403
		c0,0,11.173-22.734,4.594-25.969"/>
</g>
<g>
	<g>
		<path fill="none" stroke="#0A3656" stroke-width="3" stroke-miterlimit="10" d="M290.361,282.135
			c3.293-0.719,6.829-0.496,10.195,0.846l41.404,16.501l45.188-3.429"/>
		<path fill="none" stroke="#0A3656" stroke-width="3" stroke-miterlimit="10" d="M370.5,332.418l-29.931,2.27
			c-0.441,0.033-0.884,0.05-1.324,0.05c-2.215,0-4.414-0.421-6.479-1.243l-45.167-18c-8.979-3.578-13.356-13.757-9.778-22.735
			c0.276-0.694,0.592-1.36,0.943-1.997"/>
	</g>
</g>
<polyline fill="none" stroke="#0A3656" stroke-width="3" stroke-miterlimit="10" points="370.128,332.045 363.253,332.491 
	360.922,298.566 369.903,297.983 371.361,319.19 "/>
<polyline fill-rule="evenodd" clip-rule="evenodd" fill="#B4DEF6" stroke="#0A3656" stroke-width="3" stroke-miterlimit="10" points="
	288.477,281.3 285.361,262.893 276.488,264.395 279.491,282.142 "/>
<polyline fill-rule="evenodd" clip-rule="evenodd" fill="#B4DEF6" stroke="#0A3656" stroke-width="3" stroke-miterlimit="10" points="
	284.941,314.352 315.584,499.403 320.584,474.484 294.482,316.795 "/>
<polyline fill="none" stroke="#0A3656" stroke-width="3" stroke-miterlimit="10" points="379.5,247 276.444,264.136 
	259.927,166.523 384.161,145.502 395.5,212.5 "/>
<g>
	<path fill-rule="evenodd" clip-rule="evenodd" fill="#F37725" d="M306.788,216.019c0.994,0.638,1.974,1.333,3.024,1.928
		c3.188,1.809,6.639,2.861,10.239,3.471c2.433,0.41,4.882,0.603,7.348,0.544c1.626-0.04,3.254-0.16,4.869-0.338
		c1.437-0.159,2.878-0.379,4.296-0.677c4.965-1.052,9.66-2.82,13.967-5.554c3.034-1.927,5.714-4.24,7.849-7.16
		c0.276-0.372,0.591-0.717,0.774-0.943c-0.66,3.267-1.956,6.493-3.848,9.472c-1.896,2.985-4.271,5.526-7.114,7.623
		c-2.841,2.102-5.964,3.64-9.379,4.555c-6.846,1.818-13.495,1.237-19.888-1.813C313.746,224.651,309.723,220.891,306.788,216.019z"
		/>
	<path fill-rule="evenodd" clip-rule="evenodd" fill="#F37725" d="M303.494,196.552c1.896-10.344,10.175-19.694,21.663-22.206
		c14.216-3.104,25.805,4.634,30.671,13.203c-0.473-0.316-1.021-0.69-1.583-1.06c-2.495-1.634-5.216-2.75-8.079-3.533
		c-2.977-0.805-6.013-1.23-9.094-1.295c-1.506-0.032-3.028,0.041-4.54,0.102c-2.109,0.09-4.186,0.441-6.244,0.86
		c-1.356,0.278-2.696,0.661-4.025,1.033c-2.331,0.662-4.567,1.56-6.729,2.643c-3.736,1.865-7.123,4.218-9.882,7.385
		c-0.717,0.814-1.319,1.729-1.979,2.602C303.616,196.366,303.564,196.442,303.494,196.552z"/>
	<path fill-rule="evenodd" clip-rule="evenodd" fill="#777778" d="M342.725,169.609c-0.411-2.203,1.004-4.514,3.505-4.952
		c2.515-0.444,4.562,1.348,4.922,3.502c0.37,2.231-1.111,4.511-3.476,4.933C345.37,173.498,343.107,171.939,342.725,169.609z"/>
	<path fill-rule="evenodd" clip-rule="evenodd" fill="#9D9E9F" d="M310.683,237.704c-0.518-2.772,1.257-5.68,4.402-6.232
		c3.161-0.554,5.737,1.699,6.188,4.406c0.467,2.806-1.395,5.676-4.372,6.198C314.007,242.59,311.157,240.635,310.683,237.704z"/>
	<path fill-rule="evenodd" clip-rule="evenodd" fill="#474749" d="M321.634,207.06c0.017,0.096,0.034,0.198,0.051,0.3
		c0.243,1.438,0.481,2.875,0.732,4.31c0.05,0.257-0.005,0.354-0.274,0.39c-0.422,0.047-0.84,0.134-1.307,0.213
		c-0.73-4.316-1.454-8.596-2.182-12.894c0.437-0.073,0.902-0.152,1.404-0.237c0.109,0.492,0.222,0.979,0.345,1.513
		c0.157-0.273,0.267-0.5,0.409-0.707c1.431-2.115,4.516-2.232,6.15-0.235c0.761,0.934,1.099,2.03,1.207,3.208
		c0.074,0.856,0.003,1.694-0.314,2.497c-0.756,1.952-2.712,2.755-4.279,2.557c-0.632-0.077-1.187-0.342-1.671-0.756
		c-0.072-0.06-0.145-0.12-0.217-0.18C321.672,207.046,321.651,207.051,321.634,207.06z M321.027,203.788
		c0.023,0.002,0.048-0.002,0.07-0.006c0.053,0.309,0.091,0.626,0.163,0.924c0.26,1.142,1.217,1.96,2.369,2.034
		c1.185,0.084,2.278-0.573,2.664-1.67c0.524-1.502,0.313-2.936-0.57-4.242c-0.53-0.777-1.294-1.207-2.257-1.135
		c-1.283,0.096-2.389,1.183-2.512,2.513C320.903,202.726,321,203.26,321.027,203.788z"/>
	<path fill-rule="evenodd" clip-rule="evenodd" fill="#474749" d="M354.107,201.201c0.154,0.361,0.314,0.735,0.495,1.174
		c-0.512,0.229-1.005,0.496-1.527,0.668c-0.976,0.339-1.979,0.578-3.028,0.45c-1.789-0.216-3.304-1.624-3.648-3.391
		c-0.199-1.034-0.271-2.073,0.013-3.111c0.628-2.277,2.611-3.304,4.61-3.112c0.547,0.053,1.055,0.242,1.494,0.574
		c1.284,0.975,1.674,2.367,1.878,3.889c-0.127,0.021-0.231,0.039-0.333,0.057c-1.936,0.328-3.877,0.656-5.811,0.983
		c-0.317,0.054-0.332,0.075-0.256,0.394c0.41,1.657,1.889,2.619,3.57,2.303c0.443-0.084,0.889-0.183,1.314-0.335
		C353.297,201.604,353.688,201.387,354.107,201.201z M352.652,197.313c0.055-0.823-0.501-1.711-1.315-2.108
		c-0.884-0.444-1.872-0.307-2.646,0.396c-0.757,0.674-1.065,1.521-0.943,2.542C349.41,197.861,351.03,197.587,352.652,197.313z"/>
	<path fill-rule="evenodd" clip-rule="evenodd" fill="#474749" d="M313.812,200.132c0.567-0.096,1.089-0.184,1.646-0.278
		c0.517,3.056,1.031,6.1,1.549,9.159c-0.444,0.075-0.918,0.155-1.407,0.238c-0.113-0.46-0.226-0.913-0.358-1.44
		c-0.077,0.149-0.121,0.236-0.165,0.326c-0.704,1.402-2.307,2.182-3.837,1.884c-1.115-0.219-1.778-0.955-2.189-1.949
		c-0.173-0.407-0.306-0.841-0.384-1.271c-0.322-1.791-0.614-3.585-0.917-5.378c-0.01-0.058-0.013-0.116-0.021-0.195
		c0.533-0.09,1.063-0.18,1.618-0.273c0.02,0.104,0.045,0.198,0.063,0.3c0.26,1.537,0.51,3.072,0.786,4.601
		c0.087,0.464,0.209,0.923,0.376,1.358c0.619,1.6,2.078,1.591,3.071,0.988c0.878-0.536,1.282-1.358,1.122-2.387
		c-0.276-1.783-0.594-3.563-0.896-5.351C313.851,200.361,313.834,200.26,313.812,200.132z"/>
	<path fill-rule="evenodd" clip-rule="evenodd" fill="#474749" d="M337.134,196.228c-0.156,0.813-0.31,1.579-0.473,2.346
		c-0.535,2.497-1.062,4.997-1.622,7.494c-0.201,0.881-0.502,1.742-0.95,2.543c-0.509,0.905-1.199,1.646-2.153,2.115
		c-0.072,0.036-0.156,0.066-0.263,0.108c-0.211-0.433-0.413-0.851-0.626-1.288c0.104-0.066,0.198-0.122,0.286-0.187
		c1.147-0.75,1.841-1.814,2.175-3.129c0.075-0.304-0.051-0.545-0.199-0.788c-0.837-1.354-1.671-2.714-2.508-4.073
		c-0.709-1.154-1.42-2.303-2.127-3.457c-0.037-0.065-0.075-0.132-0.128-0.216c0.069-0.025,0.12-0.053,0.172-0.062
		c0.479-0.081,0.953-0.158,1.419-0.248c0.146-0.024,0.222,0.013,0.297,0.143c1.211,2.146,2.419,4.298,3.633,6.447
		c0.034,0.058,0.072,0.113,0.14,0.233c0.042-0.32,0.07-0.58,0.11-0.835c0.348-2.215,0.696-4.442,1.057-6.659
		c0.015-0.084,0.104-0.198,0.171-0.212C336.055,196.402,336.572,196.322,337.134,196.228z"/>
	<path fill-rule="evenodd" clip-rule="evenodd" fill="#626463" d="M302.604,185.194c-1.682,0.276-3.289-0.875-3.561-2.558
		c-0.271-1.674,0.896-3.301,2.563-3.575c1.678-0.273,3.283,0.866,3.564,2.522C305.453,183.308,304.316,184.907,302.604,185.194z"/>
	<path fill-rule="evenodd" clip-rule="evenodd" fill="#474749" d="M340.174,196.965c-0.476,0.08-0.924,0.156-1.391,0.235
		c-0.069-0.411-0.136-0.804-0.207-1.223c0.388-0.065,0.75-0.138,1.123-0.185c0.247-0.025,0.322-0.111,0.272-0.365
		c-0.112-0.556-0.186-1.127-0.295-1.679c-0.043-0.209,0.021-0.301,0.204-0.372c0.423-0.162,0.837-0.345,1.287-0.527
		c0.148,0.877,0.293,1.735,0.443,2.622c0.284-0.048,0.539-0.091,0.794-0.134c0.463-0.079,0.933-0.152,1.394-0.238
		c0.176-0.037,0.238,0.016,0.266,0.185c0.033,0.254,0.072,0.515,0.13,0.772c0.038,0.182-0.026,0.246-0.204,0.271
		c-0.625,0.098-1.24,0.21-1.863,0.315c-0.09,0.015-0.184,0.031-0.293,0.049c0.017,0.112,0.018,0.197,0.032,0.284
		c0.269,1.592,0.531,3.186,0.816,4.777c0.06,0.316,0.173,0.644,0.313,0.932c0.208,0.426,0.582,0.63,1.06,0.567
		c0.368-0.04,0.734-0.118,1.146-0.188c0.067,0.305,0.15,0.656,0.223,1.016c0.012,0.044-0.041,0.139-0.083,0.156
		c-0.933,0.423-1.89,0.711-2.892,0.229c-0.635-0.302-0.952-0.877-1.194-1.496c-0.088-0.228-0.136-0.471-0.176-0.71
		c-0.287-1.688-0.571-3.376-0.856-5.063C340.211,197.13,340.198,197.064,340.174,196.965z"/>
	<path fill-rule="evenodd" clip-rule="evenodd" fill="#474749" d="M302.851,215.451c-0.142-0.436-0.257-0.808-0.384-1.207
		c0.127-0.037,0.257-0.067,0.373-0.104c1.249-0.445,1.782-1.271,1.607-2.611c-0.184-1.438-0.414-2.868-0.646-4.298
		c-0.266-1.663-0.553-3.314-0.84-4.967c-0.043-0.252,0.022-0.336,0.269-0.367c0.438-0.056,0.874-0.146,1.34-0.225
		c0.023,0.141,0.04,0.237,0.058,0.34c0.438,2.588,0.878,5.172,1.307,7.756c0.104,0.624,0.202,1.258,0.215,1.891
		c0.013,0.761-0.202,1.5-0.604,2.146c-0.395,0.643-1.018,1.042-1.707,1.33C303.533,215.264,303.198,215.339,302.851,215.451z"/>
	<path fill-rule="evenodd" clip-rule="evenodd" fill="#474749" d="M356.132,193.015c0.465-0.079,0.921-0.155,1.425-0.241
		c0.101,0.594,0.2,1.181,0.299,1.766c0.027-0.004,0.059-0.006,0.083-0.002c0.024-0.087,0.051-0.172,0.067-0.263
		c0.25-1.163,1.168-2.028,2.347-2.218c0.173-0.023,0.247,0.012,0.278,0.197c0.063,0.433,0.143,0.859,0.214,1.276
		c-0.347,0.092-0.665,0.148-0.962,0.268c-0.973,0.384-1.561,1.318-1.501,2.353c0.029,0.474,0.079,0.942,0.155,1.402
		c0.218,1.336,0.445,2.677,0.678,4.009c0.042,0.236-0.014,0.327-0.25,0.359c-0.435,0.052-0.859,0.138-1.291,0.21
		C357.158,199.082,356.647,196.062,356.132,193.015z"/>
</g>
<path fill="none" stroke="#0A3656" stroke-width="3" stroke-miterlimit="10" d="M467.328,272.237c0,0,18,9,18,27v33.262"/>
<line fill="none" stroke="#0A3656" stroke-width="3" stroke-miterlimit="10" x1="405.5" y1="407.237" x2="449.168" y2="407.237"/>
<polyline fill="none" stroke="#0A3656" stroke-width="3" stroke-miterlimit="10" points="375.078,370.837 375.078,407.237 
	392.834,407.237 "/>
<path fill="none" stroke="#0A3656" stroke-width="3" stroke-miterlimit="10" d="M393.103,291.383
	c-5.261,2.945-18.024,11.563-18.024,25.854"/>
<path fill="none" stroke="#0A3656" stroke-width="3" stroke-miterlimit="10" d="M496.5,389.237h6.828
	c8.698,0,15.75-7.053,15.75-15.75v-21.25v-61v-21.25c0-8.698-7.052-15.75-15.75-15.75h-36"/>
<path fill="none" stroke="#0A3656" stroke-width="3" stroke-miterlimit="10" d="M467.328,261.923
	c0,22.712-18.412,33.508-41.123,33.508c-22.712,0-41.124-0.481-41.124-23.193V241.36c0-22.713,18.412-41.123,41.124-41.123
	c22.711,0,41.123,18.41,41.123,41.123V261.923z"/>
<path fill="none" stroke="#0A3656" stroke-width="3" stroke-miterlimit="10" d="M385.081,250.36
	c0-22.713,18.412-41.123,41.124-41.123c22.711,0,41.123,18.41,41.123,41.123"/>
<circle fill="none" stroke="#0A3656" stroke-width="3" stroke-miterlimit="10" cx="430.079" cy="253.737" r="11.5"/>
<g>
	<path fill="#F16523" stroke="#0A3656" stroke-width="3" stroke-miterlimit="10" d="M389.396,286.915
		c23.186,0,22.686-29.678,22.686-29.678c0-22.534-16.112-31.354-23.44-32.609C388.641,224.628,366.71,256.593,389.396,286.915z"/>
</g>
<line fill="none" stroke="#0A3656" stroke-width="3" stroke-miterlimit="10" x1="394.5" y1="389.237" x2="462.078" y2="389.237"/>
<line fill="none" stroke="#0A3656" stroke-width="3" stroke-miterlimit="10" x1="375.078" y1="389.237" x2="384.5" y2="389.237"/>
<line fill="none" stroke="#0A3656" stroke-width="3" stroke-miterlimit="10" x1="411.078" y1="344.172" x2="411.078" y2="389.237"/>
<path fill="none" stroke="#0A3656" stroke-width="3" stroke-miterlimit="10" d="M423.838,294.828
	c-5.768,4.362-12.76,11.832-12.76,22.409v17.6"/>
<line fill="none" stroke="#0A3656" stroke-width="3" stroke-miterlimit="10" x1="420.078" y1="389.237" x2="420.078" y2="344.171"/>
<path fill="none" stroke="#0A3656" stroke-width="3" stroke-miterlimit="10" d="M433.084,295.411
	c-5.604,4.43-13.006,11.706-13.006,21.826v17.934"/>
<rect x="407.078" y="335.237" fill-rule="evenodd" clip-rule="evenodd" fill="none" stroke="#0A3656" stroke-width="3" stroke-miterlimit="10" width="18" height="9"/>
<g>
	<g>
		<path fill="none" stroke="#0A3656" stroke-width="3" stroke-miterlimit="10" d="M493.69,411.315
			c5.302-6.424,9.355-13.917,11.789-22.106 M452.44,424.74c-2.407,0.328-4.864,0.497-7.362,0.497c-29.823,0-54-24.177-54-54h-9
			c0,34.794,28.206,63,63,63c4.604,0,9.094-0.494,13.418-1.433"/>
	</g>
</g>
<path fill="none" stroke="#0A3656" stroke-width="3" stroke-miterlimit="10" d="M370.578,366.737c0,2.485,2.015,4.5,4.5,4.5h27
	c2.485,0,4.5-2.015,4.5-4.5v-45c0-2.485-2.015-4.5-4.5-4.5h-27c-2.485,0-4.5,2.015-4.5,4.5V366.737z"/>
<g>
	<path fill-rule="evenodd" clip-rule="evenodd" fill="#F37725" d="M379.034,342.751c0.253,0.294,0.499,0.608,0.771,0.891
		c0.824,0.856,1.76,1.454,2.761,1.898c0.675,0.3,1.366,0.521,2.074,0.652c0.467,0.086,0.938,0.143,1.408,0.178
		c0.419,0.03,0.841,0.039,1.261,0.018c1.471-0.077,2.898-0.433,4.263-1.164c0.961-0.516,1.839-1.194,2.591-2.128
		c0.097-0.119,0.203-0.226,0.267-0.297c-0.347,1.151-0.873,2.249-1.559,3.219c-0.687,0.973-1.488,1.753-2.402,2.343
		c-0.914,0.592-1.882,0.96-2.902,1.083c-2.045,0.241-3.919-0.382-5.599-1.89C380.605,346.331,379.637,344.71,379.034,342.751z"/>
	<path fill-rule="evenodd" clip-rule="evenodd" fill="#F37725" d="M379.034,335.443c1.042-3.657,3.861-6.559,7.268-6.766
		c4.215-0.255,7.155,3.284,8.131,6.712c-0.119-0.145-0.259-0.314-0.4-0.484c-0.635-0.75-1.358-1.325-2.14-1.788
		c-0.812-0.478-1.66-0.82-2.537-1.034c-0.43-0.104-0.868-0.172-1.304-0.243c-0.607-0.098-1.218-0.098-1.827-0.071
		c-0.4,0.018-0.803,0.074-1.2,0.128c-0.698,0.098-1.382,0.287-2.052,0.549c-1.159,0.45-2.241,1.1-3.184,2.085
		c-0.244,0.253-0.461,0.55-0.691,0.827C379.077,335.384,379.059,335.408,379.034,335.443z"/>
	<path fill-rule="evenodd" clip-rule="evenodd" fill="#777778" d="M391.555,328.034c-0.011-0.829,0.506-1.585,1.241-1.591
		c0.741-0.007,1.239,0.773,1.238,1.582c-0.002,0.837-0.536,1.577-1.232,1.585C392.123,329.616,391.551,328.908,391.555,328.034z"/>
	<path fill-rule="evenodd" clip-rule="evenodd" fill="#9D9E9F" d="M379.098,350.905c-0.014-1.044,0.635-1.995,1.561-2.003
		c0.931-0.007,1.559,0.975,1.557,1.99c-0.003,1.053-0.674,1.985-1.551,1.992C379.813,352.894,379.092,352.004,379.098,350.905z"/>
	<path fill-rule="evenodd" clip-rule="evenodd" fill="#474749" d="M383.712,340.398c0,0.036,0,0.074,0,0.112
		c0,0.54-0.001,1.079,0.001,1.618c0.002,0.097-0.019,0.129-0.098,0.125c-0.123-0.009-0.246-0.003-0.384-0.003c0-1.62,0-3.227,0-4.84
		c0.129,0,0.266,0,0.413,0c0.008,0.187,0.017,0.371,0.025,0.573c0.059-0.09,0.101-0.166,0.151-0.232
		c0.512-0.684,1.399-0.536,1.771,0.294c0.172,0.388,0.215,0.809,0.189,1.245c-0.02,0.317-0.081,0.618-0.211,0.892
		c-0.311,0.666-0.908,0.838-1.348,0.669c-0.176-0.067-0.322-0.198-0.441-0.379c-0.018-0.026-0.035-0.053-0.053-0.079
		C383.724,340.396,383.718,340.396,383.712,340.398z M383.697,339.167c0.006,0.002,0.014,0.002,0.021,0.002
		c0,0.116-0.005,0.234,0.001,0.348c0.02,0.433,0.254,0.79,0.579,0.889c0.335,0.104,0.68-0.068,0.843-0.445
		c0.223-0.516,0.231-1.052,0.042-1.583c-0.114-0.316-0.312-0.521-0.59-0.554c-0.372-0.044-0.741,0.284-0.84,0.762
		C383.713,338.771,383.715,338.973,383.697,339.167z"/>
	<path fill-rule="evenodd" clip-rule="evenodd" fill="#474749" d="M393.28,340.266c0.027,0.142,0.055,0.288,0.085,0.459
		c-0.157,0.052-0.312,0.119-0.469,0.149c-0.295,0.063-0.594,0.089-0.888-0.022c-0.501-0.189-0.866-0.797-0.879-1.463
		c-0.007-0.39,0.022-0.773,0.153-1.135c0.29-0.792,0.907-1.044,1.47-0.851c0.153,0.053,0.29,0.153,0.399,0.302
		c0.319,0.435,0.363,0.967,0.349,1.535c-0.038,0-0.068,0-0.098,0c-0.569,0-1.141,0-1.71,0c-0.093,0-0.098,0.007-0.092,0.128
		c0.037,0.63,0.413,1.072,0.909,1.061c0.131-0.003,0.263-0.012,0.393-0.041C393.029,340.362,393.152,340.308,393.28,340.266z
		 M393.053,338.757c0.056-0.297-0.061-0.655-0.274-0.851c-0.23-0.217-0.521-0.228-0.775-0.019c-0.249,0.199-0.378,0.489-0.393,0.869
		C392.1,338.757,392.576,338.757,393.053,338.757z"/>
	<path fill-rule="evenodd" clip-rule="evenodd" fill="#474749" d="M381.811,337.388c0.167,0,0.32,0,0.483,0c0,1.146,0,2.289,0,3.438
		c-0.131,0-0.27,0-0.414,0c-0.01-0.175-0.021-0.347-0.032-0.548c-0.029,0.05-0.046,0.079-0.063,0.109
		c-0.269,0.468-0.765,0.653-1.188,0.45c-0.309-0.148-0.463-0.458-0.532-0.847c-0.029-0.159-0.047-0.325-0.048-0.487
		c-0.006-0.674-0.003-1.347-0.003-2.02c0-0.021,0.003-0.043,0.004-0.072c0.157,0,0.313,0,0.477,0c0,0.039,0.003,0.075,0.003,0.113
		c0,0.577-0.003,1.152,0.002,1.728c0.002,0.175,0.016,0.35,0.042,0.519c0.1,0.622,0.518,0.709,0.83,0.551
		c0.277-0.142,0.433-0.417,0.437-0.802c0.008-0.668,0.003-1.337,0.003-2.008C381.811,337.474,381.811,337.436,381.811,337.388z"/>
	<path fill-rule="evenodd" clip-rule="evenodd" fill="#474749" d="M388.668,337.402c-0.084,0.287-0.165,0.558-0.249,0.827
		c-0.273,0.878-0.545,1.758-0.826,2.635c-0.1,0.309-0.228,0.604-0.395,0.869c-0.189,0.299-0.423,0.526-0.718,0.639
		c-0.023,0.009-0.048,0.015-0.08,0.023c-0.04-0.171-0.078-0.336-0.117-0.509c0.033-0.018,0.063-0.032,0.091-0.05
		c0.364-0.203,0.614-0.549,0.772-1.008c0.037-0.106,0.013-0.202-0.018-0.3c-0.174-0.546-0.347-1.094-0.521-1.642
		c-0.147-0.465-0.295-0.928-0.44-1.393c-0.008-0.026-0.016-0.053-0.026-0.087c0.021-0.005,0.036-0.012,0.052-0.012
		c0.141,0,0.28,0.001,0.418-0.003c0.043,0,0.063,0.019,0.078,0.07c0.242,0.858,0.483,1.718,0.727,2.577
		c0.007,0.023,0.015,0.046,0.028,0.094c0.027-0.114,0.049-0.207,0.072-0.298c0.206-0.787,0.414-1.578,0.624-2.365
		c0.009-0.029,0.039-0.065,0.059-0.066C388.352,337.399,388.503,337.402,388.668,337.402z"/>
	<path fill-rule="evenodd" clip-rule="evenodd" fill="#626463" d="M379.328,331.244c-0.494-0.003-0.898-0.522-0.895-1.153
		c0.004-0.628,0.417-1.149,0.906-1.146c0.493,0.004,0.896,0.519,0.896,1.141C380.234,330.731,379.832,331.245,379.328,331.244z"/>
	<path fill-rule="evenodd" clip-rule="evenodd" fill="#474749" d="M389.501,337.859c-0.14,0-0.271,0-0.408,0
		c0-0.154,0-0.302,0-0.459c0.114,0,0.221-0.004,0.33,0.002c0.071,0.006,0.098-0.021,0.096-0.116
		c-0.006-0.21,0.001-0.423-0.003-0.631c-0.003-0.079,0.021-0.108,0.076-0.123c0.129-0.033,0.256-0.074,0.393-0.113
		c0,0.329,0,0.651,0,0.984c0.084,0,0.159,0,0.234,0c0.136,0,0.273,0.002,0.41-0.001c0.052-0.003,0.066,0.021,0.066,0.084
		c-0.003,0.095-0.004,0.192,0,0.29c0.002,0.068-0.02,0.088-0.071,0.086c-0.184-0.003-0.365,0-0.548,0c-0.027,0-0.055,0-0.087,0
		c-0.001,0.042-0.005,0.073-0.005,0.105c0,0.598-0.002,1.195,0.003,1.794c0.001,0.119,0.019,0.245,0.044,0.359
		c0.039,0.168,0.137,0.266,0.275,0.272c0.107,0.008,0.216,0.002,0.337,0.002c0.005,0.115,0.012,0.249,0.015,0.385
		c0.002,0.017-0.019,0.048-0.031,0.052c-0.287,0.097-0.574,0.143-0.838-0.095c-0.167-0.149-0.229-0.379-0.269-0.62
		c-0.015-0.088-0.017-0.18-0.017-0.27c0-0.634,0-1.268,0-1.9C389.504,337.922,389.504,337.897,389.501,337.859z"/>
	<path fill-rule="evenodd" clip-rule="evenodd" fill="#474749" d="M377.936,342.301c-0.02-0.168-0.035-0.311-0.052-0.464
		c0.038-0.006,0.076-0.009,0.111-0.016c0.379-0.085,0.571-0.354,0.587-0.854c0.017-0.536,0.021-1.072,0.022-1.608
		c0.005-0.623,0.002-1.243,0-1.864c0-0.095,0.022-0.121,0.095-0.117c0.128,0.007,0.258,0.001,0.395,0.001c0,0.053,0,0.089,0,0.127
		c0,0.972,0,1.941-0.002,2.911c-0.001,0.234-0.003,0.472-0.03,0.703c-0.033,0.278-0.13,0.535-0.276,0.746
		c-0.144,0.21-0.342,0.317-0.553,0.38C378.14,342.274,378.04,342.281,377.936,342.301z"/>
	<path fill-rule="evenodd" clip-rule="evenodd" fill="#474749" d="M394.256,337.403c0.137,0,0.271,0,0.419,0
		c0,0.223,0,0.443,0,0.663c0.008,0,0.017,0.001,0.023,0.004c0.012-0.03,0.023-0.06,0.032-0.092c0.128-0.409,0.433-0.668,0.778-0.664
		c0.051,0.002,0.07,0.02,0.07,0.089c-0.003,0.162-0.001,0.322-0.001,0.479c-0.104,0.012-0.197,0.013-0.287,0.038
		c-0.297,0.08-0.511,0.385-0.544,0.766c-0.015,0.175-0.022,0.349-0.023,0.521c-0.002,0.501-0.002,1.004,0,1.505
		c0.001,0.089-0.02,0.118-0.089,0.115c-0.127-0.008-0.252-0.003-0.379-0.003C394.256,339.681,394.256,338.547,394.256,337.403z"/>
</g>
<path fill="none" stroke="#0A3656" stroke-width="3" stroke-linecap="round" stroke-linejoin="round" stroke-miterlimit="10" d="
	M303.078,300.237c0,9.941,0.941,17-9,17s-18-8.059-18-18c0-2.96,0.714-5.751,1.979-8.214"/>
<path fill="none" stroke="#0A3656" stroke-width="3" stroke-linecap="round" stroke-linejoin="round" stroke-miterlimit="10" d="
	M303.078,299.862c-9,0-13-9-13-9h-9.5c-2.485,0-4.5-2.015-4.5-4.5s2.015-4.5,4.5-4.5h15.5"/>
<line fill="none" stroke="#0A3656" stroke-width="3" stroke-miterlimit="10" x1="321.578" y1="291.737" x2="309.078" y2="323.737"/>
<path fill="none" stroke="#0A3656" stroke-width="3" stroke-miterlimit="10" d="M456.563,426.631
	c-5.495-1.709-9.484-6.836-9.484-12.894c0-7.456,6.044-13.5,13.5-13.5"/>
<g>
	<g>
		<path fill="none" stroke="#0A3656" stroke-width="3" stroke-miterlimit="10" d="M474.1,442.739c-0.824,0-1.656-0.058-2.496-0.178
			c-9.568-1.367-16.217-10.231-14.85-19.799l8.121-56.85l-23.803-39.672c-4.973-8.288-2.285-19.037,6.002-24.01
			c8.288-4.974,19.038-2.285,24.01,6.002l27,45c2.068,3.446,2.887,7.5,2.318,11.479l-9,63
			C490.155,436.44,482.668,442.738,474.1,442.739z"/>
	</g>
</g>
<polygon fill="none" stroke="#0A3656" stroke-width="3" stroke-miterlimit="10" points="488.078,336.737 458.515,354.237 
	454.078,346.407 483.642,328.907 "/>
<line fill="none" stroke="#0A3656" stroke-width="3" stroke-miterlimit="10" x1="461.078" y1="399.237" x2="494.578" y2="403.737"/>
<g>
	<path fill="none" stroke="#0A3656" stroke-width="3" stroke-linecap="round" stroke-linejoin="round" stroke-miterlimit="10" d="
		M416.667,445.667l-42.828,39.521l-9.688,60.183l-54.301-8.74l11-68.333c0.855-5.316,3.254-10.265,6.896-14.231l47.256-47.731"/>
</g>
<g>
	<path fill="none" stroke="#0A3656" stroke-width="3" stroke-linecap="round" stroke-linejoin="round" stroke-miterlimit="10" d="
		M409.001,423.001l28.913,81.93c2.183,7.473,7.43,13.67,14.44,17.054l60.879,29.392l23.912-49.529l-49.867-24.075l-8.64-35.767"/>
</g>
<ellipse fill-rule="evenodd" clip-rule="evenodd" fill="none" stroke="#F16624" stroke-width="0.5786" stroke-linecap="round" stroke-linejoin="round" stroke-miterlimit="10" cx="454" cy="569.875" rx="29.75" ry="5.125"/>
<ellipse fill-rule="evenodd" clip-rule="evenodd" fill="#F16523" cx="254" cy="550" rx="5.667" ry="1.422"/>
<line fill="none" stroke="#0A3656" stroke-width="3" stroke-linecap="round" stroke-linejoin="round" stroke-miterlimit="10" x1="530" y1="498.5" x2="506.5" y2="547"/>
<line fill="none" stroke="#0A3656" stroke-width="3" stroke-linecap="round" stroke-linejoin="round" stroke-miterlimit="10" x1="311.5" y1="528.5" x2="365" y2="538.5"/>
<polyline fill="none" stroke="#0A3656" stroke-width="3" stroke-linecap="round" stroke-linejoin="round" stroke-miterlimit="10" points="
	373.839,485.188 320.584,474.484 319,483.5 372,494 "/>
<polyline fill="none" stroke="#0A3656" stroke-width="3" stroke-linecap="round" stroke-linejoin="round" stroke-miterlimit="10" points="
	486.5,475.5 443.5,515 453,522 489,479 "/>
</svg>
