<?xml version="1.0" encoding="utf-8"?>
<!-- Generator: Adobe Illustrator 16.0.0, SVG Export Plug-In . SVG Version: 6.00 Build 0)  -->
<!DOCTYPE svg PUBLIC "-//W3C//DTD SVG 1.1//EN" "http://www.w3.org/Graphics/SVG/1.1/DTD/svg11.dtd">
<svg version="1.1" id="Layer_1" xmlns="http://www.w3.org/2000/svg" xmlns:xlink="http://www.w3.org/1999/xlink" x="0px" y="0px"
	 width="800px" height="800px" viewBox="0 0 800 800" enable-background="new 0 0 800 800" xml:space="preserve">
<g>
	<path fill="#B4DEF6" d="M294.604,421.032c-10.969,0-20.11-5.485-20.11-5.485l-48.831-42.843c-3.062,5.693-5.338,11.379-6.884,17.04
		l51.597,41.91c4.879,3.962,10.975,6.125,17.262,6.125l99.533-0.016c11.343-0.003,21.064-6.902,25.217-16.731H294.604z"/>
</g>
<g>
	<path fill="#0A3656" d="M523.84,245.747c-32.667,0.672-66.809,5.346-97.375,16.338c-56.109,20.188-110.283,45.885-164.742,70.442
		c-4.198,1.893-8.29,4.443-12.143,7.407l47.933,38.932l89.818-0.013c15.115-0.006,27.372,12.25,27.372,27.367
		c0.004,1.327-0.093,2.628-0.273,3.903c-1.896,13.269-13.3,23.469-27.094,23.472l-99.533,0.016c-6.287,0-12.383-2.163-17.262-6.125
		l-51.597-41.91c-8.644,31.646,5.532,62.5,32.669,89.384c28.732,28.469,58.484,55.908,87.708,83.884
		c15.542,14.875,32.652,26.137,56.603,25.29c21.477,3.08,40.162-5.662,55.211-21.551c14.727-15.548,29.668-31.377,41.473-49.107
		c14.215-21.348,32.021-34.991,53.688-42.15V246.804C539.066,245.922,531.576,245.588,523.84,245.747z"/>
</g>
<g>
	<path fill="#9D9E9F" d="M350.961,433.077c0,10.505,10.504,10.505,10.504,10.505h26.265c2.901,0,5.253-2.352,5.253-5.253
		s-2.351-4.784-5.253-4.784"/>
	<path fill="#9D9E9F" d="M395.086,379.651l1.564-9.944h16.311v-5h18v-35h-18v-5h-108v45h36c8.927,0,13.099,4.346,15.036,8.726"/>
	<path fill="#9D9E9F" d="M510.716,343.457h-7.755v-0.75h-18v-9h-6v-4h-18v4h-29.999v27h29.503l0.496,4h18l0.172-4h5.828v-9h18v-0.75
		h7.755c2.071,0,3.749-1.679,3.749-3.75S512.787,343.457,510.716,343.457z"/>
</g>
<rect x="377.295" y="329.874" fill="#FFFFFF" width="31.333" height="9"/>
<rect x="309.628" y="329.874" fill="#FFFFFF" width="55" height="9"/>
<rect x="434.962" y="337.541" fill="#FFFFFF" width="22.333" height="9"/>
<rect x="416.628" y="333.874" fill="#FFFFFF" width="10" height="9"/>
<rect x="464.628" y="333.874" fill="#FFFFFF" width="10" height="9"/>
<rect x="225.181" y="370.698" transform="matrix(0.6549 -0.7557 0.7557 0.6549 -198.2009 321.9368)" fill="#045F9B" width="56.468" height="14.595"/>
<polygon fill="#FFFFFF" points="485.295,540.374 485.295,414.374 494.295,414.374 494.295,279.374 485.295,279.374 485.295,216.374 
	573.295,216.374 573.295,539.874 "/>
<polygon fill="#FBD5C9" points="501.295,540.374 501.295,414.374 571.295,414.374 571.295,279.374 501.295,279.374 501.295,216.374 
	589.295,216.374 589.295,539.874 "/>
<rect x="493.962" y="278.208" fill="#F16824" width="63.334" height="136.667"/>
<g>
	<path fill="#9D9E9F" d="M284.795,521.874c42.733,0,77.5-34.767,77.5-77.5h16c0,51.556-41.945,93.5-93.5,93.5"/>
</g>
<g>
	<g>
		<path fill="none" stroke="#0A3656" stroke-width="3" stroke-linecap="round" stroke-linejoin="round" stroke-miterlimit="10" d="
			M220.201,386.325l50.674,41.161c4.879,3.962,10.975,6.125,17.262,6.125l99.533-0.016c13.794-0.003,25.197-10.203,27.094-23.472
			c0.181-1.275,0.277-2.576,0.273-3.903c0-15.117-12.257-27.373-27.372-27.367l-89.818,0.013l-46.674-37.908"/>
	</g>
</g>
<line fill="none" stroke="#0A3656" stroke-width="3" stroke-miterlimit="10" x1="350.527" y1="377.786" x2="350.527" y2="433.874"/>
<rect x="304.79" y="324.874" fill="none" stroke="#0A3656" stroke-width="3" stroke-miterlimit="10" width="108" height="45"/>
<rect x="412.79" y="329.874" fill="none" stroke="#0A3656" stroke-width="3" stroke-miterlimit="10" width="18" height="35"/>
<rect x="460.79" y="329.874" fill="none" stroke="#0A3656" stroke-width="3" stroke-miterlimit="10" width="18" height="35"/>
<polyline fill="none" stroke="#0A3656" stroke-width="3" stroke-miterlimit="10" points="460.295,360.874 430.791,360.874 
	430.791,333.874 460.963,333.874 "/>
<polyline fill="none" stroke="#0A3656" stroke-width="3" stroke-miterlimit="10" points="478.629,333.874 484.79,333.874 
	484.79,360.874 478.963,360.874 "/>
<line fill="none" stroke="#0A3656" stroke-width="3" stroke-miterlimit="10" x1="445.79" y1="333.874" x2="445.79" y2="360.874"/>
<line fill="none" stroke="#0A3656" stroke-width="3" stroke-miterlimit="10" x1="469.79" y1="330.874" x2="469.79" y2="363.874"/>
<path fill="none" stroke="#0A3656" stroke-width="3" stroke-miterlimit="10" d="M350.79,433.244
	c0,10.505,10.505,10.505,10.505,10.505h26.264c2.901,0,5.253-2.352,5.253-5.253s-2.351-4.784-5.253-4.784"/>
<path fill="none" stroke="#0A3656" stroke-width="3" stroke-miterlimit="10" d="M355.826,378.6
	c-1.938-4.38-6.109-8.726-15.036-8.726h19.505h36.186l-1.565,9.944"/>
<rect x="315.295" y="332.874" fill="none" stroke="#0A3656" stroke-width="3" stroke-miterlimit="10" width="36" height="9"/>
<polyline fill="none" stroke="#0A3656" stroke-width="3" stroke-miterlimit="10" points="306.295,350.874 369.295,350.874 
	369.295,323.874 "/>
<path fill="none" stroke="#0A3656" stroke-width="2.9082" stroke-miterlimit="10" d="M370.795,325.347
	c4.372,0,7.916,5.715,7.916,12.765c0,7.049-3.544,12.763-7.916,12.763"/>
<g>
	<path fill="none" stroke="#0A3656" stroke-width="3" stroke-linecap="round" stroke-linejoin="round" stroke-miterlimit="10" d="
		M284.795,521.874c42.733,0,77.5-34.767,77.5-77.5h16c0,51.556-41.945,93.5-93.5,93.5"/>
</g>
<line fill="none" stroke="#F16624" stroke-width="5" stroke-linecap="round" stroke-linejoin="round" stroke-miterlimit="10" x1="584.295" y1="278.874" x2="485.295" y2="278.874"/>
<line fill="none" stroke="#F16624" stroke-width="5" stroke-linecap="round" stroke-linejoin="round" stroke-miterlimit="10" x1="584.295" y1="413.374" x2="485.295" y2="413.374"/>
<rect x="485.295" y="467.874" fill="none" stroke="#F16624" stroke-width="3" stroke-linecap="round" stroke-linejoin="round" stroke-miterlimit="10" width="99" height="27"/>
<rect x="485.295" y="422.874" fill="none" stroke="#F16624" stroke-width="3" stroke-linecap="round" stroke-linejoin="round" stroke-miterlimit="10" width="36" height="36"/>
<line fill="none" stroke="#F16624" stroke-width="3" stroke-linecap="round" stroke-linejoin="round" stroke-miterlimit="10" x1="485.295" y1="431.874" x2="521.295" y2="431.874"/>
<line fill="none" stroke="#F16624" stroke-width="3" stroke-linecap="round" stroke-linejoin="round" stroke-miterlimit="10" x1="485.295" y1="440.874" x2="521.295" y2="440.874"/>
<line fill="none" stroke="#F16624" stroke-width="3" stroke-linecap="round" stroke-linejoin="round" stroke-miterlimit="10" x1="485.295" y1="449.874" x2="521.295" y2="449.874"/>
<circle fill="none" stroke="#F16624" stroke-width="3" stroke-linecap="round" stroke-linejoin="round" stroke-miterlimit="10" cx="534.795" cy="427.374" r="4.5"/>
<circle fill="none" stroke="#F16624" stroke-width="3" stroke-linecap="round" stroke-linejoin="round" stroke-miterlimit="10" cx="534.795" cy="454.374" r="4.5"/>
<line fill="none" stroke="#F16624" stroke-width="5" stroke-linecap="round" stroke-linejoin="round" stroke-miterlimit="10" x1="485.295" y1="413.874" x2="556.295" y2="413.874"/>
<line fill="none" stroke="#FBD5C9" stroke-width="2" stroke-linecap="round" stroke-linejoin="round" stroke-miterlimit="10" x1="535.295" y1="315.348" x2="549.295" y2="315.348"/>
<line fill="none" stroke="#FBD5C9" stroke-width="2" stroke-linecap="round" stroke-linejoin="round" stroke-miterlimit="10" x1="535.295" y1="319.137" x2="549.295" y2="319.137"/>
<line fill="none" stroke="#FBD5C9" stroke-width="2" stroke-linecap="round" stroke-linejoin="round" stroke-miterlimit="10" x1="535.295" y1="341.874" x2="549.295" y2="341.874"/>
<line fill="none" stroke="#FBD5C9" stroke-width="2" stroke-linecap="round" stroke-linejoin="round" stroke-miterlimit="10" x1="535.295" y1="338.085" x2="549.295" y2="338.085"/>
<line fill="none" stroke="#FBD5C9" stroke-width="2" stroke-linecap="round" stroke-linejoin="round" stroke-miterlimit="10" x1="535.295" y1="334.295" x2="549.295" y2="334.295"/>
<line fill="none" stroke="#FBD5C9" stroke-width="2" stroke-linecap="round" stroke-linejoin="round" stroke-miterlimit="10" x1="535.295" y1="330.506" x2="549.295" y2="330.506"/>
<line fill="none" stroke="#FBD5C9" stroke-width="2" stroke-linecap="round" stroke-linejoin="round" stroke-miterlimit="10" x1="535.295" y1="326.716" x2="549.295" y2="326.716"/>
<line fill="none" stroke="#FBD5C9" stroke-width="2" stroke-linecap="round" stroke-linejoin="round" stroke-miterlimit="10" x1="535.295" y1="322.927" x2="549.295" y2="322.927"/>
<rect x="538.979" y="315.348" fill="#F16824" stroke="#FBD5C9" stroke-width="2" stroke-miterlimit="10" width="6.631" height="26.526"/>
<line fill="none" stroke="#FBD5C9" stroke-width="2" stroke-linecap="round" stroke-linejoin="round" stroke-miterlimit="10" x1="517.295" y1="315.348" x2="531.295" y2="315.348"/>
<line fill="none" stroke="#FBD5C9" stroke-width="2" stroke-linecap="round" stroke-linejoin="round" stroke-miterlimit="10" x1="517.295" y1="319.137" x2="531.295" y2="319.137"/>
<line fill="none" stroke="#FBD5C9" stroke-width="2" stroke-linecap="round" stroke-linejoin="round" stroke-miterlimit="10" x1="517.295" y1="341.874" x2="531.295" y2="341.874"/>
<line fill="none" stroke="#FBD5C9" stroke-width="2" stroke-linecap="round" stroke-linejoin="round" stroke-miterlimit="10" x1="517.295" y1="338.085" x2="531.295" y2="338.085"/>
<line fill="none" stroke="#FBD5C9" stroke-width="2" stroke-linecap="round" stroke-linejoin="round" stroke-miterlimit="10" x1="517.295" y1="334.295" x2="531.295" y2="334.295"/>
<line fill="none" stroke="#FBD5C9" stroke-width="2" stroke-linecap="round" stroke-linejoin="round" stroke-miterlimit="10" x1="517.295" y1="330.506" x2="531.295" y2="330.506"/>
<line fill="none" stroke="#FBD5C9" stroke-width="2" stroke-linecap="round" stroke-linejoin="round" stroke-miterlimit="10" x1="517.295" y1="326.716" x2="531.295" y2="326.716"/>
<line fill="none" stroke="#FBD5C9" stroke-width="2" stroke-linecap="round" stroke-linejoin="round" stroke-miterlimit="10" x1="517.295" y1="322.927" x2="531.295" y2="322.927"/>
<rect x="520.979" y="315.348" fill="#F16824" stroke="#FBD5C9" stroke-width="2" stroke-miterlimit="10" width="6.631" height="26.526"/>
<circle fill="none" stroke="#FBD5C9" stroke-width="2" stroke-linecap="round" stroke-linejoin="round" stroke-miterlimit="10" cx="519.143" cy="369.749" r="3.125"/>
<circle fill="none" stroke="#FBD5C9" stroke-width="2" stroke-linecap="round" stroke-linejoin="round" stroke-miterlimit="10" cx="514.587" cy="357.249" r="3.125"/>
<circle fill="none" stroke="#FBD5C9" stroke-width="2" stroke-linecap="round" stroke-linejoin="round" stroke-miterlimit="10" cx="543.58" cy="357.249" r="3.125"/>
<polyline fill="none" stroke="#FBD5C9" stroke-width="2" stroke-linecap="round" stroke-linejoin="round" stroke-miterlimit="10" points="
	517.712,357.249 535.768,357.249 535.768,369.923 556.601,369.923 "/>
<line fill="none" stroke="#FBD5C9" stroke-width="2" stroke-linecap="round" stroke-linejoin="round" stroke-miterlimit="10" x1="523.268" y1="369.749" x2="535.072" y2="369.749"/>
<circle fill="none" stroke="#FBD5C9" stroke-width="2" stroke-linecap="round" stroke-linejoin="round" stroke-miterlimit="10" cx="526.393" cy="382.249" r="3.125"/>
<polyline fill="none" stroke="#FBD5C9" stroke-width="2" stroke-linecap="round" stroke-linejoin="round" stroke-miterlimit="10" points="
	530.518,382.249 535.768,382.249 535.768,372.874 "/>
<path fill="#FBD5C9" d="M540.281,370.907c0,1.661-1.348,3.009-3.009,3.009h-3.011c-1.66,0-3.01-1.348-3.01-3.009v-3.011
	c0-1.66,1.35-3.008,3.01-3.008h3.011c1.661,0,3.009,1.348,3.009,3.008V370.907z"/>
<line fill="none" stroke="#FBD5C9" stroke-width="2" stroke-linecap="round" stroke-linejoin="round" stroke-miterlimit="10" x1="543.752" y1="368.923" x2="543.752" y2="361.374"/>
<rect x="521.184" y="350.999" fill="none" stroke="#FBD5C9" stroke-linecap="round" stroke-linejoin="round" stroke-miterlimit="10" width="6.25" height="3.125"/>
<rect x="529.518" y="350.999" fill="none" stroke="#FBD5C9" stroke-linecap="round" stroke-linejoin="round" stroke-miterlimit="10" width="6.25" height="3.125"/>
<rect x="539.934" y="375.999" fill="none" stroke="#FBD5C9" stroke-linecap="round" stroke-linejoin="round" stroke-miterlimit="10" width="6.25" height="3.125"/>
<rect x="548.268" y="375.999" fill="none" stroke="#FBD5C9" stroke-linecap="round" stroke-linejoin="round" stroke-miterlimit="10" width="6.25" height="3.125"/>
<rect x="520.489" y="360.374" fill="none" stroke="#FBD5C9" stroke-linecap="round" stroke-linejoin="round" stroke-miterlimit="10" width="12.5" height="2.778"/>
<rect x="507.295" y="347.874" fill="none" stroke="#FBD5C9" stroke-width="2" stroke-linecap="round" stroke-linejoin="round" stroke-miterlimit="10" width="50" height="41.667"/>
<path fill="#9D9E9F" stroke="#0A3656" stroke-width="3" stroke-miterlimit="10" d="M510.545,351.124c2.07,0,3.75-1.679,3.75-3.75
	s-1.68-3.75-3.75-3.75h-7.917v7.5H510.545z"/>
<line fill="none" stroke="#FBD5C9" stroke-width="2" stroke-linecap="round" stroke-linejoin="round" stroke-miterlimit="10" x1="557.295" y1="287.874" x2="487.295" y2="287.874"/>
<line fill="none" stroke="#FBD5C9" stroke-width="2" stroke-linecap="round" stroke-linejoin="round" stroke-miterlimit="10" x1="557.295" y1="404.874" x2="487.295" y2="404.874"/>
<polyline fill="none" stroke="#FBD5C9" stroke-width="2" stroke-linecap="round" stroke-linejoin="round" stroke-miterlimit="10" points="
	522.295,287.874 522.295,296.874 487.295,296.874 "/>
<line fill="none" stroke="#FBD5C9" stroke-width="2" stroke-linecap="round" stroke-linejoin="round" stroke-miterlimit="10" x1="487.295" y1="395.874" x2="531.295" y2="395.874"/>
<line fill="none" stroke="#F16624" stroke-linecap="round" stroke-linejoin="round" stroke-miterlimit="10" x1="505.128" y1="260.874" x2="496.128" y2="269.874"/>
<line fill="none" stroke="#F16624" stroke-linecap="round" stroke-linejoin="round" stroke-miterlimit="10" x1="510.128" y1="260.874" x2="501.128" y2="269.874"/>
<line fill="none" stroke="#F16624" stroke-linecap="round" stroke-linejoin="round" stroke-miterlimit="10" x1="515.128" y1="260.874" x2="506.128" y2="269.874"/>
<line fill="none" stroke="#F16624" stroke-linecap="round" stroke-linejoin="round" stroke-miterlimit="10" x1="520.128" y1="260.874" x2="511.128" y2="269.874"/>
<line fill="none" stroke="#F16624" stroke-linecap="round" stroke-linejoin="round" stroke-miterlimit="10" x1="525.128" y1="260.874" x2="516.128" y2="269.874"/>
<line fill="none" stroke="#F16624" stroke-linecap="round" stroke-linejoin="round" stroke-miterlimit="10" x1="530.128" y1="260.874" x2="521.128" y2="269.874"/>
<line fill="none" stroke="#F16624" stroke-linecap="round" stroke-linejoin="round" stroke-miterlimit="10" x1="535.128" y1="260.874" x2="526.128" y2="269.874"/>
<line fill="none" stroke="#F16624" stroke-linecap="round" stroke-linejoin="round" stroke-miterlimit="10" x1="540.128" y1="260.874" x2="531.128" y2="269.874"/>
<line fill="none" stroke="#FBD5C9" stroke-width="2" stroke-linecap="round" stroke-linejoin="round" stroke-miterlimit="10" x1="557.295" y1="305.874" x2="487.295" y2="305.874"/>
<line fill="none" stroke="#FBD5C9" stroke-width="2" stroke-linecap="round" stroke-linejoin="round" stroke-miterlimit="10" x1="507.295" y1="305.874" x2="507.295" y2="332.874"/>
<line fill="none" stroke="#0A3656" stroke-width="3" stroke-miterlimit="10" x1="278.295" y1="361.374" x2="241.295" y2="403.874"/>
<line fill="none" stroke="#0A3656" stroke-width="3" stroke-miterlimit="10" x1="266.795" y1="350.874" x2="229.795" y2="393.374"/>
<circle fill="#F16824" cx="364.856" cy="544.431" r="3"/>
<circle fill="#B4DEF6" cx="324.358" cy="473.934" r="3.125"/>
<circle fill="#F16824" cx="436.852" cy="293.942" r="6"/>
<circle fill="#FFFFFF" cx="264.361" cy="453.935" r="3.5"/>
<circle fill="#FFFFFF" cx="372.295" cy="301.374" r="2.188"/>
<circle fill="#F16824" cx="438.727" cy="424.437" r="2.625"/>
<line fill="none" stroke="#0A3656" stroke-width="3" stroke-linecap="round" stroke-linejoin="round" stroke-miterlimit="10" x1="297.847" y1="378.866" x2="288.629" y2="402.208"/>
<circle fill="#FFFFFF" stroke="#F16624" stroke-width="2.0983" stroke-linecap="round" stroke-linejoin="round" stroke-miterlimit="10" cx="426.729" cy="495.566" r="15.107"/>
<g>
	<path fill="none" d="M441.578,492.79c3.459-2.532,5.293-4.98,4.656-6.709c-0.718-1.951-4.421-2.558-9.591-1.916
		c1.858,1.614,3.351,3.705,4.261,6.178C441.204,491.151,441.423,491.971,441.578,492.79z"/>
	<path fill="none" d="M411.787,493.323c-4.352,2.864-6.775,5.729-6.057,7.679c0.637,1.73,3.621,2.403,7.896,2.086
		c-0.414-0.725-0.777-1.49-1.074-2.299C411.642,498.316,411.418,495.757,411.787,493.323z"/>
	<path opacity="0.25" fill="#F16523" d="M436.06,483.684c0.198,0.155,0.392,0.316,0.584,0.481c5.17-0.642,8.873-0.035,9.591,1.916
		c0.637,1.729-1.197,4.177-4.656,6.709c-3.252,2.378-7.938,4.83-13.357,6.827c-5.418,1.997-10.575,3.171-14.594,3.471
		c-4.275,0.317-7.26-0.355-7.896-2.086c-0.719-1.95,1.705-4.814,6.057-7.679c0.037-0.251,0.08-0.499,0.133-0.746
		c-10.313,5.215-16.796,10.852-15.568,14.182c1.226,3.33,9.815,3.414,21.047,0.69c3.857-0.936,8.025-2.202,12.314-3.782
		s8.283-3.32,11.825-5.112c10.313-5.213,16.795-10.851,15.568-14.181C455.88,481.045,447.289,480.961,436.06,483.684z"/>
</g>
<line fill="none" stroke="#F16624" stroke-width="3" stroke-linecap="round" stroke-linejoin="round" stroke-miterlimit="10" x1="557.295" y1="278.874" x2="557.295" y2="467.874"/>
<polyline fill="none" stroke="#F16624" stroke-width="5" stroke-linecap="round" stroke-linejoin="round" stroke-miterlimit="10" points="
	485.295,215.874 485.295,278.874 494.295,278.874 494.295,413.874 485.295,413.874 485.295,539.874 "/>
<rect x="484.79" y="342.874" fill="#9D9E9F" stroke="#0A3656" stroke-width="3" stroke-miterlimit="10" width="18" height="9"/>
<rect x="488.295" y="315.541" fill="none" stroke="#FBD5C9" stroke-width="2" stroke-linecap="round" stroke-linejoin="round" stroke-miterlimit="10" width="13" height="15"/>
<rect x="488.295" y="362.874" fill="none" stroke="#FBD5C9" stroke-width="2" stroke-linecap="round" stroke-linejoin="round" stroke-miterlimit="10" width="13" height="26.167"/>
</svg>
