<?xml version="1.0" encoding="utf-8"?>
<!-- Generator: Adobe Illustrator 16.0.0, SVG Export Plug-In . SVG Version: 6.00 Build 0)  -->
<!DOCTYPE svg PUBLIC "-//W3C//DTD SVG 1.1//EN" "http://www.w3.org/Graphics/SVG/1.1/DTD/svg11.dtd">
<svg version="1.1" id="Layer_1" xmlns="http://www.w3.org/2000/svg" xmlns:xlink="http://www.w3.org/1999/xlink" x="0px" y="0px"
	 width="800px" height="800px" viewBox="0 0 800 800" enable-background="new 0 0 800 800" xml:space="preserve">
<path fill="#FBD5C9" d="M236.139,339.937h346.006v-149h-382v77C200.145,267.937,245.135,294.937,236.139,339.937z"/>
<path opacity="0.5" fill="#F16523" d="M470.143,258.937c0-10.104-6.662-18.653-15.834-21.495v-16.005h0.834v-7.5h-15v7.5h0.834
	v16.005c-9.172,2.842-15.834,11.391-15.834,21.495c0,6.663,2.898,12.646,7.5,16.767v5.733h30v-5.733
	C467.244,271.582,470.143,265.6,470.143,258.937z"/>
<path opacity="0.5" fill="#F16523" d="M578.143,258.937c0-10.104-6.662-18.653-15.834-21.495v-16.005h0.834v-7.5h-15v7.5h0.834
	v16.005c-9.172,2.842-15.834,11.391-15.834,21.495c0,6.663,2.898,12.646,7.5,16.767v5.733h30v-5.733
	C575.244,271.582,578.143,265.6,578.143,258.937z"/>
<path fill="#FBD5C9" d="M583.143,339.937h-374l18.002,18c0,0,19,8.667,20.332,27.333c0,0,4-2,4,8l7.334,19.334h38l-0.666-10h27.332
	v15.333c0,0,10,11.334-0.666,24.667l-0.666,5.333l-74,0.667l-1.334,25.333l20,0.667c0,0,25.334,6,25.334,25.333v58.333h216v-57.666
	c0,0,2.666-26,26.666-26l18.666,0.666l-0.666-26l-44.666,22c0,0-18.668,6.668-25.334-14.666l3.334-9.334c0,0,3.998-6,6.666-8
	c0,0-8-10,2.666-10l14.668,0.667l4.666-0.667l25.334-12.666l8-20.667l0.666-6.667c0,0,1.332-4,4-4c0,0,0-15.333,19.334-27.333v-8
	l14-4L583.143,339.937z"/>
<line fill="none" stroke="#F16523" stroke-width="3" stroke-miterlimit="10" x1="578.143" y1="285.937" x2="227.143" y2="285.937"/>
<path opacity="0.5" fill="#F16523" d="M395.172,217.111v-16.146h0.559v-5.029h-10.059v5.029h0.559v16.146
	c-3.309,1.647-5.588,5.055-5.588,9.002v55.323h20.117v-55.323C400.76,222.166,398.481,218.759,395.172,217.111z"/>
<path fill="#FFFFFF" d="M239.555,217.111v-16.146h0.559v-5.029h-10.059v5.029h0.559v16.146c-3.309,1.647-5.588,5.055-5.588,9.002
	v55.323h20.117v-55.323C245.143,222.166,242.864,218.759,239.555,217.111z"/>
<path fill="#FFFFFF" d="M536.555,217.111v-16.146h0.559v-5.029h-10.059v5.029h0.559v16.146c-3.309,1.647-5.588,5.055-5.588,9.002
	v55.323h20.117v-55.323C542.143,222.166,539.864,218.759,536.555,217.111z"/>
<line fill="none" stroke="#F16624" stroke-width="3" stroke-miterlimit="10" x1="245.145" y1="339.937" x2="587.143" y2="339.937"/>
<path fill="#F16523" d="M533.143,236.09c0,27.529-12.088,49.847-27,49.847s-27-22.317-27-49.847s12.088-31.153,27-31.153
	S533.143,208.561,533.143,236.09z"/>
<ellipse transform="matrix(0.7399 -0.6727 0.6727 0.7399 -40.514 398.4446)" fill="#FFFFFF" cx="495.053" cy="251.619" rx="4.5" ry="9.001"/>
<ellipse transform="matrix(-0.7399 -0.6727 0.6727 -0.7399 730.696 785.7304)" fill="#FFFFFF" cx="517.232" cy="251.619" rx="4.5" ry="9.001"/>
<path fill="#F16523" d="M524.143,267.937h-18h-18c0,0-27,9-27,27v45h45h45v-45C551.143,276.937,524.143,267.937,524.143,267.937z"/>
<polyline fill="none" stroke="#F16624" stroke-width="3" stroke-miterlimit="10" points="213.143,270.604 213.143,179.27 
	596.143,179.27 596.143,278.604 "/>
<path opacity="0.5" fill="#F16523" d="M336.143,233.437h-4.666v-12h0.666v-6h-12v6h0.668v12h-3.668v-7.323
	c0-3.947-2.278-7.354-5.588-9.002v-16.146h0.559v-5.029h-10.059v5.029h0.559v16.146c-3.309,1.647-5.588,5.055-5.588,9.002v55.323
	h19.117h1h19c4.418,0,8-3.581,8-8v-32C344.143,237.018,340.561,233.437,336.143,233.437z"/>
<path fill="#FFFFFF" d="M282.143,233.437h-4.666v-12h0.666v-6h-12v6h0.668v12h-4.668c-4.418,0-8,3.581-8,8v32c0,4.419,3.582,8,8,8
	h20c4.418,0,8-3.581,8-8v-32C290.143,237.018,286.561,233.437,282.143,233.437z"/>
<path fill="#FFFFFF" d="M434.643,233.437h-4.666v-12h0.666v-6h-12v6h0.668v12h-4.668c-4.418,0-8,3.581-8,8v32c0,4.419,3.582,8,8,8
	h20c4.418,0,8-3.581,8-8v-32C442.643,237.018,439.061,233.437,434.643,233.437z"/>
<path fill="#FBD5C9" d="M484.143,303.437c0-2.485-2.015-4.5-4.5-4.5s-4.5,2.015-4.5,4.5v33.5h9V303.437z"/>
<path fill="#FBD5C9" d="M537.643,303.437c0-2.485-2.015-4.5-4.5-4.5s-4.5,2.015-4.5,4.5v33.5h9V303.437z"/>
<g>
	<circle fill="#F16523" cx="330.513" cy="219.556" r="7.926"/>
	<path fill="#F16523" d="M343.485,265.742c-42.431,0-77.229,32.649-80.657,74.194h20.334c1.703-15.394,9.165-29.046,20.178-38.77
		c-0.207,1.653-0.324,3.335-0.324,5.045v33.725h80.939v-33.725c0-1.71-0.118-3.392-0.324-5.045
		c11.013,9.724,18.475,23.376,20.178,38.77h20.334C420.715,298.392,385.916,265.742,343.485,265.742z"/>
	<path fill="none" stroke="#F16523" stroke-width="3" stroke-miterlimit="10" d="M381.391,277.285
		c0,6.979-16.971,12.636-37.906,12.636s-37.905-5.656-37.905-12.636l-0.001-4.211v-41.695c0-18.842,16.971-34.115,37.904-34.115
		c20.936,0,37.906,15.273,37.906,34.115l0.002,41.695V277.285z"/>
	<path fill="none" stroke="#FFFFFF" stroke-width="3" stroke-miterlimit="10" d="M381.539,277.285
		c0,6.979-16.971,12.636-37.906,12.636c-20.937,0-37.906-5.656-37.906-12.636"/>
	<path fill="#F16523" d="M326.055,277.518c0,0,2.973-15.287,2.973-53.503H332c0,0,0,45.858,2.972,53.503H326.055z"/>
	<path fill="#F16523" d="M352.807,277.518c0,0,2.972-15.287,2.972-53.503h2.972c0,0,0,45.858,2.973,53.503H352.807z"/>
	<circle fill="#FFFFFF" cx="330.513" cy="219.556" r="4.458"/>
	<circle fill="#F16523" cx="357.265" cy="219.556" r="7.927"/>
	<circle fill="#FFFFFF" cx="357.265" cy="219.556" r="4.458"/>
	<path fill="#F16523" d="M320.605,270.086c0,0,6.439-11.889,23.531-11.889v11.394L320.605,270.086z"/>
	<path fill="#F16523" d="M367.42,270.086c0,0-6.439-11.889-23.531-11.889v11.394L367.42,270.086z"/>
</g>
<polygon fill="none" stroke="#F16523" stroke-width="2" stroke-miterlimit="10" points="418.143,339.937 441.143,339.937 
	443.143,294.937 416.143,294.937 "/>
<polygon opacity="0.5" fill="#F16523" points="420.143,339.937 441.143,339.937 442.143,307.937 417.143,307.937 "/>
<g>
	<polygon fill="#045F9B" points="479.143,447.437 456.143,447.437 455.143,428.937 480.143,428.937 	"/>
	<polygon fill-rule="evenodd" clip-rule="evenodd" fill="#045F9B" points="323.143,416.916 321.852,447.937 298.852,447.937 
		298.643,431.437 308.643,421.416 	"/>
	<path fill="#B4DEF6" d="M553.143,438.937l-63,28c0,0,4,10.492,18,4.496l45.313-22.215L553.143,438.937z"/>
	<path fill-rule="evenodd" clip-rule="evenodd" fill="#B4DEF6" d="M664.143,456.437l-1,18.5c0,0-12,15.5-32,16.5l29-36
		L664.143,456.437z"/>
	<path fill-rule="evenodd" clip-rule="evenodd" fill="#B4DEF6" d="M664.643,422.937c0,0,3.5,11.5-5,20.5l-56,66c0,0,10,5.5,19.5-7.5
		l43.5-53.5C666.643,448.437,674.143,440.437,664.643,422.937z"/>
	<path fill="#B4DEF6" d="M252.643,477.937c0,0,19.5,0.5,19.5,23v91h-6v-90.5C266.143,501.437,265.643,487.437,252.643,477.937z"/>
	<rect x="248.143" y="431.437" fill="#B4DEF6" width="50.5" height="15"/>
	<path fill="#B4DEF6" d="M127.221,428.437c-7.922,16,5.422,26,5.422,26l69.5,34.67c12,3.67,14-2.17,14-2.17l-77.998-41.667
		C138.145,445.27,126.965,439.27,127.221,428.437"/>
	<path fill="#B4DEF6" d="M136.811,456.937v16.667c0,0,5.998,14.334,36.666,19c0,0,17.668,0.334,26.334-5L136.811,456.937z"/>
	<path fill="#B4DEF6" d="M237.477,528.436v63.501c0,0-21,5.335-25,17.001l-1.334-80.001l-50.998,0.001c0,0-23-3.334-23-28.667
		v-11.667c0,0,34.998,27,73.666,3.666c0,0-27,19.336-48,20.668h62.336C225.146,512.938,237.477,514.935,237.477,528.436z"/>
	<path fill="#B4DEF6" d="M183.809,388.604c0,0,6,6.668,0.668,17.334l-9.668,20.666l24.668,14l-5.334,4.334l-28-14.775
		L183.809,388.604z"/>
	<path fill="#B4DEF6" d="M616.809,388.604c0,0-6,6.668-0.666,17.334l7.834,25.665l-20.834,25.834l8.5,1.5l21-23.775L616.809,388.604
		z"/>
	<path fill-rule="evenodd" clip-rule="evenodd" fill="#B4DEF6" d="M181.721,362.437c0,0,14.5,9.5,15.5,21.5v18.737v39.763l4.5-2
		v-55.763c0,0,0.75-12.487-11.5-21.487C190.221,363.187,189.221,363.937,181.721,362.437z"/>
	<path fill-rule="evenodd" clip-rule="evenodd" fill="#B4DEF6" d="M246.221,445.937h-6h-18c0,0-7,1-7-6v-5.763
		c0,0,1.344,4.5,4.922,4.5h27L246.221,445.937z"/>
	<path fill-rule="evenodd" clip-rule="evenodd" fill="#B4DEF6" d="M154.893,329.359c0,0-27.672,6.577-27.672,34.077v65l10-21.5
		l15.5-33.5c0,0,4.5-18,15.5-18C168.221,355.437,155.564,347.282,154.893,329.359z"/>
	<path fill="#B4DEF6" d="M547.721,477.937c0,0-19.5,0.5-19.5,23v91h6v-90.5C534.221,501.437,534.721,487.437,547.721,477.937z"/>
	<path fill="#B4DEF6" d="M600.143,512.938h-24.926c0,0-12.33,1.997-12.33,15.498v63.501c0,0,21,5.335,25,17.001l1.334-80.001
		l50.998,0.001c0,0,23-3.334,23-28.667v-11.667"/>
	<path fill-rule="evenodd" clip-rule="evenodd" fill="#B4DEF6" d="M618.643,362.437c0,0-14.5,9.5-15.5,21.5v18.737v53.763h-4.5
		v-71.763c0,0-0.75-12.487,11.5-21.487C610.143,363.187,611.143,363.937,618.643,362.437z"/>
	<path fill-rule="evenodd" clip-rule="evenodd" fill="#B4DEF6" d="M554.143,445.937h6h18c0,0,7,1,7-6v-5.763
		c0,0-1.344,4.5-4.922,4.5h-27L554.143,445.937z"/>
	<path fill-rule="evenodd" clip-rule="evenodd" fill="#B4DEF6" d="M632.143,355.437c11,0,15.5,18,15.5,18l15.5,44l1,39l9,0.5v-93.5
		c0-27.5-27.672-34.077-27.672-34.077v-6.756h-8.66l-8,5.666l0.332,15.667L632.143,355.437z"/>
	<path fill-rule="evenodd" clip-rule="evenodd" fill="#B4DEF6" d="M193.721,277.437c0,0-30,9-30,43c0,0-2,34,29,34h18.5
		c0,0,7,1,12.5-2.5l9.104,2.415c0,0-7.604,8.585-27.104,8.585h-13.5c0,0-32.5-1.5-37-28v-22
		C155.221,312.937,161.221,277.437,193.721,277.437z"/>
	<g>
		<g>
			<path fill="#045F9B" d="M195.933,276.937c12.99,0,21.948,6.028,27.247,15.434c1.638-0.234,3.31-0.362,5.012-0.362
				c2.061,0,4.083,0.694,5.994,1.956c-6.021-15.24-20.872-26.027-38.253-26.027c-22.711,0-41.122,18.41-41.122,41.123v9
				C154.811,295.347,173.222,276.937,195.933,276.937z"/>
		</g>
	</g>
	<path fill="none" stroke="#0A3656" stroke-width="3" stroke-miterlimit="10" d="M274.143,528.937H164.145
		c-14.912,0-27-12.088-27-27v-14.335"/>
	<g>
		<path fill="none" stroke="#0A3656" stroke-width="3" stroke-miterlimit="10" d="M265.145,474.937c-4.92,0-9.529,1.322-13.5,3.622
			c8.066,4.669,13.498,13.386,13.498,23.378h0.002v117h27V501.976c0-0.014,0-0.026,0-0.039
			C292.145,487.024,280.056,474.937,265.145,474.937z"/>
		<path fill="none" stroke="#0A3656" stroke-width="3" stroke-miterlimit="10" d="M251.645,478.559
			c-3.974-2.3-8.582-3.622-13.502-3.622"/>
		<polyline fill="none" stroke="#0A3656" stroke-width="3" stroke-miterlimit="10" points="211.143,528.937 211.143,618.937 
			238.145,618.937 		"/>
		<path fill="none" stroke="#0A3656" stroke-width="3" stroke-miterlimit="10" d="M251.645,478.559
			c8.066,4.669,13.498,13.386,13.498,23.378h0.002v117h-27"/>
	</g>
	<path fill="#FFFFFF" stroke="#0A3656" stroke-width="3" stroke-miterlimit="10" d="M238.143,591.937l9,27h90c0,0,0-27-36-27
		H238.143z"/>
	<g>
		<g>
			
				<line fill="none" stroke="#0A3656" stroke-width="3" stroke-miterlimit="10" x1="310.143" y1="447.437" x2="247.143" y2="447.437"/>
			<path fill="none" stroke="#0A3656" stroke-width="3" stroke-miterlimit="10" d="M252.145,396.078l6.725,16.358h51.273
				c9.665,0,17.5,7.835,17.5,17.5c0,5.205-2.271,9.88-5.879,13.086"/>
		</g>
	</g>
	<path fill="none" stroke="#0A3656" stroke-width="3" stroke-miterlimit="10" d="M226.893,357.937c0,0,20.25,9,20.25,27v90h-17.332"
		/>
	<path fill="none" stroke="#0A3656" stroke-width="3" stroke-miterlimit="10" d="M136.893,407.604v-40.667c0-18,18-27,18-27"/>
	
		<polyline fill="none" stroke="#0A3656" stroke-width="3" stroke-linecap="round" stroke-linejoin="round" stroke-miterlimit="10" points="
		174.814,474.937 136.893,474.937 136.893,456.604 	"/>
	<path fill="none" stroke="#0A3656" stroke-width="3" stroke-miterlimit="10" d="M137.477,456.937h-18.584
		c-8.698,0-15.75-7.053-15.75-15.75v-21.25v-61v-21.25c0-8.698,7.052-15.75,15.75-15.75h36"/>
	<path fill="none" stroke="#0A3656" stroke-width="3" stroke-miterlimit="10" d="M196.016,267.937
		c-22.711,0-41.123,18.41-41.123,41.123v20.563c0,22.712,18.412,33.508,41.123,33.508c22.713,0,41.124-0.481,41.124-23.193V309.06
		C237.14,286.347,218.729,267.937,196.016,267.937z"/>
	<path fill="none" stroke="#0A3656" stroke-width="3" stroke-miterlimit="10" d="M229.143,318.06
		c0-22.713-10.414-41.123-33.127-41.123c-22.711,0-41.123,18.41-41.123,41.123"/>
	
		<line fill="none" stroke="#0A3656" stroke-width="3" stroke-miterlimit="10" x1="228.471" y1="456.937" x2="217.811" y2="456.937"/>
	
		<line fill="none" stroke="#0A3656" stroke-width="3" stroke-miterlimit="10" x1="247.143" y1="456.937" x2="237.813" y2="456.937"/>
	
		<line fill="none" stroke="#0A3656" stroke-width="3" stroke-miterlimit="10" x1="292.143" y1="582.937" x2="211.143" y2="582.937"/>
	<path fill="#FFFFFF" stroke="#0A3656" stroke-width="3" stroke-miterlimit="10" d="M251.643,434.437c0,2.485-2.015,4.5-4.5,4.5h-27
		c-2.486,0-4.5-2.015-4.5-4.5v-45c0-2.485,2.014-4.5,4.5-4.5h27c2.485,0,4.5,2.015,4.5,4.5V434.437z"/>
	<g>
		<path fill-rule="evenodd" clip-rule="evenodd" fill="#F37725" d="M227.792,410.45c0.253,0.294,0.499,0.608,0.771,0.891
			c0.824,0.856,1.76,1.454,2.761,1.898c0.675,0.3,1.366,0.521,2.074,0.652c0.467,0.086,0.938,0.143,1.408,0.178
			c0.419,0.03,0.841,0.039,1.261,0.018c1.471-0.077,2.898-0.433,4.262-1.164c0.962-0.516,1.84-1.194,2.592-2.128
			c0.098-0.119,0.203-0.226,0.267-0.297c-0.347,1.151-0.873,2.249-1.559,3.219c-0.687,0.973-1.488,1.753-2.401,2.343
			c-0.916,0.592-1.883,0.96-2.903,1.083c-2.046,0.241-3.919-0.382-5.599-1.89C229.363,414.03,228.395,412.409,227.792,410.45z"/>
		<path fill-rule="evenodd" clip-rule="evenodd" fill="#F37725" d="M227.792,403.143c1.042-3.657,3.861-6.559,7.269-6.766
			c4.214-0.255,7.154,3.284,8.13,6.712c-0.119-0.145-0.259-0.314-0.4-0.484c-0.635-0.75-1.358-1.325-2.14-1.788
			c-0.812-0.478-1.66-0.82-2.537-1.034c-0.43-0.104-0.869-0.172-1.303-0.243c-0.609-0.098-1.219-0.098-1.828-0.071
			c-0.4,0.018-0.803,0.074-1.2,0.128c-0.698,0.098-1.382,0.287-2.052,0.549c-1.159,0.45-2.241,1.1-3.184,2.085
			c-0.244,0.253-0.461,0.55-0.691,0.827C227.836,403.083,227.816,403.107,227.792,403.143z"/>
		<path fill-rule="evenodd" clip-rule="evenodd" fill="#777778" d="M240.313,395.733c-0.012-0.829,0.506-1.585,1.241-1.591
			c0.741-0.007,1.239,0.773,1.238,1.582c-0.002,0.837-0.536,1.577-1.231,1.585C240.881,397.315,240.309,396.607,240.313,395.733z"/>
		<path fill-rule="evenodd" clip-rule="evenodd" fill="#9D9E9F" d="M227.855,418.604c-0.014-1.044,0.635-1.995,1.561-2.003
			c0.93-0.007,1.559,0.975,1.557,1.99c-0.003,1.053-0.674,1.985-1.551,1.992C228.57,420.593,227.85,419.703,227.855,418.604z"/>
		<path fill-rule="evenodd" clip-rule="evenodd" fill="#474749" d="M232.47,408.098c0,0.036,0,0.074,0,0.112
			c0,0.54-0.001,1.079,0.001,1.618c0.002,0.097-0.02,0.129-0.098,0.125c-0.123-0.009-0.246-0.003-0.384-0.003c0-1.62,0-3.227,0-4.84
			c0.129,0,0.266,0,0.413,0c0.008,0.187,0.016,0.371,0.025,0.573c0.059-0.09,0.1-0.166,0.15-0.232
			c0.512-0.684,1.4-0.536,1.771,0.294c0.172,0.388,0.215,0.809,0.189,1.245c-0.02,0.317-0.082,0.618-0.211,0.892
			c-0.311,0.666-0.908,0.838-1.348,0.669c-0.176-0.067-0.322-0.198-0.441-0.379c-0.018-0.026-0.035-0.053-0.053-0.079
			C232.481,408.095,232.477,408.096,232.47,408.098z M232.455,406.866c0.006,0.002,0.014,0.002,0.014,0.002
			c0.008,0.116,0.002,0.234,0.008,0.348c0.02,0.433,0.254,0.79,0.579,0.889c0.335,0.104,0.679-0.068,0.843-0.445
			c0.223-0.516,0.23-1.052,0.042-1.583c-0.114-0.316-0.312-0.521-0.589-0.554c-0.373-0.044-0.742,0.284-0.842,0.762
			C232.471,406.471,232.473,406.672,232.455,406.866z"/>
		<path fill-rule="evenodd" clip-rule="evenodd" fill="#474749" d="M242.038,407.965c0.027,0.142,0.055,0.288,0.085,0.459
			c-0.158,0.052-0.313,0.119-0.469,0.149c-0.295,0.063-0.594,0.089-0.887-0.022c-0.502-0.189-0.867-0.797-0.88-1.463
			c-0.007-0.39,0.022-0.773,0.153-1.135c0.29-0.792,0.906-1.044,1.469-0.851c0.154,0.053,0.291,0.153,0.4,0.302
			c0.318,0.435,0.363,0.967,0.348,1.535c-0.037,0-0.067,0-0.098,0c-0.568,0-1.14,0-1.709,0c-0.093,0-0.098,0.007-0.092,0.128
			c0.037,0.63,0.413,1.072,0.91,1.061c0.129-0.003,0.262-0.012,0.391-0.041C241.787,408.062,241.91,408.007,242.038,407.965z
			 M241.811,406.456c0.056-0.297-0.061-0.655-0.275-0.851c-0.229-0.217-0.52-0.228-0.774-0.019
			c-0.249,0.199-0.378,0.489-0.394,0.869C240.857,406.456,241.334,406.456,241.811,406.456z"/>
		<path fill-rule="evenodd" clip-rule="evenodd" fill="#474749" d="M230.568,405.087c0.166,0,0.32,0,0.483,0
			c0,1.146,0,2.289,0,3.438c-0.131,0-0.27,0-0.414,0c-0.01-0.175-0.021-0.347-0.032-0.548c-0.029,0.05-0.045,0.079-0.064,0.109
			c-0.268,0.468-0.764,0.653-1.187,0.45c-0.31-0.148-0.462-0.458-0.532-0.847c-0.029-0.159-0.047-0.325-0.048-0.487
			c-0.005-0.674-0.003-1.347-0.003-2.02c0-0.021,0.003-0.043,0.004-0.072c0.157,0,0.313,0,0.477,0c0,0.039,0.003,0.075,0.003,0.113
			c0,0.577-0.003,1.152,0.002,1.728c0.001,0.175,0.016,0.35,0.042,0.519c0.1,0.622,0.518,0.709,0.83,0.551
			c0.277-0.142,0.432-0.417,0.437-0.802c0.008-0.668,0.003-1.337,0.003-2.008C230.568,405.173,230.568,405.135,230.568,405.087z"/>
		<path fill-rule="evenodd" clip-rule="evenodd" fill="#474749" d="M237.426,405.102c-0.084,0.287-0.165,0.558-0.249,0.827
			c-0.273,0.878-0.545,1.758-0.825,2.635c-0.101,0.309-0.229,0.604-0.396,0.869c-0.188,0.299-0.423,0.526-0.718,0.639
			c-0.023,0.009-0.048,0.015-0.08,0.023c-0.04-0.171-0.078-0.336-0.117-0.509c0.033-0.018,0.063-0.032,0.091-0.05
			c0.364-0.203,0.614-0.549,0.772-1.008c0.037-0.106,0.013-0.202-0.018-0.3c-0.174-0.546-0.347-1.094-0.521-1.642
			c-0.147-0.465-0.295-0.928-0.44-1.393c-0.008-0.026-0.016-0.053-0.027-0.087c0.021-0.005,0.037-0.012,0.053-0.012
			c0.141,0,0.279,0.001,0.418-0.003c0.043,0,0.063,0.019,0.078,0.07c0.242,0.858,0.483,1.718,0.727,2.577
			c0.007,0.023,0.015,0.046,0.027,0.094c0.027-0.114,0.05-0.207,0.073-0.298c0.206-0.787,0.414-1.578,0.624-2.365
			c0.009-0.029,0.039-0.065,0.059-0.066C237.109,405.099,237.261,405.102,237.426,405.102z"/>
		<path fill-rule="evenodd" clip-rule="evenodd" fill="#626463" d="M228.086,398.943c-0.494-0.003-0.898-0.522-0.895-1.153
			c0.004-0.628,0.416-1.149,0.906-1.146c0.492,0.004,0.896,0.519,0.896,1.141C228.992,398.431,228.59,398.944,228.086,398.943z"/>
		<path fill-rule="evenodd" clip-rule="evenodd" fill="#474749" d="M238.258,405.559c-0.139,0-0.271,0-0.406,0
			c0-0.154,0-0.302,0-0.459c0.113,0,0.22-0.004,0.329,0.002c0.071,0.006,0.097-0.021,0.095-0.116
			c-0.005-0.21,0.002-0.423-0.002-0.631c-0.003-0.079,0.02-0.108,0.076-0.123c0.129-0.033,0.256-0.074,0.393-0.113
			c0,0.329,0,0.651,0,0.984c0.084,0,0.159,0,0.234,0c0.135,0,0.273,0.002,0.41-0.001c0.052-0.003,0.066,0.021,0.066,0.084
			c-0.003,0.095-0.004,0.192,0,0.29c0.002,0.068-0.02,0.088-0.072,0.086c-0.183-0.003-0.363,0-0.547,0c-0.027,0-0.055,0-0.087,0
			c-0.001,0.042-0.005,0.073-0.005,0.105c0,0.598-0.002,1.195,0.002,1.794c0.002,0.119,0.02,0.245,0.045,0.359
			c0.039,0.168,0.137,0.266,0.275,0.272c0.107,0.008,0.216,0.002,0.337,0.002c0.005,0.115,0.011,0.249,0.015,0.385
			c0.002,0.017-0.019,0.048-0.031,0.052c-0.287,0.097-0.574,0.143-0.838-0.095c-0.168-0.149-0.229-0.379-0.27-0.62
			c-0.014-0.088-0.016-0.18-0.016-0.27c0-0.634,0-1.268,0-1.9C238.262,405.621,238.262,405.597,238.258,405.559z"/>
		<path fill-rule="evenodd" clip-rule="evenodd" fill="#474749" d="M226.693,410c-0.02-0.168-0.035-0.311-0.051-0.464
			c0.037-0.006,0.074-0.009,0.109-0.016c0.38-0.085,0.572-0.354,0.588-0.854c0.017-0.536,0.02-1.072,0.021-1.608
			c0.006-0.623,0.003-1.243,0-1.864c0-0.095,0.023-0.121,0.096-0.117c0.129,0.007,0.258,0.001,0.395,0.001c0,0.053,0,0.089,0,0.127
			c0,0.972,0,1.941-0.002,2.911c-0.001,0.234-0.004,0.472-0.031,0.703c-0.033,0.278-0.129,0.535-0.275,0.746
			c-0.145,0.21-0.342,0.317-0.553,0.38C226.897,409.974,226.798,409.98,226.693,410z"/>
		<path fill-rule="evenodd" clip-rule="evenodd" fill="#474749" d="M243.014,405.103c0.137,0,0.27,0,0.419,0
			c0,0.223,0,0.443,0,0.663c0.008,0,0.017,0.001,0.023,0.004c0.012-0.03,0.022-0.06,0.032-0.092
			c0.127-0.409,0.433-0.668,0.779-0.664c0.05,0.002,0.069,0.02,0.069,0.089c-0.003,0.162-0.001,0.322-0.001,0.479
			c-0.104,0.012-0.197,0.013-0.287,0.038c-0.297,0.08-0.511,0.385-0.544,0.766c-0.015,0.175-0.022,0.349-0.023,0.521
			c-0.003,0.501-0.003,1.004,0,1.505c0.001,0.089-0.021,0.118-0.089,0.115c-0.127-0.008-0.252-0.003-0.379-0.003
			C243.014,407.38,243.014,406.246,243.014,405.103z"/>
	</g>
	<path fill="none" stroke="#0A3656" stroke-width="3" stroke-miterlimit="10" d="M327.477,600.271h-27.334
		c0,0-25.332-0.001-25.332-7.334"/>
	
		<line fill="none" stroke="#0A3656" stroke-width="3" stroke-miterlimit="10" x1="238.143" y1="591.937" x2="211.143" y2="591.937"/>
	<polygon fill="#045F9B" stroke="#0A3656" stroke-width="3" stroke-miterlimit="10" points="265.143,528.937 292.143,528.937 
		292.143,519.937 265.143,523.937 	"/>
	<polygon fill="#045F9B" stroke="#0A3656" stroke-width="3" stroke-miterlimit="10" points="211.143,528.937 265.143,528.937 
		265.143,519.937 211.143,528.937 	"/>
	
		<line fill="none" stroke="#0A3656" stroke-width="3" stroke-miterlimit="10" x1="247.143" y1="474.937" x2="265.145" y2="474.937"/>
	<path fill="#FFFFFF" stroke="#0A3656" stroke-width="3" stroke-miterlimit="10" d="M265.143,618.937c0-14.912-12.088-27-27-27
		s-27,12.088-27,27H265.143z"/>
	<polygon fill="#9D9E9F" stroke="#0A3656" stroke-width="3" stroke-miterlimit="10" points="336.143,613.937 211.143,613.937 
		211.143,618.937 337.143,618.937 	"/>
	<g>
		<g>
			<path fill="none" stroke="#0A3656" stroke-width="3" stroke-miterlimit="10" d="M225.811,478.937
				c8.597-10.771,14.332-25.147,14.332-40 M116.783,457.045c7.779,25.968,31.859,44.892,60.359,44.892
				c13.825,0,26.609-4.453,36.998-12.003 M199.695,488.018c-6.863,3.158-14.504,4.919-22.553,4.919
				c-23.43,0-43.375-14.923-50.85-35.782 M231.143,438.937c0,9.266-2.334,17.985-6.445,25.605"/>
		</g>
	</g>
	<path fill="#9D9E9F" stroke="#0A3656" stroke-width="3" stroke-miterlimit="10" d="M148.143,546.937c-4.971,0-9-4.029-9-9
		s4.029-9,9-9h63v18H148.143z"/>
	<polygon fill="#777778" stroke="#0A3656" stroke-width="3" stroke-miterlimit="10" points="148.143,618.937 139.143,618.937 
		148.143,546.937 157.143,546.937 	"/>
	<polygon fill="#777778" stroke="#0A3656" stroke-width="3" stroke-miterlimit="10" points="193.143,618.937 184.143,618.937 
		193.143,546.937 202.143,546.937 	"/>
	<path fill="none" stroke="#0A3656" stroke-width="3" stroke-miterlimit="10" d="M526.143,528.937h110c14.91,0,27-12.088,27-27
		v-14.335"/>
	<g>
		<path fill="none" stroke="#0A3656" stroke-width="3" stroke-miterlimit="10" d="M535.143,501.937
			c0-9.992,5.432-18.709,13.5-23.378c-3.975-2.3-8.582-3.622-13.502-3.622c-14.912,0-27,12.088-27,27
			c0,0.013,0.002,0.025,0.002,0.039v116.961h27V501.937L535.143,501.937z"/>
		<polyline fill="none" stroke="#0A3656" stroke-width="3" stroke-miterlimit="10" points="562.141,618.937 589.143,618.937 
			589.143,528.937 		"/>
		<path fill="#FFFFFF" stroke="#0A3656" stroke-width="3" stroke-miterlimit="10" d="M562.143,474.937
			c-4.92,0-9.528,1.322-13.5,3.622"/>
		<path fill="#FFFFFF" stroke="#0A3656" stroke-width="3" stroke-miterlimit="10" d="M548.643,478.559
			c-8.068,4.669-13.5,13.386-13.5,23.378l0,0v117h26.998"/>
	</g>
	<path fill="#FFFFFF" stroke="#0A3656" stroke-width="3" stroke-miterlimit="10" d="M562.143,591.937l-9,27h-90c0,0,0-27,36-27
		H562.143z"/>
	<g>
		<g>
			<path fill="none" stroke="#0A3656" stroke-width="3" stroke-miterlimit="10" d="M553.456,449.218l-45.313,22.215
				c-2.131,0.853-4.33,1.257-6.493,1.257c-6.945,0-13.518-4.163-16.255-11.006c-3.589-8.974,0.776-19.158,9.75-22.747l44.627-22.5
				l8.985-21.855"/>
		</g>
	</g>
	<path fill="none" stroke="#0A3656" stroke-width="3" stroke-miterlimit="10" d="M663.393,418.937v-52c0-18-18-27-18-27l-72,18
		c0,0-20.25,9-20.25,27v90h17.334"/>
	
		<polyline fill="none" stroke="#0A3656" stroke-width="3" stroke-linecap="round" stroke-linejoin="round" stroke-miterlimit="10" points="
		645.643,474.937 663.393,474.937 663.393,453.437 	"/>
	<line fill="none" stroke="#0A3656" stroke-width="3" stroke-miterlimit="10" x1="583.14" y1="474.937" x2="592.143" y2="474.937"/>
	<path fill="none" stroke="#0A3656" stroke-width="3" stroke-miterlimit="10" d="M663.143,456.937h18.25
		c8.697,0,15.75-7.053,15.75-15.75v-21.25v-61v-21.25c0-8.698-7.053-15.75-15.75-15.75h-44"/>
	
		<line fill="none" stroke="#0A3656" stroke-width="3" stroke-miterlimit="10" x1="571.814" y1="456.937" x2="614.143" y2="456.937"/>
	
		<line fill="none" stroke="#0A3656" stroke-width="3" stroke-miterlimit="10" x1="553.143" y1="456.937" x2="562.472" y2="456.937"/>
	<path fill="none" stroke="#0A3656" stroke-width="3" stroke-miterlimit="10" d="M589.143,456.937v-72
		c0-10.577,6.992-18.047,12.76-22.409c0,0,21.74-17.591,54.24-14.091"/>
	<path fill="none" stroke="#0A3656" stroke-width="3" stroke-miterlimit="10" d="M598.143,456.937v-72
		c0-10.12,7.401-17.396,13.006-21.826c0,0,17.994-14.174,47.494-10.174"/>
	<path fill="none" stroke="#0A3656" stroke-width="3" stroke-miterlimit="10" d="M211.148,450.937v-66
		c0-10.577-6.992-18.047-12.76-22.409"/>
	<path fill="#FFFFFF" stroke="#0A3656" stroke-width="3" stroke-miterlimit="10" d="M164.255,353.254
		c-6.462-1.108-14.05-1.478-22.606-0.317c0,0,1.173-2.667,2.5-4.5c5.682-0.611,11.033-0.578,15.999-0.107
		C160.147,348.329,162.699,351.571,164.255,353.254z"/>
	<path fill="none" stroke="#0A3656" stroke-width="3" stroke-miterlimit="10" d="M189.143,363.11
		c5.604,4.43,13.006,11.706,13.006,21.826v63"/>
	
		<rect x="585.143" y="402.937" fill-rule="evenodd" clip-rule="evenodd" fill="#045F9B" stroke="#0A3656" stroke-width="3" stroke-miterlimit="10" width="18" height="9"/>
	
		<line fill="#FFFFFF" stroke="#0A3656" stroke-width="3" stroke-miterlimit="10" x1="508.143" y1="582.937" x2="589.143" y2="582.937"/>
	<path fill="#FFFFFF" stroke="#0A3656" stroke-width="3" stroke-miterlimit="10" d="M548.643,434.437c0,2.485,2.014,4.5,4.5,4.5h27
		c2.485,0,4.5-2.015,4.5-4.5v-45c0-2.485-2.015-4.5-4.5-4.5h-27c-2.486,0-4.5,2.015-4.5,4.5V434.437z"/>
	<g>
		<path fill-rule="evenodd" clip-rule="evenodd" fill="#F37725" d="M557.098,410.45c0.254,0.294,0.5,0.608,0.771,0.891
			c0.824,0.856,1.76,1.454,2.76,1.898c0.676,0.3,1.367,0.521,2.075,0.652c0.467,0.086,0.938,0.143,1.407,0.178
			c0.42,0.03,0.842,0.039,1.262,0.018c1.471-0.077,2.898-0.433,4.262-1.164c0.961-0.516,1.84-1.194,2.592-2.128
			c0.097-0.119,0.203-0.226,0.266-0.297c-0.346,1.151-0.872,2.249-1.557,3.219c-0.688,0.973-1.49,1.753-2.404,2.343
			c-0.913,0.592-1.881,0.96-2.902,1.083c-2.043,0.241-3.918-0.382-5.598-1.89C558.67,414.03,557.701,412.409,557.098,410.45z"/>
		<path fill-rule="evenodd" clip-rule="evenodd" fill="#F37725" d="M557.098,403.143c1.043-3.657,3.862-6.559,7.269-6.766
			c4.215-0.255,7.155,3.284,8.131,6.712c-0.12-0.145-0.259-0.314-0.401-0.484c-0.635-0.75-1.357-1.325-2.139-1.788
			c-0.813-0.478-1.66-0.82-2.537-1.034c-0.43-0.104-0.868-0.172-1.305-0.243c-0.606-0.098-1.217-0.098-1.826-0.071
			c-0.4,0.018-0.803,0.074-1.2,0.128c-0.698,0.098-1.382,0.287-2.052,0.549c-1.16,0.45-2.242,1.1-3.184,2.085
			c-0.244,0.253-0.461,0.55-0.691,0.827C557.143,403.083,557.123,403.107,557.098,403.143z"/>
		<path fill-rule="evenodd" clip-rule="evenodd" fill="#777778" d="M569.619,395.733c-0.012-0.829,0.506-1.585,1.24-1.591
			c0.742-0.007,1.24,0.773,1.238,1.582c-0.002,0.837-0.535,1.577-1.231,1.585C570.188,397.315,569.615,396.607,569.619,395.733z"/>
		<path fill-rule="evenodd" clip-rule="evenodd" fill="#9D9E9F" d="M557.162,418.604c-0.014-1.044,0.635-1.995,1.561-2.003
			c0.93-0.007,1.559,0.975,1.557,1.99c-0.004,1.053-0.674,1.985-1.551,1.992C557.877,420.593,557.156,419.703,557.162,418.604z"/>
		<path fill-rule="evenodd" clip-rule="evenodd" fill="#474749" d="M561.775,408.098c0,0.036,0,0.074,0,0.112
			c0,0.54,0,1.079,0.002,1.618c0.002,0.097-0.02,0.129-0.098,0.125c-0.123-0.009-0.246-0.003-0.385-0.003c0-1.62,0-3.227,0-4.84
			c0.13,0,0.266,0,0.414,0c0.008,0.187,0.018,0.371,0.025,0.573c0.059-0.09,0.102-0.166,0.15-0.232
			c0.513-0.684,1.4-0.536,1.771,0.294c0.172,0.388,0.215,0.809,0.189,1.245c-0.02,0.317-0.081,0.618-0.211,0.892
			c-0.311,0.666-0.908,0.838-1.348,0.669c-0.176-0.067-0.322-0.198-0.441-0.379c-0.018-0.026-0.035-0.053-0.053-0.079
			C561.788,408.095,561.782,408.096,561.775,408.098z M561.762,406.866c0.006,0.002,0.014,0.002,0.014,0.002
			c0.007,0.116,0.002,0.234,0.008,0.348c0.02,0.433,0.254,0.79,0.578,0.889c0.336,0.104,0.68-0.068,0.844-0.445
			c0.223-0.516,0.23-1.052,0.042-1.583c-0.114-0.316-0.312-0.521-0.591-0.554c-0.371-0.044-0.74,0.284-0.839,0.762
			C561.777,406.471,561.779,406.672,561.762,406.866z"/>
		<path fill-rule="evenodd" clip-rule="evenodd" fill="#474749" d="M571.344,407.965c0.028,0.142,0.055,0.288,0.086,0.459
			c-0.157,0.052-0.312,0.119-0.469,0.149c-0.295,0.063-0.594,0.089-0.888-0.022c-0.501-0.189-0.866-0.797-0.879-1.463
			c-0.007-0.39,0.022-0.773,0.153-1.135c0.29-0.792,0.907-1.044,1.47-0.851c0.153,0.053,0.29,0.153,0.399,0.302
			c0.318,0.435,0.363,0.967,0.349,1.535c-0.038,0-0.068,0-0.098,0c-0.569,0-1.141,0-1.71,0c-0.093,0-0.098,0.007-0.092,0.128
			c0.037,0.63,0.412,1.072,0.909,1.061c0.131-0.003,0.263-0.012,0.393-0.041C571.094,408.062,571.217,408.007,571.344,407.965z
			 M571.117,406.456c0.056-0.297-0.061-0.655-0.275-0.851c-0.23-0.217-0.52-0.228-0.775-0.019c-0.248,0.199-0.377,0.489-0.393,0.869
			C570.164,406.456,570.641,406.456,571.117,406.456z"/>
		<path fill-rule="evenodd" clip-rule="evenodd" fill="#474749" d="M559.875,405.087c0.166,0,0.32,0,0.483,0
			c0,1.146,0,2.289,0,3.438c-0.13,0-0.27,0-0.415,0c-0.008-0.175-0.02-0.347-0.031-0.548c-0.029,0.05-0.046,0.079-0.063,0.109
			c-0.269,0.468-0.765,0.653-1.188,0.45c-0.309-0.148-0.462-0.458-0.531-0.847c-0.029-0.159-0.047-0.325-0.048-0.487
			c-0.006-0.674-0.003-1.347-0.003-2.02c0-0.021,0.003-0.043,0.004-0.072c0.157,0,0.313,0,0.477,0c0,0.039,0.002,0.075,0.002,0.113
			c0,0.577-0.002,1.152,0.002,1.728c0.003,0.175,0.016,0.35,0.043,0.519c0.1,0.622,0.518,0.709,0.83,0.551
			c0.277-0.142,0.432-0.417,0.437-0.802c0.007-0.668,0.003-1.337,0.003-2.008C559.875,405.173,559.875,405.135,559.875,405.087z"/>
		<path fill-rule="evenodd" clip-rule="evenodd" fill="#474749" d="M566.732,405.102c-0.084,0.287-0.166,0.558-0.25,0.827
			c-0.273,0.878-0.544,1.758-0.826,2.635c-0.098,0.309-0.227,0.604-0.395,0.869c-0.188,0.299-0.422,0.526-0.717,0.639
			c-0.023,0.009-0.048,0.015-0.08,0.023c-0.04-0.171-0.078-0.336-0.117-0.509c0.033-0.018,0.063-0.032,0.091-0.05
			c0.364-0.203,0.614-0.549,0.772-1.008c0.037-0.106,0.013-0.202-0.018-0.3c-0.174-0.546-0.348-1.094-0.521-1.642
			c-0.147-0.465-0.296-0.928-0.44-1.393c-0.008-0.026-0.016-0.053-0.026-0.087c0.021-0.005,0.036-0.012,0.052-0.012
			c0.141,0,0.28,0.001,0.418-0.003c0.043,0,0.063,0.019,0.078,0.07c0.242,0.858,0.483,1.718,0.727,2.577
			c0.007,0.023,0.014,0.046,0.028,0.094c0.026-0.114,0.05-0.207,0.072-0.298c0.206-0.787,0.413-1.578,0.624-2.365
			c0.009-0.029,0.039-0.065,0.059-0.066C566.416,405.099,566.566,405.102,566.732,405.102z"/>
		<path fill-rule="evenodd" clip-rule="evenodd" fill="#626463" d="M557.393,398.943c-0.494-0.003-0.898-0.522-0.895-1.153
			c0.004-0.628,0.417-1.149,0.906-1.146c0.493,0.004,0.896,0.519,0.896,1.141C558.299,398.431,557.896,398.944,557.393,398.943z"/>
		<path fill-rule="evenodd" clip-rule="evenodd" fill="#474749" d="M567.565,405.559c-0.14,0-0.272,0-0.409,0
			c0-0.154,0-0.302,0-0.459c0.115,0,0.221-0.004,0.331,0.002c0.071,0.006,0.099-0.021,0.096-0.116
			c-0.007-0.21,0.001-0.423-0.003-0.631c-0.004-0.079,0.021-0.108,0.076-0.123c0.129-0.033,0.256-0.074,0.393-0.113
			c0,0.329,0,0.651,0,0.984c0.084,0,0.159,0,0.234,0c0.135,0,0.273,0.002,0.41-0.001c0.051-0.003,0.066,0.021,0.066,0.084
			c-0.003,0.095-0.004,0.192,0,0.29c0.002,0.068-0.02,0.088-0.071,0.086c-0.184-0.003-0.365,0-0.548,0c-0.027,0-0.055,0-0.087,0
			c-0.001,0.042-0.005,0.073-0.005,0.105c0,0.598-0.002,1.195,0.003,1.794c0.001,0.119,0.019,0.245,0.044,0.359
			c0.039,0.168,0.137,0.266,0.275,0.272c0.107,0.008,0.216,0.002,0.337,0.002c0.005,0.115,0.011,0.249,0.015,0.385
			c0.002,0.017-0.019,0.048-0.031,0.052c-0.287,0.097-0.574,0.143-0.838-0.095c-0.168-0.149-0.229-0.379-0.268-0.62
			c-0.016-0.088-0.018-0.18-0.018-0.27c0-0.634,0-1.268,0-1.9C567.568,405.621,567.568,405.597,567.565,405.559z"/>
		<path fill-rule="evenodd" clip-rule="evenodd" fill="#474749" d="M556,410c-0.02-0.168-0.035-0.311-0.053-0.464
			c0.039-0.006,0.076-0.009,0.113-0.016c0.378-0.085,0.57-0.354,0.586-0.854c0.016-0.536,0.021-1.072,0.021-1.608
			c0.006-0.623,0.003-1.243,0-1.864c0-0.095,0.023-0.121,0.096-0.117c0.129,0.007,0.258,0.001,0.395,0.001c0,0.053,0,0.089,0,0.127
			c0,0.972,0,1.941-0.002,2.911c-0.001,0.234-0.004,0.472-0.031,0.703c-0.032,0.278-0.129,0.535-0.275,0.746
			c-0.144,0.21-0.342,0.317-0.553,0.38C556.204,409.974,556.104,409.98,556,410z"/>
		<path fill-rule="evenodd" clip-rule="evenodd" fill="#474749" d="M572.32,405.103c0.137,0,0.27,0,0.419,0c0,0.223,0,0.443,0,0.663
			c0.008,0,0.017,0.001,0.022,0.004c0.013-0.03,0.023-0.06,0.033-0.092c0.128-0.409,0.434-0.668,0.778-0.664
			c0.051,0.002,0.071,0.02,0.071,0.089c-0.004,0.162-0.002,0.322-0.002,0.479c-0.104,0.012-0.197,0.013-0.287,0.038
			c-0.297,0.08-0.512,0.385-0.545,0.766c-0.014,0.175-0.021,0.349-0.022,0.521c-0.003,0.501-0.003,1.004,0,1.505
			c0.001,0.089-0.019,0.118-0.089,0.115c-0.127-0.008-0.252-0.003-0.379-0.003C572.32,407.38,572.32,406.246,572.32,405.103z"/>
	</g>
	<path fill="#FFFFFF" stroke="#0A3656" stroke-width="3" stroke-miterlimit="10" d="M472.811,600.271h27.332
		c0,0,25.334-0.001,25.334-7.334"/>
	
		<line fill="#FFFFFF" stroke="#0A3656" stroke-width="3" stroke-miterlimit="10" x1="562.143" y1="591.937" x2="589.143" y2="591.937"/>
	<polygon fill="#045F9B" stroke="#0A3656" stroke-width="3" stroke-miterlimit="10" points="535.143,528.937 508.143,528.937 
		508.143,519.937 535.143,523.937 	"/>
	<polygon fill="#045F9B" stroke="#0A3656" stroke-width="3" stroke-miterlimit="10" points="589.143,528.937 535.143,528.937 
		535.143,519.937 589.143,528.937 	"/>
	
		<line fill="none" stroke="#0A3656" stroke-width="3" stroke-miterlimit="10" x1="553.143" y1="474.937" x2="535.143" y2="474.937"/>
	<path fill="#FFFFFF" stroke="#0A3656" stroke-width="3" stroke-miterlimit="10" d="M535.143,618.937c0-14.912,12.088-27,27-27
		s27,12.088,27,27H535.143z"/>
	<g>
		<g>
			<path fill="none" stroke="#0A3656" stroke-width="3" stroke-miterlimit="10" d="M623.143,501.937
				c28.5,0,52.58-18.924,60.359-44.892 M560.143,438.937c0,22.413,11.705,42.092,29.334,53.259 M592.949,483.714
				c-14.363-9.704-23.807-26.138-23.807-44.777 M673.991,457.154c-6.663,18.595-23.235,32.472-43.352,35.267"/>
		</g>
	</g>
	<path fill="#9D9E9F" stroke="#0A3656" stroke-width="3" stroke-miterlimit="10" d="M652.143,546.937c4.971,0,9-4.029,9-9
		s-4.029-9-9-9h-63v18H652.143z"/>
	<polygon fill="#777778" stroke="#0A3656" stroke-width="3" stroke-miterlimit="10" points="652.143,618.937 661.143,618.937 
		652.143,546.937 643.143,546.937 	"/>
	<polygon fill="#777778" stroke="#0A3656" stroke-width="3" stroke-miterlimit="10" points="607.143,618.937 616.143,618.937 
		607.143,546.937 598.143,546.937 	"/>
	<rect x="382.143" y="456.937" fill="#777778" stroke="#0A3656" stroke-width="3" stroke-miterlimit="10" width="27" height="153"/>
	<rect x="383.643" y="456.937" fill="#626463" width="24.002" height="19"/>
	<rect x="346.143" y="609.937" fill="#9D9E9F" stroke="#0A3656" stroke-width="3" stroke-miterlimit="10" width="99" height="9"/>
	<polygon fill="none" stroke="#0A3656" stroke-width="3" stroke-miterlimit="10" points="321.852,447.937 298.852,447.937 
		296.852,402.937 323.852,402.937 	"/>
	<polygon fill="none" stroke="#0A3656" stroke-width="3" stroke-miterlimit="10" points="479.143,447.937 456.143,447.937 
		454.143,402.937 481.143,402.937 	"/>
	<polygon fill="none" stroke="#0A3656" stroke-width="3" stroke-miterlimit="10" points="644.143,340.27 572.143,358.27 
		572.143,349.27 644.143,331.27 	"/>
	
		<rect x="197.143" y="402.937" fill-rule="evenodd" clip-rule="evenodd" fill="#045F9B" stroke="#0A3656" stroke-width="3" stroke-miterlimit="10" width="18" height="9"/>
	<rect x="292.143" y="447.937" fill="#9D9E9F" stroke="#0A3656" stroke-width="3" stroke-miterlimit="10" width="216" height="9"/>
	
		<path fill="#FFFFFF" stroke="#0A3656" stroke-width="3" stroke-linecap="round" stroke-linejoin="round" stroke-miterlimit="10" d="
		M296.143,430.416c9,0,13-9,13-9h9.5c2.485,0,4.5-2.015,4.5-4.5s-2.015-4.5-4.5-4.5h-24.5"/>
	
		<line fill="none" stroke="#0A3656" stroke-width="3" stroke-miterlimit="10" x1="283.143" y1="412.937" x2="283.143" y2="445.937"/>
	
		<path fill="#FFFFFF" stroke="#0A3656" stroke-width="3" stroke-linecap="round" stroke-linejoin="round" stroke-miterlimit="10" d="
		M508.143,447.937c-4.971,0-9-4.029-9-9h-4.5c-2.486,0-4.5-2.015-4.5-4.5s2.014-4.5,4.5-4.5h13.5c4.971,0,9,4.029,9,9"/>
	
		<line fill="none" stroke="#0A3656" stroke-width="3" stroke-miterlimit="10" x1="526.143" y1="423.937" x2="541.143" y2="455.437"/>
	<path fill="#FFFFFF" stroke="#0A3656" stroke-width="3" stroke-miterlimit="10" d="M195.283,444.947
		c3.512-4.556,9.706-6.515,15.389-4.407c6.99,2.594,10.553,10.363,7.959,17.355"/>
	<path fill="#FFFFFF" stroke="#0A3656" stroke-width="3" stroke-miterlimit="10" d="M612.111,459.468
		c-4.822-3.135-11.314-2.93-15.979,0.942c-5.734,4.764-6.52,13.275-1.756,19.013"/>
	<g>
		<path fill="none" stroke="#0A3656" stroke-width="3" stroke-miterlimit="10" d="M209.027,490.526c-2.299,0-4.637-0.456-6.885-1.42
			l-66.846-34.085c-4.43-1.898-7.881-5.54-9.539-10.065c-1.656-4.526-1.375-9.535,0.78-13.846l23.952-54
			c4.322-8.644,14.834-12.15,23.479-7.826c8.645,4.322,12.148,14.834,7.826,23.479l-15.652,37.399l49.787,26.774
			c8.884,3.808,12.998,14.095,9.191,22.979C222.277,486.551,215.817,490.525,209.027,490.526z"/>
	</g>
	
		<line fill="none" stroke="#0A3656" stroke-width="3" stroke-miterlimit="10" x1="195.283" y1="444.947" x2="177.811" y2="476.937"/>
	<polygon fill="#045F9B" stroke="#0A3656" stroke-width="3" stroke-miterlimit="10" points="171.143,417.604 138.838,403.602 
		142.539,395.4 174.846,409.403 	"/>
	
		<line fill="#FFFFFF" stroke="#0A3656" stroke-width="3" stroke-miterlimit="10" x1="265.143" y1="618.937" x2="265.143" y2="591.937"/>
	<g>
		<path fill="none" stroke="#0A3656" stroke-width="3" stroke-miterlimit="10" d="M607.133,510.437
			c-3.951,0.001-7.922-1.329-11.193-4.056c-7.426-6.188-8.428-17.223-2.241-24.647l38.759-46.511l-14.916-44.752
			c-3.057-9.169,1.898-19.08,11.066-22.136c9.17-3.056,19.081,1.898,22.137,11.067l18,54c1.916,5.75,0.721,12.082-3.157,16.737
			l-45,54C617.125,508.293,612.147,510.437,607.133,510.437z"/>
	</g>
	
		<line fill="#FFFFFF" stroke="#0A3656" stroke-width="3" stroke-miterlimit="10" x1="612.111" y1="459.468" x2="639.643" y2="481.937"/>
	<polygon fill="#045F9B" stroke="#0A3656" stroke-width="3" stroke-miterlimit="10" points="628.365,423.151 661.838,412.231 
		658.922,403.721 625.445,414.64 	"/>
	<path fill="#F16523" stroke="#0A3656" stroke-width="3" stroke-miterlimit="10" d="M247.143,327.142
		c0,19.403-9,30.795-18.867,30.795c-19.404,0-35.133-11.392-35.133-30.795c0-19.402,15.729-35.134,35.133-35.134
		C238.143,292.008,247.143,307.739,247.143,327.142z"/>
	<g>
		<path fill="#FFFFFF" d="M220.407,311.755c0,4.6-3.722,8.323-8.321,8.323c-4.592,0-8.324-3.724-8.324-8.323
			c0-4.594,3.732-8.323,8.324-8.323C216.686,303.432,220.407,307.161,220.407,311.755z"/>
		<path fill="#FFFFFF" d="M225.615,324.485c0,2.604-2.113,4.715-4.715,4.715c-2.605,0-4.709-2.111-4.709-4.715
			c0-2.604,2.104-4.707,4.709-4.707C223.502,319.778,225.615,321.881,225.615,324.485z"/>
	</g>
	<polygon fill="#9D9E9F" stroke="#0A3656" stroke-width="3" stroke-miterlimit="10" points="464.143,613.937 589.143,613.937 
		589.143,618.937 463.143,618.937 	"/>
	
		<line fill="#FFFFFF" stroke="#0A3656" stroke-width="3" stroke-miterlimit="10" x1="534.977" y1="591.437" x2="534.977" y2="618.937"/>
	<g>
		<polygon fill="#626463" points="155.475,548.438 149.477,548.438 147.412,564.937 153.412,564.937 		"/>
	</g>
	<g>
		<polygon fill="#626463" points="200.475,548.438 194.477,548.438 192.412,564.937 198.412,564.937 		"/>
	</g>
	<g>
		<polygon fill="#626463" points="644.787,548.438 650.785,548.438 652.849,564.937 646.85,564.937 		"/>
	</g>
	<g>
		<polygon fill="#626463" points="599.787,548.438 605.785,548.438 607.849,564.937 601.85,564.937 		"/>
	</g>
	<circle fill="#FFFFFF" stroke="#0A3656" stroke-width="3" stroke-miterlimit="10" cx="168.643" cy="321.437" r="11.5"/>
</g>
<path fill="#FFFFFF" d="M567.487,293.463c0,0,13.331-26.667,38.665-26.667c0,0,44.666,5.333,40.666,52
	c0,0,1.334,16.666-2.666,25.333c0,0-8.667,18.667-42,18.667c0,0-19.334,0.667-29.334-5.333L567.487,293.463z"/>
<g>
	<path fill-rule="evenodd" clip-rule="evenodd" fill="#B4DEF6" d="M607.615,276.962c0,0,30,9,30,43c0,0,2,34-29,34h-18.5
		c0,0-7,1-12.5-2.5l-9.104,2.415c0,0,7.604,8.585,27.104,8.585h13.5c0,0,32.5-1.5,37-28v-22
		C646.115,312.462,640.115,276.962,607.615,276.962z"/>
	<g>
		<g>
			<path fill="#045F9B" d="M605.402,276.462c-12.988,0-21.948,6.028-27.245,15.434c-1.638-0.234-3.31-0.362-5.014-0.362
				c-2.061,0-4.082,0.694-5.991,1.956c6.019-15.24,20.871-26.027,38.25-26.027c22.713,0,41.126,18.41,41.126,41.123v9
				C646.528,294.872,628.115,276.462,605.402,276.462z"/>
		</g>
	</g>
	<path fill="none" stroke="#0A3656" stroke-width="3" stroke-miterlimit="10" d="M646.734,329.147
		c0,22.712-18.411,33.508-41.122,33.508c-22.712,0-41.125-0.481-41.125-23.193v-30.877c0-22.713,18.413-41.123,41.125-41.123
		c22.711,0,41.122,18.41,41.122,41.123V329.147z"/>
	<path fill="none" stroke="#0A3656" stroke-width="3" stroke-miterlimit="10" d="M572.485,317.585
		c0-22.713,10.415-41.123,33.127-41.123c22.711,0,41.122,18.41,41.122,41.123"/>
	<circle fill="none" stroke="#0A3656" stroke-width="3" stroke-miterlimit="10" cx="632.985" cy="320.962" r="11.5"/>
	<path fill="#F16523" stroke="#0A3656" stroke-width="3" stroke-miterlimit="10" d="M554.485,326.667
		c0,19.403,9,30.795,18.866,30.795c19.405,0,35.134-11.392,35.134-30.795c0-19.402-15.729-35.134-35.134-35.134
		C563.485,291.533,554.485,307.265,554.485,326.667z"/>
	<g>
		<path fill="#FFFFFF" d="M581.219,311.28c0,4.6,3.724,8.323,8.323,8.323c4.591,0,8.323-3.724,8.323-8.323
			c0-4.594-3.732-8.323-8.323-8.323C584.942,302.957,581.219,306.687,581.219,311.28z"/>
		<path fill="#FFFFFF" d="M576.013,324.011c0,2.604,2.112,4.715,4.715,4.715c2.605,0,4.708-2.111,4.708-4.715
			c0-2.604-2.103-4.707-4.708-4.707C578.125,319.304,576.013,321.406,576.013,324.011z"/>
	</g>
</g>
</svg>
