<svg width="36" height="36" viewBox="0 0 36 36" fill="none" xmlns="http://www.w3.org/2000/svg">
<g clip-path="url(#clip0)">
<path d="M24 32.9999V27.1949C24.0563 26.4796 23.9596 25.7606 23.7165 25.0856C23.4734 24.4106 23.0894 23.795 22.59 23.2799C27.3 22.7549 32.25 20.9699 32.25 12.7799C32.2496 10.6856 31.444 8.6717 30 7.15491C30.6838 5.32267 30.6354 3.29743 29.865 1.49991C29.865 1.49991 28.095 0.974906 24 3.71991C20.562 2.78814 16.938 2.78814 13.5 3.71991C9.405 0.974906 7.635 1.49991 7.635 1.49991C6.86456 3.29743 6.81622 5.32267 7.5 7.15491C6.04519 8.68296 5.23878 10.7151 5.25 12.8249C5.25 20.9549 10.2 22.7399 14.91 23.3249C14.4165 23.8349 14.0359 24.443 13.793 25.1098C13.55 25.7766 13.4502 26.487 13.5 27.1949V32.9999M13.5 28.4999C6 30.7499 6 24.7499 3 23.9999L13.5 28.4999Z" stroke="white" stroke-width="3" stroke-linecap="round" stroke-linejoin="round"/>
</g>
<defs>
<clipPath id="clip0">
<rect width="36" height="36" fill="white"/>
</clipPath>
</defs>
</svg>
