<?xml version="1.0" encoding="utf-8"?>
<!-- Generator: Adobe Illustrator 16.0.0, SVG Export Plug-In . SVG Version: 6.00 Build 0)  -->
<!DOCTYPE svg PUBLIC "-//W3C//DTD SVG 1.1//EN" "http://www.w3.org/Graphics/SVG/1.1/DTD/svg11.dtd">
<svg version="1.1" id="Layer_1" xmlns="http://www.w3.org/2000/svg" xmlns:xlink="http://www.w3.org/1999/xlink" x="0px" y="0px"
	 width="800px" height="800px" viewBox="0 0 800 800" enable-background="new 0 0 800 800" xml:space="preserve">
<path fill="#0A3656" d="M342.404,155.975c0,0-43.307-6.903-113.597,69.664c0,0-90.375,92.257-90.375,176.981
	c0,0-6.902,57.74,70.292,109.831c0,0,43.932,40.166,131.168,40.166c0,0,91.001-0.628,176.982-57.111
	c0,0,53.975-30.125,53.975-74.057c0,0,6.275-20.712-36.402-72.175c0,0-84.097-94.766-121.752-148.112
	C412.695,201.162,380.059,155.975,342.404,155.975z"/>
<path fill="#FFFFFF" d="M452.634,651.51L374.407,493.44c0,0-17.743-47.581,6.451-86.292c0,0,26.615-34.679,92.745-22.582
	l151.616,50.002L452.634,651.51z"/>
<path fill="#B4DEF6" d="M387.714,407.955l149.601,141.938c0,0,33.671-95.769,131.657-89.72l-187.505-68.349
	C481.467,391.825,420.376,376.099,387.714,407.955z"/>
<path fill="#B4DEF6" d="M485.032,393.106c0,0-47.749-9.905-82.993,29.98l-1.604,1.813c-35.244,39.887-19.537,86.053-19.537,86.053
	l0,0c0,0-23.654-49.96-2.21-91.28c0,0,4.825-9.724,15.553-17.601c38.364-26.365,90.858-9.042,90.858-9.042L485.032,393.106z"/>
<ellipse transform="matrix(0.6622 -0.7494 0.7494 0.6622 -195.7753 498.5127)" opacity="0.25" fill="#F16523" cx="454.993" cy="466.383" rx="49.398" ry="33.266"/>
<ellipse transform="matrix(0.6622 -0.7494 0.7494 0.6622 -193.9128 492.4926)" fill="#F16523" cx="449.251" cy="461.309" rx="38.106" ry="25.203"/>
<g>
	<path fill="#FFFFFF" d="M424.527,487.808c0,0-0.129-0.303-0.372-0.87c-0.122-0.283-0.271-0.633-0.447-1.044
		c-0.146-0.424-0.291-0.922-0.46-1.481c-0.191-0.558-0.31-1.189-0.445-1.88c-0.068-0.345-0.146-0.704-0.208-1.079
		c-0.039-0.378-0.079-0.77-0.121-1.174c-0.036-0.404-0.096-0.824-0.116-1.256c-0.01-0.433-0.02-0.878-0.029-1.335
		c-0.052-0.919,0.053-1.875,0.108-2.88c0.058-1.006,0.253-2.035,0.383-3.115c0.233-1.055,0.417-2.168,0.743-3.273
		c0.304-1.111,0.627-2.253,1.052-3.387c0.366-1.157,0.891-2.277,1.381-3.437c1.062-2.276,2.25-4.601,3.727-6.79
		c1.414-2.232,3.096-4.327,4.818-6.379c0.957-1.01,1.769-1.939,2.761-2.882c0.973-0.938,1.941-1.87,2.959-2.704
		c1.98-1.748,4.145-3.209,6.263-4.558c2.15-1.305,4.315-2.426,6.461-3.276c1.052-0.47,2.136-0.785,3.152-1.154
		c1.052-0.272,2.052-0.587,3.039-0.779c0.991-0.181,1.925-0.409,2.843-0.477c0.455-0.048,0.897-0.096,1.328-0.141
		c0.431-0.039,0.854-0.031,1.261-0.048c0.406-0.011,0.8-0.021,1.179-0.03c0.381,0.009,0.747,0.041,1.098,0.064
		c0.701,0.047,1.344,0.08,1.917,0.197c0.574,0.095,1.086,0.173,1.526,0.262c0.434,0.121,0.802,0.225,1.102,0.309
		c0.594,0.166,0.91,0.255,0.91,0.255s-0.326-0.044-0.938-0.127c-0.305-0.041-0.679-0.092-1.119-0.151
		c-0.443-0.02-0.953-0.042-1.523-0.067c-0.566-0.05-1.198-0.009-1.882,0.023c-0.341,0.017-0.695,0.032-1.063,0.05
		c-0.365,0.045-0.744,0.091-1.137,0.139c-0.391,0.054-0.795,0.084-1.206,0.161c-0.409,0.084-0.831,0.17-1.264,0.259
		c-0.868,0.145-1.757,0.423-2.689,0.669c-0.931,0.254-1.87,0.63-2.852,0.964c-0.951,0.427-1.972,0.767-2.956,1.276
		c-0.496,0.243-0.998,0.488-1.508,0.737c-0.504,0.259-0.996,0.558-1.503,0.839c-1.021,0.549-2.01,1.206-3.03,1.844
		c-2,1.346-3.986,2.854-5.883,4.53c-0.975,0.815-1.872,1.703-2.776,2.589c-0.899,0.864-1.81,1.926-2.654,2.825
		c-1.672,1.952-3.311,3.944-4.687,6.07c-0.731,1.035-1.354,2.124-2.011,3.177c-0.618,1.073-1.204,2.152-1.74,3.229
		c-0.509,1.092-1.03,2.158-1.447,3.239c-0.467,1.064-0.833,2.138-1.182,3.187c-0.375,1.042-0.587,2.097-0.892,3.094
		c-0.197,1.018-0.462,1.996-0.587,2.952c-0.129,0.956-0.285,1.873-0.319,2.753c-0.033,0.44-0.064,0.869-0.095,1.287
		c-0.02,0.417,0,0.822-0.002,1.216c0.003,0.396,0.006,0.777,0.009,1.146c0.031,0.367,0.061,0.721,0.09,1.061
		c0.055,0.683,0.099,1.313,0.221,1.864c0.1,0.562,0.188,1.063,0.266,1.499c0.118,0.432,0.219,0.799,0.3,1.096
		C424.44,487.49,424.527,487.808,424.527,487.808z"/>
</g>
<circle fill="#B4DEF6" cx="305.543" cy="318.944" r="60.767"/>
<circle fill="#FBD5C9" cx="295.416" cy="319.367" r="60.767"/>
<circle fill="none" stroke="#F16624" stroke-width="5" stroke-linecap="round" stroke-linejoin="round" stroke-miterlimit="10" cx="305.684" cy="318.944" r="60.767"/>
<g>
	<path fill="none" stroke="#F16624" stroke-linecap="round" stroke-linejoin="round" stroke-miterlimit="10" d="M245.465,320.216
		c4.608-1.976,9.649-3.086,14.325-4.319c12.077-3.185,23.477-6.93,35.541-9.715c8.367-1.931,16.973-3.171,25.248-5.702
		c11.43-3.494,21.906-9.085,32.174-15.133c0.896-0.526,1.792-1.069,2.684-1.623"/>
	<path fill="none" stroke="#F16624" stroke-linecap="round" stroke-linejoin="round" stroke-miterlimit="10" d="M348.907,276.123
		c-3.361,2.374-6.709,4.74-10.089,6.953c-15.758,10.313-34.123,13.803-51.988,17.278c-13.22,2.571-26.89,2.587-39.808,5.241"/>
	<path fill="none" stroke="#F16624" stroke-linecap="round" stroke-linejoin="round" stroke-miterlimit="10" d="M250.135,342.788
		c14.844-9.776,31.471-17.507,48.376-22.05c17.086-4.593,34.205-11.321,51.608-14.876c4.884-0.996,9.649-2.294,14.349-3.857"/>
	<path fill="none" stroke="#F16624" stroke-linecap="round" stroke-linejoin="round" stroke-miterlimit="10" d="M355.437,283.724
		c-0.892,0.554-1.787,1.097-2.684,1.623c-10.268,6.048-20.744,11.639-32.174,15.133c-8.275,2.531-16.881,3.771-25.248,5.702
		c-12.064,2.785-23.464,6.53-35.541,9.715c-4.676,1.233-9.717,2.344-14.325,4.319"/>
	<path fill="none" stroke="#F16624" stroke-linecap="round" stroke-linejoin="round" stroke-miterlimit="10" d="M265.444,364.418
		c1.044-0.82,2.089-1.657,3.126-2.523c13.156-10.994,23.655-25.203,39.771-32.833c15.162-7.18,32.03-9.731,48.543-11.404
		c3.305-0.335,6.676-0.748,10.03-1.31"/>
	<path fill="none" stroke="#F16624" stroke-linecap="round" stroke-linejoin="round" stroke-miterlimit="10" d="M364.468,302.005
		c-4.699,1.563-9.465,2.861-14.349,3.857c-17.403,3.555-34.522,10.283-51.608,14.876c-16.905,4.543-33.532,12.273-48.376,22.05"/>
	<path fill="none" stroke="#F16624" stroke-linecap="round" stroke-linejoin="round" stroke-miterlimit="10" d="M249.109,298.566
		c3.455-0.451,6.923-0.917,10.272-1.659c15.51-3.436,29.163-10.972,43.534-17.632c10.46-4.847,20.775-10.313,31.844-13.567"/>
	<path fill="none" stroke="#F16624" stroke-linecap="round" stroke-linejoin="round" stroke-miterlimit="10" d="M326.843,262.191
		c-8.242,1.626-16.419,3.467-24.418,6.127c-7.168,2.383-14.294,4.692-20.678,8.743c-5.824,3.696-11.152,7.923-17.007,11.396
		c-4.751,2.819-9.539,6.023-14.747,7.839"/>
	<path fill="none" stroke="#F16624" stroke-linecap="round" stroke-linejoin="round" stroke-miterlimit="10" d="M247.022,305.596
		c12.918-2.654,26.588-2.67,39.808-5.241c17.865-3.476,36.23-6.965,51.988-17.278c3.38-2.213,6.728-4.579,10.089-6.953"/>
	<path fill="none" stroke="#F16624" stroke-linecap="round" stroke-linejoin="round" stroke-miterlimit="10" d="M334.76,265.708
		c-11.068,3.255-21.384,8.721-31.844,13.567c-14.371,6.66-28.024,14.196-43.534,17.632c-3.35,0.742-6.817,1.208-10.272,1.659"/>
	<path fill="none" stroke="#F16624" stroke-linecap="round" stroke-linejoin="round" stroke-miterlimit="10" d="M249.993,296.296
		c5.208-1.815,9.996-5.02,14.747-7.839c5.854-3.473,11.183-7.699,17.007-11.396c6.384-4.051,13.51-6.36,20.678-8.743
		c7.999-2.66,16.176-4.501,24.418-6.127"/>
	<path fill="none" stroke="#F16624" stroke-linecap="round" stroke-linejoin="round" stroke-miterlimit="10" d="M353.38,357.688
		c-11.285,3.259-22.872,4.764-35.023,6.42c-8.678,1.182-18.165,4.324-26.06,8.069c-2.428,1.15-4.798,2.604-7.044,4.241"/>
	<path fill="none" stroke="#F16624" stroke-linecap="round" stroke-linejoin="round" stroke-miterlimit="10" d="M308.258,380.097
		c3.546-3.563,7.84-6.476,14.022-8.319c6.036-1.801,12.07-1.732,18.211-2.226"/>
	<path fill="none" stroke="#F16624" stroke-linecap="round" stroke-linejoin="round" stroke-miterlimit="10" d="M366.692,325.387
		c-0.96,0.109-1.917,0.214-2.868,0.311c-16.514,1.672-24.898-5.064-47.052,5.273c-8.853,4.133-25.878,25.298-39.035,36.291
		c-1.389,1.163-2.816,2.257-4.271,3.297 M285.253,376.418c2.246-1.637,4.616-3.091,7.044-4.241
		c7.895-3.745,17.382-6.888,26.06-8.069c12.151-1.656,23.738-3.161,35.023-6.42 M356.592,340.653
		c-12.008,17.953-34.086,15.289-34.086,15.289c-11.988-1.787-29.911,2.986-29.911,2.986c9.642-4.404,17.337-14.877,25.905-21.888
		c10.438-8.542,20.362-8.364,31.565-6.633c0,0,9.973,3.094,15.898-0.115C363.281,331.921,356.592,340.653,356.592,340.653z"/>
	<path fill="none" stroke="#F16624" stroke-linecap="round" stroke-linejoin="round" stroke-miterlimit="10" d="M340.491,369.552
		c-6.141,0.493-12.175,0.425-18.211,2.226c-6.183,1.844-10.477,4.756-14.022,8.319"/>
	<path fill="none" stroke="#F16624" stroke-linecap="round" stroke-linejoin="round" stroke-miterlimit="10" d="M273.467,370.559
		c1.454-1.04,2.882-2.134,4.271-3.297c13.157-10.993,30.183-32.158,39.035-36.291c22.153-10.338,30.538-3.602,47.052-5.273
		c0.951-0.097,1.908-0.201,2.868-0.311"/>
	<path fill="none" stroke="#F16624" stroke-linecap="round" stroke-linejoin="round" stroke-miterlimit="10" d="M366.914,316.348
		c-3.354,0.562-6.726,0.975-10.03,1.31c-16.513,1.673-33.381,4.225-48.543,11.404c-16.115,7.63-26.614,21.839-39.771,32.833
		c-1.037,0.866-2.082,1.703-3.126,2.523"/>
	<path fill="none" stroke="#F16624" stroke-linecap="round" stroke-linejoin="round" stroke-miterlimit="10" d="M350.065,330.408
		c-11.203-1.731-21.127-1.909-31.565,6.633c-8.568,7.011-16.264,17.483-25.905,21.888c0,0,17.923-4.773,29.911-2.986
		c0,0,22.078,2.664,34.086-15.289c0,0,6.689-8.732,9.372-10.36C360.038,333.502,350.065,330.408,350.065,330.408z M349.594,340.707
		c-7.215,10.299-20.094,8.325-20.094,8.325c-6.989-1.27-17.52,1.194-17.52,1.194c5.684-2.402,10.296-8.396,15.381-12.345
		c6.195-4.811,11.995-4.522,18.526-3.3c0,0,5.797,1.998,9.298,0.229C353.599,335.715,349.594,340.707,349.594,340.707z"/>
	<path fill="none" stroke="#F16624" stroke-linecap="round" stroke-linejoin="round" stroke-miterlimit="10" d="M345.888,334.582
		c-6.531-1.223-12.331-1.511-18.526,3.3c-5.085,3.949-9.697,9.942-15.381,12.345c0,0,10.53-2.464,17.52-1.194
		c0,0,12.879,1.974,20.094-8.325c0,0,4.005-4.992,5.592-5.896C351.685,336.58,345.888,334.582,345.888,334.582z"/>
</g>
<circle fill="none" stroke="#F16624" stroke-width="3" stroke-linecap="round" stroke-linejoin="round" stroke-miterlimit="10" cx="231.309" cy="349.865" r="5.697"/>
<circle fill="none" stroke="#F16624" stroke-width="3" stroke-linecap="round" stroke-linejoin="round" stroke-miterlimit="10" cx="385.125" cy="332.773" r="3.798"/>
<circle fill="#B4DEF6" stroke="#F16523" stroke-width="5" stroke-miterlimit="10" cx="366.136" cy="298.592" r="11.394"/>
<circle fill="#F16824" cx="240.804" cy="290.996" r="3.798"/>
<circle fill="#B4DEF6" cx="274.001" cy="418.438" r="5.358"/>
<circle fill="#FFFFFF" cx="448.805" cy="348.88" r="14.545"/>
<circle fill="#FFFFFF" cx="448.804" cy="302.307" r="1.815"/>
<circle fill="#FFFFFF" cx="233.476" cy="457.149" r="2.495"/>
<circle fill="#FFFFFF" cx="347.793" cy="455.335" r="1.814"/>
<circle fill="#F16824" cx="332.067" cy="437.189" r="3.317"/>
<circle fill="#FFFFFF" cx="375.012" cy="393.035" r="1.814"/>
<circle fill="#FFFFFF" cx="234.08" cy="244.24" r="1.814"/>
<circle fill="#FFFFFF" cx="317.551" cy="185.569" r="1.814"/>
<circle fill="#FFFFFF" cx="322.994" cy="238.797" r="1.814"/>
<circle fill="#F16824" cx="396.787" cy="236.982" r="1.815"/>
<path fill="none" stroke="#F16624" stroke-width="5" stroke-linecap="round" stroke-linejoin="round" stroke-miterlimit="10" d="
	M617.758,432.9L483.81,387.183c0,0-47.749-9.905-82.994,29.981l-1.603,1.813c-35.244,39.885-19.537,86.053-19.537,86.053
	l61.857,127.303"/>
<path fill="none" stroke="#F16624" stroke-width="5" stroke-linecap="round" stroke-linejoin="round" stroke-miterlimit="10" d="
	M379.676,505.03c0,0-23.654-49.96-2.21-91.281c0,0,4.825-9.723,15.553-17.601c38.364-26.365,90.857-9.042,90.857-9.042"/>
</svg>
