<?xml version="1.0" encoding="utf-8"?>
<!-- Generator: Adobe Illustrator 16.0.0, SVG Export Plug-In . SVG Version: 6.00 Build 0)  -->
<!DOCTYPE svg PUBLIC "-//W3C//DTD SVG 1.1//EN" "http://www.w3.org/Graphics/SVG/1.1/DTD/svg11.dtd">
<svg version="1.1" id="Layer_1" xmlns="http://www.w3.org/2000/svg" xmlns:xlink="http://www.w3.org/1999/xlink" x="0px" y="0px"
	 width="800px" height="800px" viewBox="0 0 800 800" enable-background="new 0 0 800 800" xml:space="preserve">
<circle fill="#0A3656" cx="401.285" cy="365.701" r="191.701"/>
<path fill="#045F9B" stroke="#045F9B" stroke-width="3.6748" stroke-linecap="round" stroke-linejoin="round" stroke-miterlimit="10" d="
	M399.756,496.264c0,0-61.274-61.275-196.079-24.51v152.705h392.158V471.754C461.03,434.988,399.756,496.264,399.756,496.264"/>
<path fill="#FFFFFF" d="M400.873,446.844c0,0-55.122-55.122-176.39-22.049v164.909c121.268-33.073,176.39,22.048,176.39,22.048
	s55.122-55.121,176.39-22.048V424.795C455.995,391.722,400.873,446.844,400.873,446.844z"/>
<circle fill="#FFFFFF" stroke="#F16624" stroke-width="6.6246" stroke-linecap="round" stroke-linejoin="round" stroke-miterlimit="10" cx="343.014" cy="329.189" r="47.696"/>
<g>
	<path fill="none" d="M389.895,320.423c10.921-7.992,16.713-15.723,14.701-21.184c-2.269-6.156-13.957-8.072-30.281-6.044
		c5.871,5.096,10.58,11.696,13.455,19.505C388.712,315.253,389.406,317.835,389.895,320.423z"/>
	<path fill="none" d="M295.843,322.105c-13.737,9.047-21.391,18.089-19.122,24.246c2.012,5.461,11.436,7.586,24.932,6.582
		c-1.308-2.286-2.453-4.702-3.394-7.254C295.381,337.869,294.68,329.791,295.843,322.105z"/>
	<path opacity="0.25" fill="#F16523" d="M372.473,291.674c0.624,0.491,1.238,0.997,1.842,1.521
		c16.324-2.028,28.013-0.112,30.281,6.044c2.012,5.461-3.78,13.192-14.701,21.184c-10.267,7.51-25.062,15.251-42.169,21.554
		c-17.106,6.302-33.389,10.012-46.073,10.956c-13.496,1.004-22.92-1.121-24.932-6.582c-2.269-6.157,5.385-15.198,19.122-24.246
		c0.117-0.789,0.259-1.573,0.416-2.353c-32.559,16.46-53.026,34.256-49.149,44.77c3.87,10.514,30.991,10.778,66.447,2.18
		c12.18-2.954,25.338-6.95,38.879-11.939c13.544-4.989,26.15-10.485,37.334-16.139c32.559-16.46,53.024-34.256,49.15-44.77
		C435.047,283.341,407.928,283.077,372.473,291.674z"/>
</g>
<circle fill="#F16523" cx="516.736" cy="320.063" r="27.561"/>
<g>
	
		<line fill="#FFFFFF" stroke="#F16624" stroke-width="11.5008" stroke-linecap="round" stroke-linejoin="round" stroke-miterlimit="10" x1="456.104" y1="218.651" x2="456.104" y2="256.928"/>
	
		<line fill="#FFFFFF" stroke="#F16624" stroke-width="11.5008" stroke-linecap="round" stroke-linejoin="round" stroke-miterlimit="10" x1="436.963" y1="237.79" x2="475.242" y2="237.79"/>
</g>
<g>
	
		<line fill="#FFFFFF" stroke="#F16624" stroke-width="9.5229" stroke-linecap="round" stroke-linejoin="round" stroke-miterlimit="10" x1="257.129" y1="270.799" x2="288.823" y2="270.799"/>
	
		<line fill="#FFFFFF" stroke="#F16624" stroke-width="9.5229" stroke-linecap="round" stroke-linejoin="round" stroke-miterlimit="10" x1="257.129" y1="286.646" x2="288.823" y2="286.646"/>
</g>
<g>
	
		<line fill="#FFFFFF" stroke="#F16624" stroke-width="3.8442" stroke-linecap="round" stroke-linejoin="round" stroke-miterlimit="10" x1="377.705" y1="399.366" x2="396.897" y2="399.366"/>
	<circle fill="#F16523" cx="387.302" cy="391.192" r="3.199"/>
	<circle fill="#F16523" cx="387.302" cy="407.541" r="3.199"/>
</g>
<path fill="#FFFFFF" d="M244.671,316.663c0,0,6.941,0,6.941-6.942c0,0,0,6.942,6.941,6.942c0,0-6.941,0-6.941,6.941
	C251.612,323.604,251.612,316.663,244.671,316.663z"/>
<circle fill="#B4DEF6" cx="449.052" cy="330.383" r="3.828"/>
<circle fill="#045F9B" cx="394.34" cy="203.806" r="2.871"/>
<circle fill="#FFFFFF" cx="301.5" cy="238.921" r="3.828"/>
<circle fill="#B4DEF6" cx="524.182" cy="260.97" r="3.828"/>
<circle fill="#045F9B" cx="247.348" cy="391.629" r="3.828"/>
<circle fill="#045F9B" cx="526.632" cy="383.463" r="2.871"/>
<circle fill="#FFFFFF" cx="418.837" cy="380.196" r="6.125"/>
<path fill="none" stroke="#0A3656" stroke-width="2.4499" stroke-linecap="round" stroke-linejoin="round" stroke-miterlimit="10" d="
	M383.831,517.89c0,0-17.761-18.374-70.433-24.009v-61.246c52.672,5.635,70.433,24.008,70.433,24.008V517.89z"/>
<path fill="none" stroke="#0A3656" stroke-width="3" stroke-linecap="round" stroke-linejoin="round" stroke-miterlimit="10" d="
	M383.219,533.814c0,0-45.321-42.873-142.091-21.438"/>
<path fill="none" stroke="#0A3656" stroke-width="3" stroke-linecap="round" stroke-linejoin="round" stroke-miterlimit="10" d="
	M383.219,547.288c0,0-45.321-42.872-142.091-21.437"/>
<path fill="none" stroke="#0A3656" stroke-width="3" stroke-linecap="round" stroke-linejoin="round" stroke-miterlimit="10" d="
	M383.219,561.375c0,0-45.321-42.873-142.091-21.437"/>
<path fill="none" stroke="#0A3656" stroke-width="3" stroke-linecap="round" stroke-linejoin="round" stroke-miterlimit="10" d="
	M383.219,574.849c0,0-45.321-42.872-142.091-21.437"/>
<path fill="none" stroke="#0A3656" stroke-width="3" stroke-linecap="round" stroke-linejoin="round" stroke-miterlimit="10" d="
	M302.088,452.068c-17.402-0.791-37.696,0.646-60.96,5.8"/>
<path fill="none" stroke="#0A3656" stroke-width="3" stroke-linecap="round" stroke-linejoin="round" stroke-miterlimit="10" d="
	M301.778,439.193c-17.333-0.76-37.522,0.69-60.65,5.813"/>
<path fill="none" stroke="#0A3656" stroke-width="3" stroke-linecap="round" stroke-linejoin="round" stroke-miterlimit="10" d="
	M301.78,465.529c-17.335-0.76-37.524,0.689-60.652,5.813"/>
<path fill="none" stroke="#0A3656" stroke-width="3" stroke-linecap="round" stroke-linejoin="round" stroke-miterlimit="10" d="
	M301.762,479.615c-17.331-0.758-37.514,0.692-60.634,5.813"/>
<path fill="none" stroke="#0A3656" stroke-width="3" stroke-linecap="round" stroke-linejoin="round" stroke-miterlimit="10" d="
	M301.762,493.09c-17.331-0.759-37.514,0.691-60.634,5.813"/>
<path fill="none" stroke="#F16624" stroke-width="12.2493" stroke-linecap="round" stroke-linejoin="round" stroke-miterlimit="10" d="
	M400.98,611.752c0,0-55.121-55.121-176.389-22.048V424.795c121.268-33.073,176.389,22.049,176.389,22.049V611.752z"/>
<path fill="none" stroke="#F16624" stroke-width="12.2493" stroke-linecap="round" stroke-linejoin="round" stroke-miterlimit="10" d="
	M400.98,611.752c0,0,55.123-55.121,176.391-22.048V424.795c-121.268-33.073-176.391,22.049-176.391,22.049V611.752z"/>
<path fill="#B4DEF6" d="M407.405,462.676c0,0,40.832-51.448,159.241-27.766v138.008c0,0-99.22-26.131-158.832,22.049
	L407.405,462.676z"/>
<path fill="none" stroke="#0A3656" stroke-width="3" stroke-linecap="round" stroke-linejoin="round" stroke-miterlimit="10" d="
	M418.333,533.814c0,0,31.941-30.215,99.446-27.23"/>
<path fill="none" stroke="#0A3656" stroke-width="3" stroke-linecap="round" stroke-linejoin="round" stroke-miterlimit="10" d="
	M418.333,547.288c0,0,31.867-30.144,99.212-27.241"/>
<path fill="none" stroke="#0A3656" stroke-width="3" stroke-linecap="round" stroke-linejoin="round" stroke-miterlimit="10" d="
	M418.333,561.375c0,0,31.939-30.211,99.438-27.232"/>
<path fill="none" stroke="#0A3656" stroke-width="3" stroke-linecap="round" stroke-linejoin="round" stroke-miterlimit="10" d="
	M418.333,574.849c0,0,31.932-30.204,99.413-27.233"/>
<path fill="none" stroke="#0A3656" stroke-width="3" stroke-linecap="round" stroke-linejoin="round" stroke-miterlimit="10" d="
	M418.333,478.283c0,0,45.321-42.872,142.091-21.436"/>
<path fill="none" stroke="#0A3656" stroke-width="3" stroke-linecap="round" stroke-linejoin="round" stroke-miterlimit="10" d="
	M418.333,462.768c0,0,45.321-42.872,142.091-21.436"/>
<path fill="none" stroke="#0A3656" stroke-width="3" stroke-linecap="round" stroke-linejoin="round" stroke-miterlimit="10" d="
	M418.333,491.758c0,0,45.321-42.873,142.091-21.437"/>
<path fill="none" stroke="#0A3656" stroke-width="3" stroke-linecap="round" stroke-linejoin="round" stroke-miterlimit="10" d="
	M418.333,505.844c0,0,45.321-42.871,142.091-21.436"/>
<path fill="none" stroke="#0A3656" stroke-width="3" stroke-linecap="round" stroke-linejoin="round" stroke-miterlimit="10" d="
	M560.424,553.412c-10.771-2.387-20.909-3.977-30.416-4.916v-55.529c9.507,0.939,19.645,2.529,30.416,4.915V553.412z"/>
<path fill="none" stroke="#0A3656" stroke-width="3" stroke-linecap="round" stroke-linejoin="round" stroke-miterlimit="10" d="
	M418.333,519.318c0,0,31.87-30.148,99.224-27.24"/>
<circle fill="#FFFFFF" stroke="#F16624" stroke-width="6.6246" stroke-linecap="round" stroke-linejoin="round" stroke-miterlimit="10" cx="445.078" cy="424.795" r="22.049"/>
</svg>
