<?xml version="1.0" encoding="utf-8"?>
<!-- Generator: Adobe Illustrator 16.0.0, SVG Export Plug-In . SVG Version: 6.00 Build 0)  -->
<!DOCTYPE svg PUBLIC "-//W3C//DTD SVG 1.1//EN" "http://www.w3.org/Graphics/SVG/1.1/DTD/svg11.dtd">
<svg version="1.1" id="Layer_1" xmlns="http://www.w3.org/2000/svg" xmlns:xlink="http://www.w3.org/1999/xlink" x="0px" y="0px"
	 width="800px" height="800px" viewBox="0 0 800 800" enable-background="new 0 0 800 800" xml:space="preserve">
<g>
	<g>
		<path fill="#FBD5C9" d="M302.089,335.153c103.242,0,207.901,9.79,319.96,29.929c10.049,1.806,20.736,3.544,31.783,5.166
			c-2.053-23.268-14.646-46.508-37.439-69.089c-20.395-20.207-41.618-40.268-62.141-59.668c-5.29-5.001-10.582-10.003-15.865-15.013
			c-41.594,0.9-81.694,7.479-112,13.115c-20.298,3.774-41.164,7.355-62.021,10.641c-2.427,3.262-4.588,6.319-6.601,9.345
			c-21.401,32.139-51.206,49.109-91.115,51.878c-27.591,1.916-50.672,4.042-73.643,8.181c-19.096,3.438-32.784,11.324-39.688,22.845
			c27.619-3.096,53.26-4.563,70.236-5.399C249.528,335.801,275.951,335.153,302.089,335.153z"/>
	</g>
	<g>
		<path fill="#FBD5C9" d="M452.268,183.085c-18.227,0-35.016,7.967-49.898,23.679c-11.607,12.254-24.721,26.097-35.863,40.631
			c20.1-3.189,40.086-6.629,59.43-10.226c29.763-5.535,69.053-12,109.909-13.101c-4.646-4.411-9.287-8.825-13.914-13.253
			c-14.489-13.868-33.085-28.06-60.519-27.071C458.277,183.305,455.238,183.085,452.268,183.085z"/>
	</g>
	<g>
		<path fill="#FBD5C9" d="M186.131,434.211c9.551,15.621,17.469,30.166,24.191,44.443c21.963,46.646,56.667,68.375,109.217,68.379
			h0.007c1.347,0,2.69-0.016,4.052-0.043c39.308-0.809,74.53-6.717,104.686-17.563c50.395-18.131,100.137-40.754,148.241-62.629
			l1.918-0.873c-37.637-7.689-74.839-16.633-109.475-25.166c-55.96-13.785-110.258-20.775-161.384-20.775
			C265.313,419.984,224.451,424.771,186.131,434.211z"/>
	</g>
	<g>
		<path fill="#FBD5C9" d="M307.58,417.518c51.325,0,105.822,7.014,161.979,20.848c35.689,8.791,74.045,18.004,112.71,25.818
			c7.804-3.547,15.606-7.09,23.416-10.611c10.306-4.645,20.872-13.412,28.991-24.055c13.896-18.221,20.399-37.312,19.329-56.752
			c-11.26-1.647-22.155-3.415-32.393-5.255c-111.911-20.111-216.435-29.889-319.542-29.889c-26.092,0-52.467,0.647-78.396,1.924
			c-17.337,0.854-43.616,2.362-71.817,5.584c-6.957,14.316-3.424,32.785,9.977,52.052c8.678,12.479,16.186,23.875,22.944,34.823
			C223.517,422.389,264.828,417.518,307.58,417.518z"/>
	</g>
</g>
<path fill="#FFFFFF" d="M286.697,612.238c-3.066,0-5.551-2.486-5.551-5.553V484.552c0-3.066,2.484-5.552,5.551-5.552h166.547
	c3.065,0,5.551,2.485,5.551,5.552v122.134c0,3.066-2.485,5.553-5.551,5.553H286.697z"/>
<polygon fill="#FFFFFF" points="621.809,418.609 621.809,326.768 493.23,326.768 493.23,418.609 548.336,418.609 548.336,431.875 
	525.885,431.875 525.885,436.979 548.336,436.979 566.705,436.979 590.176,436.979 590.176,431.875 566.705,431.875 
	566.705,418.609 "/>
<path fill="#FFFFFF" d="M352.867,268.747v-58.291c0-1.533-1.242-2.776-2.775-2.776h-83.273c-1.533,0-2.775,1.243-2.775,2.776v58.291
	h-22.207c5.551,5.551,16.655,5.551,16.655,5.551h8.327h41.637h41.637h8.326c0,0,11.104,0,16.655-5.551H352.867z"/>
<path fill="#FFFFFF" d="M250.359,334.842h-25.232h-20.188c-2.788,0-5.048,2.26-5.048,5.047v70.656c0,2.789,2.26,5.049,5.048,5.049
	h20.188h25.232c2.787,0,5.048-2.26,5.048-5.049v-70.656C255.407,337.102,253.146,334.842,250.359,334.842z"/>
<path fill="#FFFFFF" d="M449.505,223.345c0-2.951-2.394-5.345-5.345-5.345h-26.729c-2.954,0-5.347,2.394-5.347,5.345v58.806
	c0,2.953,2.393,5.346,5.347,5.346h26.729c2.951,0,5.345-2.393,5.345-5.346V223.345z"/>
<polygon fill="#045F9B" points="617.491,422.311 617.491,330.469 488.913,330.469 488.913,422.311 544.018,422.311 544.018,435.574 
	521.566,435.574 521.566,440.678 544.018,440.678 562.385,440.678 585.857,440.678 585.857,435.574 562.385,435.574 
	562.385,422.311 "/>
<path fill="#045F9B" d="M348.549,272.448v-58.292c0-1.532-1.243-2.775-2.775-2.775H262.5c-1.532,0-2.775,1.243-2.775,2.775v58.292
	h-22.207C243.07,278,254.173,278,254.173,278h8.327h41.637h41.637h8.327c0,0,11.103,0,16.654-5.552H348.549z"/>
<path fill="#045F9B" d="M282.379,615.939c-3.066,0-5.552-2.486-5.552-5.551V488.253c0-3.065,2.485-5.552,5.552-5.552h166.547
	c3.065,0,5.552,2.486,5.552,5.552v122.136c0,3.064-2.486,5.551-5.552,5.551H282.379z"/>
<path fill="#045F9B" d="M246.043,338.542h-25.235h-20.188c-2.785,0-5.046,2.261-5.046,5.048v70.658c0,2.785,2.261,5.045,5.046,5.045
	h20.188h25.235c2.785,0,5.047-2.26,5.047-5.045V343.59C251.09,340.803,248.828,338.542,246.043,338.542z"/>
<path fill="#045F9B" d="M445.188,227.046c0-2.952-2.395-5.346-5.346-5.346h-26.729c-2.955,0-5.348,2.394-5.348,5.346v58.806
	c0,2.953,2.393,5.346,5.348,5.346h26.729c2.951,0,5.346-2.393,5.346-5.346V227.046z"/>
<path fill="none" stroke="#0A3656" stroke-width="3.701" stroke-linecap="round" stroke-linejoin="round" stroke-miterlimit="10" d="
	M287.314,612.238c-3.066,0-5.553-2.486-5.553-5.553V484.552c0-3.066,2.486-5.552,5.553-5.552H453.86
	c3.066,0,5.552,2.485,5.552,5.552v122.134c0,3.066-2.485,5.553-5.552,5.553H287.314z"/>
<circle fill="#0A3656" stroke="#B4DEF6" stroke-width="1.2337" stroke-miterlimit="10" cx="370.587" cy="600.518" r="5.552"/>
<g>
	<g>
		<g>
			
				<circle fill="none" stroke="#0A3656" stroke-width="0.6168" stroke-linecap="round" stroke-linejoin="round" stroke-miterlimit="10" cx="438.05" cy="222.452" r="0.985"/>
		</g>
		
			<rect x="428.556" y="221.819" fill="none" stroke="#0A3656" stroke-width="0.6168" stroke-linecap="round" stroke-linejoin="round" stroke-miterlimit="10" width="7.595" height="1.265"/>
		
			<rect x="427.119" y="282.706" fill="none" stroke="#0A3656" stroke-width="0.6168" stroke-linecap="round" stroke-linejoin="round" stroke-miterlimit="10" width="7.595" height="1.265"/>
		
			<rect x="426.022" y="221.819" fill="none" stroke="#0A3656" stroke-width="0.6168" stroke-linecap="round" stroke-linejoin="round" stroke-miterlimit="10" width="1.267" height="1.265"/>
		
			<rect x="423.49" y="221.819" fill="none" stroke="#0A3656" stroke-width="0.6168" stroke-linecap="round" stroke-linejoin="round" stroke-miterlimit="10" width="1.268" height="1.265"/>
	</g>
</g>
<rect x="289.781" y="493.805" fill="#FFFFFF" width="155.443" height="99.928"/>
<rect x="202.471" y="347.515" fill="#FFFFFF" width="45.422" height="60.563"/>
<rect x="413.773" y="230.018" fill="#FFFFFF" width="29.106" height="52.864"/>
<rect x="267.127" y="216.933" fill="#FFFFFF" width="77.721" height="49.964"/>
<rect x="497.906" y="337.612" fill="#FFFFFF" width="114.292" height="68.373"/>
<circle fill="#F16523" cx="370.278" cy="439.574" r="2.776"/>
<circle fill="#F16523" cx="370.278" cy="450.001" r="2.776"/>
<circle fill="#F16523" cx="370.278" cy="460.336" r="2.776"/>
<circle fill="#F16523" cx="370.278" cy="470.336" r="2.776"/>
<circle fill="#F16523" cx="364.278" cy="429.471" r="2.776"/>
<circle fill="#F16523" cx="364.278" cy="418.369" r="2.776"/>
<circle fill="#F16523" cx="364.278" cy="407.266" r="2.776"/>
<circle fill="#F16523" cx="364.278" cy="396.162" r="2.776"/>
<circle fill="#F16523" cx="364.278" cy="385.059" r="2.776"/>
<circle fill="#F16523" cx="308.763" cy="362.853" r="2.776"/>
<circle fill="#F16523" cx="308.763" cy="351.75" r="2.776"/>
<circle fill="#F16523" cx="308.763" cy="340.647" r="2.776"/>
<circle fill="#F16523" cx="308.763" cy="329.543" r="2.776"/>
<circle fill="#F16523" cx="308.763" cy="318.441" r="2.776"/>
<circle fill="#F16523" cx="308.763" cy="307.337" r="2.776"/>
<circle fill="#F16523" cx="308.763" cy="296.234" r="2.776"/>
<circle fill="#F16523" cx="308.763" cy="284.667" r="2.776"/>
<circle fill="#F16523" cx="430.897" cy="362.853" r="2.776"/>
<circle fill="#F16523" cx="430.897" cy="351.75" r="2.776"/>
<circle fill="#F16523" cx="430.897" cy="340.647" r="2.776"/>
<circle fill="#F16523" cx="430.897" cy="329.543" r="2.776"/>
<circle fill="#F16523" cx="430.897" cy="318.775" r="2.776"/>
<circle fill="#F16523" cx="430.897" cy="308" r="2.776"/>
<circle fill="#F16523" cx="430.897" cy="297.333" r="2.776"/>
<circle fill="#F16523" cx="364.278" cy="373.956" r="2.776"/>
<circle fill="#F16523" cx="442" cy="373.956" r="2.776"/>
<circle fill="#F16523" cx="430.897" cy="373.956" r="2.776"/>
<circle fill="#F16523" cx="419.795" cy="373.956" r="2.776"/>
<circle fill="#F16523" cx="475.31" cy="373.956" r="2.776"/>
<circle fill="#F16523" cx="486.413" cy="373.956" r="2.776"/>
<circle fill="#F16523" cx="464.207" cy="373.956" r="2.776"/>
<circle fill="#F16523" cx="453.104" cy="373.956" r="2.776"/>
<circle fill="#F16523" cx="397.588" cy="373.956" r="2.776"/>
<circle fill="#F16523" cx="386.485" cy="373.956" r="2.776"/>
<circle fill="#F16523" cx="375.381" cy="373.956" r="2.776"/>
<circle fill="#F16523" cx="353.176" cy="373.956" r="2.776"/>
<circle fill="#F16523" cx="342.072" cy="373.956" r="2.776"/>
<circle fill="#F16523" cx="330.969" cy="373.956" r="2.776"/>
<circle fill="#F16523" cx="319.866" cy="373.956" r="2.776"/>
<circle fill="#F16523" cx="308.763" cy="373.956" r="2.776"/>
<circle fill="#F16523" cx="297.66" cy="373.956" r="2.776"/>
<circle fill="#F16523" cx="286.557" cy="373.956" r="2.776"/>
<circle fill="#F16523" cx="275.453" cy="373.956" r="2.776"/>
<circle fill="#F16523" cx="264.352" cy="373.956" r="2.776"/>
<polygon fill="none" stroke="#0A3656" stroke-width="3.701" stroke-linecap="round" stroke-linejoin="round" stroke-miterlimit="10" points="
	622.426,418.609 622.426,326.768 493.848,326.768 493.848,418.609 548.951,418.609 548.951,431.875 526.502,431.875 
	526.502,436.979 548.951,436.979 567.32,436.979 590.793,436.979 590.793,431.875 567.32,431.875 567.32,418.609 "/>
<path fill="none" stroke="#0A3656" stroke-width="3.701" stroke-linecap="round" stroke-linejoin="round" stroke-miterlimit="10" d="
	M353.484,268.747v-58.291c0-1.533-1.243-2.776-2.775-2.776h-83.273c-1.533,0-2.775,1.243-2.775,2.776v58.291h-22.207
	c5.552,5.551,16.654,5.551,16.654,5.551h8.328h41.636h41.638h8.326c0,0,11.104,0,16.655-5.551H353.484z"/>
<rect x="292.865" y="490.104" fill="none" stroke="#0A3656" stroke-width="1.2337" stroke-miterlimit="10" width="155.443" height="99.928"/>
<path fill="none" stroke="#0A3656" stroke-width="1.2337" stroke-miterlimit="10" d="M380.045,484.758
	c0,1.137-0.92,2.057-2.055,2.057h-14.806c-1.134,0-2.055-0.92-2.055-2.057l0,0c0-1.136,0.921-2.057,2.055-2.057h14.806
	C379.125,482.701,380.045,483.622,380.045,484.758L380.045,484.758z"/>
<path fill="none" stroke="#0A3656" stroke-width="3.701" stroke-linecap="round" stroke-linejoin="round" stroke-miterlimit="10" d="
	M250.977,334.842h-25.233h-20.188c-2.787,0-5.047,2.26-5.047,5.047v70.656c0,2.789,2.26,5.049,5.047,5.049h20.188h25.233
	c2.787,0,5.047-2.26,5.047-5.049v-70.656C256.023,337.102,253.764,334.842,250.977,334.842z"/>
<rect x="205.555" y="343.814" fill="none" stroke="#0A3656" stroke-width="1.2337" stroke-miterlimit="10" width="45.422" height="60.563"/>
<circle fill="none" stroke="#0A3656" stroke-width="1.2337" stroke-miterlimit="10" cx="228.266" cy="409.367" r="2.523"/>
<path fill="none" stroke="#0A3656" stroke-width="3.701" stroke-linecap="round" stroke-linejoin="round" stroke-miterlimit="10" d="
	M450.122,223.345c0-2.951-2.394-5.345-5.347-5.345h-26.729c-2.954,0-5.346,2.394-5.346,5.345v58.806
	c0,2.953,2.392,5.346,5.346,5.346h26.729c2.953,0,5.347-2.393,5.347-5.346V223.345z"/>
<rect x="416.858" y="226.315" fill="none" stroke="#0A3656" stroke-width="1.2337" stroke-miterlimit="10" width="29.105" height="52.866"/>
<rect x="270.211" y="213.231" fill="none" stroke="#0A3656" stroke-width="1.2337" stroke-miterlimit="10" width="77.721" height="49.965"/>
<rect x="297.968" y="265.663" fill="none" stroke="#0A3656" stroke-width="1.2337" stroke-miterlimit="10" width="22.207" height="1.851"/>
<rect x="500.99" y="333.911" fill="none" stroke="#0A3656" stroke-width="1.2337" stroke-miterlimit="10" width="114.293" height="68.373"/>
<g>
	
		<line fill="none" stroke="#0A3656" stroke-width="1.2337" stroke-miterlimit="10" x1="209.967" y1="350.208" x2="230.115" y2="350.208"/>
	
		<line fill="none" stroke="#0A3656" stroke-width="1.2337" stroke-miterlimit="10" x1="209.967" y1="353.674" x2="230.115" y2="353.674"/>
	
		<line fill="none" stroke="#0A3656" stroke-width="1.2337" stroke-miterlimit="10" x1="209.967" y1="357.14" x2="230.115" y2="357.14"/>
	
		<line fill="none" stroke="#0A3656" stroke-width="1.2337" stroke-miterlimit="10" x1="209.967" y1="360.606" x2="230.115" y2="360.606"/>
	
		<line fill="none" stroke="#0A3656" stroke-width="1.2337" stroke-miterlimit="10" x1="209.967" y1="364.072" x2="230.115" y2="364.072"/>
	
		<line fill="none" stroke="#0A3656" stroke-width="1.2337" stroke-miterlimit="10" x1="209.967" y1="367.539" x2="230.115" y2="367.539"/>
	
		<line fill="none" stroke="#0A3656" stroke-width="1.2337" stroke-miterlimit="10" x1="209.967" y1="371.004" x2="230.115" y2="371.004"/>
	
		<line fill="none" stroke="#0A3656" stroke-width="1.2337" stroke-miterlimit="10" x1="209.967" y1="374.471" x2="230.115" y2="374.471"/>
</g>
<g>
	
		<line fill="none" stroke="#0A3656" stroke-width="1.283" stroke-miterlimit="10" x1="420.104" y1="250.897" x2="441.897" y2="250.897"/>
	
		<line fill="none" stroke="#0A3656" stroke-width="1.283" stroke-miterlimit="10" x1="420.104" y1="254.363" x2="441.897" y2="254.363"/>
	
		<line fill="none" stroke="#0A3656" stroke-width="1.283" stroke-miterlimit="10" x1="420.104" y1="257.83" x2="441.897" y2="257.83"/>
	
		<line fill="none" stroke="#0A3656" stroke-width="1.283" stroke-miterlimit="10" x1="420.104" y1="261.297" x2="441.897" y2="261.297"/>
	
		<line fill="none" stroke="#0A3656" stroke-width="1.283" stroke-miterlimit="10" x1="420.104" y1="264.763" x2="441.897" y2="264.763"/>
	
		<line fill="none" stroke="#0A3656" stroke-width="1.283" stroke-miterlimit="10" x1="420.104" y1="268.229" x2="441.897" y2="268.229"/>
	
		<line fill="none" stroke="#0A3656" stroke-width="1.283" stroke-miterlimit="10" x1="420.104" y1="271.694" x2="441.897" y2="271.694"/>
	
		<line fill="none" stroke="#0A3656" stroke-width="1.283" stroke-miterlimit="10" x1="420.104" y1="275.16" x2="441.897" y2="275.16"/>
</g>
<g>
	
		<line fill="none" stroke="#0A3656" stroke-width="1.7982" stroke-miterlimit="10" x1="579.895" y1="340.338" x2="609.268" y2="340.338"/>
	
		<line fill="none" stroke="#0A3656" stroke-width="1.7982" stroke-miterlimit="10" x1="579.895" y1="345.391" x2="609.268" y2="345.391"/>
	
		<line fill="none" stroke="#0A3656" stroke-width="1.7982" stroke-miterlimit="10" x1="579.895" y1="350.443" x2="609.268" y2="350.443"/>
	
		<line fill="none" stroke="#0A3656" stroke-width="1.7982" stroke-miterlimit="10" x1="579.895" y1="355.496" x2="609.268" y2="355.496"/>
	
		<line fill="none" stroke="#0A3656" stroke-width="1.7982" stroke-miterlimit="10" x1="579.895" y1="360.547" x2="609.268" y2="360.547"/>
	
		<line fill="none" stroke="#0A3656" stroke-width="1.7982" stroke-miterlimit="10" x1="579.895" y1="365.6" x2="609.268" y2="365.6"/>
	
		<line fill="none" stroke="#0A3656" stroke-width="1.7982" stroke-miterlimit="10" x1="579.895" y1="370.653" x2="609.268" y2="370.653"/>
	
		<line fill="none" stroke="#0A3656" stroke-width="1.7982" stroke-miterlimit="10" x1="579.895" y1="375.705" x2="609.268" y2="375.705"/>
</g>
<circle fill="none" stroke="#0A3656" stroke-width="1.2337" stroke-miterlimit="10" cx="428.533" cy="238.354" r="7.814"/>
<line fill="none" stroke="#0A3656" stroke-width="1.2337" stroke-miterlimit="10" x1="427.094" y1="239.382" x2="441.075" y2="239.382"/>
<rect x="232.996" y="381.46" fill="none" stroke="#0A3656" stroke-width="1.2337" stroke-miterlimit="10" width="12.747" height="18.095"/>
<circle fill-rule="evenodd" clip-rule="evenodd" fill="none" stroke="#F16624" stroke-width="0.7138" stroke-linecap="round" stroke-linejoin="round" stroke-miterlimit="10" cx="528.871" cy="228.898" r="16.859"/>
<circle fill-rule="evenodd" clip-rule="evenodd" fill="none" stroke="#F16624" stroke-width="0.7138" stroke-linecap="round" stroke-linejoin="round" stroke-miterlimit="10" cx="178.919" cy="324.712" r="11.515"/>
<circle fill-rule="evenodd" clip-rule="evenodd" fill="none" stroke="#F16624" stroke-width="0.4079" stroke-linecap="round" stroke-linejoin="round" stroke-miterlimit="10" cx="455.263" cy="411.893" r="6.579"/>
<circle fill-rule="evenodd" clip-rule="evenodd" fill="#FFFFFF" cx="538.331" cy="286.879" r="6.579"/>
<circle fill-rule="evenodd" clip-rule="evenodd" fill="#F16523" cx="470" cy="207.999" r="4.934"/>
<circle fill-rule="evenodd" clip-rule="evenodd" fill="#FFFFFF" cx="309.688" cy="402.023" r="4.935"/>
<circle fill-rule="evenodd" clip-rule="evenodd" fill="#FFFFFF" cx="534.217" cy="473.576" r="3.084"/>
<circle fill-rule="evenodd" clip-rule="evenodd" fill="#F16523" cx="206.883" cy="481.801" r="11.514"/>
<path fill-rule="evenodd" clip-rule="evenodd" fill="none" stroke="#0A3656" stroke-width="1.2337" stroke-miterlimit="10" d="
	M281.314,240.63c0,0,0,12.492,8.327,12.492c0,0,8.326,0,8.326-12.492c0,0,0-12.49,8.328-12.49c0,0,8.327,0,8.327,12.49"/>
<line fill-rule="evenodd" clip-rule="evenodd" fill="none" stroke="#0A3656" stroke-width="1.2337" stroke-miterlimit="10" x1="290.772" y1="228.858" x2="298.174" y2="228.858"/>
<line fill-rule="evenodd" clip-rule="evenodd" fill="none" stroke="#0A3656" stroke-width="1.2337" stroke-miterlimit="10" x1="298.997" y1="252.298" x2="306.398" y2="252.298"/>
<line fill-rule="evenodd" clip-rule="evenodd" fill="none" stroke="#0A3656" stroke-width="1.2337" stroke-miterlimit="10" x1="276.791" y1="223.513" x2="284.193" y2="223.513"/>
<line fill-rule="evenodd" clip-rule="evenodd" fill="none" stroke="#0A3656" stroke-width="1.2337" stroke-miterlimit="10" x1="276.379" y1="240.784" x2="320.791" y2="240.784"/>
<g>
	
		<line fill="none" stroke="#0A3656" stroke-width="1.1006" stroke-miterlimit="10" x1="326.344" y1="233.999" x2="342.381" y2="233.999"/>
	
		<line fill="none" stroke="#0A3656" stroke-width="1.1006" stroke-miterlimit="10" x1="326.344" y1="237.465" x2="342.381" y2="237.465"/>
	
		<line fill="none" stroke="#0A3656" stroke-width="1.1006" stroke-miterlimit="10" x1="326.344" y1="240.932" x2="342.381" y2="240.932"/>
	
		<line fill="none" stroke="#0A3656" stroke-width="1.1006" stroke-miterlimit="10" x1="326.344" y1="244.397" x2="342.381" y2="244.397"/>
	
		<line fill="none" stroke="#0A3656" stroke-width="1.1006" stroke-miterlimit="10" x1="326.344" y1="247.864" x2="342.381" y2="247.864"/>
	
		<line fill="none" stroke="#0A3656" stroke-width="1.1006" stroke-miterlimit="10" x1="326.344" y1="251.33" x2="342.381" y2="251.33"/>
	
		<line fill="none" stroke="#0A3656" stroke-width="1.1006" stroke-miterlimit="10" x1="326.344" y1="254.796" x2="342.381" y2="254.796"/>
	
		<line fill="none" stroke="#0A3656" stroke-width="1.1006" stroke-miterlimit="10" x1="326.344" y1="258.262" x2="342.381" y2="258.262"/>
</g>
<g>
	
		<line fill="none" stroke="#0A3656" stroke-width="1.1006" stroke-miterlimit="10" x1="326.344" y1="219.695" x2="342.381" y2="219.695"/>
	
		<line fill="none" stroke="#0A3656" stroke-width="1.1006" stroke-miterlimit="10" x1="326.344" y1="223.161" x2="342.381" y2="223.161"/>
	
		<line fill="none" stroke="#0A3656" stroke-width="1.1006" stroke-miterlimit="10" x1="326.344" y1="226.627" x2="342.381" y2="226.627"/>
	
		<line fill="none" stroke="#0A3656" stroke-width="1.1006" stroke-miterlimit="10" x1="326.344" y1="230.094" x2="342.381" y2="230.094"/>
</g>
<rect x="509.956" y="343.218" fill-rule="evenodd" clip-rule="evenodd" fill="none" stroke="#0A3656" stroke-width="1.2337" stroke-miterlimit="10" width="61.272" height="49.347"/>
<g>
	<path fill-rule="evenodd" clip-rule="evenodd" fill="#F37725" d="M344.097,547.379c0.884,0.803,1.742,1.662,2.691,2.432
		c2.872,2.34,6.134,3.975,9.624,5.188c2.355,0.82,4.764,1.426,7.232,1.783c1.63,0.234,3.273,0.391,4.914,0.484
		c1.459,0.084,2.932,0.109,4.397,0.051c5.128-0.213,10.107-1.184,14.861-3.182c3.353-1.41,6.415-3.264,9.036-5.814
		c0.337-0.326,0.708-0.615,0.93-0.811c-1.208,3.146-3.045,6.145-5.434,8.795c-2.395,2.656-5.191,4.789-8.381,6.4
		c-3.186,1.617-6.561,2.623-10.119,2.959c-7.133,0.658-13.664-1.043-19.524-5.162C349.578,557.162,346.199,552.73,344.097,547.379z"
		/>
	<path fill-rule="evenodd" clip-rule="evenodd" fill="#F37725" d="M344.097,527.411c3.634-9.993,13.468-17.92,25.346-18.485
		c14.698-0.696,24.948,8.973,28.355,18.339c-0.418-0.396-0.901-0.86-1.4-1.323c-2.212-2.049-4.735-3.621-7.458-4.886
		c-2.832-1.305-5.789-2.241-8.85-2.826c-1.495-0.286-3.025-0.469-4.544-0.665c-2.117-0.266-4.248-0.266-6.371-0.194
		c-1.399,0.048-2.8,0.203-4.188,0.351c-2.438,0.268-4.818,0.783-7.154,1.498c-4.041,1.23-7.815,3.005-11.1,5.697
		c-0.853,0.69-1.607,1.502-2.412,2.261C344.248,527.248,344.186,527.314,344.097,527.411z"/>
	<path fill-rule="evenodd" clip-rule="evenodd" fill="#777778" d="M387.76,507.166c-0.039-2.266,1.762-4.331,4.33-4.347
		c2.583-0.019,4.32,2.114,4.316,4.323c-0.009,2.287-1.871,4.31-4.298,4.331C389.74,511.489,387.748,509.554,387.76,507.166z"/>
	<path fill-rule="evenodd" clip-rule="evenodd" fill="#9D9E9F" d="M344.32,569.658c-0.048-2.852,2.213-5.449,5.441-5.473
		c3.246-0.018,5.436,2.662,5.426,5.438c-0.007,2.879-2.346,5.426-5.404,5.443C346.811,575.092,344.3,572.66,344.32,569.658z"/>
	<path fill-rule="evenodd" clip-rule="evenodd" fill="#474749" d="M360.412,540.95c0,0.099,0,0.202,0,0.308
		c0,1.474-0.006,2.948,0.002,4.422c0.006,0.264-0.064,0.35-0.34,0.34c-0.429-0.023-0.86-0.008-1.338-0.008c0-4.427,0-8.816,0-13.224
		c0.445,0,0.926,0,1.44,0c0.024,0.51,0.056,1.014,0.088,1.566c0.202-0.246,0.35-0.454,0.528-0.636
		c1.783-1.868,4.879-1.465,6.172,0.803c0.602,1.06,0.752,2.21,0.662,3.402c-0.07,0.866-0.283,1.69-0.736,2.436
		c-1.082,1.82-3.167,2.29-4.697,1.829c-0.617-0.185-1.127-0.542-1.538-1.036c-0.063-0.072-0.124-0.145-0.187-0.217
		C360.451,540.942,360.43,540.945,360.412,540.95z M360.358,537.586c0.022,0.006,0.048,0.006,0.071,0.006
		c0,0.317-0.016,0.64,0.006,0.949c0.066,1.182,0.883,2.158,2.02,2.426c1.166,0.285,2.368-0.186,2.938-1.215
		c0.777-1.408,0.809-2.873,0.147-4.325c-0.398-0.865-1.089-1.422-2.058-1.514c-1.297-0.119-2.582,0.778-2.93,2.082
		C360.414,536.505,360.42,537.055,360.358,537.586z"/>
	<path fill-rule="evenodd" clip-rule="evenodd" fill="#474749" d="M393.779,540.588c0.094,0.386,0.189,0.785,0.296,1.253
		c-0.55,0.143-1.086,0.326-1.636,0.408c-1.03,0.174-2.072,0.243-3.097-0.061c-1.746-0.519-3.019-2.178-3.064-3.998
		c-0.024-1.063,0.079-2.112,0.536-3.1c1.01-2.164,3.162-2.853,5.124-2.325c0.534,0.145,1.009,0.419,1.392,0.824
		c1.116,1.188,1.271,2.644,1.217,4.194c-0.131,0-0.238,0-0.342,0c-1.984,0-3.976,0-5.961,0c-0.324,0-0.342,0.02-0.32,0.352
		c0.129,1.721,1.44,2.928,3.171,2.896c0.456-0.008,0.917-0.031,1.369-0.112C392.901,540.853,393.33,540.701,393.779,540.588z
		 M392.982,536.464c0.195-0.811-0.209-1.79-0.954-2.324c-0.806-0.591-1.815-0.621-2.704-0.05c-0.868,0.544-1.322,1.337-1.371,2.374
		C389.658,536.464,391.321,536.464,392.982,536.464z"/>
	<path fill-rule="evenodd" clip-rule="evenodd" fill="#474749" d="M353.78,532.724c0.581,0,1.116,0,1.687,0c0,3.133,0,6.255,0,9.394
		c-0.456,0-0.941,0-1.443,0c-0.035-0.479-0.072-0.948-0.115-1.498c-0.101,0.137-0.158,0.216-0.219,0.299
		c-0.938,1.278-2.668,1.786-4.144,1.23c-1.075-0.406-1.612-1.252-1.854-2.313c-0.104-0.436-0.162-0.89-0.168-1.333
		c-0.02-1.841-0.008-3.679-0.008-5.518c0-0.059,0.008-0.117,0.014-0.197c0.547,0,1.09,0,1.658,0
		c0.003,0.106,0.012,0.204,0.012,0.309c0,1.577-0.009,3.149,0.01,4.722c0.007,0.477,0.051,0.954,0.145,1.417
		c0.348,1.7,1.803,1.937,2.898,1.503c0.964-0.386,1.504-1.139,1.518-2.189c0.027-1.826,0.011-3.653,0.011-5.485
		C353.78,532.958,353.78,532.854,353.78,532.724z"/>
	<path fill-rule="evenodd" clip-rule="evenodd" fill="#474749" d="M377.692,532.765c-0.292,0.784-0.575,1.522-0.866,2.258
		c-0.955,2.4-1.902,4.806-2.881,7.2c-0.35,0.844-0.796,1.651-1.379,2.375c-0.658,0.816-1.471,1.439-2.502,1.746
		c-0.08,0.023-0.166,0.039-0.279,0.064c-0.138-0.467-0.271-0.918-0.408-1.391c0.115-0.049,0.219-0.09,0.318-0.139
		c1.269-0.554,2.141-1.498,2.694-2.752c0.127-0.291,0.042-0.553-0.065-0.82c-0.605-1.491-1.207-2.987-1.813-4.485
		c-0.511-1.269-1.028-2.534-1.538-3.804c-0.025-0.073-0.053-0.145-0.09-0.237c0.072-0.015,0.129-0.033,0.182-0.033
		c0.491,0,0.979,0.004,1.455-0.008c0.148,0,0.221,0.05,0.275,0.192c0.842,2.345,1.687,4.693,2.531,7.042
		c0.025,0.063,0.053,0.125,0.103,0.255c0.095-0.312,0.167-0.564,0.249-0.813c0.721-2.151,1.444-4.313,2.178-6.463
		c0.029-0.08,0.137-0.179,0.206-0.181C376.59,532.756,377.117,532.765,377.692,532.765z"/>
	<path fill-rule="evenodd" clip-rule="evenodd" fill="#626463" d="M345.125,515.938c-1.725-0.009-3.132-1.428-3.119-3.152
		c0.012-1.714,1.451-3.139,3.158-3.13c1.719,0.009,3.129,1.416,3.129,3.114C348.283,514.536,346.881,515.939,345.125,515.938z"/>
	<path fill-rule="evenodd" clip-rule="evenodd" fill="#474749" d="M380.601,534.012c-0.488,0-0.948,0-1.426,0
		c0-0.422,0-0.824,0-1.254c0.397,0,0.771-0.011,1.149,0.007c0.25,0.016,0.342-0.058,0.335-0.318
		c-0.02-0.574,0.005-1.155-0.013-1.725c-0.007-0.216,0.072-0.296,0.268-0.335c0.449-0.091,0.893-0.204,1.371-0.311
		c0,0.898,0,1.781,0,2.689c0.291,0,0.551,0,0.814,0c0.475,0,0.957,0.007,1.431-0.001c0.182-0.009,0.234,0.055,0.232,0.228
		c-0.009,0.26-0.013,0.526,0,0.793c0.007,0.188-0.067,0.242-0.249,0.236c-0.641-0.01-1.271,0-1.91,0c-0.094,0-0.189,0-0.303,0
		c0,0.113-0.016,0.198-0.016,0.287c0,1.633-0.007,3.267,0.009,4.9c0.007,0.326,0.063,0.672,0.155,0.982
		c0.135,0.459,0.474,0.727,0.959,0.744c0.375,0.021,0.753,0.007,1.176,0.007c0.016,0.315,0.039,0.681,0.051,1.051
		c0.005,0.045-0.066,0.131-0.108,0.142c-1.003,0.264-2.005,0.389-2.923-0.259c-0.582-0.408-0.801-1.034-0.938-1.694
		c-0.051-0.241-0.055-0.49-0.055-0.737c-0.003-1.73,0-3.462,0-5.192C380.611,534.184,380.608,534.116,380.601,534.012z"/>
	<path fill-rule="evenodd" clip-rule="evenodd" fill="#474749" d="M340.266,546.148c-0.067-0.459-0.121-0.85-0.18-1.27
		c0.133-0.015,0.268-0.022,0.392-0.041c1.321-0.232,1.991-0.966,2.044-2.332c0.058-1.467,0.069-2.929,0.079-4.396
		c0.017-1.702,0.009-3.396,0-5.093c0-0.26,0.079-0.332,0.33-0.321c0.446,0.019,0.896,0.003,1.372,0.003c0,0.145,0,0.243,0,0.348
		c0,2.654,0.005,5.306-0.003,7.954c-0.002,0.64-0.011,1.288-0.106,1.922c-0.114,0.761-0.453,1.461-0.964,2.038
		c-0.501,0.574-1.189,0.867-1.925,1.037C340.979,546.076,340.632,546.096,340.266,546.148z"/>
	<path fill-rule="evenodd" clip-rule="evenodd" fill="#474749" d="M397.18,532.766c0.476,0,0.945,0,1.461,0c0,0.609,0,1.212,0,1.813
		c0.027,0,0.059,0.003,0.082,0.011c0.039-0.083,0.08-0.162,0.111-0.25c0.445-1.118,1.509-1.825,2.715-1.815
		c0.176,0.006,0.244,0.053,0.244,0.242c-0.01,0.443-0.003,0.882-0.003,1.311c-0.36,0.032-0.687,0.035-1.003,0.104
		c-1.035,0.22-1.778,1.052-1.894,2.093c-0.051,0.479-0.081,0.953-0.082,1.425c-0.009,1.369-0.009,2.744,0,4.111
		c0.001,0.243-0.069,0.324-0.31,0.315c-0.443-0.021-0.881-0.007-1.322-0.007C397.18,538.989,397.18,535.891,397.18,532.766z"/>
</g>
<g>
	<g>
		<g>
			<g>
				<path fill="#045F9B" d="M406.967,428.941c0,2.297-1.861,4.16-4.159,4.16h-71.274c-2.299,0-4.16-1.863-4.16-4.16V324.393
					c0-2.297,1.861-4.16,4.16-4.16h71.274c2.298,0,4.159,1.862,4.159,4.16V428.941z"/>
			</g>
		</g>
	</g>
	<g>
		
			<path fill="none" stroke="#0A3656" stroke-width="3.701" stroke-linecap="round" stroke-linejoin="round" stroke-miterlimit="10" d="
			M411.463,424.707c0,2.299-1.863,4.162-4.16,4.162h-71.274c-2.298,0-4.161-1.863-4.161-4.162V320.16c0-2.297,1.863-4.16,4.161-4.16
			h71.274c2.297,0,4.16,1.863,4.16,4.16V424.707z"/>
		
			<rect x="344.035" y="327.726" fill="none" stroke="#FFFFFF" stroke-width="3.701" stroke-linecap="round" stroke-linejoin="round" stroke-miterlimit="10" width="53.941" height="40.457"/>
		
			<circle fill="none" stroke="#FFFFFF" stroke-width="3.701" stroke-linecap="round" stroke-linejoin="round" stroke-miterlimit="10" cx="371.006" cy="397.736" r="5.057"/>
		<g>
			<circle fill="#FFFFFF" cx="346.075" cy="415.717" r="2.248"/>
			<circle fill="#FFFFFF" cx="346.075" cy="406.727" r="2.248"/>
			<circle fill="#FFFFFF" cx="346.075" cy="397.736" r="2.248"/>
			<circle fill="#FFFFFF" cx="346.075" cy="388.746" r="2.248"/>
			<circle fill="#FFFFFF" cx="346.075" cy="379.755" r="2.248"/>
		</g>
		<g>
			<circle fill="#FFFFFF" cx="390.484" cy="361.44" r="2.248"/>
			<circle fill="#FFFFFF" cx="390.484" cy="347.955" r="2.248"/>
			<circle fill="#FFFFFF" cx="390.484" cy="334.469" r="2.248"/>
		</g>
		
			<line fill="none" stroke="#FFFFFF" stroke-width="2.7728" stroke-linecap="round" stroke-linejoin="round" stroke-miterlimit="10" x1="344.035" y1="341.211" x2="397.977" y2="341.211"/>
		
			<line fill="none" stroke="#FFFFFF" stroke-width="2.7728" stroke-linecap="round" stroke-linejoin="round" stroke-miterlimit="10" x1="344.035" y1="354.697" x2="397.977" y2="354.697"/>
	</g>
</g>
</svg>
