<svg width="801" height="225" viewBox="0 0 801 225" fill="none" xmlns="http://www.w3.org/2000/svg">
<path d="M248.944 136.4C248.944 156.986 247.376 163.708 243.195 168.669C238.631 172.893 232.661 175.229 226.47 175.215L228.038 187.46C237.633 187.594 246.935 184.119 254.136 177.713C261.627 169.901 264.24 159.098 264.24 142.524V64.6844H248.909V136.506L248.944 136.4Z" fill="#4E4E4E"/>
<path d="M363.294 127.02C363.294 135.888 363.294 143.7 363.99 150.421H350.576L349.705 136.345H349.356C346.532 141.265 342.461 145.335 337.561 148.137C332.662 150.939 327.112 152.371 321.482 152.286C308.241 152.286 292.422 144.826 292.422 114.704V64.5236H307.754V112.135C307.754 128.463 312.632 139.442 326.534 139.442C330.895 139.361 335.136 137.983 338.724 135.479C342.313 132.975 345.09 129.457 346.708 125.366C347.638 122.808 348.11 120.103 348.102 117.378V64.594H363.433V127.02H363.294Z" fill="#4E4E4E"/>
<path d="M392.188 92.5909C392.188 81.6118 391.84 72.7441 391.491 64.4394H405.254L405.951 79.1485H406.3C409.311 73.8783 413.69 69.539 418.965 66.5994C424.24 63.6597 430.21 62.2314 436.23 62.4687C456.579 62.4687 471.909 80.0635 471.909 106.103C471.909 136.965 453.477 152.202 433.582 152.202C428.475 152.418 423.4 151.289 418.855 148.927C414.31 146.564 410.452 143.048 407.659 138.724H407.31V185.35H392.153V92.4502L392.188 92.5909ZM407.345 115.464C407.385 117.604 407.618 119.736 408.042 121.834C409.291 127.035 412.233 131.663 416.396 134.974C420.56 138.286 425.704 140.09 431.003 140.097C447.206 140.097 456.579 126.619 456.579 106.948C456.579 89.7406 447.694 75.0314 431.526 75.0314C426.089 75.185 420.859 77.1698 416.667 80.6703C412.475 84.1707 409.561 88.9859 408.39 94.3504C407.776 96.4202 407.425 98.5604 407.345 100.72V115.429V115.464Z" fill="#4E4E4E"/>
<path d="M499.03 64.6036L517.462 115.312C519.379 120.977 521.469 127.734 522.863 132.907H523.212C524.78 127.769 526.522 121.188 528.613 114.995L545.337 64.6388H561.539L538.577 125.833C527.602 155.252 520.145 170.348 509.692 179.568C504.411 184.529 497.936 188.011 490.912 189.667L487.079 176.541C491.994 174.888 496.548 172.295 500.494 168.905C506.069 164.2 510.483 158.248 513.386 151.522C514.006 150.36 514.418 149.097 514.605 147.792C514.468 146.384 514.115 145.007 513.56 143.709L482.41 64.6388H499.135L499.03 64.6036Z" fill="#4E4E4E"/>
<path d="M601.779 39.9221V64.5547H623.695V76.4487H601.779V122.688C601.779 133.244 604.74 139.367 613.277 139.367C616.272 139.415 619.259 139.059 622.162 138.312L622.859 150.03C618.499 151.581 613.89 152.297 609.27 152.141C606.206 152.331 603.138 151.843 600.28 150.713C597.421 149.583 594.841 147.836 592.719 145.596C588.364 140.986 586.796 133.35 586.796 123.251V76.4487H573.73V64.5547H586.796V43.9688L601.779 39.9221Z" fill="#4E4E4E"/>
<path d="M651.94 110.32C652.288 131.434 665.529 140.126 680.825 140.126C688.822 140.38 696.777 138.866 704.135 135.692L706.748 146.847C697.932 150.586 688.433 152.397 678.874 152.161C652.95 152.161 637.445 134.777 637.445 108.877C637.445 82.9782 652.428 62.6035 676.957 62.6035C704.449 62.6035 711.8 87.2361 711.8 103.036C711.774 105.473 711.6 107.905 711.278 110.32H652.044H651.94ZM696.853 99.1654C697.027 89.2419 692.846 73.7938 675.633 73.7938C660.128 73.7938 653.368 88.327 652.149 99.1654H696.887H696.853Z" fill="#4E4E4E"/>
<path d="M734.095 91.36C734.095 81.2606 733.921 72.5688 733.398 64.5808H746.813L747.335 81.4365H748.032C751.865 69.8944 761.098 62.6454 771.342 62.6454C772.811 62.6237 774.276 62.8012 775.698 63.1732V77.8824C773.981 77.5045 772.228 77.3274 770.471 77.3546C759.67 77.3546 752.039 85.6944 749.949 97.3773C749.517 99.7818 749.284 102.218 749.252 104.662V150.408H734.095V91.36Z" fill="#4E4E4E"/>
<path d="M172.14 24.3772C172.241 26.728 171.65 29.0564 170.44 31.0677C169.231 33.079 167.458 34.6829 165.346 35.6764C163.234 36.67 160.878 37.0085 158.575 36.6493C156.273 36.29 154.128 35.2491 152.411 33.6582C150.694 32.0673 149.483 29.9979 148.931 27.7118C148.379 25.4257 148.511 23.0257 149.31 20.8154C150.109 18.605 151.54 16.6837 153.42 15.2944C155.301 13.9051 157.547 13.1104 159.875 13.0107C162.993 12.8771 166.036 13.9993 168.336 16.1305C170.636 18.2618 172.004 21.2279 172.14 24.3772Z" fill="#767677"/>
<path d="M103.475 164.228C72.1157 164.228 44.7289 152.721 30.5129 135.689C35.8074 150.972 45.675 164.215 58.7498 173.584C71.8249 182.954 87.4602 187.987 103.492 187.987C119.524 187.987 135.159 182.954 148.234 173.584C161.309 164.215 171.177 150.972 176.471 135.689C162.22 152.721 134.834 164.228 103.475 164.228Z" fill="#F37726"/>
<path d="M103.469 53.4405C134.828 53.4405 162.215 64.9474 176.431 81.979C171.137 66.6964 161.269 53.4537 148.194 44.0841C135.119 34.7145 119.484 29.6814 103.452 29.6814C87.4201 29.6814 71.7848 34.7145 58.7097 44.0841C45.6349 53.4537 35.7673 66.6964 30.4728 81.979C44.7237 64.9826 72.1104 53.4405 103.469 53.4405Z" fill="#F37726"/>
<path d="M60.4257 197.348C60.5543 200.312 59.8092 203.248 58.2847 205.784C56.7602 208.32 54.5248 210.342 51.8617 211.595C49.1986 212.847 46.2274 213.273 43.3244 212.819C40.4214 212.365 37.7171 211.051 35.5538 209.044C33.3906 207.036 31.8657 204.426 31.1722 201.543C30.4787 198.66 30.6479 195.634 31.6582 192.848C32.6685 190.063 34.4746 187.642 36.8478 185.894C39.221 184.145 42.0546 183.147 44.9898 183.026C48.9158 182.863 52.7453 184.28 55.6388 186.965C58.5323 189.65 60.2537 193.384 60.4257 197.348Z" fill="#989798"/>
<path d="M34.087 49.589C32.365 49.6641 30.6595 49.2216 29.1865 48.3174C27.7135 47.4132 26.5393 46.088 25.8124 44.5095C25.0855 42.931 24.8387 41.1703 25.1031 39.45C25.3675 37.7298 26.1313 36.1275 27.2979 34.8458C28.4644 33.5642 29.9812 32.6609 31.6562 32.2502C33.3313 31.8396 35.0893 31.9401 36.7078 32.539C38.3263 33.1379 39.7325 34.2082 40.7484 35.6146C41.7643 37.021 42.3442 38.7001 42.4148 40.4395C42.5092 42.7674 41.6855 45.0381 40.1242 46.7534C38.563 48.4687 36.3918 49.4884 34.087 49.589Z" fill="#6F7070"/>
</svg>
