<svg width="208" height="250" viewBox="0 0 208 250" fill="none" xmlns="http://www.w3.org/2000/svg">
<path d="M31.4535 127.204C31.4535 133.116 31.0033 135.046 29.8026 136.47C28.492 137.683 26.7777 138.354 25 138.35L25.4502 141.866C28.2056 141.905 30.8766 140.907 32.9443 139.067C35.0955 136.824 35.8459 133.722 35.8459 128.963V106.611H31.4435V127.235L31.4535 127.204Z" fill="#4E4E4E"/>
<path d="M64.2896 124.511C64.2896 127.057 64.2896 129.3 64.4897 131.23H60.6376L60.3876 127.188H60.2874C59.4765 128.601 58.3074 129.77 56.9005 130.574C55.4936 131.379 53.8998 131.79 52.2831 131.766C48.4811 131.766 43.9386 129.624 43.9386 120.974V106.564H48.341V120.236C48.341 124.925 49.7417 128.078 53.7339 128.078C54.9862 128.055 56.204 127.659 57.2344 126.94C58.265 126.221 59.0624 125.21 59.527 124.036C59.794 123.301 59.9296 122.524 59.9272 121.742V106.585H64.3297V124.511H64.2896Z" fill="#4E4E4E"/>
<path d="M72.5868 114.624C72.5868 111.471 72.4868 108.925 72.3867 106.54H76.3389L76.539 110.764H76.639C77.5036 109.251 78.7612 108.005 80.2759 107.161C81.7907 106.316 83.505 105.906 85.2337 105.974C91.0769 105.974 95.4792 111.027 95.4792 118.504C95.4792 127.366 90.1864 131.742 84.4733 131.742C83.0067 131.804 81.5494 131.48 80.2443 130.801C78.9392 130.123 77.8313 129.113 77.0292 127.872H76.9292V141.261H72.5768V114.584L72.5868 114.624ZM76.9392 121.192C76.9507 121.807 77.0177 122.419 77.1393 123.021C77.4979 124.515 78.3427 125.844 79.5383 126.795C80.7339 127.746 82.211 128.264 83.7329 128.266C88.3854 128.266 91.0769 124.396 91.0769 118.747C91.0769 113.806 88.5255 109.582 83.883 109.582C82.3216 109.626 80.8197 110.196 79.616 111.201C78.4122 112.206 77.5757 113.589 77.2394 115.129C77.063 115.724 76.9621 116.338 76.9392 116.958V121.182V121.192Z" fill="#4E4E4E"/>
<path d="M103.267 106.587L108.56 121.149C109.11 122.775 109.711 124.716 110.111 126.201H110.211C110.661 124.726 111.161 122.836 111.762 121.058L116.564 106.598H121.217L114.623 124.17C111.472 132.618 109.33 136.952 106.329 139.6C104.812 141.025 102.953 142.024 100.936 142.5L99.8352 138.731C101.247 138.256 102.554 137.512 103.687 136.538C105.288 135.187 106.556 133.478 107.389 131.546C107.567 131.213 107.686 130.85 107.74 130.475C107.7 130.071 107.599 129.676 107.439 129.303L98.4945 106.598H103.297L103.267 106.587Z" fill="#4E4E4E"/>
<path d="M132.772 99.5V106.573H139.065V109.989H132.772V123.267C132.772 126.298 133.622 128.056 136.074 128.056C136.934 128.07 137.792 127.968 138.625 127.753L138.825 131.118C137.573 131.563 136.25 131.769 134.923 131.724C134.043 131.779 133.162 131.639 132.341 131.314C131.521 130.99 130.78 130.488 130.17 129.845C128.92 128.521 128.47 126.328 128.47 123.428V109.989H124.718V106.573H128.47V100.662L132.772 99.5Z" fill="#4E4E4E"/>
<path d="M147.176 119.715C147.276 125.778 151.078 128.274 155.47 128.274C157.767 128.347 160.051 127.912 162.164 127.001L162.914 130.204C160.383 131.278 157.655 131.798 154.91 131.73C147.466 131.73 143.014 126.738 143.014 119.301C143.014 111.864 147.316 106.013 154.36 106.013C162.254 106.013 164.365 113.086 164.365 117.624C164.358 118.323 164.308 119.022 164.215 119.715H147.206H147.176ZM160.073 116.512C160.123 113.662 158.922 109.226 153.98 109.226C149.527 109.226 147.586 113.4 147.236 116.512H160.083H160.073Z" fill="#4E4E4E"/>
<path d="M170.767 114.271C170.767 111.371 170.717 108.875 170.567 106.581H174.419L174.569 111.421H174.769C175.87 108.107 178.521 106.025 181.463 106.025C181.885 106.019 182.305 106.07 182.713 106.177V110.401C182.221 110.292 181.717 110.241 181.213 110.249C178.111 110.249 175.92 112.644 175.319 115.999C175.196 116.689 175.129 117.389 175.119 118.09V131.227H170.767V114.271Z" fill="#4E4E4E"/>
<path d="M174.14 36.3772C174.241 38.728 173.65 41.0564 172.44 43.0677C171.231 45.079 169.458 46.6829 167.346 47.6764C165.234 48.67 162.878 49.0085 160.575 48.6493C158.273 48.29 156.128 47.2491 154.411 45.6582C152.694 44.0673 151.483 41.9979 150.931 39.7118C150.379 37.4257 150.511 35.0257 151.31 32.8154C152.109 30.605 153.54 28.6837 155.42 27.2944C157.301 25.9051 159.547 25.1104 161.875 25.0107C164.993 24.8771 168.036 25.9993 170.336 28.1305C172.636 30.2618 174.004 33.2279 174.14 36.3772Z" fill="#767677"/>
<path d="M105.475 176.228C74.1157 176.228 46.7289 164.721 32.5129 147.689C37.8074 162.972 47.675 176.215 60.7498 185.584C73.8249 194.954 89.4602 199.987 105.492 199.987C121.524 199.987 137.159 194.954 150.234 185.584C163.309 176.215 173.177 162.972 178.471 147.689C164.22 164.721 136.834 176.228 105.475 176.228Z" fill="#F37726"/>
<path d="M105.469 65.4405C136.828 65.4405 164.215 76.9474 178.431 93.979C173.137 78.6964 163.269 65.4537 150.194 56.0841C137.119 46.7145 121.484 41.6814 105.452 41.6814C89.4201 41.6814 73.7848 46.7145 60.7097 56.0841C47.6349 65.4537 37.7673 78.6964 32.4728 93.979C46.7237 76.9826 74.1104 65.4405 105.469 65.4405Z" fill="#F37726"/>
<path d="M62.4257 209.348C62.5543 212.312 61.8092 215.248 60.2847 217.784C58.7602 220.32 56.5248 222.342 53.8617 223.595C51.1986 224.847 48.2274 225.273 45.3244 224.819C42.4214 224.365 39.7171 223.051 37.5538 221.044C35.3906 219.036 33.8657 216.426 33.1722 213.543C32.4787 210.66 32.6479 207.634 33.6582 204.848C34.6685 202.063 36.4746 199.642 38.8478 197.894C41.221 196.145 44.0546 195.147 46.9898 195.026C50.9158 194.863 54.7453 196.28 57.6388 198.965C60.5323 201.65 62.2537 205.384 62.4257 209.348Z" fill="#989798"/>
<path d="M36.087 61.589C34.365 61.6641 32.6595 61.2216 31.1865 60.3174C29.7135 59.4132 28.5393 58.088 27.8124 56.5095C27.0855 54.931 26.8387 53.1703 27.1031 51.45C27.3675 49.7298 28.1313 48.1275 29.2979 46.8458C30.4644 45.5642 31.9812 44.6609 33.6562 44.2502C35.3313 43.8396 37.0893 43.9401 38.7078 44.539C40.3263 45.1379 41.7325 46.2082 42.7484 47.6146C43.7643 49.021 44.3442 50.7001 44.4148 52.4395C44.5092 54.7674 43.6855 57.0381 42.1242 58.7534C40.563 60.4687 38.3918 61.4884 36.087 61.589Z" fill="#6F7070"/>
</svg>
