<?xml version="1.0" encoding="utf-8"?>
<!-- Generator: Adobe Illustrator 16.0.0, SVG Export Plug-In . SVG Version: 6.00 Build 0)  -->
<!DOCTYPE svg PUBLIC "-//W3C//DTD SVG 1.1//EN" "http://www.w3.org/Graphics/SVG/1.1/DTD/svg11.dtd">
<svg version="1.1" id="Layer_1" xmlns="http://www.w3.org/2000/svg" xmlns:xlink="http://www.w3.org/1999/xlink" x="0px" y="0px"
	 width="800px" height="800px" viewBox="0 0 800 800" enable-background="new 0 0 800 800" xml:space="preserve">
<g>
	<path fill="none" d="M551.634,358.766c10.103,0.48,20.412,0.809,30.911,1.007c-19.169-83.76-94.289-146.439-183.777-146.439
		c-0.737,0-1.47,0.02-2.206,0.028C473.119,225.885,534.376,283.907,551.634,358.766z"/>
	<path fill="#FBD5C9" d="M326.187,321.681c-6.811-1.734-13.66-3.417-20.536-5.015v28.969h19.753v-2.616
		C325.403,335.599,325.68,328.439,326.187,321.681z"/>
	<path fill="#FBD5C9" d="M240.656,382.678v-0.448v-0.354h4.534c1.775-0.219,3.579-0.345,5.414-0.345c0.045,0,0.09,0.003,0.135,0.003
		s0.089-0.003,0.134-0.003c1.835,0,3.639,0.126,5.414,0.345h3.556v0.577c4.029,0.838,7.85,2.237,11.391,4.097v-76.917
		c-3.562-0.611-7.126-1.188-10.694-1.711c-8.207-1.203-15.868-2.205-23.366-3.059c-17.081,28.354-26.921,61.542-26.921,96.987
		c0,0.456,0.015,0.909,0.018,1.365c0.966-0.24,1.943-0.479,2.935-0.716C219.245,392.648,229.069,385.367,240.656,382.678z"/>
	<path fill="#FBD5C9" d="M210.309,406.296c0.013,0.563,0.036,1.122,0.054,1.685c0.28-0.647,0.574-1.287,0.885-1.917
		C210.934,406.141,210.618,406.218,210.309,406.296z"/>
	<path fill="#FBD5C9" d="M271.233,306.59v-17.17h34.417v24.166c6.962,1.611,13.892,3.311,20.784,5.063
		c2.52-28.931,9.395-49.698,17.486-49.698c8.941,0,16.404,25.357,18.137,59.077c17.999,4.801,36.492,9.665,54.898,13.694
		c41.588,9.104,85.921,14.723,134.678,17.043c-17.258-74.858-78.515-132.881-155.072-145.404
		c-66.402,0.767-124.657,36.032-157.648,88.68c7.083,0.822,14.332,1.779,22.062,2.912
		C264.398,305.455,267.817,306.008,271.233,306.59z"/>
	<path fill="#FBD5C9" d="M362.198,331.171c0.156,3.859,0.239,7.813,0.239,11.848v34.856c10.358-9.392,24.104-15.115,39.188-15.115
		c0.06,0,0.119,0.004,0.179,0.004s0.119-0.004,0.179-0.004c31.17,0,56.63,24.437,58.271,55.199
		c16.658,0.614,32.683,0.508,48.054-0.32c3.073-17.265,16.255-31.025,33.206-34.96v-0.449v-0.354h4.535
		c1.775-0.219,3.579-0.345,5.414-0.345c0.045,0,0.089,0.003,0.134,0.003s0.09-0.003,0.135-0.003c1.258,0,2.496,0.077,3.727,0.185
		c-0.708-6.75-1.772-13.392-3.164-19.914c-49.242-2.305-93.996-7.958-135.979-17.148
		C398.158,340.679,379.942,335.901,362.198,331.171z M459.379,362.531c2.179,0,3.945,1.766,3.945,3.945
		c0,2.179-1.767,3.944-3.945,3.944c-2.178,0-3.943-1.766-3.943-3.944C455.436,364.297,457.201,362.531,459.379,362.531z"/>
	<path fill="#FBD5C9" d="M311.516,398.569c0-10.227,3.107-18.517,6.944-18.517c3.835,0,6.943,8.29,6.943,18.517v-46.052H305.65
		v0.001h4.971c0.95,0,1.721,0.771,1.721,1.721s-0.771,1.721-1.721,1.721h-4.971v6.884h4.971c0.95,0,1.721,0.771,1.721,1.721
		s-0.771,1.721-1.721,1.721h-4.971v6.883h4.971c0.95,0,1.721,0.771,1.721,1.721s-0.771,1.721-1.721,1.721h-4.971v6.885h4.971
		c0.95,0,1.721,0.771,1.721,1.721s-0.771,1.721-1.721,1.721h-4.971v10.927c1.96,0.237,3.915,0.487,5.865,0.75V398.569z"/>
	<path fill="#FBD5C9" d="M305.65,400.885v38.618c2.188,0.688,4.167,1.824,5.865,3.283v-41.144
		C309.565,401.377,307.61,401.125,305.65,400.885z"/>
	<path fill="#FBD5C9" d="M197.747,438.836v-4.538c0-3.077,1.713-5.753,4.236-7.13c1.137-0.957,2.665-1.637,4.705-1.767
		c-0.941-7.722-1.437-15.58-1.437-23.552c0-96.087,70.398-176.029,162.324-190.989c-0.693-0.007-1.384-0.026-2.078-0.026
		c-105.495,0-191.016,85.521-191.016,191.016c0,19.479,2.923,38.271,8.342,55.976v-2.309
		C182.824,446.875,189.354,439.766,197.747,438.836z"/>
	<path fill="#FBD5C9" d="M460.338,420.957c0,0.055,0.004,0.107,0.004,0.162v1.113c0.2-0.014,0.399-0.031,0.604-0.031
		c0.12,0,0.237,0.014,0.357,0.018v-0.018c5.97,0,10.808,4.839,10.808,10.807v6.338c5.479,1.061,10.232,4.125,13.496,8.387
		c2.533-4.824,7.338-8.27,13-8.896v-4.538c0-3.077,1.713-5.753,4.236-7.13c1.152-0.969,2.701-1.66,4.782-1.777v-0.021
		c0-1.59,0.095-3.156,0.26-4.703c-8.696,0.459-17.599,0.689-26.704,0.689C474.351,421.355,467.396,421.215,460.338,420.957z"/>
	<path fill="#F16624" d="M586.709,362.858c-0.008,0-0.015,0-0.015,0c-1.178-0.018-2.327-0.05-3.492-0.071
		c2.524,11.93,3.911,24.271,4.054,36.908c1.136,1.568,2.17,3.215,3.093,4.93c0.607,0.039,1.156,0.441,1.342,1.059
		c0.133,0.438,0.05,0.886-0.18,1.242c0.226,0.486,0.441,0.98,0.649,1.477c0.073-2.177,0.123-4.359,0.123-6.553
		c0-13.708-1.442-27.083-4.166-39.993C587.911,362.44,587.36,362.858,586.709,362.858z"/>
	<path fill="#F16624" d="M398.768,213.334c89.488,0,164.608,62.679,183.777,146.439c1.398,0.026,2.781,0.064,4.188,0.085
		c0.411,0.006,0.78,0.178,1.047,0.45c-19.063-86.807-96.563-151.975-189.012-151.975c-10.618,0-21.034,0.873-31.191,2.526
		c9.859,0.105,19.538,0.957,28.985,2.501C397.298,213.354,398.03,213.334,398.768,213.334z"/>
	<path fill="#F16624" d="M205.252,401.85c0,7.972,0.495,15.83,1.437,23.552c0.027-0.002,0.05-0.009,0.077-0.011v-0.021
		c0-6.182,1.288-12.058,3.597-17.389c-0.018-0.563-0.041-1.122-0.054-1.685c-0.795,0.199-1.583,0.399-2.361,0.602
		c-0.805,0.206-1.621-0.273-1.829-1.075c-0.208-0.803,0.273-1.621,1.075-1.829c1.011-0.263,2.039-0.521,3.076-0.778
		c-0.003-0.456-0.018-0.909-0.018-1.365c0-35.445,9.84-68.633,26.921-96.987c-0.564-0.064-1.13-0.13-1.692-0.192
		c-0.823-0.091-1.416-0.833-1.325-1.657c0.093-0.823,0.833-1.419,1.657-1.325c1.03,0.115,2.063,0.232,3.101,0.353
		c32.991-52.648,91.246-87.913,157.648-88.68c-9.447-1.545-19.126-2.396-28.985-2.501
		C275.65,225.821,205.252,305.762,205.252,401.85z"/>
	<path fill="#F16523" d="M318.46,380.053c-3.837,0-6.944,8.29-6.944,18.517v0.043c11.604,1.57,23.022,3.583,34.222,5.688
		c3.093-10.292,8.94-19.39,16.7-26.426v-34.856c0-4.034-0.083-7.989-0.239-11.848c-2.003-0.534-4.006-1.068-5.996-1.6
		c-9.906-2.646-19.921-5.32-30.016-7.89c-0.507,6.758-0.783,13.918-0.783,21.338v2.616h6.538l-0.861,6.883h-5.677v46.052
		C325.403,388.343,322.295,380.053,318.46,380.053z"/>
	<path fill="#F16523" d="M362.058,328.028c-1.732-33.72-9.195-59.077-18.137-59.077c-8.092,0-14.967,20.767-17.486,49.698
		c10.273,2.612,20.464,5.332,30.542,8.023C358.663,327.123,360.361,327.576,362.058,328.028z"/>
	<path fill="#F16523" d="M315.679,448.111c3.605-4.941,9.182-8.354,15.579-9.063v-6.041c0-4.096,2.278-7.658,5.638-9.491
		c1.533-1.292,3.597-2.214,6.37-2.368v-0.029c0-4.797,0.591-9.453,1.683-13.914c-10.947-2.057-22.104-4.02-33.433-5.563v41.144
		C313.233,444.262,314.667,446.059,315.679,448.111z"/>
	<path fill="#F16523" d="M283.297,395.875c7.517,0.402,14.97,1.093,22.354,1.987v-10.927h-20.268c-0.95,0-1.721-0.771-1.721-1.721
		s0.771-1.721,1.721-1.721h20.268v-6.885h-20.268c-0.95,0-1.721-0.771-1.721-1.721s0.771-1.721,1.721-1.721h20.268v-6.883h-20.268
		c-0.95,0-1.721-0.771-1.721-1.721s0.771-1.721,1.721-1.721h20.268v-6.884h-20.268c-0.95,0-1.721-0.771-1.721-1.721
		s0.771-1.721,1.721-1.721h20.268v-0.001h19.753v-6.883H305.65v-28.969c-11.406-2.651-22.891-5.056-34.417-7.033v76.917
		C275.785,388.941,279.866,392.106,283.297,395.875z"/>
	<path fill="#F16523" d="M305.65,289.42h-34.417v17.17c11.533,1.965,23.017,4.356,34.417,6.996V289.42z"/>
	<path fill="#F16523" d="M285.922,399.037c5.518,7.332,8.789,16.449,8.789,26.332v0.834c0.15-0.009,0.3-0.021,0.453-0.021
		c0.091,0,0.179,0.011,0.27,0.014v-0.014c4.48,0,8.115,3.633,8.115,8.116v4.761c0.134,0.025,0.265,0.06,0.397,0.088l-0.034-0.098
		c0.593,0.118,1.17,0.275,1.738,0.454v-38.618C299.126,400.09,292.547,399.455,285.922,399.037z"/>
	<polygon fill="#F16523" points="331.941,345.635 325.403,345.635 325.403,352.518 331.08,352.518 	"/>
	<circle fill="#FFFFFF" cx="459.379" cy="366.476" r="3.945"/>
	<path fill="#F16624" d="M460.254,417.959c0.053,0.993,0.081,1.992,0.084,2.998c7.058,0.258,14.013,0.398,20.843,0.398
		c9.105,0,18.008-0.23,26.704-0.689c0.108-1.02,0.245-2.03,0.423-3.027C492.937,418.467,476.912,418.573,460.254,417.959z"/>
	<path fill="#F16624" d="M305.65,397.862v3.023c1.96,0.24,3.915,0.492,5.865,0.757v-3.03
		C309.565,398.349,307.61,398.1,305.65,397.862z"/>
	<path fill="#F16624" d="M213.204,402.499c-0.991,0.237-1.969,0.476-2.935,0.716c0.007,1.027,0.015,2.057,0.039,3.081
		c0.31-0.078,0.625-0.155,0.938-0.232C211.847,404.843,212.497,403.652,213.204,402.499z"/>
	<path fill="#F16624" d="M591.69,405.684c-0.186-0.617-0.734-1.02-1.342-1.059c0.407,0.756,0.799,1.52,1.162,2.301
		C591.74,406.569,591.823,406.121,591.69,405.684z"/>
	<path fill="#F16624" d="M207.193,403.993c-0.802,0.208-1.283,1.026-1.075,1.829c0.208,0.802,1.024,1.281,1.829,1.075
		c0.778-0.202,1.566-0.402,2.361-0.602c-0.024-1.024-0.032-2.054-0.039-3.081C209.232,403.473,208.204,403.73,207.193,403.993z"/>
	<path fill="#F16624" d="M311.516,398.613v3.03c11.328,1.543,22.485,3.506,33.433,5.563c0.238-0.978,0.501-1.945,0.789-2.904
		C334.538,402.195,323.119,400.183,311.516,398.613z"/>
	<path fill="#F16624" d="M283.297,395.875c0.922,1.013,1.8,2.066,2.625,3.162c6.625,0.418,13.204,1.053,19.729,1.848v-3.023
		C298.267,396.969,290.813,396.278,283.297,395.875z"/>
	<path fill="#F16624" d="M552.294,361.801c10.104,0.473,20.412,0.794,30.908,0.986c-0.213-1.007-0.429-2.013-0.657-3.014
		c-10.499-0.199-20.809-0.527-30.911-1.007C551.865,359.773,552.077,360.788,552.294,361.801z"/>
	<path fill="#F16624" d="M588.209,361.381c0.007-0.417-0.159-0.797-0.43-1.073c0.113,0.516,0.229,1.031,0.338,1.548
		C588.171,361.707,588.206,361.549,588.209,361.381z"/>
	<path fill="#F16624" d="M416.315,344.653c41.982,9.19,86.736,14.843,135.979,17.148c-0.217-1.013-0.429-2.028-0.66-3.035
		c-48.757-2.32-93.09-7.939-134.678-17.043c-18.406-4.029-36.899-8.893-54.898-13.694c0.054,1.039,0.099,2.089,0.141,3.143
		C379.942,335.901,398.158,340.679,416.315,344.653z"/>
	<path fill="#F16624" d="M326.187,321.681c0.077-1.021,0.16-2.03,0.248-3.032c-6.893-1.752-13.822-3.452-20.784-5.063v3.08
		C312.526,318.264,319.376,319.946,326.187,321.681z"/>
	<path fill="#F16624" d="M271.233,309.633v-3.042c-3.416-0.582-6.835-1.135-10.259-1.637c-7.729-1.133-14.979-2.089-22.062-2.912
		c-0.586,0.936-1.169,1.875-1.74,2.821c7.498,0.854,15.159,1.856,23.366,3.059C264.107,308.445,267.672,309.022,271.233,309.633z"/>
	<path fill="#F16624" d="M582.545,359.773c0.229,1.001,0.444,2.007,0.657,3.014c1.165,0.021,2.314,0.053,3.483,0.071
		c0,0,0.016,0,0.023,0c0.651,0,1.202-0.418,1.408-1.002c-0.108-0.517-0.225-1.032-0.338-1.548c-0.267-0.272-0.636-0.444-1.047-0.45
		C585.326,359.837,583.943,359.799,582.545,359.773z"/>
	<path fill="#F16624" d="M235.813,301.689c-0.824-0.095-1.564,0.501-1.657,1.325c-0.091,0.824,0.502,1.565,1.325,1.657
		c0.563,0.063,1.128,0.128,1.692,0.192c0.571-0.947,1.154-1.885,1.74-2.821C237.876,301.921,236.843,301.804,235.813,301.689z"/>
	<path fill="#F16624" d="M356.202,329.571c1.99,0.532,3.993,1.066,5.996,1.6c-0.042-1.054-0.087-2.104-0.141-3.143
		c-1.696-0.453-3.395-0.905-5.081-1.356c-10.078-2.692-20.269-5.412-30.542-8.023c-0.088,1.002-0.171,2.011-0.248,3.032
		C336.281,324.251,346.296,326.925,356.202,329.571z"/>
	<path fill="#F16624" d="M305.65,313.586c-11.4-2.639-22.884-5.03-34.417-6.996v3.042c11.526,1.977,23.011,4.382,34.417,7.033
		V313.586z"/>
	<path fill="#FBD5C9" d="M312.342,354.239c0-0.95-0.771-1.721-1.721-1.721h-4.971v3.441h4.971
		C311.571,355.96,312.342,355.189,312.342,354.239z"/>
	<path fill="#FBD5C9" d="M285.383,352.519c-0.95,0-1.721,0.771-1.721,1.721s0.771,1.721,1.721,1.721h20.268v-3.441H285.383z"/>
	<path fill="#FBD5C9" d="M312.342,364.564c0-0.95-0.771-1.721-1.721-1.721h-4.971v3.441h4.971
		C311.571,366.285,312.342,365.515,312.342,364.564z"/>
	<path fill="#FBD5C9" d="M285.383,362.844c-0.95,0-1.721,0.771-1.721,1.721s0.771,1.721,1.721,1.721h20.268v-3.441H285.383z"/>
	<path fill="#FBD5C9" d="M312.342,374.889c0-0.95-0.771-1.721-1.721-1.721h-4.971v3.441h4.971
		C311.571,376.609,312.342,375.839,312.342,374.889z"/>
	<path fill="#FBD5C9" d="M285.383,373.168c-0.95,0-1.721,0.771-1.721,1.721s0.771,1.721,1.721,1.721h20.268v-3.441H285.383z"/>
	<path fill="#FBD5C9" d="M312.342,385.215c0-0.95-0.771-1.721-1.721-1.721h-4.971v3.441h4.971
		C311.571,386.936,312.342,386.165,312.342,385.215z"/>
	<path fill="#FBD5C9" d="M285.383,383.494c-0.95,0-1.721,0.771-1.721,1.721s0.771,1.721,1.721,1.721h20.268v-3.441H285.383z"/>
</g>
<g>
	<g>
		<circle fill="#FFFFFF" cx="441.14" cy="301.112" r="25.899"/>
	</g>
	<g>
		<path fill="#F16624" d="M441.142,328.518c-11.428,0-21.761-7.207-25.711-17.934c-2.531-6.867-2.235-14.309,0.831-20.954
			c3.067-6.645,8.538-11.698,15.406-14.228c3.055-1.125,6.241-1.696,9.469-1.696c11.427,0,21.76,7.207,25.712,17.935
			c2.53,6.867,2.235,14.309-0.832,20.953c-3.066,6.645-8.538,11.697-15.405,14.228C447.556,327.947,444.37,328.518,441.142,328.518z
			 M441.137,276.706c-2.873,0-5.71,0.508-8.432,1.511c-6.116,2.252-10.988,6.752-13.72,12.67c-2.73,5.917-2.994,12.544-0.74,18.66
			c3.519,9.553,12.72,15.971,22.896,15.971c2.873,0,5.711-0.508,8.433-1.512c6.115-2.253,10.987-6.752,13.719-12.669
			c2.731-5.917,2.994-12.544,0.741-18.659C460.515,283.125,451.313,276.706,441.137,276.706z"/>
	</g>
</g>
<g>
	<g>
		<path fill="none" d="M466.595,296.353c5.93-4.34,9.076-8.537,7.982-11.503c-1.231-3.343-7.578-4.384-16.442-3.282
			c3.188,2.768,5.745,6.352,7.307,10.592C465.953,293.545,466.329,294.947,466.595,296.353z"/>
	</g>
	<g>
		<path fill="none" d="M415.525,297.267c-7.459,4.912-11.615,9.821-10.383,13.164c1.092,2.966,6.209,4.12,13.537,3.574
			c-0.709-1.241-1.332-2.554-1.842-3.939C415.275,305.826,414.894,301.439,415.525,297.267z"/>
	</g>
	<g opacity="0.25">
		<g>
			<path fill="#F16523" d="M457.136,280.741c0.338,0.267,0.672,0.543,0.999,0.826c8.864-1.102,15.211-0.061,16.442,3.282
				c1.094,2.966-2.053,7.163-7.982,11.503c-5.573,4.078-13.607,8.282-22.897,11.703c-9.289,3.423-18.13,5.437-25.018,5.949
				c-7.328,0.546-12.445-0.608-13.537-3.574c-1.232-3.343,2.924-8.252,10.383-13.164c0.063-0.429,0.141-0.854,0.227-1.278
				c-17.679,8.938-28.793,18.602-26.689,24.311c2.103,5.708,16.829,5.852,36.082,1.184c6.613-1.604,13.759-3.773,21.11-6.482
				c7.354-2.709,14.199-5.694,20.272-8.764c17.68-8.938,28.791-18.602,26.688-24.31
				C491.112,276.218,476.388,276.074,457.136,280.741z"/>
		</g>
	</g>
</g>
<g>
	<circle fill="#FFFFFF" cx="473.913" cy="340.855" r="2.677"/>
</g>
<g>
	<circle fill="#FFFFFF" cx="302.208" cy="257.871" r="3.347"/>
</g>
<g>
	<circle fill="#FFFFFF" cx="384.81" cy="253.665" r="4.016"/>
</g>
<g>
	<path fill="#FFFFFF" d="M518.775,308.35c0,4.712-3.823,8.533-8.537,8.533c-4.708,0-8.53-3.821-8.53-8.533
		c0-4.713,3.822-8.534,8.53-8.534C514.952,299.815,518.775,303.637,518.775,308.35z"/>
</g>
<g>
	<circle fill="#FFFFFF" cx="248.671" cy="332.06" r="2.466"/>
</g>
<g>
	<circle fill="#FFFFFF" cx="321.501" cy="287.699" r="1.541"/>
</g>
<g>
	<path fill="#F16624" d="M369.237,254.924c-20.915,0-41.497-1.27-61.594-3.809c-6.343-0.8-13.175-1.675-20.15-2.653
		c-0.82-0.115-1.393-0.873-1.277-1.694c0.115-0.82,0.876-1.395,1.693-1.277c6.958,0.976,13.777,1.849,20.11,2.647
		c38.144,4.819,78.068,5.038,118.666,0.649c23.695-2.56,46.685-7.189,70.109-12.11c0.81-0.17,1.606,0.349,1.776,1.159
		c0.171,0.811-0.349,1.606-1.159,1.776c-23.502,4.937-46.571,9.582-70.404,12.157C407.561,253.873,388.261,254.924,369.237,254.924z
		"/>
</g>
<g>
	<path fill="#FBD5C9" d="M310.621,335.31h-25.238c-0.95,0-1.721-0.771-1.721-1.721s0.771-1.721,1.721-1.721h25.238
		c0.95,0,1.721,0.771,1.721,1.721S311.571,335.31,310.621,335.31z"/>
</g>
<g>
	<path fill="#FBD5C9" d="M310.621,324.984h-25.238c-0.95,0-1.721-0.771-1.721-1.721s0.771-1.721,1.721-1.721h25.238
		c0.95,0,1.721,0.771,1.721,1.721S311.571,324.984,310.621,324.984z"/>
</g>
<g>
	<path fill="#FBD5C9" d="M310.621,345.635h-25.238c-0.95,0-1.721-0.771-1.721-1.721s0.771-1.721,1.721-1.721h25.238
		c0.95,0,1.721,0.771,1.721,1.721S311.571,345.635,310.621,345.635z"/>
</g>
<g>
	<path fill="#FBD5C9" d="M314.445,299.745h-51.626c-0.95,0-1.721-0.771-1.721-1.721s0.771-1.721,1.721-1.721h51.626
		c0.95,0,1.721,0.771,1.721,1.721S315.396,299.745,314.445,299.745z"/>
</g>
<circle fill="#FFFFFF" cx="459.06" cy="367.775" r="3.944"/>
<g>
	<path fill-rule="evenodd" clip-rule="evenodd" fill="none" d="M316.818,479.314v-22.499c0-8.271-5.984-15.13-13.858-16.518v-4.701
		c0-4.483-3.634-8.116-8.116-8.116c-0.244,0-0.484,0.016-0.723,0.035v-0.848c0-24.213-19.627-43.839-43.837-43.839
		c-24.212,0-43.839,19.626-43.839,43.839v0.864c-0.295-0.033-0.596-0.052-0.9-0.052c-4.483,0-8.118,3.633-8.118,8.116v4.538
		c-8.394,0.93-14.923,8.039-14.923,16.681v22.499c-6.107,8.257-9.594,17.756-9.594,27.867v47.972h53.299h46.903h53.3v-47.972
		C326.412,497.07,322.926,487.571,316.818,479.314z"/>
	<path fill="#B4DEF6" d="M231.275,507.182h-9.061v46.105h4.795v-42.106C227.01,511.181,228.608,507.182,231.275,507.182z"/>
	<rect x="240.336" y="383.174" fill="#045F9B" width="19.187" height="29.137"/>
	<path fill="#B4DEF6" d="M183.127,479.822c0,0,4.62,11.015,4.62,32.69v41.572h-14.213v-46.903
		C173.534,507.182,173.176,490.128,183.127,479.822z"/>
	<path fill="#B4DEF6" d="M207.07,426.668v25.083c0,0,0.791,5.698,1.482,7.113c0,0-10.236,5.146-13.967,9.41V452.55
		c0,0,0.801-7.994,3.73-11.46v-4.529C198.316,436.561,198.233,426.668,207.07,426.668z"/>
	<path fill="#B4DEF6" d="M206.845,457.081v69.29h-3.73v7.994h4.264v19.72h4.53v-85.278
		C211.908,468.807,207.912,461.877,206.845,457.081z"/>
	<polygon fill="#B4DEF6" points="235.096,386.192 235.096,412.576 240.157,412.576 240.157,384.593 	"/>
	<rect x="172.823" y="535.609" fill="#045F9B" width="29.137" height="10.304"/>
	<rect x="206.225" y="526.016" fill="#045F9B" width="19.898" height="10.303"/>
	<rect x="272.672" y="526.016" fill="#045F9B" width="19.897" height="10.303"/>
	<g>
		<path fill-rule="evenodd" clip-rule="evenodd" fill="#F37725" d="M239.992,534.16c0.346,0.313,0.681,0.647,1.051,0.949
			c1.12,0.912,2.394,1.55,3.755,2.023c0.919,0.319,1.857,0.557,2.821,0.696c0.636,0.092,1.277,0.151,1.916,0.189
			c0.57,0.032,1.146,0.04,1.716,0.019c2.002-0.084,3.944-0.461,5.799-1.242c1.309-0.549,2.503-1.271,3.526-2.267
			c0.131-0.128,0.275-0.242,0.362-0.318c-0.472,1.229-1.188,2.397-2.12,3.432c-0.934,1.038-2.026,1.87-3.27,2.497
			c-1.242,0.631-2.559,1.025-3.948,1.155c-2.783,0.258-5.331-0.407-7.616-2.015C242.131,537.976,240.813,536.248,239.992,534.16z"/>
		<path fill-rule="evenodd" clip-rule="evenodd" fill="#F37725" d="M239.992,526.371c1.42-3.9,5.256-6.992,9.89-7.213
			c5.734-0.271,9.733,3.501,11.062,7.154c-0.162-0.154-0.351-0.336-0.545-0.515c-0.863-0.8-1.85-1.414-2.91-1.908
			c-1.105-0.509-2.259-0.873-3.454-1.102c-0.583-0.112-1.179-0.183-1.771-0.259c-0.828-0.104-1.658-0.104-2.487-0.076
			c-0.546,0.018-1.091,0.078-1.634,0.137c-0.951,0.104-1.881,0.305-2.793,0.585c-1.574,0.479-3.047,1.173-4.328,2.222
			c-0.333,0.27-0.627,0.586-0.94,0.883C240.052,526.308,240.027,526.332,239.992,526.371z"/>
		<path fill-rule="evenodd" clip-rule="evenodd" fill="#777778" d="M257.027,518.473c-0.015-0.884,0.688-1.689,1.688-1.696
			c1.01-0.007,1.685,0.825,1.685,1.687c-0.002,0.893-0.729,1.682-1.677,1.689C257.802,520.159,257.023,519.403,257.027,518.473z"/>
		<path fill-rule="evenodd" clip-rule="evenodd" fill="#9D9E9F" d="M240.081,542.853c-0.019-1.112,0.862-2.128,2.122-2.136
			c1.266-0.006,2.121,1.04,2.117,2.122c-0.004,1.122-0.916,2.116-2.108,2.123C241.051,544.973,240.073,544.024,240.081,542.853z"/>
		<path fill-rule="evenodd" clip-rule="evenodd" fill="#474749" d="M246.358,531.652c0,0.038,0,0.078,0,0.121
			c0,0.575-0.001,1.149,0.001,1.723c0.001,0.104-0.024,0.139-0.133,0.134c-0.167-0.008-0.335-0.002-0.522-0.002
			c0-1.728,0-3.44,0-5.161c0.176,0,0.362,0,0.562,0c0.011,0.2,0.022,0.397,0.035,0.612c0.078-0.097,0.136-0.179,0.205-0.247
			c0.696-0.729,1.905-0.572,2.409,0.313c0.233,0.413,0.294,0.862,0.258,1.326c-0.028,0.338-0.111,0.66-0.286,0.95
			c-0.423,0.71-1.236,0.894-1.835,0.715c-0.239-0.073-0.437-0.213-0.599-0.406c-0.024-0.026-0.049-0.055-0.071-0.084
			C246.373,531.649,246.365,531.651,246.358,531.652z M246.337,530.34c0.009,0.002,0.021,0.002,0.028,0.002
			c0,0.124-0.006,0.251,0.002,0.371c0.025,0.461,0.344,0.841,0.788,0.946c0.454,0.111,0.924-0.071,1.146-0.474
			c0.304-0.551,0.316-1.122,0.058-1.688c-0.155-0.336-0.424-0.554-0.802-0.591c-0.507-0.047-1.009,0.304-1.145,0.813
			C246.359,529.918,246.36,530.132,246.337,530.34z"/>
		<path fill-rule="evenodd" clip-rule="evenodd" fill="#474749" d="M259.376,531.512c0.036,0.149,0.075,0.306,0.116,0.488
			c-0.216,0.056-0.425,0.128-0.639,0.16c-0.402,0.067-0.809,0.094-1.207-0.023c-0.682-0.203-1.18-0.852-1.198-1.561
			c-0.008-0.416,0.032-0.824,0.211-1.209c0.394-0.845,1.233-1.114,1.999-0.908c0.208,0.057,0.393,0.164,0.543,0.322
			c0.435,0.464,0.496,1.03,0.474,1.637c-0.05,0-0.091,0-0.134,0c-0.772,0-1.55,0-2.325,0c-0.127,0-0.132,0.008-0.124,0.136
			c0.05,0.672,0.563,1.144,1.236,1.13c0.178-0.002,0.357-0.012,0.535-0.042C259.035,531.613,259.201,531.555,259.376,531.512z
			 M259.065,529.902c0.076-0.315-0.082-0.699-0.373-0.907c-0.314-0.231-0.708-0.242-1.054-0.02
			c-0.339,0.212-0.518,0.521-0.536,0.927C257.768,529.902,258.417,529.902,259.065,529.902z"/>
		<path fill-rule="evenodd" clip-rule="evenodd" fill="#474749" d="M243.771,528.442c0.228,0,0.436,0,0.659,0
			c0,1.223,0,2.44,0,3.665c-0.18,0-0.368,0-0.565,0c-0.012-0.186-0.028-0.371-0.044-0.584c-0.039,0.053-0.063,0.084-0.086,0.117
			c-0.366,0.498-1.039,0.695-1.615,0.479c-0.419-0.157-0.63-0.488-0.724-0.901c-0.04-0.171-0.064-0.348-0.065-0.52
			c-0.008-0.719-0.004-1.437-0.004-2.153c0-0.022,0.004-0.045,0.005-0.078c0.213,0,0.427,0,0.649,0c0,0.042,0.003,0.081,0.003,0.121
			c0,0.615-0.003,1.229,0.003,1.842c0.004,0.188,0.021,0.373,0.058,0.553c0.136,0.663,0.704,0.756,1.13,0.588
			c0.376-0.15,0.589-0.444,0.594-0.854c0.009-0.713,0.003-1.425,0.003-2.142C243.771,528.534,243.771,528.494,243.771,528.442z"/>
		<path fill-rule="evenodd" clip-rule="evenodd" fill="#474749" d="M253.101,528.458c-0.114,0.306-0.226,0.594-0.338,0.882
			c-0.373,0.937-0.743,1.875-1.126,2.809c-0.136,0.33-0.31,0.645-0.536,0.927c-0.257,0.319-0.575,0.562-0.977,0.682
			c-0.031,0.009-0.065,0.015-0.108,0.024c-0.055-0.182-0.105-0.357-0.16-0.542c0.045-0.02,0.085-0.035,0.124-0.053
			c0.496-0.218,0.836-0.586,1.052-1.076c0.05-0.112,0.018-0.214-0.026-0.317c-0.235-0.583-0.471-1.168-0.706-1.752
			c-0.201-0.494-0.401-0.989-0.601-1.482c-0.01-0.028-0.021-0.058-0.034-0.094c0.027-0.006,0.05-0.012,0.07-0.012
			c0.191,0,0.381,0.001,0.567-0.004c0.059,0,0.085,0.02,0.106,0.075c0.33,0.914,0.658,1.831,0.988,2.747
			c0.01,0.024,0.021,0.049,0.039,0.1c0.037-0.122,0.065-0.221,0.099-0.316c0.28-0.84,0.563-1.684,0.849-2.522
			c0.012-0.031,0.054-0.068,0.08-0.07C252.67,528.455,252.875,528.458,253.101,528.458z"/>
		<path fill-rule="evenodd" clip-rule="evenodd" fill="#626463" d="M240.395,521.895c-0.673-0.003-1.222-0.557-1.217-1.23
			c0.005-0.669,0.564-1.226,1.232-1.221c0.669,0.004,1.219,0.552,1.219,1.215C241.627,521.348,241.079,521.895,240.395,521.895z"/>
		<path fill-rule="evenodd" clip-rule="evenodd" fill="#474749" d="M254.233,528.945c-0.19,0-0.367,0-0.556,0
			c0-0.164,0-0.321,0-0.489c0.156,0,0.301-0.003,0.448,0.002c0.099,0.007,0.134-0.021,0.13-0.124
			c-0.005-0.223,0.003-0.45-0.002-0.672c-0.003-0.084,0.027-0.115,0.103-0.131c0.175-0.035,0.349-0.08,0.536-0.121
			c0,0.351,0,0.694,0,1.049c0.111,0,0.215,0,0.318,0c0.185,0,0.371,0.003,0.557-0.001c0.071-0.003,0.09,0.021,0.09,0.09
			c-0.002,0.101-0.004,0.205,0,0.31c0.004,0.072-0.025,0.094-0.096,0.091c-0.25-0.003-0.496,0-0.746,0c-0.036,0-0.073,0-0.118,0
			c-0.001,0.045-0.005,0.078-0.005,0.114c0,0.636-0.005,1.273,0.003,1.911c0.001,0.128,0.024,0.262,0.06,0.383
			c0.054,0.18,0.186,0.284,0.375,0.29c0.146,0.008,0.294,0.003,0.458,0.003c0.007,0.124,0.017,0.266,0.021,0.411
			c0.001,0.018-0.024,0.05-0.043,0.054c-0.39,0.104-0.781,0.152-1.141-0.1c-0.229-0.16-0.313-0.405-0.365-0.661
			c-0.02-0.094-0.021-0.193-0.021-0.289c-0.002-0.675,0-1.352,0-2.024C254.238,529.012,254.236,528.986,254.233,528.945z"/>
		<path fill-rule="evenodd" clip-rule="evenodd" fill="#474749" d="M238.499,533.681c-0.026-0.18-0.047-0.332-0.069-0.494
			c0.052-0.007,0.102-0.009,0.15-0.017c0.517-0.091,0.777-0.377,0.797-0.91c0.024-0.572,0.027-1.144,0.032-1.714
			c0.007-0.666,0.003-1.325,0-1.987c0-0.103,0.032-0.129,0.129-0.126c0.175,0.007,0.349,0,0.536,0c0,0.058,0,0.097,0,0.137
			c0,1.036,0.001,2.07-0.001,3.103c-0.003,0.251-0.006,0.503-0.042,0.749c-0.045,0.297-0.177,0.571-0.377,0.796
			c-0.195,0.225-0.464,0.338-0.751,0.405C238.775,533.652,238.641,533.659,238.499,533.681z"/>
		<path fill-rule="evenodd" clip-rule="evenodd" fill="#474749" d="M260.702,528.459c0.188,0,0.368,0,0.569,0
			c0,0.237,0,0.474,0,0.707c0.012,0,0.023,0.002,0.033,0.004c0.016-0.031,0.03-0.063,0.044-0.097
			c0.174-0.437,0.589-0.712,1.059-0.708c0.068,0.001,0.095,0.021,0.095,0.094c-0.003,0.173,0,0.345,0,0.512
			c-0.142,0.012-0.27,0.014-0.393,0.04c-0.403,0.086-0.693,0.41-0.738,0.816c-0.02,0.188-0.03,0.371-0.032,0.556
			c-0.004,0.535-0.004,1.071,0,1.604c0.002,0.095-0.027,0.127-0.12,0.123c-0.174-0.008-0.344-0.003-0.517-0.003
			C260.702,530.888,260.702,529.679,260.702,528.459z"/>
	</g>
	<g>
		<g>
			<g>
				<path fill="none" stroke="#0A3656" stroke-width="3" stroke-miterlimit="10" d="M303.592,440.348
					c5.406,1.076,9.878,4.748,12.059,9.663"/>
			</g>
			<g>
				<path fill="none" stroke="#0A3656" stroke-width="3" stroke-miterlimit="10" d="M182.773,479.822v-23.007
					c0-8.634,6.515-15.744,14.895-16.685"/>
			</g>
			<g>
				<path fill="none" stroke="#0A3656" stroke-width="3" stroke-miterlimit="10" d="M292.842,459.45
					c7.031,3.563,13.233,7.978,18.344,13.045"/>
			</g>
			<g>
				<path fill="none" stroke="#0A3656" stroke-width="3" stroke-miterlimit="10" d="M173.178,555.153v-47.972
					c0-20.249,13.943-38.056,35.021-48.317"/>
			</g>
			<g>
				<path fill="none" stroke="#0A3656" stroke-width="3" stroke-miterlimit="10" d="M205.814,451.832L205.814,451.832
					c-4.485,0-8.118-3.634-8.118-8.117v-8.118c0-4.483,3.633-8.116,8.118-8.116l0,0"/>
			</g>
			<g>
				<path fill="none" stroke="#0A3656" stroke-width="3" stroke-miterlimit="10" d="M295.113,427.48L295.113,427.48
					c4.48,0,8.115,3.633,8.115,8.116v8.118c0,4.483-3.635,8.117-8.115,8.117l0,0"/>
			</g>
			<g>
				<path fill="none" stroke="#0A3656" stroke-width="3" stroke-miterlimit="10" d="M294.391,448.586
					c0,24.211-19.628,35.72-43.838,35.72c-24.212,0-43.838-11.509-43.838-35.72v-21.918c0-24.213,19.626-43.839,43.838-43.839
					c24.21,0,43.838,19.626,43.838,43.839V448.586z"/>
			</g>
			<g>
				<path fill="none" stroke="#0A3656" stroke-width="3" stroke-miterlimit="10" d="M201.96,554.619v-43.174
					c0,0,0-33.045-9.595-42.639"/>
			</g>
			<g>
				
					<line fill="none" stroke="#0A3656" stroke-width="3" stroke-miterlimit="10" x1="173.178" y1="535.964" x2="201.96" y2="535.964"/>
			</g>
			<g>
				
					<line fill="none" stroke="#0A3656" stroke-width="3" stroke-miterlimit="10" x1="173.178" y1="545.559" x2="201.96" y2="545.559"/>
			</g>
			<g>
				<path fill="none" stroke="#0A3656" stroke-width="3" stroke-miterlimit="10" d="M297.899,554.619v-43.174
					c0,0,0-33.045,9.593-42.639"/>
			</g>
			
				<line fill="none" stroke="#0A3656" stroke-width="3" stroke-miterlimit="10" x1="240.336" y1="383.528" x2="240.336" y2="411.242"/>
			
				<line fill="none" stroke="#0A3656" stroke-width="3" stroke-miterlimit="10" x1="259.522" y1="382.461" x2="259.522" y2="411.242"/>
			
				<line fill="none" stroke="#0A3656" stroke-width="3" stroke-miterlimit="10" x1="278.711" y1="525.837" x2="278.711" y2="478.4"/>
			
				<line fill="none" stroke="#0A3656" stroke-width="3" stroke-miterlimit="10" x1="278.711" y1="555.153" x2="278.711" y2="535.432"/>
			
				<line fill="none" stroke="#0A3656" stroke-width="3" stroke-miterlimit="10" x1="288.305" y1="526.104" x2="288.305" y2="468.807"/>
			
				<line fill="none" stroke="#0A3656" stroke-width="3" stroke-miterlimit="10" x1="288.305" y1="555.153" x2="288.305" y2="536.23"/>
			
				<line fill="none" stroke="#0A3656" stroke-width="3" stroke-miterlimit="10" x1="221.147" y1="526.104" x2="221.147" y2="477.336"/>
			
				<line fill="none" stroke="#0A3656" stroke-width="3" stroke-miterlimit="10" x1="221.147" y1="555.153" x2="221.147" y2="536.23"/>
			
				<line fill="none" stroke="#0A3656" stroke-width="3" stroke-miterlimit="10" x1="211.555" y1="525.837" x2="211.555" y2="467.741"/>
			
				<line fill="none" stroke="#0A3656" stroke-width="3" stroke-miterlimit="10" x1="211.555" y1="555.153" x2="211.555" y2="535.964"/>
			<path fill="none" stroke="#0A3656" stroke-width="3" stroke-miterlimit="10" d="M273.381,555.153V511.98
				c0-2.651-2.147-4.799-4.798-4.799h-37.308c-2.65,0-4.798,2.147-4.798,4.799v43.173"/>
			
				<rect x="273.381" y="526.371" fill-rule="evenodd" clip-rule="evenodd" fill="none" stroke="#0A3656" stroke-width="3" stroke-miterlimit="10" width="19.188" height="9.593"/>
			
				<rect x="206.936" y="526.371" fill-rule="evenodd" clip-rule="evenodd" fill="none" stroke="#0A3656" stroke-width="3" stroke-miterlimit="10" width="19.188" height="9.593"/>
		</g>
	</g>
	<path fill="#F16523" stroke="#0A3656" stroke-width="3" stroke-miterlimit="10" d="M286.992,444.165
		c0,20.177-16.354,32.021-36.529,32.021c-20.177,0-36.531-11.845-36.531-32.021c0-20.174,16.354-36.53,36.531-36.53
		C270.638,407.635,286.992,423.991,286.992,444.165z"/>
	<g>
		<path fill="#FFFFFF" d="M249.728,431.439c0,5.245-4.245,9.495-9.494,9.495c-5.235,0-9.491-4.25-9.491-9.495
			c0-5.241,4.256-9.495,9.491-9.495C245.482,421.944,249.728,426.198,249.728,431.439z"/>
		<path fill="#FFFFFF" d="M255.668,445.959c0,2.971-2.409,5.38-5.378,5.38c-2.972,0-5.369-2.409-5.369-5.38
			c0-2.969,2.397-5.367,5.369-5.367C253.259,440.592,255.668,442.99,255.668,445.959z"/>
	</g>
</g>
<g>
	<path fill-rule="evenodd" clip-rule="evenodd" fill="none" d="M617.678,479.314v-22.499c0-8.271-5.987-15.13-13.859-16.518v-4.701
		c0-4.483-3.634-8.116-8.117-8.116c-0.243,0-0.483,0.016-0.722,0.035v-0.848c0-24.213-19.626-43.839-43.837-43.839
		c-24.21,0-43.838,19.626-43.838,43.839v0.864c-0.295-0.033-0.596-0.052-0.9-0.052c-4.483,0-8.118,3.633-8.118,8.116v4.538
		c-8.394,0.93-14.924,8.039-14.924,16.681v22.499c-6.107,8.257-9.595,17.756-9.595,27.867v47.972h53.301h46.902h53.299v-47.972
		C627.27,497.07,623.783,487.571,617.678,479.314z"/>
	<path fill="#B4DEF6" d="M532.132,507.182h-9.06v46.105h4.798v-42.106C527.87,511.181,529.469,507.182,532.132,507.182z"/>
	<rect x="541.193" y="383.174" fill="#045F9B" width="19.189" height="29.137"/>
	<path fill="#B4DEF6" d="M507.93,426.668v25.083c0,0,0.789,5.698,1.481,7.113c0,0-10.235,5.146-13.966,9.41V452.55
		c0,0,0.799-7.994,3.73-11.46v-4.529C499.176,436.561,499.093,426.668,507.93,426.668z"/>
	<path fill="#B4DEF6" d="M507.704,457.081v69.29h-3.731v7.994h4.265v19.72h4.53v-85.278
		C512.768,468.807,508.77,461.877,507.704,457.081z"/>
	<polygon fill="#B4DEF6" points="535.952,386.192 535.952,412.576 541.017,412.576 541.017,384.593 	"/>
	<rect x="598.757" y="535.609" fill="#045F9B" width="29.138" height="10.304"/>
	<rect x="507.083" y="526.016" fill="#045F9B" width="19.897" height="10.303"/>
	<rect x="573.529" y="526.016" fill="#045F9B" width="19.897" height="10.303"/>
	<g>
		<path fill-rule="evenodd" clip-rule="evenodd" fill="#F37725" d="M540.851,534.16c0.345,0.313,0.681,0.647,1.05,0.949
			c1.123,0.912,2.395,1.55,3.756,2.023c0.918,0.319,1.859,0.557,2.822,0.696c0.634,0.092,1.275,0.151,1.915,0.189
			c0.57,0.032,1.144,0.04,1.717,0.019c2-0.084,3.942-0.461,5.799-1.242c1.306-0.549,2.501-1.271,3.523-2.267
			c0.134-0.128,0.276-0.242,0.364-0.318c-0.473,1.229-1.188,2.397-2.122,3.432c-0.934,1.038-2.023,1.87-3.267,2.497
			c-1.244,0.631-2.562,1.025-3.951,1.155c-2.78,0.258-5.329-0.407-7.615-2.015C542.989,537.976,541.671,536.248,540.851,534.16z"/>
		<path fill-rule="evenodd" clip-rule="evenodd" fill="#F37725" d="M540.851,526.371c1.419-3.9,5.255-6.992,9.888-7.213
			c5.735-0.271,9.735,3.501,11.063,7.154c-0.161-0.154-0.352-0.336-0.545-0.515c-0.861-0.8-1.847-1.414-2.911-1.908
			c-1.104-0.509-2.257-0.873-3.45-1.102c-0.585-0.112-1.182-0.183-1.773-0.259c-0.827-0.104-1.658-0.104-2.487-0.076
			c-0.545,0.018-1.092,0.078-1.633,0.137c-0.951,0.104-1.879,0.305-2.79,0.585c-1.578,0.479-3.05,1.173-4.333,2.222
			c-0.33,0.27-0.626,0.586-0.94,0.883C540.911,526.308,540.887,526.332,540.851,526.371z"/>
		<path fill-rule="evenodd" clip-rule="evenodd" fill="#777778" d="M557.885,518.473c-0.014-0.884,0.688-1.689,1.691-1.696
			c1.006-0.007,1.686,0.825,1.683,1.687c-0.003,0.893-0.73,1.682-1.676,1.689C558.657,520.159,557.883,519.403,557.885,518.473z"/>
		<path fill-rule="evenodd" clip-rule="evenodd" fill="#9D9E9F" d="M540.938,542.853c-0.018-1.112,0.864-2.128,2.125-2.136
			c1.266-0.006,2.119,1.04,2.117,2.122c-0.004,1.122-0.916,2.116-2.109,2.123C541.91,544.973,540.93,544.024,540.938,542.853z"/>
		<path fill-rule="evenodd" clip-rule="evenodd" fill="#474749" d="M547.217,531.652c0,0.038,0,0.078,0,0.121
			c0,0.575-0.003,1.149,0,1.723c0.002,0.104-0.025,0.139-0.133,0.134c-0.167-0.008-0.334-0.002-0.521-0.002c0-1.728,0-3.44,0-5.161
			c0.175,0,0.361,0,0.563,0c0.01,0.2,0.021,0.397,0.033,0.612c0.08-0.097,0.137-0.179,0.206-0.247
			c0.697-0.729,1.902-0.572,2.407,0.313c0.236,0.413,0.295,0.862,0.26,1.326c-0.026,0.338-0.11,0.66-0.287,0.95
			c-0.422,0.71-1.236,0.894-1.832,0.715c-0.24-0.073-0.44-0.213-0.602-0.406c-0.023-0.026-0.047-0.055-0.072-0.084
			C547.232,531.649,547.223,531.651,547.217,531.652z M547.196,530.34c0.009,0.002,0.018,0.002,0.026,0.002
			c0,0.124-0.006,0.251,0.003,0.371c0.026,0.461,0.345,0.841,0.787,0.946c0.456,0.111,0.925-0.071,1.146-0.474
			c0.304-0.551,0.315-1.122,0.059-1.688c-0.155-0.336-0.424-0.554-0.805-0.591c-0.504-0.047-1.006,0.304-1.141,0.813
			C547.217,529.918,547.219,530.132,547.196,530.34z"/>
		<path fill-rule="evenodd" clip-rule="evenodd" fill="#474749" d="M560.234,531.512c0.036,0.149,0.072,0.306,0.115,0.488
			c-0.213,0.056-0.424,0.128-0.638,0.16c-0.402,0.067-0.808,0.094-1.209-0.023c-0.681-0.203-1.179-0.852-1.194-1.561
			c-0.012-0.416,0.03-0.824,0.209-1.209c0.394-0.845,1.231-1.114,1.997-0.908c0.21,0.057,0.396,0.164,0.546,0.322
			c0.435,0.464,0.494,1.03,0.475,1.637c-0.054,0-0.094,0-0.135,0c-0.775,0-1.551,0-2.325,0c-0.126,0-0.134,0.008-0.126,0.136
			c0.051,0.672,0.563,1.144,1.238,1.13c0.178-0.002,0.357-0.012,0.532-0.042C559.893,531.613,560.061,531.555,560.234,531.512z
			 M559.924,529.902c0.076-0.315-0.082-0.699-0.372-0.907c-0.313-0.231-0.708-0.242-1.058-0.02
			c-0.338,0.212-0.512,0.521-0.533,0.927C558.626,529.902,559.275,529.902,559.924,529.902z"/>
		<path fill-rule="evenodd" clip-rule="evenodd" fill="#474749" d="M544.629,528.442c0.229,0,0.436,0,0.658,0
			c0,1.223,0,2.44,0,3.665c-0.177,0-0.367,0-0.563,0c-0.014-0.186-0.029-0.371-0.046-0.584c-0.039,0.053-0.062,0.084-0.084,0.117
			c-0.367,0.498-1.042,0.695-1.618,0.479c-0.42-0.157-0.627-0.488-0.723-0.901c-0.041-0.171-0.063-0.348-0.065-0.52
			c-0.009-0.719-0.003-1.437-0.003-2.153c0-0.022,0.003-0.045,0.005-0.078c0.213,0,0.425,0,0.646,0
			c0.001,0.042,0.006,0.081,0.006,0.121c0,0.615-0.005,1.229,0.002,1.842c0.003,0.188,0.021,0.373,0.058,0.553
			c0.134,0.663,0.704,0.756,1.13,0.588c0.377-0.15,0.587-0.444,0.593-0.854c0.01-0.713,0.004-1.425,0.004-2.142
			C544.629,528.534,544.629,528.494,544.629,528.442z"/>
		<path fill-rule="evenodd" clip-rule="evenodd" fill="#474749" d="M553.959,528.458c-0.114,0.306-0.225,0.594-0.339,0.882
			c-0.372,0.937-0.741,1.875-1.124,2.809c-0.137,0.33-0.31,0.645-0.537,0.927c-0.258,0.319-0.574,0.562-0.976,0.682
			c-0.032,0.009-0.066,0.015-0.111,0.024c-0.053-0.182-0.104-0.357-0.158-0.542c0.045-0.02,0.085-0.035,0.124-0.053
			c0.495-0.218,0.836-0.586,1.052-1.076c0.05-0.112,0.017-0.214-0.024-0.317c-0.236-0.583-0.473-1.168-0.709-1.752
			c-0.2-0.494-0.399-0.989-0.6-1.482c-0.011-0.028-0.021-0.058-0.035-0.094c0.028-0.006,0.051-0.012,0.072-0.012
			c0.189,0,0.381,0.001,0.566-0.004c0.059,0,0.086,0.02,0.105,0.075c0.33,0.914,0.658,1.831,0.99,2.747
			c0.009,0.024,0.02,0.049,0.038,0.1c0.038-0.122,0.065-0.221,0.098-0.316c0.283-0.84,0.563-1.684,0.851-2.522
			c0.011-0.031,0.053-0.068,0.08-0.07C553.528,528.455,553.734,528.458,553.959,528.458z"/>
		<path fill-rule="evenodd" clip-rule="evenodd" fill="#626463" d="M541.252,521.895c-0.672-0.003-1.223-0.557-1.217-1.23
			c0.004-0.669,0.566-1.226,1.232-1.221c0.672,0.004,1.221,0.552,1.221,1.215C542.485,521.348,541.938,521.895,541.252,521.895z"/>
		<path fill-rule="evenodd" clip-rule="evenodd" fill="#474749" d="M555.093,528.945c-0.19,0-0.37,0-0.556,0
			c0-0.164,0-0.321,0-0.489c0.154,0,0.3-0.003,0.448,0.002c0.097,0.007,0.134-0.021,0.131-0.124
			c-0.008-0.223,0.001-0.45-0.006-0.672c-0.002-0.084,0.029-0.115,0.105-0.131c0.175-0.035,0.347-0.08,0.535-0.121
			c0,0.351,0,0.694,0,1.049c0.113,0,0.214,0,0.316,0c0.186,0,0.374,0.003,0.559-0.001c0.069-0.003,0.093,0.021,0.091,0.09
			c-0.004,0.101-0.006,0.205,0,0.31c0.002,0.072-0.026,0.094-0.098,0.091c-0.25-0.003-0.497,0-0.744,0c-0.036,0-0.074,0-0.119,0
			c0,0.045-0.005,0.078-0.005,0.114c0,0.636-0.003,1.273,0.003,1.911c0.002,0.128,0.024,0.262,0.061,0.383
			c0.054,0.18,0.185,0.284,0.374,0.29c0.146,0.008,0.293,0.003,0.457,0.003c0.007,0.124,0.018,0.266,0.021,0.411
			c0.001,0.018-0.024,0.05-0.043,0.054c-0.391,0.104-0.782,0.152-1.14-0.1c-0.227-0.16-0.313-0.405-0.365-0.661
			c-0.02-0.094-0.022-0.193-0.022-0.289c-0.002-0.675,0-1.352,0-2.024C555.097,529.012,555.095,528.986,555.093,528.945z"/>
		<path fill-rule="evenodd" clip-rule="evenodd" fill="#474749" d="M539.356,533.681c-0.024-0.18-0.046-0.332-0.069-0.494
			c0.053-0.007,0.104-0.009,0.152-0.017c0.515-0.091,0.775-0.377,0.797-0.91c0.022-0.572,0.028-1.144,0.031-1.714
			c0.005-0.666,0.003-1.325,0-1.987c0-0.103,0.031-0.129,0.128-0.126c0.175,0.007,0.353,0,0.538,0c0,0.058,0,0.097,0,0.137
			c0,1.036,0,2.07-0.004,3.103c0,0.251-0.003,0.503-0.041,0.749c-0.045,0.297-0.177,0.571-0.377,0.796
			c-0.194,0.225-0.463,0.338-0.75,0.405C539.634,533.652,539.5,533.659,539.356,533.681z"/>
		<path fill-rule="evenodd" clip-rule="evenodd" fill="#474749" d="M561.561,528.459c0.185,0,0.368,0,0.57,0
			c0,0.237,0,0.474,0,0.707c0.011,0,0.022,0.002,0.032,0.004c0.015-0.031,0.032-0.063,0.044-0.097
			c0.175-0.437,0.588-0.712,1.058-0.708c0.069,0.001,0.097,0.021,0.097,0.094c-0.005,0.173-0.003,0.345-0.003,0.512
			c-0.142,0.012-0.267,0.014-0.39,0.04c-0.403,0.086-0.695,0.41-0.739,0.816c-0.021,0.188-0.032,0.371-0.032,0.556
			c-0.002,0.535-0.002,1.071,0,1.604c0,0.095-0.026,0.127-0.121,0.123c-0.172-0.008-0.345-0.003-0.516-0.003
			C561.561,530.888,561.561,529.679,561.561,528.459z"/>
	</g>
	<g>
		<g>
			<g>
				<path fill="none" stroke="#0A3656" stroke-width="3" stroke-miterlimit="10" d="M604.451,440.348
					c7.694,1.531,13.493,8.322,13.493,16.468v22.651"/>
			</g>
			<g>
				<path fill="none" stroke="#0A3656" stroke-width="3" stroke-miterlimit="10" d="M485.976,448.252
					c2.62-4.412,7.206-7.521,12.551-8.121"/>
			</g>
			<g>
				<path fill="none" stroke="#0A3656" stroke-width="3" stroke-miterlimit="10" d="M593.702,459.45
					c20.414,10.345,33.837,27.862,33.837,47.731v47.972"/>
			</g>
			<g>
				<path fill="none" stroke="#0A3656" stroke-width="3" stroke-miterlimit="10" d="M490.02,472.018
					c5.303-5.147,11.742-9.602,19.037-13.153"/>
			</g>
			<g>
				<path fill="none" stroke="#0A3656" stroke-width="3" stroke-miterlimit="10" d="M506.673,451.832L506.673,451.832
					c-4.483,0-8.119-3.634-8.119-8.117v-8.118c0-4.483,3.636-8.116,8.119-8.116l0,0"/>
			</g>
			<g>
				<path fill="none" stroke="#0A3656" stroke-width="3" stroke-miterlimit="10" d="M595.97,427.48L595.97,427.48
					c4.483,0,8.118,3.633,8.118,8.116v8.118c0,4.483-3.635,8.117-8.118,8.117l0,0"/>
			</g>
			<g>
				<path fill="none" stroke="#0A3656" stroke-width="3" stroke-miterlimit="10" d="M595.248,448.586
					c0,24.211-19.626,35.72-43.837,35.72c-24.21,0-43.837-11.509-43.837-35.72v-21.918c0-24.213,19.627-43.839,43.837-43.839
					c24.211,0,43.837,19.626,43.837,43.839V448.586z"/>
			</g>
			<g>
				<path fill="none" stroke="#0A3656" stroke-width="3" stroke-miterlimit="10" d="M502.818,554.619v-43.174
					c0,0,0-33.045-9.594-42.639"/>
			</g>
			<g>
				<path fill="none" stroke="#0A3656" stroke-width="3.198" stroke-miterlimit="10" d="M502.818,535.964"/>
			</g>
			<g>
				<path fill="none" stroke="#0A3656" stroke-width="3" stroke-miterlimit="10" d="M598.757,554.619v-43.174
					c0,0,0-33.045,9.594-42.639"/>
			</g>
			<g>
				
					<line fill="none" stroke="#0A3656" stroke-width="3.198" stroke-miterlimit="10" x1="627.539" y1="535.964" x2="598.757" y2="535.964"/>
			</g>
			<g>
				
					<line fill="none" stroke="#0A3656" stroke-width="3.198" stroke-miterlimit="10" x1="627.539" y1="545.559" x2="598.757" y2="545.559"/>
			</g>
			
				<line fill="none" stroke="#0A3656" stroke-width="3" stroke-miterlimit="10" x1="541.193" y1="383.528" x2="541.193" y2="411.242"/>
			
				<line fill="none" stroke="#0A3656" stroke-width="3" stroke-miterlimit="10" x1="560.383" y1="382.461" x2="560.383" y2="411.242"/>
			<line fill="none" stroke="#0A3656" stroke-width="3" stroke-miterlimit="10" x1="579.57" y1="525.837" x2="579.57" y2="478.4"/>
			
				<line fill="none" stroke="#0A3656" stroke-width="3" stroke-miterlimit="10" x1="579.57" y1="555.153" x2="579.57" y2="535.432"/>
			
				<line fill="none" stroke="#0A3656" stroke-width="3" stroke-miterlimit="10" x1="589.164" y1="526.104" x2="589.164" y2="468.807"/>
			
				<line fill="none" stroke="#0A3656" stroke-width="3" stroke-miterlimit="10" x1="589.164" y1="555.153" x2="589.164" y2="536.23"/>
			
				<line fill="none" stroke="#0A3656" stroke-width="3" stroke-miterlimit="10" x1="522.006" y1="526.104" x2="522.006" y2="477.336"/>
			
				<line fill="none" stroke="#0A3656" stroke-width="3" stroke-miterlimit="10" x1="522.006" y1="555.153" x2="522.006" y2="536.23"/>
			
				<line fill="none" stroke="#0A3656" stroke-width="3" stroke-miterlimit="10" x1="512.412" y1="525.837" x2="512.412" y2="467.741"/>
			
				<line fill="none" stroke="#0A3656" stroke-width="3" stroke-miterlimit="10" x1="512.412" y1="555.153" x2="512.412" y2="535.964"/>
			<path fill="none" stroke="#0A3656" stroke-width="3" stroke-miterlimit="10" d="M574.239,555.153V511.98
				c0-2.651-2.146-4.799-4.796-4.799h-37.312c-2.649,0-4.796,2.147-4.796,4.799v43.173"/>
			
				<rect x="574.239" y="526.371" fill-rule="evenodd" clip-rule="evenodd" fill="none" stroke="#0A3656" stroke-width="3.198" stroke-miterlimit="10" width="19.188" height="9.593"/>
			
				<rect x="507.793" y="526.371" fill-rule="evenodd" clip-rule="evenodd" fill="none" stroke="#0A3656" stroke-width="3" stroke-miterlimit="10" width="19.188" height="9.593"/>
		</g>
	</g>
	<path fill="#F16523" stroke="#0A3656" stroke-width="3" stroke-miterlimit="10" d="M587.851,444.165
		c0,20.177-16.354,32.021-36.529,32.021c-20.175,0-36.53-11.845-36.53-32.021c0-20.174,16.355-36.53,36.53-36.53
		C571.497,407.635,587.851,423.991,587.851,444.165z"/>
	<g>
		<path fill="#FFFFFF" d="M550.586,431.439c0,5.245-4.246,9.495-9.492,9.495c-5.237,0-9.492-4.25-9.492-9.495
			c0-5.241,4.255-9.495,9.492-9.495C546.34,421.944,550.586,426.198,550.586,431.439z"/>
		<path fill="#FFFFFF" d="M556.526,445.959c0,2.971-2.409,5.38-5.378,5.38c-2.972,0-5.371-2.409-5.371-5.38
			c0-2.969,2.399-5.367,5.371-5.367C554.117,440.592,556.526,442.99,556.526,445.959z"/>
	</g>
</g>
<path fill-rule="evenodd" clip-rule="evenodd" fill="none" d="M489.881,492.506v-29.952c0-11.01-7.969-20.14-18.449-21.988v-6.259
	c0-5.968-4.838-10.807-10.807-10.807c-0.324,0-0.644,0.021-0.959,0.05v-1.132c0-32.232-26.131-58.359-58.361-58.359
	s-58.359,26.127-58.359,58.359v1.154c-0.396-0.045-0.796-0.072-1.201-0.072c-5.969,0-10.807,4.839-10.807,10.807v6.041
	c-11.175,1.237-19.869,10.703-19.869,22.206v29.952c-8.129,10.996-12.771,23.64-12.771,37.102v63.861h70.956h62.444h70.956v-63.861
	C502.653,516.146,498.011,503.502,489.881,492.506z"/>
<path fill="#B4DEF6" d="M375.998,529.607h-12.063v61.379h6.386V534.93C370.32,534.93,372.449,529.607,375.998,529.607z"/>
<rect x="388.061" y="364.516" fill="#045F9B" width="25.545" height="38.789"/>
<path fill="#B4DEF6" d="M311.898,493.184c0,0,6.151,14.664,6.151,43.521v55.347h-18.923v-62.443
	C299.127,529.607,298.653,506.902,311.898,493.184z"/>
<path fill="#B4DEF6" d="M343.774,422.418v33.395c0,0,1.053,7.586,1.974,9.471c0,0-13.625,6.85-18.594,12.526v-20.933
	c0,0,1.064-10.644,4.969-15.256v-6.031C332.123,435.59,332.011,422.418,343.774,422.418z"/>
<path fill="#B4DEF6" d="M343.475,462.909v92.244h-4.966v10.643h5.675v26.255h6.032V478.519
	C350.216,478.519,344.895,469.295,343.475,462.909z"/>
<polygon fill="#B4DEF6" points="381.082,368.536 381.082,403.659 387.824,403.659 387.824,366.407 "/>
<rect x="298.183" y="567.452" fill="#045F9B" width="38.789" height="13.718"/>
<rect x="464.693" y="567.452" fill="#045F9B" width="38.79" height="13.718"/>
<rect x="342.649" y="554.68" fill="#045F9B" width="26.489" height="13.718"/>
<rect x="431.109" y="554.68" fill="#045F9B" width="26.489" height="13.718"/>
<g>
	<path fill-rule="evenodd" clip-rule="evenodd" fill="#F37725" d="M387.604,565.523c0.459,0.417,0.905,0.863,1.397,1.264
		c1.492,1.215,3.188,2.063,4.998,2.694c1.225,0.426,2.476,0.74,3.757,0.927c0.847,0.12,1.7,0.201,2.553,0.252
		c0.757,0.042,1.522,0.055,2.283,0.024c2.664-0.11,5.25-0.614,7.719-1.652c1.741-0.731,3.332-1.694,4.693-3.02
		c0.176-0.169,0.368-0.32,0.483-0.421c-0.628,1.633-1.581,3.191-2.824,4.567c-1.242,1.38-2.695,2.487-4.352,3.325
		c-1.653,0.839-3.407,1.362-5.256,1.537c-3.704,0.342-7.097-0.543-10.14-2.683C390.45,570.604,388.695,568.304,387.604,565.523z"/>
	<path fill-rule="evenodd" clip-rule="evenodd" fill="#F37725" d="M387.604,555.153c1.887-5.19,6.994-9.309,13.164-9.602
		c7.634-0.362,12.958,4.66,14.726,9.525c-0.215-0.205-0.468-0.446-0.726-0.688c-1.148-1.064-2.459-1.88-3.874-2.537
		c-1.47-0.678-3.007-1.164-4.596-1.468c-0.777-0.148-1.572-0.243-2.359-0.345c-1.102-0.139-2.207-0.139-3.31-0.102
		c-0.728,0.025-1.454,0.105-2.176,0.182c-1.265,0.139-2.503,0.408-3.716,0.778c-2.099,0.639-4.059,1.562-5.766,2.959
		c-0.443,0.36-0.835,0.781-1.252,1.175C387.683,555.068,387.649,555.103,387.604,555.153z"/>
	<path fill-rule="evenodd" clip-rule="evenodd" fill="#777778" d="M410.281,544.639c-0.019-1.178,0.916-2.25,2.249-2.258
		c1.342-0.01,2.245,1.097,2.243,2.245c-0.005,1.188-0.972,2.237-2.232,2.249C411.311,546.884,410.275,545.879,410.281,544.639z"/>
	<path fill-rule="evenodd" clip-rule="evenodd" fill="#9D9E9F" d="M387.721,577.095c-0.024-1.48,1.15-2.831,2.826-2.842
		c1.685-0.009,2.823,1.384,2.818,2.824c-0.004,1.494-1.219,2.817-2.808,2.828C389.014,579.917,387.71,578.654,387.721,577.095z"/>
	<path fill-rule="evenodd" clip-rule="evenodd" fill="#474749" d="M396.078,562.185c0,0.052,0,0.104,0,0.16
		c0,0.767-0.004,1.531,0.001,2.296c0.002,0.138-0.034,0.184-0.177,0.178c-0.223-0.013-0.445-0.005-0.695-0.005
		c0-2.299,0-4.579,0-6.868c0.233,0,0.482,0,0.748,0c0.014,0.266,0.029,0.526,0.047,0.813c0.105-0.126,0.182-0.234,0.274-0.329
		c0.925-0.97,2.532-0.761,3.205,0.417c0.313,0.551,0.391,1.148,0.344,1.768c-0.036,0.451-0.147,0.878-0.381,1.266
		c-0.563,0.945-1.647,1.188-2.44,0.948c-0.32-0.095-0.584-0.281-0.8-0.538c-0.032-0.036-0.064-0.073-0.097-0.111
		C396.099,562.181,396.088,562.182,396.078,562.185z M396.05,560.437c0.014,0.003,0.024,0.003,0.038,0.003
		c0,0.165-0.009,0.333,0.002,0.493c0.035,0.614,0.459,1.122,1.049,1.262c0.606,0.146,1.231-0.098,1.525-0.632
		c0.404-0.731,0.422-1.492,0.076-2.246c-0.205-0.449-0.563-0.739-1.067-0.787c-0.673-0.062-1.341,0.403-1.522,1.082
		C396.079,559.876,396.081,560.161,396.05,560.437z"/>
	<path fill-rule="evenodd" clip-rule="evenodd" fill="#474749" d="M413.408,561.996c0.049,0.201,0.099,0.409,0.154,0.652
		c-0.286,0.072-0.564,0.168-0.85,0.211c-0.535,0.09-1.076,0.126-1.607-0.032c-0.908-0.269-1.569-1.13-1.594-2.076
		c-0.011-0.552,0.043-1.097,0.279-1.609c0.525-1.124,1.643-1.481,2.66-1.208c0.279,0.075,0.525,0.219,0.725,0.43
		c0.579,0.615,0.658,1.371,0.632,2.178c-0.067,0-0.124,0-0.177,0c-1.031,0-2.066,0-3.098,0c-0.168,0-0.177,0.01-0.166,0.182
		c0.066,0.894,0.749,1.522,1.647,1.506c0.236-0.005,0.477-0.018,0.71-0.059C412.953,562.134,413.176,562.056,413.408,561.996z
		 M412.995,559.855c0.102-0.422-0.108-0.931-0.496-1.207c-0.419-0.309-0.942-0.324-1.405-0.027c-0.45,0.283-0.685,0.695-0.71,1.234
		C411.269,559.855,412.131,559.855,412.995,559.855z"/>
	<path fill-rule="evenodd" clip-rule="evenodd" fill="#474749" d="M392.634,557.912c0.302,0,0.579,0,0.876,0
		c0,1.627,0,3.248,0,4.878c-0.236,0-0.489,0-0.75,0c-0.018-0.247-0.037-0.491-0.06-0.777c-0.052,0.071-0.083,0.112-0.113,0.156
		c-0.487,0.663-1.386,0.926-2.152,0.639c-0.558-0.211-0.838-0.65-0.964-1.202c-0.054-0.226-0.085-0.462-0.087-0.691
		c-0.009-0.957-0.005-1.912-0.005-2.866c0-0.03,0.005-0.061,0.007-0.103c0.284,0,0.567,0,0.862,0
		c0.003,0.056,0.006,0.107,0.006,0.161c0,0.818-0.003,1.636,0.005,2.451c0.003,0.249,0.028,0.496,0.076,0.736
		c0.181,0.883,0.937,1.006,1.503,0.781c0.502-0.201,0.783-0.593,0.79-1.138c0.014-0.948,0.006-1.896,0.006-2.85
		C392.634,558.034,392.634,557.979,392.634,557.912z"/>
	<path fill-rule="evenodd" clip-rule="evenodd" fill="#474749" d="M405.054,557.933c-0.152,0.407-0.299,0.792-0.45,1.174
		c-0.496,1.246-0.988,2.495-1.497,3.739c-0.181,0.438-0.413,0.857-0.714,1.233c-0.344,0.425-0.766,0.747-1.301,0.906
		c-0.041,0.014-0.088,0.021-0.146,0.033c-0.071-0.242-0.139-0.478-0.21-0.722c0.058-0.025,0.112-0.046,0.163-0.071
		c0.661-0.288,1.113-0.778,1.4-1.43c0.067-0.151,0.022-0.287-0.033-0.426c-0.314-0.774-0.628-1.552-0.942-2.329
		c-0.266-0.66-0.533-1.316-0.799-1.977c-0.014-0.038-0.026-0.074-0.047-0.123c0.038-0.008,0.067-0.017,0.094-0.017
		c0.256,0,0.509,0.001,0.758-0.005c0.078,0,0.114,0.027,0.141,0.1c0.438,1.219,0.876,2.438,1.317,3.658
		c0.012,0.032,0.026,0.065,0.051,0.133c0.051-0.162,0.088-0.294,0.131-0.423c0.375-1.117,0.748-2.239,1.131-3.356
		c0.015-0.041,0.07-0.093,0.106-0.094C404.48,557.93,404.755,557.933,405.054,557.933z"/>
	<path fill-rule="evenodd" clip-rule="evenodd" fill="#626463" d="M388.138,549.193c-0.896-0.004-1.627-0.741-1.62-1.637
		c0.007-0.892,0.754-1.631,1.641-1.626c0.894,0.004,1.624,0.734,1.624,1.617C389.779,548.466,389.05,549.195,388.138,549.193z"/>
	<path fill-rule="evenodd" clip-rule="evenodd" fill="#474749" d="M406.563,558.581c-0.253,0-0.491,0-0.738,0
		c0-0.218,0-0.428,0-0.65c0.205,0,0.399-0.006,0.597,0.002c0.13,0.009,0.177-0.029,0.174-0.165
		c-0.012-0.298,0.002-0.601-0.007-0.895c-0.005-0.112,0.038-0.154,0.139-0.175c0.233-0.048,0.464-0.105,0.713-0.16
		c0,0.466,0,0.924,0,1.396c0.15,0,0.287,0,0.422,0c0.248,0,0.496,0.004,0.743-0.001c0.094-0.003,0.122,0.029,0.121,0.12
		c-0.005,0.134-0.007,0.271,0,0.411c0.004,0.097-0.035,0.124-0.129,0.122c-0.333-0.005-0.661,0-0.993,0c-0.048,0-0.098,0-0.155,0
		c-0.003,0.06-0.009,0.104-0.009,0.15c0,0.847-0.005,1.695,0.004,2.545c0.002,0.169,0.034,0.348,0.081,0.51
		c0.069,0.238,0.246,0.378,0.497,0.387c0.195,0.011,0.393,0.003,0.611,0.003c0.008,0.164,0.021,0.354,0.025,0.546
		c0.003,0.023-0.032,0.068-0.057,0.074c-0.52,0.137-1.04,0.201-1.517-0.135c-0.302-0.213-0.417-0.538-0.487-0.881
		c-0.025-0.124-0.029-0.255-0.029-0.382c-0.001-0.899,0-1.799,0-2.696C406.568,558.67,406.567,558.635,406.563,558.581z"/>
	<path fill-rule="evenodd" clip-rule="evenodd" fill="#474749" d="M385.615,564.885c-0.036-0.239-0.063-0.44-0.095-0.659
		c0.069-0.008,0.14-0.013,0.204-0.021c0.686-0.121,1.033-0.502,1.061-1.211c0.03-0.762,0.037-1.522,0.042-2.283
		c0.009-0.884,0.005-1.764,0-2.646c0-0.134,0.041-0.172,0.173-0.167c0.23,0.011,0.465,0.003,0.712,0.003c0,0.073,0,0.125,0,0.179
		c0,1.38,0.003,2.757-0.002,4.132c-0.003,0.333-0.006,0.669-0.056,0.997c-0.059,0.396-0.236,0.76-0.5,1.061
		c-0.26,0.298-0.619,0.45-1.001,0.538C385.984,564.848,385.805,564.856,385.615,564.885z"/>
	<path fill-rule="evenodd" clip-rule="evenodd" fill="#474749" d="M415.174,557.934c0.248,0,0.491,0,0.76,0c0,0.316,0,0.63,0,0.941
		c0.014,0,0.03,0.002,0.043,0.006c0.02-0.043,0.041-0.084,0.058-0.131c0.231-0.58,0.783-0.947,1.409-0.941
		c0.093,0.002,0.128,0.027,0.128,0.125c-0.005,0.23-0.002,0.458-0.002,0.682c-0.188,0.017-0.356,0.018-0.52,0.054
		c-0.538,0.114-0.926,0.546-0.985,1.087c-0.025,0.247-0.041,0.495-0.043,0.739c-0.004,0.711-0.004,1.425,0,2.136
		c0.002,0.126-0.036,0.167-0.16,0.164c-0.23-0.012-0.457-0.005-0.688-0.005C415.174,561.166,415.174,559.557,415.174,557.934z"/>
</g>
<g>
	<g>
		<g>
			<path fill="none" stroke="#0A3656" stroke-width="5" stroke-miterlimit="10" d="M472.271,440.632
				c10.244,2.039,17.967,11.079,17.967,21.922v30.156"/>
		</g>
		<g>
			<path fill="none" stroke="#0A3656" stroke-width="5" stroke-miterlimit="10" d="M311.428,493.184v-30.63
				c0-11.491,8.674-20.958,19.83-22.21"/>
		</g>
		<g>
			<path fill="none" stroke="#0A3656" stroke-width="5" stroke-miterlimit="10" d="M457.963,466.063
				c27.178,13.771,45.048,37.093,45.048,63.545v63.861"/>
		</g>
		<g>
			<path fill="none" stroke="#0A3656" stroke-width="5" stroke-miterlimit="10" d="M298.654,593.469v-63.861
				c0-26.957,18.561-50.664,46.621-64.324"/>
		</g>
		<g>
			<path fill="none" stroke="#0A3656" stroke-width="5" stroke-miterlimit="10" d="M342.103,455.922L342.103,455.922
				c-5.97,0-10.808-4.838-10.808-10.807v-10.809c0-5.968,4.838-10.807,10.808-10.807l0,0"/>
		</g>
		<g>
			<path fill="none" stroke="#0A3656" stroke-width="5" stroke-miterlimit="10" d="M460.982,423.5L460.982,423.5
				c5.97,0,10.808,4.839,10.808,10.807v10.809c0,5.969-4.838,10.807-10.808,10.807l0,0"/>
		</g>
		<g>
			<path fill="none" stroke="#0A3656" stroke-width="5" stroke-miterlimit="10" d="M460.021,451.6
				c0,32.231-26.129,47.553-58.359,47.553s-58.361-15.321-58.361-47.553v-29.182c0-32.232,26.131-58.359,58.361-58.359
				s58.359,26.127,58.359,58.359V451.6z"/>
		</g>
		<g>
			<path fill="none" stroke="#0A3656" stroke-width="5" stroke-miterlimit="10" d="M336.972,592.76v-57.475
				c0,0,0-43.994-12.772-56.767"/>
		</g>
		<g>
			
				<line fill="none" stroke="#0A3656" stroke-width="5" stroke-miterlimit="10" x1="298.654" y1="567.925" x2="336.972" y2="567.925"/>
		</g>
		<g>
			
				<line fill="none" stroke="#0A3656" stroke-width="5" stroke-miterlimit="10" x1="298.654" y1="580.697" x2="336.972" y2="580.697"/>
		</g>
		<g>
			<path fill="none" stroke="#0A3656" stroke-width="5" stroke-miterlimit="10" d="M464.693,592.76v-57.475
				c0,0,0-43.994,12.772-56.767"/>
		</g>
		<g>
			
				<line fill="none" stroke="#0A3656" stroke-width="5" stroke-miterlimit="10" x1="503.011" y1="567.925" x2="464.693" y2="567.925"/>
		</g>
		<g>
			
				<line fill="none" stroke="#0A3656" stroke-width="5" stroke-miterlimit="10" x1="503.011" y1="580.697" x2="464.693" y2="580.697"/>
		</g>
		
			<line fill="none" stroke="#0A3656" stroke-width="5" stroke-miterlimit="10" x1="388.061" y1="364.988" x2="388.061" y2="401.886"/>
		
			<line fill="none" stroke="#0A3656" stroke-width="5" stroke-miterlimit="10" x1="413.605" y1="363.568" x2="413.605" y2="401.886"/>
		
			<line fill="none" stroke="#0A3656" stroke-width="5" stroke-miterlimit="10" x1="439.149" y1="554.442" x2="439.149" y2="491.291"/>
		
			<line fill="none" stroke="#0A3656" stroke-width="5" stroke-miterlimit="10" x1="439.149" y1="593.469" x2="439.149" y2="567.216"/>
		
			<line fill="none" stroke="#0A3656" stroke-width="5" stroke-miterlimit="10" x1="451.922" y1="554.798" x2="451.922" y2="478.519"/>
		
			<line fill="none" stroke="#0A3656" stroke-width="5" stroke-miterlimit="10" x1="451.922" y1="593.469" x2="451.922" y2="568.28"/>
		
			<line fill="none" stroke="#0A3656" stroke-width="5" stroke-miterlimit="10" x1="362.516" y1="554.798" x2="362.516" y2="489.872"/>
		
			<line fill="none" stroke="#0A3656" stroke-width="5" stroke-miterlimit="10" x1="362.516" y1="593.469" x2="362.516" y2="568.28"/>
		
			<line fill="none" stroke="#0A3656" stroke-width="5" stroke-miterlimit="10" x1="349.743" y1="554.442" x2="349.743" y2="477.101"/>
		
			<line fill="none" stroke="#0A3656" stroke-width="5" stroke-miterlimit="10" x1="349.743" y1="593.469" x2="349.743" y2="567.925"/>
		<path fill="none" stroke="#0A3656" stroke-width="5" stroke-miterlimit="10" d="M432.053,593.469v-57.475
			c0-3.527-2.858-6.387-6.386-6.387h-49.669c-3.527,0-6.387,2.859-6.387,6.387v57.475"/>
		
			<rect x="432.053" y="555.153" fill-rule="evenodd" clip-rule="evenodd" fill="none" stroke="#0A3656" stroke-width="5" stroke-miterlimit="10" width="25.546" height="12.771"/>
		
			<rect x="343.595" y="555.153" fill-rule="evenodd" clip-rule="evenodd" fill="none" stroke="#0A3656" stroke-width="5" stroke-miterlimit="10" width="25.544" height="12.771"/>
	</g>
</g>
<path fill="#F16523" stroke="#0A3656" stroke-width="3" stroke-miterlimit="10" d="M450.174,445.715
	c0,26.859-21.771,42.628-48.632,42.628c-26.859,0-48.633-15.769-48.633-42.628c0-26.858,21.773-48.634,48.633-48.634
	C428.402,397.081,450.174,418.856,450.174,445.715z"/>
<g>
	<path fill="#FFFFFF" d="M400.563,428.771c0,6.984-5.652,12.64-12.638,12.64c-6.971,0-12.639-5.655-12.639-12.64
		c0-6.977,5.668-12.64,12.639-12.64C394.911,416.132,400.563,421.795,400.563,428.771z"/>
	<path fill="#FFFFFF" d="M408.473,448.104c0,3.953-3.208,7.16-7.16,7.16c-3.957,0-7.149-3.207-7.149-7.16
		c0-3.955,3.192-7.148,7.149-7.148C405.265,440.955,408.473,444.148,408.473,448.104z"/>
</g>
</svg>
