<?xml version="1.0" encoding="utf-8"?>
<!-- Generator: Adobe Illustrator 16.0.0, SVG Export Plug-In . SVG Version: 6.00 Build 0)  -->
<!DOCTYPE svg PUBLIC "-//W3C//DTD SVG 1.1//EN" "http://www.w3.org/Graphics/SVG/1.1/DTD/svg11.dtd">
<svg version="1.1" id="Layer_1" xmlns="http://www.w3.org/2000/svg" xmlns:xlink="http://www.w3.org/1999/xlink" x="0px" y="0px"
	 width="800px" height="800px" viewBox="0 0 800 800" enable-background="new 0 0 800 800" xml:space="preserve">
<g>
	<path fill="#0A3656" d="M436.456,316.761c48.188,19.289,130.229,50.023,184.429,26.106
		c-19.103-104.849-110.891-184.339-221.252-184.339c-83.04,0-155.559,45.008-194.52,111.953
		C283.325,266.874,367.479,289.149,436.456,316.761z"/>
	<path fill="#045F9B" d="M226.665,469.781c26.929-13.062,59.744-20.165,80.232-24.405c45.989-9.52,96.067-8.52,142.423-4.043
		c45.954,4.437,90.071,11.093,137.232,8.627c11.319-0.593,21.062-2.831,29.826-6.307c5.313-19.166,8.164-39.355,8.164-60.213
		c0-13.854-1.26-27.412-3.658-40.573c-54.199,23.917-136.241-6.817-184.429-26.106c-68.977-27.611-153.131-49.887-231.343-46.279
		c-19.319,33.197-30.393,71.782-30.393,112.959c0,28.219,5.209,55.217,14.701,80.102c3.007-0.464,6.087-0.707,9.225-0.707
		C208.77,462.835,218.3,465.353,226.665,469.781z"/>
	<path fill="#FFFFFF" d="M226.665,469.781c-8.365-4.429-17.896-6.946-28.019-6.946c-3.138,0-6.218,0.243-9.225,0.707
		c3.073,8.057,6.589,15.896,10.529,23.479C207.407,480.337,216.63,474.648,226.665,469.781z"/>
</g>
<g>
	<path fill="#FFFFFF" d="M460.275,205.354c-9.227,0-16.699,19.935-16.699,44.527v-87.47C411,155,376.25,156.75,354.518,163v86.882
		c0-24.593-7.477-44.527-16.699-44.527s-16.699,19.935-16.699,44.527v200.382h33.398v22.265h89.059v-22.265h33.398V249.882
		C476.975,225.289,469.496,205.354,460.275,205.354z"/>
</g>
<g>
	<path fill="#B4DEF6" d="M586.553,449.96c-47.161,2.466-91.278-4.19-137.232-8.627c-46.355-4.477-96.434-5.477-142.423,4.043
		c-20.488,4.24-53.304,11.344-80.232,24.405c19.006,10.063,31.962,30.03,31.962,53.033c0,0.657-0.029,1.306-0.051,1.958
		c13.049,1.032,24.344,8.264,30.946,18.758c5.096-2.325,10.755-3.631,16.723-3.631c5.723,0,11.157,1.206,16.089,3.355v-90.922
		h155.334v88.838c2.009,1.217,3.905,2.602,5.664,4.143c5.756-3.606,12.482-5.801,19.702-6.099
		c6.709-12.977,20.242-21.853,35.857-21.853c3.444,0,6.787,0.434,9.979,1.246c2.16-31.161,28.106-55.773,59.816-55.773
		c0.47,0,0.935,0.025,1.402,0.035c2.37-6.277,4.479-12.686,6.289-19.217C607.614,447.129,597.872,449.367,586.553,449.96z"/>
</g>
<circle fill="#FFFFFF" cx="501.581" cy="215.647" r="14.296"/>
<circle fill="#F16824" cx="556.342" cy="282.17" r="9.815"/>
<circle fill="#B4DEF6" cx="336.054" cy="283.261" r="5.453"/>
<circle fill="#F16824" cx="269.53" cy="324.7" r="6.544"/>
<circle fill="#FFFFFF" stroke="#F16824" stroke-width="2.2129" stroke-miterlimit="10" cx="286.669" cy="226.333" r="8.36"/>
<circle fill="#FFFFFF" cx="285.889" cy="378.683" r="3.817"/>
<circle fill="#F16824" cx="578.698" cy="416.306" r="2.862"/>
<circle fill="#FFFFFF" cx="214.459" cy="437.026" r="3.817"/>
<circle fill="#FFFFFF" cx="530.168" cy="345.785" r="3.817"/>
<circle fill="#FFFFFF" cx="465.103" cy="292.528" r="2.861"/>
<circle fill="#B4DEF6" cx="470.189" cy="392.313" r="5.726"/>
<g>
	<path fill="#F16523" d="M444.243,416.867c0,0,33.397,0,33.397,33.396v0.001l55.66,44.527V383.469l-89.058-89.058V416.867z"/>
	<path fill="#F16523" d="M355.184,416.867c0,0-33.398,0-33.398,33.396v0.001l-55.658,44.527V383.469l89.057-89.058V416.867z"/>
	<g>
		<path fill="#B4DEF6" d="M327.354,215.249c-9.224,0-16.699,19.936-16.699,44.528v200.382h33.395V259.777
			C344.049,235.185,336.576,215.249,327.354,215.249z"/>
		<path fill="#B4DEF6" d="M449.808,215.249c-9.222,0-16.699,19.936-16.699,44.528v200.382h33.397V259.777
			C466.506,235.185,459.03,215.249,449.808,215.249z"/>
		<path fill="#B4DEF6" d="M387.962,215.249c-9.222,0-16.698,19.936-16.698,44.528v200.382h33.396V259.777
			C404.659,235.185,397.186,215.249,387.962,215.249z"/>
	</g>
	
		<line fill="#FFFFFF" stroke="#F16624" stroke-width="9.1717" stroke-linecap="round" stroke-linejoin="round" stroke-miterlimit="10" x1="355.184" y1="472.528" x2="355.184" y2="639.511"/>
	
		<line fill="#FFFFFF" stroke="#F16624" stroke-width="9.1717" stroke-linecap="round" stroke-linejoin="round" stroke-miterlimit="10" x1="321.785" y1="450.264" x2="321.785" y2="617.246"/>
	
		<line fill="none" stroke="#F16624" stroke-width="3.6687" stroke-linecap="round" stroke-linejoin="round" stroke-miterlimit="10" x1="366.314" y1="494.79" x2="366.314" y2="594.98"/>
	
		<line fill="none" stroke="#F16624" stroke-width="3.6687" stroke-linecap="round" stroke-linejoin="round" stroke-miterlimit="10" x1="377.447" y1="472.528" x2="377.447" y2="572.718"/>
	
		<line fill="none" stroke="#F16624" stroke-width="3.6687" stroke-linecap="round" stroke-linejoin="round" stroke-miterlimit="10" x1="332.918" y1="472.528" x2="332.918" y2="594.98"/>
	
		<line fill="none" stroke="#F16624" stroke-width="3.6687" stroke-linecap="round" stroke-linejoin="round" stroke-miterlimit="10" x1="344.049" y1="450.264" x2="344.049" y2="494.79"/>
	
		<line fill="none" stroke="#F16624" stroke-width="3.6687" stroke-linecap="round" stroke-linejoin="round" stroke-miterlimit="10" x1="388.579" y1="550.453" x2="388.579" y2="617.246"/>
	
		<line fill="none" stroke="#F16624" stroke-width="3.6687" stroke-linecap="round" stroke-linejoin="round" stroke-miterlimit="10" x1="388.579" y1="528.188" x2="388.579" y2="517.058"/>
	
		<line fill="#FFFFFF" stroke="#F16624" stroke-width="9.1717" stroke-linecap="round" stroke-linejoin="round" stroke-miterlimit="10" x1="444.243" y1="472.528" x2="444.243" y2="639.511"/>
	
		<line fill="#FFFFFF" stroke="#F16624" stroke-width="9.1717" stroke-linecap="round" stroke-linejoin="round" stroke-miterlimit="10" x1="477.641" y1="450.264" x2="477.641" y2="617.246"/>
	
		<line fill="none" stroke="#F16624" stroke-width="3.6687" stroke-linecap="round" stroke-linejoin="round" stroke-miterlimit="10" x1="433.108" y1="517.058" x2="433.108" y2="594.98"/>
	
		<line fill="none" stroke="#F16624" stroke-width="3.6687" stroke-linecap="round" stroke-linejoin="round" stroke-miterlimit="10" x1="410.845" y1="472.528" x2="410.845" y2="517.058"/>
	
		<line fill="none" stroke="#F16624" stroke-width="2.4738" stroke-linecap="round" stroke-linejoin="round" stroke-miterlimit="10" x1="466.506" y1="583.85" x2="466.506" y2="594.98"/>
	
		<line fill="none" stroke="#F16624" stroke-width="3.6687" stroke-linecap="round" stroke-linejoin="round" stroke-miterlimit="10" x1="466.506" y1="450.264" x2="466.506" y2="494.79"/>
	
		<line fill="none" stroke="#F16624" stroke-width="3.6687" stroke-linecap="round" stroke-linejoin="round" stroke-miterlimit="10" x1="410.845" y1="539.32" x2="410.845" y2="583.85"/>
	
		<line fill="none" stroke="#F16624" stroke-width="3.6687" stroke-linecap="round" stroke-linejoin="round" stroke-miterlimit="10" x1="421.977" y1="528.188" x2="421.977" y2="494.79"/>
	
		<line fill="none" stroke="#F16624" stroke-width="3.6687" stroke-linecap="round" stroke-linejoin="round" stroke-miterlimit="10" x1="454.135" y1="501.39" x2="454.135" y2="557.051"/>
	<g>
		<g>
			<path fill="#F16624" d="M399.092,202.603c-12.63,0-19.445,24.359-19.445,47.279v200.382c0,1.52,1.232,2.752,2.752,2.752h33.393
				c1.52,0,2.752-1.232,2.752-2.752V249.882C418.543,226.962,411.726,202.603,399.092,202.603z M413.039,447.512H385.15v-197.63
				c0-23.91,7.36-41.775,13.941-41.775c6.584,0,13.947,17.865,13.947,41.775V447.512z"/>
			<rect x="393.529" y="294.411" fill="#F16523" width="11.13" height="200.379"/>
			
				<line fill="none" stroke="#F16624" stroke-width="2.4738" stroke-linecap="round" stroke-linejoin="round" stroke-miterlimit="10" x1="444.243" y1="249.882" x2="479.289" y2="249.882"/>
			
				<line fill="none" stroke="#F16624" stroke-width="2.4738" stroke-linecap="round" stroke-linejoin="round" stroke-miterlimit="10" x1="382.398" y1="249.882" x2="415.791" y2="249.882"/>
			
				<line fill="none" stroke="#F16624" stroke-width="2.4738" stroke-linecap="round" stroke-linejoin="round" stroke-miterlimit="10" x1="321.785" y1="249.882" x2="355.184" y2="249.882"/>
			
				<line fill="none" stroke="#F16624" stroke-width="2.4738" stroke-linecap="round" stroke-linejoin="round" stroke-miterlimit="10" x1="444.24" y1="439.13" x2="479.289" y2="439.13"/>
			
				<line fill="none" stroke="#F16624" stroke-width="2.4738" stroke-linecap="round" stroke-linejoin="round" stroke-miterlimit="10" x1="321.785" y1="439.13" x2="355.184" y2="439.13"/>
			
				<line fill="none" stroke="#F16624" stroke-width="2.4738" stroke-linecap="round" stroke-linejoin="round" stroke-miterlimit="10" x1="355.184" y1="461.396" x2="444.243" y2="461.396"/>
		</g>
	</g>
	
		<line fill="#FFFFFF" stroke="#F16624" stroke-width="3.6687" stroke-linecap="round" stroke-linejoin="round" stroke-miterlimit="10" x1="273.058" y1="515.369" x2="273.058" y2="616.259"/>
	
		<line fill="#FFFFFF" stroke="#F16624" stroke-width="3.6687" stroke-linecap="round" stroke-linejoin="round" stroke-miterlimit="10" x1="289.566" y1="553.892" x2="289.566" y2="605.253"/>
	
		<line fill="#FFFFFF" stroke="#F16624" stroke-width="3.6687" stroke-linecap="round" stroke-linejoin="round" stroke-miterlimit="10" x1="504.186" y1="489.688" x2="504.186" y2="555.726"/>
	
		<line fill="#FFFFFF" stroke="#F16624" stroke-width="3.6687" stroke-linecap="round" stroke-linejoin="round" stroke-miterlimit="10" x1="529.866" y1="515.369" x2="529.866" y2="616.259"/>
</g>
<g>
	<path fill="none" d="M338.485,209.94c-4.11,0-12.113,14.098-12.113,39.941v195.796h24.226V249.882
		C350.598,224.038,342.597,209.94,338.485,209.94z"/>
	<path fill="none" d="M359.77,162.258v87.624v200.382v17.679h79.888v-17.679V249.882v-88.05
		C409.381,156.828,380.972,158.851,359.77,162.258z"/>
	<path fill="none" d="M460.942,209.94c-4.111,0-12.113,14.098-12.113,39.941v195.796h24.226V249.882
		C473.055,224.038,465.053,209.94,460.942,209.94z"/>
	<path fill="#F16624" d="M460.942,200.769c-4.851,0-8.896,2.98-12.113,7.888v-45.105c-3.073-0.65-6.131-1.216-9.172-1.719v88.05
		v200.382v17.679H359.77v-17.679V249.882v-87.624c-3.23,0.52-6.295,1.07-9.172,1.634v44.764c-3.217-4.906-7.262-7.887-12.112-7.887
		c-13.974,0-21.286,24.707-21.286,49.113v200.382c0,2.532,2.053,4.586,4.586,4.586h28.813v17.679c0,2.532,2.053,4.586,4.586,4.586
		h89.06c2.533,0,4.586-2.054,4.586-4.586V454.85h28.812c2.532,0,4.586-2.054,4.586-4.586V249.882
		C482.227,225.476,474.916,200.769,460.942,200.769z M350.598,445.678h-24.226V249.882c0-25.844,8.003-39.941,12.113-39.941
		c4.111,0,12.112,14.098,12.112,39.941V445.678z M473.055,445.678h-24.226V249.882c0-25.844,8.002-39.941,12.113-39.941
		c4.11,0,12.112,14.098,12.112,39.941V445.678z"/>
</g>
</svg>
