<?xml version="1.0" encoding="utf-8"?>
<!-- Generator: Adobe Illustrator 16.0.0, SVG Export Plug-In . SVG Version: 6.00 Build 0)  -->
<!DOCTYPE svg PUBLIC "-//W3C//DTD SVG 1.1//EN" "http://www.w3.org/Graphics/SVG/1.1/DTD/svg11.dtd">
<svg version="1.1" id="Layer_1" xmlns="http://www.w3.org/2000/svg" xmlns:xlink="http://www.w3.org/1999/xlink" x="0px" y="0px"
	 width="800px" height="800px" viewBox="0 0 800 800" enable-background="new 0 0 800 800" xml:space="preserve">
<path fill="#0A3656" d="M392.515,625.955c0,0-50.183,7.998-131.634-80.726c0,0-104.727-106.906-104.727-205.085
	c0,0-7.998-66.908,81.454-127.271c0,0,50.907-46.544,151.996-46.544c0,0,105.451,0.728,205.085,66.18
	c0,0,62.545,34.908,62.545,85.816c0,0,7.272,24-42.182,83.635c0,0-97.451,109.813-141.085,171.631
	C473.968,573.592,436.148,625.955,392.515,625.955z"/>
<path fill="#FFFFFF" d="M396.669,282.666c0,0-50.001,35.333-43.334,156c0,0,137.334,20,164.667-30
	C518.002,408.666,520.669,289.332,396.669,282.666z"/>
<path fill="#9D9E9F" d="M493.219,313.404c95.877,12.784,163.605,44.036,163.607,80.559c0,47.898-116.494,86.731-260.197,86.731
	c-143.701,0-260.196-38.833-260.196-86.731c0-36.678,66.571-67.461,163.095-80.143c-11.101,12.03-19.248,33.431-19.248,33.431
	c-40.195,11.137-65.787,27.929-65.787,46.712c0,33.529,81.545,60.712,182.137,60.712c100.593,0,182.138-27.183,182.138-60.712
	c0-18.785-25.599-35.579-65.802-46.715C512.965,347.248,507.557,329.067,493.219,313.404z"/>
<path fill="#B4DEF6" d="M493.219,313.404c95.877,12.784,163.605,44.036,163.607,80.559c0,47.898-116.494,86.731-260.197,86.731
	c-143.701,0-260.196-38.833-260.196-86.731c0-36.678,66.571-67.461,163.095-80.143c-11.101,12.03-19.248,33.431-19.248,33.431
	c-40.195,11.137-65.787,27.929-65.787,46.712c0,33.529,81.545,60.712,182.137,60.712c100.593,0,182.138-27.183,182.138-60.712
	c0-18.785-25.599-35.579-65.802-46.715C512.965,347.248,507.557,329.067,493.219,313.404z"/>
<g>
	<path fill="#FBD5C9" d="M527.607,392.242c0,0.008,0,0.015,0,0.022c0-0.008,0.002-0.015,0.002-0.022s-0.002-0.015-0.002-0.022
		C527.607,392.228,527.607,392.234,527.607,392.242z"/>
	<path fill="#FBD5C9" d="M523.74,391.266c-10.023-123.352-125.088-122.774-125.088-122.774c-1.477,0.484-2.9,1.098-4.271,1.829
		c-66.992,2.262-120.607,57.271-120.607,124.813c0,68.977,55.916,124.894,124.895,124.894c68.969,0,124.881-55.904,124.893-124.871
		 M396.533,295.282c99.066,1.156,100.994,98.104,100.994,98.104c-18.504,39.125-132.41,28.938-132.41,28.938
		C366.08,298.423,396.533,295.282,396.533,295.282z"/>
</g>
<path fill="none" stroke="#F16624" stroke-width="2.8911" stroke-linecap="round" stroke-linejoin="round" stroke-miterlimit="10" d="
	M498.218,470.967c-22.91,27.165-57.198,44.421-95.518,44.421c-37.896,0-71.851-16.878-94.755-43.526"/>
<path fill="none" stroke="#F16624" stroke-width="2.8911" stroke-linecap="round" stroke-linejoin="round" stroke-miterlimit="10" d="
	M286.83,437.194c-5.82-14.427-9.023-30.189-9.023-46.7c0-68.977,55.917-124.894,124.894-124.894s124.895,55.917,124.895,124.894
	c0,16.51-3.204,32.271-9.022,46.697"/>
<path fill="none" stroke="#F16624" stroke-width="2.8911" stroke-linecap="round" stroke-linejoin="round" stroke-miterlimit="10" d="
	M527.595,390.494c0,22.991-55.916,41.631-124.895,41.631c-14.595,0-28.604-0.834-41.624-2.368"/>
<path fill="none" stroke="#F16624" stroke-width="2.8911" stroke-linecap="round" stroke-linejoin="round" stroke-miterlimit="10" d="
	M501.768,388.182c0,18.309-44.525,33.151-99.451,33.151c-11.622,0-21.621-0.087-31.988-1.309"/>
<path fill="none" stroke="#F16624" stroke-width="2.8911" stroke-linecap="round" stroke-linejoin="round" stroke-miterlimit="10" d="
	M402.7,348.863c22.993,0,41.632,18.638,41.632,41.631"/>
<path fill="none" stroke="#F16624" stroke-width="2.8911" stroke-linecap="round" stroke-linejoin="round" stroke-miterlimit="10" d="
	M402.7,291.62c54.606,0,98.874,44.268,98.874,98.874"/>
<path fill="none" stroke="#F16624" stroke-width="2.8911" stroke-linecap="round" stroke-linejoin="round" stroke-miterlimit="10" d="
	M402.7,348.863v-83.263c0,0-41.632,0-41.632,161.321v2.891"/>
<line fill="none" stroke="#F16624" stroke-width="2.8911" stroke-linecap="round" stroke-linejoin="round" stroke-miterlimit="10" x1="361.068" y1="429.234" x2="389.092" y2="403.159"/>
<path fill="none" stroke="#F16624" stroke-width="2.3194" stroke-linecap="round" stroke-linejoin="round" stroke-miterlimit="10" d="
	M403.086,292.005c0,0-33.922,0-33.922,127.429v2.284"/>
<path fill="none" stroke="#F16624" stroke-width="2.8911" stroke-linecap="round" stroke-linejoin="round" stroke-miterlimit="10" d="
	M341.41,429.234"/>
<path fill="none" stroke="#F16624" stroke-width="2.8911" stroke-linecap="round" stroke-linejoin="round" stroke-miterlimit="10" d="
	M402.627,348.846c0,0-13.805,0-13.805,53.49v0.959"/>
<path fill="none" stroke="#F16624" stroke-width="2.8911" stroke-linecap="round" stroke-linejoin="round" stroke-miterlimit="10" d="
	M388.822,403.104"/>
<line fill="none" stroke="#F16624" stroke-width="2.8911" stroke-linecap="round" stroke-linejoin="round" stroke-miterlimit="10" x1="444.332" y1="390.494" x2="527.595" y2="390.494"/>
<path fill="none" stroke="#F16624" stroke-width="2.8911" stroke-linecap="round" stroke-linejoin="round" stroke-miterlimit="10" d="
	M444.332,390.494c0,7.664-18.639,13.877-41.632,13.877c-4.884,0-9.571-0.28-13.925-0.795"/>
<path fill="none" stroke="#F16624" stroke-width="2.8911" stroke-linecap="round" stroke-linejoin="round" stroke-miterlimit="10" d="
	M519.036,343.778c40.202,11.137,65.801,27.931,65.801,46.716c0,33.529-81.545,60.713-182.137,60.713
	c-100.591,0-182.137-27.184-182.137-60.713c0-18.783,25.591-35.575,65.786-46.712"/>
<path fill="#F16624" d="M403.278,349.152c0,0-14.456,0.867-14.456,54.93c0,0,52.33,2.313,54.643-13.01
	C443.465,391.072,446.355,352.332,403.278,349.152z"/>
<circle fill="#B4DEF6" stroke="#F16523" stroke-width="5" stroke-miterlimit="10" cx="530.771" cy="266" r="21.094"/>
<circle fill="none" stroke="#F16523" stroke-width="3" stroke-miterlimit="10" cx="490" cy="519" r="9"/>
<circle fill="none" stroke="#F16523" stroke-width="5" stroke-miterlimit="10" cx="284" cy="515" r="13.5"/>
<circle fill="#B4DEF6" cx="293.865" cy="226.116" r="3.375"/>
<circle fill="#FFFFFF" cx="402" cy="238" r="6.75"/>
<circle fill="#B4DEF6" cx="466.365" cy="202.616" r="1.688"/>
<circle fill="#B4DEF6" cx="601.365" cy="298.616" r="1.688"/>
<circle fill="#B4DEF6" cx="349" cy="567" r="6.188"/>
<circle fill="#B4DEF6" cx="196.865" cy="361.116" r="8.438"/>
<circle fill="#FFFFFF" cx="438" cy="533" r="2.25"/>
<circle fill="#FFFFFF" cx="225.188" cy="285" r="2.813"/>
<text transform="matrix(1 0 0 1 411 385)" fill="#FFFFFF" font-family="'MyriadPro-Bold'" font-size="18">A</text>
<text transform="matrix(1 0 0 1 465 385)" fill="#F16624" font-family="'MyriadPro-Bold'" font-size="18">B</text>
<text transform="matrix(1 0 0 1 507 385)" fill="#F16624" font-family="'MyriadPro-Bold'" font-size="18">C</text>
<g>
	<text transform="matrix(1 0 0 1 611 385)" fill="#0A3656" font-family="'MyriadPro-Bold'" font-size="18">D</text>
</g>
<g>
	<g>
		
			<path fill="none" stroke="#F16624" stroke-width="0.9964" stroke-linecap="round" stroke-linejoin="round" stroke-miterlimit="10" d="
			M289.319,332.739c9.711,5.664,19.771,12.587,29.379,17.983c14.526,8.157,29.042,14.095,43.682,18.652"/>
	</g>
	<g>
		
			<path fill="none" stroke="#F16624" stroke-width="0.9964" stroke-linecap="round" stroke-linejoin="round" stroke-miterlimit="10" d="
			M364.72,352.57c-21.266-9.528-41.798-24.139-62.011-38.522"/>
	</g>
	<g>
		
			<path fill="none" stroke="#F16624" stroke-width="0.9964" stroke-linecap="round" stroke-linejoin="round" stroke-miterlimit="10" d="
			M281.592,373.777c25.01,11.128,52.42,20.288,79.794,27.016"/>
	</g>
	<g>
		
			<path fill="none" stroke="#F16624" stroke-width="0.9964" stroke-linecap="round" stroke-linejoin="round" stroke-miterlimit="10" d="
			M502.113,420.949c6.319-1.365,12.746-3.236,19.17-5.772"/>
		
			<path fill="none" stroke="#F16624" stroke-width="0.9964" stroke-linecap="round" stroke-linejoin="round" stroke-miterlimit="10" d="
			M293.629,433.365c2.484,0.688,4.98,1.301,7.51,1.811c28.743,5.52,56.715-1.671,88.857-4.222"/>
	</g>
	<g>
		
			<path fill="none" stroke="#F16624" stroke-width="0.9964" stroke-linecap="round" stroke-linejoin="round" stroke-miterlimit="10" d="
			M311.688,306.924c6.712,4.958,13.523,9.556,20.375,13.184"/>
	</g>
	<g>
		
			<path fill="none" stroke="#F16624" stroke-width="0.9964" stroke-linecap="round" stroke-linejoin="round" stroke-miterlimit="10" d="
			M371.027,313.955c-7.502,0.494-14.945,0.547-22.471-0.383c-11.164-1.378-22.574-3.145-33.564-8.701"/>
	</g>
	<g>
		
			<path fill="none" stroke="#F16624" stroke-width="0.9964" stroke-linecap="round" stroke-linejoin="round" stroke-miterlimit="10" d="
			M368.037,332.491c-12.078-2.156-24.076-6.091-35.975-12.384c-6.852-3.628-13.66-8.228-20.375-13.184"/>
	</g>
	<g>
		
			<path fill="none" stroke="#F16624" stroke-width="0.9964" stroke-linecap="round" stroke-linejoin="round" stroke-miterlimit="10" d="
			M516.667,436.333c-1.816,0.538-5.907,0.853-7.708,1.309c-31.563,5.9-42.348-6.14-92.91,2.229
			c-8.668,1.64-22.697,6.431-38.446,10.895 M321.26,484.669c5.395,0.905,10.935,2.058,16.379,3.548
			c17.699,4.975,38.354,10.104,56.012,15.193c15.613,4.575,30.786,7.361,45.852,7.525 M484.611,471.995
			c-35.802,40.546-76.76,19.776-76.676,19.421c-10.113-4.935-23.676-10.412-35.322-14.947 M418.741,451.239
			c19.161-6.376,34.285-6.221,48.881-3.934"/>
	</g>
	<g>
		
			<path fill="none" stroke="#F16624" stroke-width="0.9964" stroke-linecap="round" stroke-linejoin="round" stroke-miterlimit="10" d="
			M381.513,431.732c-28.639,2.951-54.19,8.471-80.374,3.443c-2.527-0.51-14.653-3.488-17.139-4.176"/>
		
			<path fill="none" stroke="#F16624" stroke-width="0.9964" stroke-linecap="round" stroke-linejoin="round" stroke-miterlimit="10" d="
			M525,414c-6.422,2.537-16.578,5.585-22.887,6.949c-10.706,2.334-21.756,3.98-33.045,5.197"/>
	</g>
	<g>
		
			<path fill="none" stroke="#F16624" stroke-width="0.9964" stroke-linecap="round" stroke-linejoin="round" stroke-miterlimit="10" d="
			M468.543,474.519c-20.508,17.891-41.825,8.025-41.813,7.929c-3.543-1.646-7.874-3.142-12.26-4.447"/>
	</g>
</g>
<g>
	<path opacity="0.5" fill="#9D9E9F" d="M396.436,454.675c-43.172,0-82.828-5.01-114.042-13.377
		c4.878,12.257,11.642,23.559,19.933,33.548c29.186,3.776,60.922,5.849,94.109,5.849c34.931,0,68.252-2.295,98.685-6.456
		c8.346-10.183,15.108-21.708,19.923-34.203C483.176,449.159,441.74,454.675,396.436,454.675z"/>
</g>
<path fill="none" stroke="#F16624" stroke-width="2.8911" stroke-linecap="round" stroke-linejoin="round" stroke-miterlimit="10" d="
	M499.289,309.936c95.878,12.785,163.607,44.036,163.607,80.559c0,47.898-116.492,86.732-260.196,86.732
	c-143.702,0-260.196-38.834-260.196-86.732c0-36.678,68.305-68.039,164.83-80.721"/>
<path fill="none" stroke="#0A3656" stroke-width="1.0127" stroke-linecap="round" stroke-linejoin="round" stroke-miterlimit="10" d="
	M502.689,328.104c48.5,8.213,86.479,22.09,105.633,38.932"/>
<path fill="none" stroke="#0A3656" stroke-width="1.0127" stroke-linecap="round" stroke-linejoin="round" stroke-miterlimit="10" d="
	M622,392c0,39.763-99.168,72-221.5,72C278.17,464,179,431.763,179,392c0-25.684,41.378-48.229,103.646-60.973"/>
</svg>
