<?xml version="1.0" encoding="utf-8"?>
<!-- Generator: Adobe Illustrator 16.0.0, SVG Export Plug-In . SVG Version: 6.00 Build 0)  -->
<!DOCTYPE svg PUBLIC "-//W3C//DTD SVG 1.1//EN" "http://www.w3.org/Graphics/SVG/1.1/DTD/svg11.dtd">
<svg version="1.1" id="Layer_1" xmlns="http://www.w3.org/2000/svg" xmlns:xlink="http://www.w3.org/1999/xlink" x="0px" y="0px"
	 width="800px" height="800px" viewBox="0 0 800 800" enable-background="new 0 0 800 800" xml:space="preserve">
<g>
	<path fill="#B4DEF6" d="M531.333,573.667c0-2.192,1.089-4.126,2.751-5.304h-82.812c-7.833,0-14.182-6.349-14.182-14.182
		c0-7.832,6.349-14.182,14.182-14.182h-85.091C358.35,540,352,533.65,352,525.818c0-7.833,6.35-14.182,14.182-14.182h198.546
		c7.833,0,14.182,6.349,14.182,14.182c0,7.832-6.349,14.182-14.182,14.182H594.4V349.2c0-103.389-83.813-187.2-187.201-187.2
		C303.813,162,220,245.812,220,349.2v176.55h43.125c3.659,0,6.625,2.966,6.625,6.625S266.784,539,263.125,539H220v91h20.02
		c-0.005-0.125-0.02-0.248-0.02-0.375c0-5.73,4.645-10.375,10.375-10.375h37.229c-3.598-1.629-6.104-5.242-6.104-9.447
		c0-5.73,4.645-10.375,10.375-10.375h83c5.73,0,10.375,4.645,10.375,10.375c0,4.205-2.506,7.818-6.104,9.447h16.479
		c5.73,0,10.375,4.645,10.375,10.375c0,0.127-0.015,0.25-0.02,0.375H594.4v-49.833h-56.567
		C534.243,580.167,531.333,577.257,531.333,573.667z M348.375,589.25h-92.75c-3.659,0-6.625-2.966-6.625-6.625
		s2.966-6.625,6.625-6.625h23.012c-1.881-1.169-3.137-3.248-3.137-5.625c0-3.659,2.966-6.625,6.625-6.625h53
		c3.659,0,6.625,2.966,6.625,6.625c0,2.377-1.256,4.456-3.137,5.625h9.762c3.659,0,6.625,2.966,6.625,6.625
		S352.034,589.25,348.375,589.25z M589,601c0,4.971-4.029,9-9,9h-60.085c0.051,0.327,0.085,0.659,0.085,1c0,3.59-2.91,6.5-6.5,6.5
		h-91c-3.59,0-6.5-2.91-6.5-6.5s2.91-6.5,6.5-6.5h23.206c-0.454-1.076-0.706-2.259-0.706-3.5c0-4.971,4.029-9,9-9h126
		C584.971,592,589,596.029,589,601z"/>
	<path fill="#FFFFFF" d="M534.084,568.363H594.4v-1.196h-56.567C536.436,567.167,535.144,567.612,534.084,568.363z"/>
	<path fill="#FFFFFF" d="M335.125,577c1.281,0,2.475-0.37,3.488-1h-59.977c1.014,0.63,2.207,1,3.488,1H335.125z"/>
	<path fill="#FFFFFF" d="M250.375,640h145.25c5.604,0,10.157-4.445,10.355-10H240.02C240.218,635.555,244.771,640,250.375,640z"/>
	<path fill="#FFFFFF" d="M374.875,620.178c1.524,0,2.968-0.337,4.271-0.928h-91.543c1.304,0.591,2.747,0.928,4.271,0.928H374.875z"
		/>
</g>
<path fill="#0A3656" d="M594.4,349.2c0-103.389-83.813-187.2-187.201-187.2C303.813,162,220,245.812,220,349.2V486h374.4V349.2z"/>
<g>
	<polygon fill="#FFFFFF" points="603,279 603,270 582,270 582,243 577.5,243 573,243 573,270 551,270 551,279 564.703,279 
		564.703,297 551,297 551,306 564.703,306 568,306 564,486 591,486 586,306 590.297,306 603,306 603,297 590.297,297 590.297,279 	
		"/>
	<circle fill="#FFFFFF" cx="577.5" cy="229.5" r="13.5"/>
</g>
<g>
	<g>
		<polygon fill="#B4DEF6" points="610.667,279 610.667,270 589.667,270 589.667,243 585.167,243 580.667,243 580.667,270 
			558.667,270 558.667,279 572.37,279 572.37,297 558.667,297 558.667,306 572.37,306 575.667,306 571.667,486 598.667,486 
			593.667,306 597.964,306 610.667,306 610.667,297 597.964,297 597.964,279 		"/>
		<circle fill="#B4DEF6" cx="585.167" cy="229.5" r="13.5"/>
	</g>
</g>
<g>
	
		<polygon fill="none" stroke="#F16624" stroke-width="3" stroke-linecap="round" stroke-linejoin="round" stroke-miterlimit="10" points="
		591,486 586,306 568,306 564,486 	"/>
	
		<rect x="573" y="243" fill="none" stroke="#F16624" stroke-width="3" stroke-linecap="round" stroke-linejoin="round" stroke-miterlimit="10" width="9" height="26.5"/>
	
		<rect x="564.703" y="279" fill="none" stroke="#F16624" stroke-width="3" stroke-linecap="round" stroke-linejoin="round" stroke-miterlimit="10" width="25.594" height="18"/>
	
		<rect x="551" y="270" fill="none" stroke="#F16624" stroke-width="3" stroke-linecap="round" stroke-linejoin="round" stroke-miterlimit="10" width="52" height="9"/>
	
		<rect x="551" y="297" fill="none" stroke="#F16624" stroke-width="3" stroke-linecap="round" stroke-linejoin="round" stroke-miterlimit="10" width="52" height="9"/>
	
		<circle fill="none" stroke="#F16624" stroke-width="3" stroke-linecap="round" stroke-linejoin="round" stroke-miterlimit="10" cx="577.5" cy="229.5" r="13.5"/>
</g>
<path fill="#FBD5C9" d="M247,432c0,0,36-63,144-27c0,0,90,27,135-18v99H256L247,432z"/>
<circle fill="#FFFFFF" cx="404.5" cy="301.5" r="76.5"/>
<g>
	<path fill="#B4DEF6" d="M355,301.5c0-37.641,27.192-68.909,63-75.288c-4.385-0.781-8.891-1.212-13.5-1.212
		c-42.25,0-76.5,34.25-76.5,76.5s34.25,76.5,76.5,76.5c4.609,0,9.115-0.431,13.5-1.212C382.192,370.409,355,339.141,355,301.5z"/>
</g>
<rect x="283" y="297" fill="#F16523" width="9" height="171"/>
<path fill="#045F9B" d="M427,279h36C463,279,436,261,427,279z"/>
<path fill="#B4DEF6" d="M328,348h-27C301,348,321.25,334.5,328,348z"/>
<circle fill="#FFFFFF" cx="394.5" cy="184.5" r="4.5"/>
<circle fill="#FFFFFF" cx="483.667" cy="380.334" r="1.687"/>
<circle fill="#045F9B" cx="474.5" cy="204.5" r="2.813"/>
<circle fill="#F16523" cx="503.5" cy="247.5" r="12.094"/>
<circle fill="#F16523" cx="388.334" cy="389.334" r="3.094"/>
<circle fill="#FFFFFF" cx="295.094" cy="248.906" r="3.094"/>
<circle fill="#FFFFFF" cx="320.334" cy="369.667" r="3.094"/>
<circle fill="#B4DEF6" cx="332.902" cy="214.061" r="10.936"/>
<path fill="#F16523" d="M339.657,205.459c0.144,0.112,0.284,0.229,0.423,0.349c3.742-0.465,6.422-0.025,6.942,1.386
	c0.462,1.253-0.866,3.024-3.37,4.857c-2.354,1.722-5.746,3.496-9.67,4.942c-3.922,1.444-7.655,2.296-10.564,2.512
	c-3.094,0.23-5.254-0.257-5.716-1.51c-0.521-1.411,1.235-3.483,4.385-5.559c0.026-0.181,0.06-0.361,0.095-0.539
	c-7.465,3.773-12.158,7.854-11.27,10.265s7.107,2.472,15.236,0.5c2.793-0.677,5.81-1.594,8.914-2.737
	c3.105-1.145,5.996-2.404,8.561-3.701c7.465-3.773,12.158-7.854,11.27-10.264C354.004,203.548,347.787,203.487,339.657,205.459z"/>
<polygon fill="#FFFFFF" points="337,452 283,452 283,324 238,367 238,324 193,367 193,493 238,493 283,493 283,488 337,488 "/>
<polyline fill="#FFFFFF" stroke="#F16624" stroke-width="3" stroke-linecap="round" stroke-linejoin="round" stroke-miterlimit="10" points="
	283,423 265,423 265,450 "/>
<rect x="337" y="432" fill="#F16523" width="9" height="54"/>
<rect x="400" y="432" fill="#F16523" width="9" height="54"/>
<rect x="472" y="432" fill="#F16523" width="9" height="54"/>
<line fill="none" stroke="#F16523" stroke-miterlimit="10" x1="292" y1="437" x2="517" y2="437"/>
<line fill="none" stroke="#F16523" stroke-miterlimit="10" x1="292" y1="446" x2="517" y2="446"/>
<rect x="535" y="380" fill="#FFFFFF" width="81" height="108"/>
<rect x="535" y="380" fill="#B4DEF6" width="81" height="108"/>
<rect x="526" y="380" fill="none" stroke="#F16624" stroke-width="3" stroke-linecap="round" stroke-linejoin="round" stroke-miterlimit="10" width="81" height="108"/>
<path fill="#FFFFFF" d="M508,488V369v-97c0,0,54,36,54,144v72H508z"/>
<ellipse fill="#FFFFFF" cx="287.5" cy="297" rx="49.5" ry="9"/>
<polygon fill="#0A3656" points="148,495 400,531 652,495 "/>
<rect x="382" y="513" fill="#0A3656" width="36" height="117"/>
<polygon fill="#B4DEF6" points="229,486 229,324 184,369 184,486 "/>
<polygon fill="none" stroke="#F16624" stroke-width="3" stroke-linecap="round" stroke-linejoin="round" stroke-miterlimit="10" points="
	238,324 193,367 193,493 238,493 "/>
<line fill="none" stroke="#F16624" stroke-width="3" stroke-linecap="round" stroke-linejoin="round" stroke-miterlimit="10" x1="202" y1="396" x2="238" y2="396"/>
<line fill="none" stroke="#F16624" stroke-width="3" stroke-linecap="round" stroke-linejoin="round" stroke-miterlimit="10" x1="202" y1="405" x2="238" y2="405"/>
<line fill="none" stroke="#F16624" stroke-width="3" stroke-linecap="round" stroke-linejoin="round" stroke-miterlimit="10" x1="202" y1="378" x2="238" y2="378"/>
<line fill="none" stroke="#F16624" stroke-width="3" stroke-linecap="round" stroke-linejoin="round" stroke-miterlimit="10" x1="202" y1="387" x2="238" y2="387"/>
<g>
	<polygon fill="#B4DEF6" points="274,324 238,360 238,486 274,486 	"/>
</g>
<polygon fill="none" stroke="#F16624" stroke-width="3" stroke-linecap="round" stroke-linejoin="round" stroke-miterlimit="10" points="
	283,324 238,367 238,493 283,493 "/>
<polyline fill="none" stroke="#F16624" stroke-width="3" stroke-linecap="round" stroke-linejoin="round" stroke-miterlimit="10" points="
	283,423 265,423 265,450 "/>
<circle fill="#FFFFFF" stroke="#F16624" stroke-width="3" stroke-linecap="round" stroke-linejoin="round" stroke-miterlimit="10" cx="274" cy="369" r="9"/>
<ellipse fill="#B4DEF6" cx="278.5" cy="297" rx="49.5" ry="9"/>
<ellipse fill="none" stroke="#F16624" stroke-width="3" stroke-linecap="round" stroke-linejoin="round" stroke-miterlimit="10" cx="287.5" cy="297" rx="49.5" ry="9"/>
<path fill="#B4DEF6" d="M517,488V369v-97c0,0,54,36,54,144v72H517z"/>
<path fill="none" stroke="#F16624" stroke-width="3" stroke-linecap="round" stroke-linejoin="round" stroke-miterlimit="10" d="
	M508,488V369v-97c0,0,54,36,54,144v72H508z"/>
<g>
	
		<line fill="#FFFFFF" stroke="#F16624" stroke-width="3" stroke-linecap="round" stroke-linejoin="round" stroke-miterlimit="10" x1="547" y1="330" x2="508" y2="369"/>
	<g>
		
			<line fill="#FFFFFF" stroke="#F16624" stroke-width="3" stroke-linecap="round" stroke-linejoin="round" stroke-miterlimit="10" x1="508" y1="396" x2="553" y2="396"/>
		
			<line fill="#FFFFFF" stroke="#F16624" stroke-width="3" stroke-linecap="round" stroke-linejoin="round" stroke-miterlimit="10" x1="508" y1="387" x2="553" y2="387"/>
		
			<line fill="#FFFFFF" stroke="#F16624" stroke-width="3" stroke-linecap="round" stroke-linejoin="round" stroke-miterlimit="10" x1="508" y1="378" x2="553" y2="378"/>
	</g>
	<g>
		
			<polyline fill="#FFFFFF" stroke="#F16624" stroke-width="3" stroke-linecap="round" stroke-linejoin="round" stroke-miterlimit="10" points="
			562,450 553,450 508,450 		"/>
		
			<line fill="#FFFFFF" stroke="#F16624" stroke-width="3" stroke-linecap="round" stroke-linejoin="round" stroke-miterlimit="10" x1="508" y1="441" x2="553" y2="441"/>
		
			<line fill="#FFFFFF" stroke="#F16624" stroke-width="3" stroke-linecap="round" stroke-linejoin="round" stroke-miterlimit="10" x1="508" y1="432" x2="553" y2="432"/>
	</g>
</g>
<polygon fill="#FFFFFF" points="535,488 535,407 589,488 "/>
<polygon fill="#B4DEF6" points="544,488 544,407 598,488 "/>
<polygon fill="none" stroke="#F16624" stroke-width="3" stroke-linecap="round" stroke-linejoin="round" stroke-miterlimit="10" points="
	535,488 535,407 589,488 "/>
<g>
	<rect x="301" y="416.77" fill="#045F9B" width="24" height="6.23"/>
	<rect x="292" y="416.77" fill="#045F9B" width="7.5" height="6.23"/>
	<rect x="326.334" y="416.77" fill="#045F9B" width="24" height="6.23"/>
	<rect x="351.834" y="416.77" fill="#045F9B" width="24" height="6.23"/>
	<polygon fill="#045F9B" points="399.539,416.77 377.5,416.77 377.5,423 412,423 	"/>
</g>
<g>
	<g>
		<rect x="301" y="419.77" fill="#0A3656" width="24" height="6.23"/>
		<rect x="292" y="419.77" fill="#0A3656" width="7.5" height="6.23"/>
		<rect x="326.334" y="419.77" fill="#0A3656" width="24" height="6.23"/>
		<rect x="351.834" y="419.77" fill="#0A3656" width="24" height="6.23"/>
		<polygon fill="#0A3656" points="399.539,419.77 377.5,419.77 377.5,426 412,426 		"/>
	</g>
</g>
<rect x="292" y="423" fill="#F16523" width="216" height="9"/>
<rect x="228" y="452" fill="#B4DEF6" width="100" height="34"/>
<rect x="238" y="452" fill="none" stroke="#F16624" stroke-width="3" stroke-linecap="round" stroke-linejoin="round" stroke-miterlimit="10" width="99" height="36"/>
<rect x="148" y="486" fill="#045F9B" width="504" height="9"/>
<polyline fill="none" stroke="#F16624" stroke-width="3" stroke-linecap="round" stroke-linejoin="round" stroke-miterlimit="10" points="
	574,466 565,466 547,439 556,439 "/>
<rect x="166" y="459" fill="#045F9B" width="468" height="9"/>
<line fill="none" stroke="#F16624" stroke-width="3" stroke-linecap="round" stroke-linejoin="round" stroke-miterlimit="10" x1="287.334" y1="297" x2="238" y2="297"/>
<line fill="none" stroke="#F16624" stroke-width="3" stroke-linecap="round" stroke-linejoin="round" stroke-miterlimit="10" x1="287.5" y1="288" x2="287.5" y2="307.001"/>
<line fill="none" stroke="#F16624" stroke-width="3" stroke-linecap="round" stroke-linejoin="round" stroke-miterlimit="10" x1="508.5" y1="300.5" x2="533.5" y2="300.5"/>
<line fill="none" stroke="#F16624" stroke-width="3" stroke-linecap="round" stroke-linejoin="round" stroke-miterlimit="10" x1="497" y1="425" x2="497" y2="363.5"/>
<line fill="none" stroke="#F16624" stroke-width="3" stroke-linecap="round" stroke-linejoin="round" stroke-miterlimit="10" x1="488.5" y1="425.5" x2="488.5" y2="398"/>
<line fill="none" stroke="#F16624" stroke-width="3" stroke-linecap="round" stroke-linejoin="round" stroke-miterlimit="10" x1="259" y1="346.5" x2="259" y2="317"/>
</svg>
